<svg xmlns="http://www.w3.org/2000/svg" width="26.02" height="24.965" viewBox="0 0 26.02 24.965">
  <path id="book-alt" d="M24.069,2.32a5.239,5.239,0,0,0-4.445-1.227l-4.144.788a4.293,4.293,0,0,0-2.47,1.463,4.293,4.293,0,0,0-2.476-1.463L6.4,1.093A5.247,5.247,0,0,0,1.95,2.316,5.783,5.783,0,0,0,0,6.674V18.922A5.61,5.61,0,0,0,4.45,24.5l6.815,1.3a9.329,9.329,0,0,0,3.489,0l6.821-1.3a5.61,5.61,0,0,0,4.445-5.582V6.674A5.763,5.763,0,0,0,24.069,2.32ZM11.926,23.614c-.091-.014-.182-.03-.273-.047l-6.814-1.3a3.366,3.366,0,0,1-2.67-3.35V6.674a3.331,3.331,0,0,1,3.253-3.4,3.2,3.2,0,0,1,.585.056l4.142.794a2.244,2.244,0,0,1,1.778,2.228Zm11.926-4.692a3.366,3.366,0,0,1-2.671,3.35l-6.814,1.3c-.091.017-.182.033-.273.047V6.347a2.244,2.244,0,0,1,1.781-2.233l4.142-.794a3.149,3.149,0,0,1,2.668.737,3.471,3.471,0,0,1,1.167,2.617Z" transform="translate(0 -1)"/>
</svg>
