<svg xmlns="http://www.w3.org/2000/svg" width="22.795" height="26.542" viewBox="0 0 22.795 26.542">
  <path id="flame" d="M35.642,3.206c-.809-.738-1.657-1.513-2.52-2.359a2.86,2.86,0,0,0-4.533.617A23.6,23.6,0,0,0,26.027,8.6a6.916,6.916,0,0,1-.489-.9A2,2,0,0,0,22.8,6.647a2.076,2.076,0,0,0-.653.527,10.446,10.446,0,0,0-2.658,7.1A12.036,12.036,0,0,0,27.939,26.15a11.176,11.176,0,0,0,2.853.389c.031,0,.359,0,.491-.013,6.136-.214,11.006-5.634,11-12.242C42.278,9.273,39.2,6.463,35.642,3.206ZM30.767,24.319a3.722,3.722,0,0,1-2.092-.892A4.169,4.169,0,0,1,27.049,20.6C26.874,18.8,27.9,16.458,30,13.807h0a1.12,1.12,0,0,1,.881-.434h0a1.089,1.089,0,0,1,.867.431c1.924,2.458,2.981,4.726,2.981,6.387a4.079,4.079,0,0,1-3.608,4.118A1.813,1.813,0,0,1,30.767,24.319Zm5.848-2.1c-.061.051-.127.092-.189.14a6.745,6.745,0,0,0,.361-2.166c0-2.8-1.886-5.791-3.467-7.813a3.1,3.1,0,0,0-2.432-1.217h0a3.115,3.115,0,0,0-2.442,1.209h0c-2.513,3.168-3.667,6.015-3.431,8.461a6.075,6.075,0,0,0,.4,1.648,10.326,10.326,0,0,1-3.863-8.2,8.128,8.128,0,0,1,2.141-5.62,9.19,9.19,0,0,0,.85,1.506,1.831,1.831,0,0,0,1.959.774,2.036,2.036,0,0,0,1.491-1.631,21.63,21.63,0,0,1,2.332-6.662.861.861,0,0,1,.626-.425.935.935,0,0,1,.791.267c.882.863,1.747,1.659,2.57,2.408,3.431,3.136,5.911,5.4,5.911,9.389a10.284,10.284,0,0,1-3.6,7.933Z" transform="translate(-19.487 0.003)"/>
</svg>
