<svg id="Group_18832" data-name="Group 18832" xmlns="http://www.w3.org/2000/svg" width="24.56" height="34.241" viewBox="0 0 24.56 34.241">
  <path id="Path_14428" data-name="Path 14428" d="M0,0,31.807-.337l-.258,20.979-31.807.337Z" transform="translate(1.204 32.375) rotate(-85.603)" fill="#a5a5a5"/>
  <path id="Path_14793" data-name="Path 14793" d="M0,0H19.626V31.426H0Z" fill="#f0f0f0"/>
  <g id="Group_18781" data-name="Group 18781" transform="translate(2.33 5.715)">
    <g id="Group_18776" data-name="Group 18776" transform="translate(3.478 0)">
      <path id="Path_14362" data-name="Path 14362" d="M390.482,295.044h11c.3,0,.3-.539,0-.539h-11c-.3,0-.3.539,0,.539Z" transform="translate(-390.257 -294.505)" fill="#bbbcbf"/>
    </g>
    <g id="Group_18777" data-name="Group 18777" transform="translate(0 3.192)">
      <path id="Path_14363" data-name="Path 14363" d="M296.145,369.626h14.483c.3,0,.3-.539,0-.539H296.145c-.3,0-.3.539,0,.539Z" transform="translate(-295.921 -369.087)" fill="#bbbcbf"/>
    </g>
    <g id="Group_18778" data-name="Group 18778" transform="translate(0 6.384)">
      <path id="Path_14364" data-name="Path 14364" d="M296.145,444.208h14.483c.3,0,.3-.539,0-.539H296.145c-.3,0-.3.539,0,.539Z" transform="translate(-295.921 -443.669)" fill="#bbbcbf"/>
    </g>
    <g id="Group_18779" data-name="Group 18779" transform="translate(0 9.576)">
      <path id="Path_14365" data-name="Path 14365" d="M296.145,518.791h14.483c.3,0,.3-.539,0-.539H296.145c-.3,0-.3.539,0,.539Z" transform="translate(-295.921 -518.252)" fill="#bbbcbf"/>
    </g>
    <g id="Group_18780" data-name="Group 18780" transform="translate(0 12.767)">
      <path id="Path_14366" data-name="Path 14366" d="M296.145,593.373h14.483c.3,0,.3-.539,0-.539H296.145c-.3,0-.3.539,0,.539Z" transform="translate(-295.921 -592.834)" fill="#bbbcbf"/>
    </g>
  </g>
  <g id="Group_18782" data-name="Group 18782" transform="translate(2.33 20.215)">
    <path id="Path_14367" data-name="Path 14367" d="M442.539,748.908a.135.135,0,0,0-.119.079.173.173,0,0,0,.05.217.123.123,0,0,0,.1.016.141.141,0,0,0,.083-.074.173.173,0,0,0-.051-.217.124.124,0,0,0-.069-.021m0,.352a.152.152,0,0,1-.084-.026.21.21,0,0,1-.062-.264.171.171,0,0,1,.1-.09.147.147,0,0,1,.128.019.21.21,0,0,1,.061.264.165.165,0,0,1-.146.1" transform="translate(-434.089 -747.001)" fill="#232322"/>
    <path id="Path_14368" data-name="Path 14368" d="M444.323,750.641v-.07h.033a.042.042,0,0,1,.029.009.033.033,0,0,1,.009.026.033.033,0,0,1-.009.026.041.041,0,0,1-.029.009Zm.064.017a.05.05,0,0,0,.02-.017.061.061,0,0,0,.009-.034.057.057,0,0,0-.017-.043.062.062,0,0,0-.044-.015H444.3v.167h.022v-.05h.043l.032.051h.026Z" transform="translate(-435.91 -748.565)" fill="#232322"/>
    <path id="Path_14369" data-name="Path 14369" d="M300.211,747.055l.469.276a.066.066,0,0,0,.068,0l.632-.282,0,0,1.994,1.221.007,0-.158.075a.04.04,0,0,1-.015,0h-.016l-.021-.007-.026-.014-1.306-.826a.066.066,0,0,0-.066,0l-.367.192a.079.079,0,0,0-.041.068.082.082,0,0,0,.036.072l1.465.948a1.221,1.221,0,0,0,.215.108,1.081,1.081,0,0,0,.217.058l.068.008a.776.776,0,0,0,.136,0,.546.546,0,0,0,.178-.048l.593-.285a.233.233,0,0,0,.121-.113.187.187,0,0,0-.005-.151.442.442,0,0,0-.107-.141,1.088,1.088,0,0,0-.179-.132l-2.711-1.63a.126.126,0,0,0-.128,0l-1.05.463,0,0a.08.08,0,0,0-.037.069.082.082,0,0,0,.037.07" transform="translate(-299.933 -744.722)" fill="#252324"/>
    <path id="Path_14370" data-name="Path 14370" d="M301.7,747.4a.061.061,0,0,0-.028.007l-.367.192a.072.072,0,0,0-.037.062.074.074,0,0,0,.032.065l1.465.948a1.216,1.216,0,0,0,.214.108,1.049,1.049,0,0,0,.215.058l.068.008a.74.74,0,0,0,.135,0,.539.539,0,0,0,.177-.048l.593-.285a.227.227,0,0,0,.118-.109.179.179,0,0,0-.005-.144.438.438,0,0,0-.1-.138,1.048,1.048,0,0,0-.178-.131l-2.711-1.63a.122.122,0,0,0-.122,0l-1.051.463h0a.074.074,0,0,0-.034.063.075.075,0,0,0,.034.064l.469.276a.06.06,0,0,0,.062,0l.633-.283h0l0,0,0,0,2.013,1.232-.171.081a.048.048,0,0,1-.017,0,.053.053,0,0,1-.018,0l-.022-.007-.027-.015-1.307-.826a.061.061,0,0,0-.033-.01m1.623,1.464-.061,0-.069-.008a1.08,1.08,0,0,1-.218-.058,1.252,1.252,0,0,1-.216-.109l-1.465-.948a.089.089,0,0,1-.039-.079.087.087,0,0,1,.045-.074l.367-.192a.073.073,0,0,1,.072,0l1.307.826.025.014.02.007h.014l.014,0,.146-.069-1.986-1.216h0l-.632.283a.072.072,0,0,1-.073,0l-.469-.276a.09.09,0,0,1-.041-.077.088.088,0,0,1,.041-.075l0,0,1.05-.463a.133.133,0,0,1,.133,0l2.711,1.63a1.062,1.062,0,0,1,.181.133.452.452,0,0,1,.108.143.2.2,0,0,1,.005.157.241.241,0,0,1-.124.116l-.593.285a.554.554,0,0,1-.18.049.722.722,0,0,1-.076,0" transform="translate(-299.828 -744.619)" fill="#252324"/>
    <path id="Path_14371" data-name="Path 14371" d="M324.068,738.231l3.23,1.92a.071.071,0,0,0,.029.009.068.068,0,0,0,.033-.006l.847-.407a.079.079,0,0,0,.043-.066.083.083,0,0,0-.033-.073l-.511-.367a.066.066,0,0,0-.067-.006l-.468.221-.667-.388.252-.117a.079.079,0,0,0,.044-.07.081.081,0,0,0-.039-.074l-.495-.283a.064.064,0,0,0-.06,0l-.359.164-.683-.4.354-.159a.078.078,0,0,0,.045-.073.08.08,0,0,0-.045-.074l-.569-.255a.064.064,0,0,0-.053,0l-.82.361a.078.078,0,0,0-.045.069.081.081,0,0,0,.038.074" transform="translate(-322.44 -736.579)" fill="#252324"/>
    <path id="Path_14372" data-name="Path 14372" d="M323.966,738.12l3.23,1.92a.06.06,0,0,0,.057,0l.847-.407a.072.072,0,0,0,.039-.06.076.076,0,0,0-.03-.066l-.511-.367a.06.06,0,0,0-.061-.006l-.471.222,0,0-.68-.4.265-.123a.071.071,0,0,0,.04-.064.073.073,0,0,0-.035-.067l-.495-.283a.059.059,0,0,0-.055,0l-.362.165h0l-.7-.4.368-.164a.072.072,0,0,0,.04-.067.073.073,0,0,0-.041-.067l-.569-.255a.059.059,0,0,0-.049,0h0l-.819.361a.071.071,0,0,0-.041.063.073.073,0,0,0,.034.068m3.261,1.943h-.005a.074.074,0,0,1-.032-.01l-3.23-1.92a.089.089,0,0,1-.041-.082.085.085,0,0,1,.049-.076l.822-.362a.071.071,0,0,1,.057,0l.569.255a.088.088,0,0,1,.049.081.086.086,0,0,1-.049.08l-.341.152.667.388.356-.162a.071.071,0,0,1,.065,0l.494.283a.088.088,0,0,1,.043.08.086.086,0,0,1-.048.077l-.239.111.652.379.466-.22a.07.07,0,0,1,.073.007l.511.367a.09.09,0,0,1,.036.08.087.087,0,0,1-.047.073l-.847.407a.074.074,0,0,1-.031.007" transform="translate(-322.336 -736.475)" fill="#252324"/>
    <path id="Path_14373" data-name="Path 14373" d="M347.4,730.945a.77.77,0,0,0,.151.108l2.422,1.369a2.26,2.26,0,0,0,.276.135,1.107,1.107,0,0,0,.244.069l.061.007a.727.727,0,0,0,.163-.006.77.77,0,0,0,.213-.068l.373-.179a.078.078,0,0,0,.043-.067.082.082,0,0,0-.034-.073l-.516-.356a.067.067,0,0,0-.066-.006l-.34.161-.014,0h-.017l-.022-.007-.027-.013-1.98-1.1.232-.1a.083.083,0,0,0,0-.148l-.586-.252a.032.032,0,0,0-.026,0l-.51.225a.213.213,0,0,0-.1.074.135.135,0,0,0-.016.115.26.26,0,0,0,.074.111" transform="translate(-344.408 -729.757)" fill="#252324"/>
    <path id="Path_14374" data-name="Path 14374" d="M347.849,730.32l-.011,0-.51.224a.208.208,0,0,0-.093.072.126.126,0,0,0-.015.108.254.254,0,0,0,.073.108.747.747,0,0,0,.15.107l2.422,1.369a2.311,2.311,0,0,0,.275.135,1.124,1.124,0,0,0,.242.069l.06.007a.7.7,0,0,0,.161-.006.765.765,0,0,0,.211-.067l.374-.179a.071.071,0,0,0,.039-.061.075.075,0,0,0-.031-.067l-.516-.356a.059.059,0,0,0-.06-.005l-.34.161a.048.048,0,0,1-.016,0,.055.055,0,0,1-.018,0l-.023-.007-.028-.014-1.993-1.1.246-.11a.071.071,0,0,0,.04-.067.073.073,0,0,0-.042-.067l-.586-.252-.011,0m2.648,2.218-.056,0-.061-.007a1.124,1.124,0,0,1-.245-.07,2.239,2.239,0,0,1-.277-.136l-2.422-1.369a.764.764,0,0,1-.153-.109.269.269,0,0,1-.077-.115.142.142,0,0,1,.017-.121.219.219,0,0,1,.1-.077l.51-.224a.037.037,0,0,1,.031,0l.586.252a.088.088,0,0,1,.05.081.087.087,0,0,1-.049.081l-.219.1,1.967,1.089.027.013.021.006h.015l.013,0,.34-.161a.071.071,0,0,1,.072.006l.516.356a.091.091,0,0,1,.037.08.086.086,0,0,1-.047.073l-.373.179a.765.765,0,0,1-.214.068.7.7,0,0,1-.108.008" transform="translate(-344.301 -729.651)" fill="#252324"/>
    <path id="Path_14375" data-name="Path 14375" d="M364.646,722.382l.457.348a.065.065,0,0,0,.068.009l.268-.12,2.6,1.594a.065.065,0,0,0,.026.008.064.064,0,0,0,.033-.006l.565-.286a.079.079,0,0,0,.043-.072.081.081,0,0,0-.041-.073l-2.685-1.408.131-.058a.083.083,0,0,0,0-.148l-.608-.254a.181.181,0,0,0-.137,0h0l-.706.324a.078.078,0,0,0-.044.064.084.084,0,0,0,.03.075" transform="translate(-360.731 -721.801)" fill="#252324"/>
    <path id="Path_14376" data-name="Path 14376" d="M365.334,722.506l0,0,2.6,1.594a.06.06,0,0,0,.024.007.061.061,0,0,0,.03-.006l.565-.286a.071.071,0,0,0,.039-.065.073.073,0,0,0-.038-.067l-2.7-1.416.145-.065a.075.075,0,0,0,0-.135l-.608-.254a.175.175,0,0,0-.132,0h0l-.706.324a.071.071,0,0,0-.041.058.076.076,0,0,0,.028.068l.457.348a.061.061,0,0,0,.063.008Zm2.635,1.617h-.005a.075.075,0,0,1-.029-.008l-2.6-1.592-.265.118a.072.072,0,0,1-.074-.01l-.457-.348a.092.092,0,0,1-.033-.082.086.086,0,0,1,.049-.07l.708-.325a.185.185,0,0,1,.14,0l.608.254a.091.091,0,0,1,0,.162l-.116.052,2.671,1.4a.091.091,0,0,1,0,.158l-.565.286a.07.07,0,0,1-.031.007" transform="translate(-360.624 -721.695)" fill="#252324"/>
    <path id="Path_14377" data-name="Path 14377" d="M303.641,747.6l-.061,0-.068-.008a1.071,1.071,0,0,1-.216-.058,1.219,1.219,0,0,1-.214-.108l-1.465-.948a.075.075,0,0,1-.033-.066.073.073,0,0,1,.037-.063l.367-.192a.062.062,0,0,1,.028-.007.063.063,0,0,1,.033.01l1.307.826.027.015.022.007h.018l.017-.005.169-.08-2.014-1.233h0l-.635.284a.064.064,0,0,1-.03.008.063.063,0,0,1-.033-.01l-.469-.276a.075.075,0,0,1-.034-.065.074.074,0,0,1,.034-.063l1.054-.465a.118.118,0,0,1,.058-.015.126.126,0,0,1,.066.019l2.711,1.63a1.052,1.052,0,0,1,.179.131.444.444,0,0,1,.105.139.18.18,0,0,1,.005.145.229.229,0,0,1-.118.109l-.593.285a.543.543,0,0,1-.177.048.743.743,0,0,1-.075,0" transform="translate(-300.139 -743.462)" fill="#fff"/>
    <path id="Path_14378" data-name="Path 14378" d="M301.447,744.993a.122.122,0,0,0-.06.016l-1.05.463,0,0a.081.081,0,0,0-.037.069.083.083,0,0,0,.037.07l.469.276a.065.065,0,0,0,.036.011.066.066,0,0,0,.032-.008l.632-.283,0,0,1.994,1.221.007,0-.158.075a.04.04,0,0,1-.016,0h-.016l-.021-.007-.026-.014-1.307-.826a.066.066,0,0,0-.036-.011.064.064,0,0,0-.03.008l-.367.192a.079.079,0,0,0-.041.068.082.082,0,0,0,.036.072l1.465.948a1.232,1.232,0,0,0,.215.108,1.051,1.051,0,0,0,.217.058l.068.008.061,0q.038,0,.075,0a.546.546,0,0,0,.178-.049l.593-.285a.233.233,0,0,0,.121-.112.186.186,0,0,0-.005-.151.441.441,0,0,0-.106-.141,1.062,1.062,0,0,0-.18-.132l-2.711-1.63a.13.13,0,0,0-.068-.019m0,.012a.122.122,0,0,1,.063.018l2.711,1.63a1.047,1.047,0,0,1,.178.131.431.431,0,0,1,.1.137.173.173,0,0,1,.005.14.223.223,0,0,1-.115.106l-.593.285a.535.535,0,0,1-.175.048.727.727,0,0,1-.074,0l-.06,0c-.022,0-.045,0-.068-.008a1.04,1.04,0,0,1-.215-.058,1.209,1.209,0,0,1-.213-.107l-1.465-.948a.069.069,0,0,1-.03-.061.067.067,0,0,1,.034-.057l.367-.192a.058.058,0,0,1,.026-.006.056.056,0,0,1,.031.009l1.307.826.027.015.023.008h.019a.053.053,0,0,0,.019-.005l.158-.075.021-.01-.02-.012,0,0,0,0-1.994-1.221-.005,0,0,0h0l-.633.283a.056.056,0,0,1-.027.007.057.057,0,0,1-.031-.009l-.469-.276a.07.07,0,0,1,0-.117h0l1.051-.463a.112.112,0,0,1,.055-.014" transform="translate(-300.049 -743.375)" fill="#252324"/>
    <path id="Path_14379" data-name="Path 14379" d="M301.823,745.954a.062.062,0,0,0-.028.007l-.367.192a.072.072,0,0,0-.037.062.074.074,0,0,0,.032.065l1.465.948a1.219,1.219,0,0,0,.214.108,1.07,1.07,0,0,0,.215.058l.068.008a.751.751,0,0,0,.135,0,.539.539,0,0,0,.177-.048l.593-.285a.227.227,0,0,0,.118-.109.179.179,0,0,0-.005-.145.438.438,0,0,0-.1-.138,1.043,1.043,0,0,0-.179-.131l-2.711-1.63a.121.121,0,0,0-.122,0l-1.051.463,0,0a.073.073,0,0,0-.034.063.075.075,0,0,0,.034.064l.469.276a.06.06,0,0,0,.062,0l.633-.283h0l0,0,0,0,2.013,1.232-.171.081a.051.051,0,0,1-.017,0h-.018a.1.1,0,0,1-.022-.008l-.027-.015-1.306-.826a.062.062,0,0,0-.033-.01m1.623,1.464-.061,0-.069-.008a1.067,1.067,0,0,1-.218-.059,1.223,1.223,0,0,1-.216-.109l-1.465-.948a.09.09,0,0,1-.039-.079.086.086,0,0,1,.044-.074l.367-.192a.072.072,0,0,1,.072,0l1.307.826.025.014.02.007h.014l.014,0,.146-.069L301.4,745.51h0l-.632.283a.072.072,0,0,1-.073,0l-.469-.276a.09.09,0,0,1-.041-.077.089.089,0,0,1,.041-.075l0,0,1.05-.463a.133.133,0,0,1,.133,0l2.711,1.63a1.062,1.062,0,0,1,.181.133.45.45,0,0,1,.108.143.2.2,0,0,1,.005.157.24.24,0,0,1-.124.116l-.593.285a.553.553,0,0,1-.18.049.723.723,0,0,1-.076,0" transform="translate(-299.944 -743.27)" fill="#252324"/>
    <path id="Path_14380" data-name="Path 14380" d="M327.54,738.8a.059.059,0,0,1-.027-.009l-3.23-1.92a.074.074,0,0,1-.035-.069.072.072,0,0,1,.041-.064l.821-.361a.058.058,0,0,1,.024-.005.06.06,0,0,1,.025.006l.569.255a.074.074,0,0,1,.042.068.073.073,0,0,1-.041.068l-.366.163.7.4.361-.165a.063.063,0,0,1,.025-.005.062.062,0,0,1,.031.008l.495.283a.074.074,0,0,1,.036.068.072.072,0,0,1-.04.064l-.263.122.68.4.471-.222a.058.058,0,0,1,.026-.006.062.062,0,0,1,.036.012l.511.367a.077.077,0,0,1,.03.068.073.073,0,0,1-.039.061l-.847.407a.061.061,0,0,1-.027.006Z" transform="translate(-322.646 -735.318)" fill="#fff"/>
    <path id="Path_14381" data-name="Path 14381" d="M325.045,736.276a.067.067,0,0,0-.026.006l-.82.361a.078.078,0,0,0-.045.069.081.081,0,0,0,.038.074l3.23,1.92a.071.071,0,0,0,.029.01h0a.066.066,0,0,0,.029-.007l.847-.407a.079.079,0,0,0,.043-.066.083.083,0,0,0-.033-.073l-.511-.367a.067.067,0,0,0-.039-.013.066.066,0,0,0-.028.006l-.468.221-.667-.388.252-.117a.078.078,0,0,0,.044-.07.081.081,0,0,0-.039-.074l-.495-.283a.066.066,0,0,0-.033-.009.065.065,0,0,0-.027.006l-.359.164-.683-.4.354-.158a.079.079,0,0,0,.045-.074.08.08,0,0,0-.045-.074l-.569-.255a.066.066,0,0,0-.027-.006m0,.012a.057.057,0,0,1,.023.005l.569.255a.068.068,0,0,1,.038.062.067.067,0,0,1-.038.062l-.354.158-.023.01.022.013.683.4,0,0,0,0,.359-.164a.054.054,0,0,1,.023-.005.059.059,0,0,1,.028.008l.495.283a.068.068,0,0,1,.033.062.066.066,0,0,1-.037.059l-.252.117-.022.01.021.012.667.388,0,0,0,0,.468-.221a.055.055,0,0,1,.024-.006.058.058,0,0,1,.034.011l.511.367a.069.069,0,0,1,.028.061.066.066,0,0,1-.036.056l-.847.407a.056.056,0,0,1-.025.006h0a.054.054,0,0,1-.025-.008l-3.23-1.92a.069.069,0,0,1-.032-.063.066.066,0,0,1,.038-.058l.82-.361h0a.055.055,0,0,1,.021,0" transform="translate(-322.556 -735.23)" fill="#252324"/>
    <path id="Path_14382" data-name="Path 14382" d="M324.089,736.675l3.23,1.92a.058.058,0,0,0,.027.009.059.059,0,0,0,.031-.006l.847-.407a.072.072,0,0,0,.039-.06.075.075,0,0,0-.03-.066l-.511-.367a.06.06,0,0,0-.061-.006l-.471.223,0,0-.68-.4.265-.123a.071.071,0,0,0,.04-.063.073.073,0,0,0-.035-.067l-.495-.283a.059.059,0,0,0-.055,0l-.362.165h0l-.7-.4.368-.164a.072.072,0,0,0,.041-.067.073.073,0,0,0-.041-.067l-.569-.255a.059.059,0,0,0-.048,0h0l-.82.361a.07.07,0,0,0-.041.063.074.074,0,0,0,.035.068m3.261,1.943h-.005a.073.073,0,0,1-.031-.01l-3.23-1.92a.089.089,0,0,1-.041-.082.085.085,0,0,1,.049-.076l.821-.361a.069.069,0,0,1,.058,0l.569.255a.088.088,0,0,1,.049.081.086.086,0,0,1-.049.08l-.341.152.667.388.356-.162a.071.071,0,0,1,.065,0l.494.283a.088.088,0,0,1,.043.081.086.086,0,0,1-.048.077l-.239.11.652.379.466-.22a.071.071,0,0,1,.073.007l.511.367a.09.09,0,0,1,.036.08.087.087,0,0,1-.047.073l-.847.407a.073.073,0,0,1-.031.007" transform="translate(-322.452 -735.125)" fill="#252324"/>
    <path id="Path_14383" data-name="Path 14383" d="M350.815,731.274l-.054,0-.06-.007a1.112,1.112,0,0,1-.243-.069,2.287,2.287,0,0,1-.275-.135l-2.422-1.369a.757.757,0,0,1-.15-.107.256.256,0,0,1-.073-.108.127.127,0,0,1,.015-.109.21.21,0,0,1,.093-.072l.51-.224.011,0,.011,0,.586.253a.076.076,0,0,1,0,.136l-.244.109,1.991,1.1.028.014.023.007h.018l.016,0,.34-.161a.063.063,0,0,1,.026-.006.061.061,0,0,1,.035.011l.516.356a.076.076,0,0,1,.031.068.072.072,0,0,1-.039.062l-.373.18a.763.763,0,0,1-.211.068.714.714,0,0,1-.107.008" transform="translate(-344.612 -728.496)" fill="#fff"/>
    <path id="Path_14384" data-name="Path 14384" d="M348.077,728.975a.031.031,0,0,0-.013,0l-.51.225a.213.213,0,0,0-.1.074.134.134,0,0,0-.016.115.261.261,0,0,0,.074.111.774.774,0,0,0,.151.108l2.422,1.369a2.273,2.273,0,0,0,.276.135,1.121,1.121,0,0,0,.244.069l.061.007.055,0a.7.7,0,0,0,.108-.008.761.761,0,0,0,.213-.068l.373-.18a.079.079,0,0,0,.043-.067.083.083,0,0,0-.034-.073l-.516-.356a.066.066,0,0,0-.066-.006l-.34.161-.014,0h-.017l-.022-.007-.027-.013-1.98-1.1.232-.1a.083.083,0,0,0,0-.148l-.586-.253a.033.033,0,0,0-.013,0m0,.012.009,0,.586.253a.067.067,0,0,1,.039.062.066.066,0,0,1-.038.062l-.232.1-.023.01.023.013,1.98,1.1a.211.211,0,0,0,.029.014.1.1,0,0,0,.024.007h.019a.048.048,0,0,0,.017,0l.34-.161a.057.057,0,0,1,.057,0l.516.356a.069.069,0,0,1,.029.062.066.066,0,0,1-.036.056l-.373.18a.757.757,0,0,1-.21.067.686.686,0,0,1-.106.008l-.054,0-.06-.007a1.107,1.107,0,0,1-.242-.068,2.249,2.249,0,0,1-.275-.135l-2.422-1.369a.753.753,0,0,1-.149-.106.249.249,0,0,1-.071-.106.121.121,0,0,1,.014-.1.2.2,0,0,1,.091-.07l.51-.224.009,0" transform="translate(-344.523 -728.409)" fill="#252324"/>
    <path id="Path_14385" data-name="Path 14385" d="M347.972,728.878l-.011,0-.51.225a.207.207,0,0,0-.093.072.126.126,0,0,0-.015.108.251.251,0,0,0,.072.108.757.757,0,0,0,.15.107l2.422,1.369a2.269,2.269,0,0,0,.276.135,1.111,1.111,0,0,0,.242.069l.06.007a.7.7,0,0,0,.161-.006.772.772,0,0,0,.211-.067l.373-.18a.071.071,0,0,0,.039-.061.075.075,0,0,0-.031-.066l-.516-.356a.06.06,0,0,0-.06-.005l-.34.161a.048.048,0,0,1-.016,0h-.018l-.023-.007-.028-.014-1.993-1.1.246-.11a.072.072,0,0,0,.041-.067.072.072,0,0,0-.042-.067l-.586-.252-.011,0m2.648,2.218-.055,0-.061-.007a1.124,1.124,0,0,1-.245-.069,2.3,2.3,0,0,1-.277-.136l-2.422-1.369a.776.776,0,0,1-.153-.109.268.268,0,0,1-.076-.115.142.142,0,0,1,.017-.122.222.222,0,0,1,.1-.077l.51-.224a.038.038,0,0,1,.031,0l.586.253a.091.091,0,0,1,0,.161l-.219.1,1.967,1.09.027.013.021.006h.015l.012,0,.34-.161a.07.07,0,0,1,.072.006l.516.356a.091.091,0,0,1,.037.08.086.086,0,0,1-.047.073l-.374.179a.768.768,0,0,1-.214.069.713.713,0,0,1-.108.008" transform="translate(-344.417 -728.304)" fill="#252324"/>
    <path id="Path_14386" data-name="Path 14386" d="M368.282,722.859a.063.063,0,0,1-.025-.007l-2.606-1.6-.27.121a.059.059,0,0,1-.025.005.061.061,0,0,1-.038-.014l-.457-.348a.077.077,0,0,1-.028-.069.072.072,0,0,1,.041-.059l.706-.324a.176.176,0,0,1,.072-.015.174.174,0,0,1,.062.011l.607.254a.076.076,0,0,1,0,.137l-.142.064,2.7,1.415a.074.074,0,0,1,.038.067.072.072,0,0,1-.04.066l-.565.286a.061.061,0,0,1-.026.006Z" transform="translate(-360.936 -720.54)" fill="#fff"/>
    <path id="Path_14387" data-name="Path 14387" d="M365.564,720.459a.186.186,0,0,0-.074.016h0l-.706.324a.078.078,0,0,0-.044.064.083.083,0,0,0,.03.075l.457.348a.068.068,0,0,0,.042.015.063.063,0,0,0,.027-.006l.268-.12,2.6,1.594a.069.069,0,0,0,.026.008h0a.065.065,0,0,0,.028-.007l.565-.286a.079.079,0,0,0,.043-.071.08.08,0,0,0-.041-.073l-2.685-1.408.13-.058a.079.079,0,0,0,.045-.076.078.078,0,0,0-.048-.072l-.608-.254a.185.185,0,0,0-.064-.012m0,.012a.168.168,0,0,1,.06.011l.608.254a.07.07,0,0,1,0,.125l-.13.058-.024.011.023.012,2.685,1.408a.067.067,0,0,1,.035.062.066.066,0,0,1-.036.06l-.565.286a.057.057,0,0,1-.024.005h0a.06.06,0,0,1-.022-.007l-2.6-1.593,0,0,0,0-.268.12a.056.056,0,0,1-.023.005.057.057,0,0,1-.036-.013l-.457-.348a.071.071,0,0,1-.026-.063.066.066,0,0,1,.038-.054l.707-.324a.168.168,0,0,1,.07-.015" transform="translate(-360.847 -720.452)" fill="#252324"/>
    <path id="Path_14388" data-name="Path 14388" d="M365.457,721.063l0,0,2.6,1.593a.062.062,0,0,0,.024.007.057.057,0,0,0,.03-.006l.565-.286a.071.071,0,0,0,.039-.065.072.072,0,0,0-.038-.066l-2.7-1.416.144-.065a.075.075,0,0,0,0-.135l-.608-.254a.175.175,0,0,0-.132,0l-.707.324a.071.071,0,0,0-.041.058.076.076,0,0,0,.027.068l.457.348a.061.061,0,0,0,.063.008Zm2.635,1.617h-.005a.072.072,0,0,1-.028-.008l-2.6-1.592-.265.119a.071.071,0,0,1-.074-.01l-.457-.348a.092.092,0,0,1-.033-.082.085.085,0,0,1,.049-.07l.706-.324a.188.188,0,0,1,.142,0l.608.254a.091.091,0,0,1,0,.162l-.116.052,2.671,1.4a.088.088,0,0,1,.045.08.086.086,0,0,1-.047.078l-.565.286a.073.073,0,0,1-.031.007" transform="translate(-360.741 -720.348)" fill="#252324"/>
    <path id="Path_14389" data-name="Path 14389" d="M358.086,783.49a.107.107,0,0,1-.022.069.1.1,0,0,1-.018.018h0l-.011.007-.435.238h0l-.057.031a.084.084,0,0,1-.081,0,.1.1,0,0,1-.05-.071l-.171-.868-.008-.039-.008-.041-.051-.26a.021.021,0,1,0-.041.005l.051,1.4a.11.11,0,0,1-.022.071.112.112,0,0,1-.018.018h0l-.01.006-.332.182-.018,0,.016-.009.331-.181.009-.006-.306.167h0a.108.108,0,0,1-.113-.005.134.134,0,0,1-.058-.107l-.223-5.169a.1.1,0,0,1,.051-.091l.423-.2-.017.006-.433.209-.015.007.012-.014.434-.209.017-.006h0l.02,0a.083.083,0,0,1,.041.011.1.1,0,0,1,.048.071l.238,1.27a.019.019,0,0,0,.023.018.02.02,0,0,0,.018-.023l-.01-.3.007.041.043.227a.026.026,0,0,0,.029.024.028.028,0,0,0,.024-.031l-.048-1.439a.1.1,0,0,1,.051-.09l.447-.216-.018.006-.456.22-.015.007a.067.067,0,0,1,.011-.013l.458-.221.017-.006a.076.076,0,0,1,.022,0,.086.086,0,0,1,.048.016.1.1,0,0,1,.043.084Z" transform="translate(-353.013 -774.398)" fill="#252324"/>
    <path id="Path_14390" data-name="Path 14390" d="M358.119,778.194a.115.115,0,0,0-.047-.09.092.092,0,0,0-.038-.016h-.014a.078.078,0,0,0-.023,0l-.446.215a.1.1,0,0,0-.026.018.064.064,0,0,0-.011.013l.015-.007.456-.22L358,778.1l.017,0a.081.081,0,0,1,.047.016.1.1,0,0,1,.04.078l.134,5.194a.1.1,0,0,1-.037.08h0l-.01.007-.435.237-.014.008-.044.024a.078.078,0,0,1-.076,0,.094.094,0,0,1-.047-.066l-.179-.907-.008-.039-.008-.041-.044-.221a.026.026,0,0,0-.03-.024.027.027,0,0,0-.023.031l.051,1.4a.1.1,0,0,1-.037.082h0l-.009.005-.331.181-.016.009.018,0a.13.13,0,0,0,.035-.012l.312-.17h0a.092.092,0,0,0,.017-.017.071.071,0,0,0,.01-.013.118.118,0,0,0,.016-.064l-.051-1.4a.013.013,0,0,1,.012-.015.013.013,0,0,1,.016.012l.059.3.008.041.008.039.163.829a.11.11,0,0,0,.054.076.089.089,0,0,0,.087,0l.493-.269.009-.005,0,0a.116.116,0,0,0,.018-.018l.009-.012a.117.117,0,0,0,.016-.063Zm-.663,1.434-.008-.04-.007-.04.011.343c0,.006,0,.015-.012.016s-.015-.006-.016-.013l-.238-1.27a.111.111,0,0,0-.052-.075.087.087,0,0,0-.031-.011h-.013l-.021,0h0l-.425.2a.094.094,0,0,0-.025.017l-.012.014.015-.007.433-.209.017-.006h0l.017,0a.075.075,0,0,1,.04.011.094.094,0,0,1,.045.065l.238,1.271a.026.026,0,0,0,.029.024.027.027,0,0,0,.024-.031Z" transform="translate(-353.174 -774.296)" fill="#252324"/>
    <path id="Path_14391" data-name="Path 14391" d="M365.226,778.457l.048,1.439a.027.027,0,0,1-.024.031.026.026,0,0,1-.03-.024l-.043-.227-.008-.041-.007-.04-.18-.961a.094.094,0,0,0-.045-.065.083.083,0,0,0-.04-.011.077.077,0,0,0-.034.008l-.039.019h-.013l-.021,0,.068-.033a.089.089,0,0,1,.085,0,.109.109,0,0,1,.052.076l.165.88-.033-1.015a.111.111,0,0,1,.059-.1l.516-.249a.051.051,0,0,1,.017-.006l-.446.215a.109.109,0,0,0-.026.018.064.064,0,0,0-.011.013l.015-.007.456-.22.018-.006-.447.215a.1.1,0,0,0-.051.09" transform="translate(-360.895 -774.344)" fill="#252324"/>
    <path id="Path_14392" data-name="Path 14392" d="M355.459,790.409l-.012.008-.388.212a.12.12,0,0,1-.056.014h-.009a.13.13,0,0,1-.058-.02.15.15,0,0,1-.065-.119l-.224-5.178a.112.112,0,0,1,.059-.106l.495-.239.019-.006-.425.2a.09.09,0,0,0-.025.017l-.012.014.015-.007.433-.209.017-.006-.423.2a.1.1,0,0,0-.051.092l.223,5.17a.134.134,0,0,0,.059.107.111.111,0,0,0,.052.018.113.113,0,0,0,.061-.013h0l.306-.167-.009.006-.331.181-.016.009.018,0a.126.126,0,0,0,.035-.012Z" transform="translate(-351.326 -780.731)" fill="#252324"/>
    <path id="Path_14393" data-name="Path 14393" d="M389.008,770.3a.076.076,0,0,1-.023.021l0,0-.4.22-.056.031a.081.081,0,0,1-.08,0,.1.1,0,0,1-.047-.072l-.134-.933,0-.026,0-.026-.026-.18a.016.016,0,0,0-.033,0l-.141,1.443a.109.109,0,0,1-.021.054.1.1,0,0,1-.028.023h0l-.4.218h-.015l.013-.008.029-.016a.083.083,0,0,1-.042.009.08.08,0,0,1-.043-.017.1.1,0,0,1-.034-.086l.336-2.784a.034.034,0,0,0,0-.009l-.45-2.364a.094.094,0,0,1,.047-.1l.421-.2-.014,0-.433.209-.015.007a.08.08,0,0,1,.011-.013l.434-.21.017-.006h0l.02,0a.084.084,0,0,1,.041.013.1.1,0,0,1,.045.072l.179,1.311a.016.016,0,0,0,.017.016c.005,0,.015,0,.016-.016l.022-.23,0-.027,0-.027.126-1.283a.1.1,0,0,1,.052-.079l.06-.029.4-.195a.054.054,0,0,1,.017-.006h0a.074.074,0,0,1,.02,0,.083.083,0,0,1,.052.02.1.1,0,0,1,.034.092l-.358,2.687a.016.016,0,0,0,0,.006l.409,2.41a.1.1,0,0,1-.022.083" transform="translate(-382.226 -762.07)" fill="#252324"/>
    <path id="Path_14394" data-name="Path 14394" d="M389.16,770.112l-.409-2.409v0l.358-2.687a.111.111,0,0,0-.036-.1.085.085,0,0,0-.043-.02l-.014,0a.083.083,0,0,0-.022,0l-.016.006-.463.224a.1.1,0,0,0-.056.085l-.123,1.258,0,.027,0,.027-.025.256s0,.01-.01.01a.009.009,0,0,1-.01-.01l-.179-1.311a.105.105,0,0,0-.048-.077.092.092,0,0,0-.032-.012l-.013,0-.02,0-.425.2a.108.108,0,0,0-.026.018.068.068,0,0,0-.011.013l.015-.007.433-.209.014,0h0l.017,0a.077.077,0,0,1,.04.012.09.09,0,0,1,.041.066l.179,1.311a.022.022,0,0,0,.023.022.023.023,0,0,0,.023-.022l.02-.2,0-.027,0-.028.128-1.311a.091.091,0,0,1,.048-.073l.046-.022.015-.007.4-.194.012,0a.076.076,0,0,1,.071.016.1.1,0,0,1,.032.085l-.358,2.688a.057.057,0,0,0,0,.009l.409,2.41a.094.094,0,0,1-.041.1l0,0-.4.219-.014.008-.043.023a.073.073,0,0,1-.074,0,.089.089,0,0,1-.043-.066l-.138-.958,0-.026,0-.026-.023-.156c0-.017-.014-.023-.023-.022a.023.023,0,0,0-.022.023l-.141,1.443a.091.091,0,0,1-.036.065h0l-.007,0-.37.2-.029.016-.013.008h.014a.082.082,0,0,0,.034-.011l.375-.2a.089.089,0,0,0,.023-.02.091.091,0,0,0,.009-.013.112.112,0,0,0,.014-.046l.141-1.443a.009.009,0,0,1,.01-.01s.009,0,.01.009l.029.206,0,.026,0,.026.131.908a.107.107,0,0,0,.05.078.086.086,0,0,0,.085,0l.46-.25h0a.088.088,0,0,0,.026-.022.072.072,0,0,0,.01-.013.117.117,0,0,0,.014-.077" transform="translate(-382.35 -761.967)" fill="#252324"/>
    <path id="Path_14395" data-name="Path 14395" d="M417.415,754.958a.08.08,0,0,0-.036-.058.065.065,0,0,0-.064,0l-1,.48a.079.079,0,0,0-.042.061l-.135,1.01a.084.084,0,0,0,.028.075.066.066,0,0,0,.073.01l.272-.135,0,4.1a.082.082,0,0,0,.034.068.065.065,0,0,0,.033.012.064.064,0,0,0,.037-.008l.478-.261a.079.079,0,0,0,.04-.07l.024-4.164.328-.162a.081.081,0,0,0,.041-.084Z" transform="translate(-409.344 -752.622)" fill="#252324"/>
    <path id="Path_14396" data-name="Path 14396" d="M416.417,756.281v.011l0,4.1a.074.074,0,0,0,.031.062.061.061,0,0,0,.03.011.061.061,0,0,0,.033-.007l.478-.261a.072.072,0,0,0,.036-.064l.024-4.169.332-.164a.074.074,0,0,0,.038-.076l-.119-.872a.073.073,0,0,0-.033-.053.06.06,0,0,0-.058,0l-1,.481a.071.071,0,0,0-.038.055l-.135,1.01a.076.076,0,0,0,.025.068.061.061,0,0,0,.067.009Zm.068,4.2h-.005a.075.075,0,0,1-.036-.013.09.09,0,0,1-.037-.074l0-4.092-.263.131a.072.072,0,0,1-.079-.01.092.092,0,0,1-.03-.082l.135-1.01a.085.085,0,0,1,.046-.067l1-.481a.072.072,0,0,1,.069,0,.088.088,0,0,1,.04.064l.119.872a.089.089,0,0,1-.045.092l-.324.161-.024,4.159a.087.087,0,0,1-.043.077l-.479.261a.072.072,0,0,1-.034.009" transform="translate(-409.238 -752.517)" fill="#252324"/>
    <path id="Path_14397" data-name="Path 14397" d="M356.861,783.766a.107.107,0,0,1-.05-.017.128.128,0,0,1-.056-.1l-.223-5.169a.091.091,0,0,1,.048-.086l.423-.2,0-.007.021-.01.01,0,.042-.019a.073.073,0,0,1,.07,0,.089.089,0,0,1,.042.061l.238,1.268a.031.031,0,0,0,.031.029.034.034,0,0,0,.033-.038l-.048-1.439a.09.09,0,0,1,.048-.084l.447-.216,0-.007.019-.009L358,777.7a.078.078,0,0,1,.082.007.1.1,0,0,1,.041.079l.133,5.185a.1.1,0,0,1-.048.089l-.491.268a.08.08,0,0,1-.03.01h-.009a.084.084,0,0,1-.038-.009.1.1,0,0,1-.048-.067l-.237-1.206a.025.025,0,0,0-.025-.023.027.027,0,0,0-.027.03l.011.3,0,.082.037,1.016a.1.1,0,0,1-.048.09l-.078.042,0-.006-.306.167a.106.106,0,0,1-.052.014h-.007" transform="translate(-353.104 -773.925)" fill="#fff"/>
    <path id="Path_14398" data-name="Path 14398" d="M357.945,777.595a.082.082,0,0,0-.037.009l-.049.024h0l-.021.01-.446.215a.081.081,0,0,0-.025.018l.456-.22.018-.006-.447.216a.1.1,0,0,0-.052.09l.048,1.439a.028.028,0,0,1-.024.031h0a.026.026,0,0,1-.026-.024l-.043-.227-.007-.041-.008-.04-.18-.961a.1.1,0,0,0-.045-.066.084.084,0,0,0-.04-.011.081.081,0,0,0-.034.008l-.039.019h-.013l-.019.01h0l-.423.2a.081.081,0,0,0-.024.017l.433-.209.017-.006-.423.2a.1.1,0,0,0-.051.092l.223,5.17a.135.135,0,0,0,.058.107.11.11,0,0,0,.053.018h.008a.11.11,0,0,0,.053-.013h0l.306-.167-.009.006-.331.181a.1.1,0,0,0,.035-.012l.309-.168h0l.021-.011.056-.03a.1.1,0,0,0,.051-.1l-.037-1.016,0-.04,0-.042-.011-.3a.02.02,0,0,1,.018-.023h0c.007,0,.016,0,.019.018l.237,1.206a.1.1,0,0,0,.051.071.086.086,0,0,0,.04.01h.009a.083.083,0,0,0,.031-.01l.417-.227h0l.021-.011.053-.029a.1.1,0,0,0,.051-.094l-.133-5.186a.1.1,0,0,0-.043-.083.084.084,0,0,0-.05-.016m0,.012h0a.076.076,0,0,1,.044.015.093.093,0,0,1,.038.073l.133,5.186a.09.09,0,0,1-.045.082l-.053.029-.021.012h0l-.415.227a.075.075,0,0,1-.028.009h-.008a.079.079,0,0,1-.036-.009.09.09,0,0,1-.045-.063l-.237-1.206a.03.03,0,0,0-.03-.028h0a.032.032,0,0,0-.027.036l.011.3,0,.041,0,.041.037,1.016a.091.091,0,0,1-.045.084l-.056.03-.022.012h0l0-.006-.307.168a.1.1,0,0,1-.048.012h-.007a.1.1,0,0,1-.048-.016.123.123,0,0,1-.053-.1l-.223-5.17a.085.085,0,0,1,.045-.079l.423-.2,0-.007h0l.017-.009h.015l.039-.019a.068.068,0,0,1,.066,0,.081.081,0,0,1,.039.057l.18.961.007.04.008.041.043.227a.037.037,0,0,0,.037.034h0a.04.04,0,0,0,.033-.044l-.048-1.439a.084.084,0,0,1,.045-.079l.447-.215,0-.007.017-.008h0l.049-.024a.075.075,0,0,1,.033-.008" transform="translate(-353.013 -773.837)" fill="#252324"/>
    <path id="Path_14399" data-name="Path 14399" d="M358.2,777.594a.111.111,0,0,0-.046-.089.09.09,0,0,0-.092-.008l-.07.034-.446.215a.108.108,0,0,0-.026.018.068.068,0,0,0-.011.014l.015-.007.456-.22.018-.006.018-.009.013-.006.037-.018a.082.082,0,0,1,.035-.008.081.081,0,0,1,.046.015.1.1,0,0,1,.04.077l.133,5.186a.1.1,0,0,1-.048.087l-.042.023-.012.006-.021.011h0l-.417.227a.076.076,0,0,1-.076,0,.1.1,0,0,1-.047-.066l-.237-1.206a.025.025,0,0,0-.029-.023.027.027,0,0,0-.024.031l.01.259,0,.041v.041l.039,1.058a.1.1,0,0,1-.048.089l-.043.024-.012.007-.022.012h0l-.009.006-.332.181-.016.009.018,0a.124.124,0,0,0,.035-.012l.312-.17h0l.075-.041a.112.112,0,0,0,.055-.1l-.036-.977v-.041l0-.041-.013-.34a.014.014,0,1,1,.028,0l.237,1.206a.108.108,0,0,0,.053.076.111.111,0,0,0,.039.011h.016a.109.109,0,0,0,.031-.01l.415-.226,0,0,.074-.04a.111.111,0,0,0,.055-.1Zm-1.116.382-.021,0h0l-.425.2a.1.1,0,0,0-.025.017l-.012.014.015-.007.433-.209.017-.006h0l.019-.009.013-.006h-.013" transform="translate(-353.173 -773.736)" fill="#252324"/>
    <path id="Path_14400" data-name="Path 14400" d="M387.681,770.578a.073.073,0,0,1-.04-.016.089.089,0,0,1-.031-.08l.336-2.784a.032.032,0,0,0,0-.011l-.45-2.364a.087.087,0,0,1,.044-.094l.463-.224-.027.005.055-.027a.075.075,0,0,1,.033-.007.077.077,0,0,1,.041.012.092.092,0,0,1,.042.067l.178,1.309a.022.022,0,0,0,.043,0l.153-1.566a.093.093,0,0,1,.026-.057.08.08,0,0,1,.022-.016l.393-.19.019-.01.05-.024a.074.074,0,0,1,.033-.008.078.078,0,0,1,.051.019.1.1,0,0,1,.032.086l-.357,2.684a.02.02,0,0,0,0,.008l.408,2.406a.1.1,0,0,1-.045.1l-.459.25a.075.075,0,0,1-.03.009h-.007a.076.076,0,0,1-.038-.01.091.091,0,0,1-.044-.067l-.167-1.164a.022.022,0,0,0-.022-.021.022.022,0,0,0-.021.022l-.027.278-.114,1.163a.091.091,0,0,1-.045.072l-.457.249,0-.006a.08.08,0,0,1-.035.009Z" transform="translate(-382.316 -761.595)" fill="#fff"/>
    <path id="Path_14401" data-name="Path 14401" d="M388.977,764.4a.076.076,0,0,0-.035.008l-.05.024-.018.009h0l-.393.189a.1.1,0,0,0-.024.017.1.1,0,0,0-.028.062l-.153,1.565c0,.014-.011.017-.016.017a.016.016,0,0,1-.017-.016l-.026-.187,0-.029,0-.027-.145-1.066a.1.1,0,0,0-.045-.071.083.083,0,0,0-.043-.013.077.077,0,0,0-.035.009l-.051.024-.019.009h0l-.424.2a.087.087,0,0,0-.024.018l.433-.209.014,0-.421.2a.093.093,0,0,0-.047.1l.45,2.364a.026.026,0,0,1,0,.008l-.336,2.784a.1.1,0,0,0,.034.086.077.077,0,0,0,.043.017h0a.081.081,0,0,0,.037-.009l-.029.016a.066.066,0,0,0,.032-.01l.369-.2h0l.031-.017.056-.031a.1.1,0,0,0,.048-.077l.114-1.163,0-.026,0-.027.022-.225a.016.016,0,0,1,.016-.016.016.016,0,0,1,.017.015l.167,1.165a.1.1,0,0,0,.047.072.079.079,0,0,0,.04.011h.007a.079.079,0,0,0,.032-.01l.376-.2.027-.015.055-.03a.1.1,0,0,0,.047-.105l-.408-2.406a.012.012,0,0,1,0-.006l.357-2.684a.1.1,0,0,0-.034-.092.083.083,0,0,0-.054-.02m0,.012h0a.073.073,0,0,1,.047.018.089.089,0,0,1,.03.08l-.357,2.682a.028.028,0,0,0,0,.011l.408,2.406a.089.089,0,0,1-.042.092l-.056.03-.027.015-.376.205a.071.071,0,0,1-.029.008h-.006a.072.072,0,0,1-.036-.009.086.086,0,0,1-.041-.063l-.167-1.165a.027.027,0,0,0-.028-.026h0a.028.028,0,0,0-.026.027l-.022.225,0,.027,0,.026-.114,1.163a.085.085,0,0,1-.042.067l-.056.031-.031.017h0l-.368.2,0-.006a.074.074,0,0,1-.033.009h0a.068.068,0,0,1-.037-.015.082.082,0,0,1-.029-.073l.336-2.784a.056.056,0,0,0,0-.013l-.45-2.364a.081.081,0,0,1,.041-.087l.421-.2.086-.042-.027.005.011-.005a.068.068,0,0,1,.031-.007.075.075,0,0,1,.038.011.087.087,0,0,1,.039.062l.145,1.067,0,.027,0,.029.026.187a.027.027,0,0,0,.027.026.028.028,0,0,0,.027-.027l.153-1.566a.088.088,0,0,1,.025-.054.083.083,0,0,1,.021-.015l.394-.19.018-.009.05-.024a.071.071,0,0,1,.031-.007" transform="translate(-382.227 -761.507)" fill="#252324"/>
    <path id="Path_14402" data-name="Path 14402" d="M389.249,769.5l-.408-2.406a.005.005,0,0,1,0,0l.358-2.684a.111.111,0,0,0-.037-.1.086.086,0,0,0-.095-.013l-.07.034-.392.189a.1.1,0,0,0-.025.018l-.012.013a.115.115,0,0,0-.02.054l-.153,1.566a.009.009,0,0,1-.01.01.009.009,0,0,1-.01-.01l-.029-.214,0-.028,0-.027-.142-1.04a.106.106,0,0,0-.048-.077.087.087,0,0,0-.084,0l-.069.033-.425.205a.1.1,0,0,0-.026.018.077.077,0,0,0-.011.014l.015-.007.432-.209.015,0h0l.019-.01.012-.006.04-.019a.074.074,0,0,1,.033-.008.079.079,0,0,1,.04.011.093.093,0,0,1,.041.066l.149,1.092,0,.027,0,.028.022.161a.022.022,0,0,0,.023.022.023.023,0,0,0,.022-.022l.153-1.566a.09.09,0,0,1,.048-.073l.389-.188.022-.011.013-.006.039-.019a.076.076,0,0,1,.083.012.094.094,0,0,1,.032.085l-.357,2.683a.031.031,0,0,0,0,.009l.408,2.406a.094.094,0,0,1-.044.1l-.043.024-.014.008-.026.014-.376.2a.072.072,0,0,1-.074,0,.089.089,0,0,1-.044-.066l-.167-1.164c0-.017-.014-.023-.023-.022a.022.022,0,0,0-.022.023l-.019.2,0,.026,0,.026-.116,1.188a.091.091,0,0,1-.045.071l-.044.024-.012.007-.021.011h0l-.377.206-.03.016-.013.008h.014a.083.083,0,0,0,.034-.011l.376-.2.082-.045a.106.106,0,0,0,.052-.082l.111-1.138,0-.026,0-.026.025-.251a.009.009,0,0,1,.01-.01s.009,0,.01.009l.167,1.164a.106.106,0,0,0,.05.078.094.094,0,0,0,.037.011h.015a.089.089,0,0,0,.034-.011l.373-.2h0l.084-.046a.109.109,0,0,0,.051-.114" transform="translate(-382.353 -761.404)" fill="#252324"/>
    <path id="Path_14403" data-name="Path 14403" d="M386.329,777.677l-.005,0-.458.25a.087.087,0,0,1-.042.011h-.006a.092.092,0,0,1-.049-.02.111.111,0,0,1-.039-.1l.336-2.788a0,0,0,0,0,0,0l-.45-2.367a.109.109,0,0,1,.055-.118l.494-.239.019-.007-.425.2a.106.106,0,0,0-.026.018.073.073,0,0,0-.011.014l.015-.007.433-.209.015,0-.421.2a.094.094,0,0,0-.047.1l.45,2.364a.03.03,0,0,1,0,.009l-.336,2.784a.1.1,0,0,0,.034.086.075.075,0,0,0,.085.008l-.029.016-.013.008h.014a.083.083,0,0,0,.034-.01Z" transform="translate(-380.541 -768.888)" fill="#252324"/>
    <path id="Path_14404" data-name="Path 14404" d="M418.184,760.076a.061.061,0,0,1-.031-.011.076.076,0,0,1-.031-.063l0-4.108-.279.139a.061.061,0,0,1-.027.006.063.063,0,0,1-.04-.015.077.077,0,0,1-.026-.069l.134-1.008a.071.071,0,0,1,.039-.056l.994-.48a.062.062,0,0,1,.027-.006.06.06,0,0,1,.032.009.075.075,0,0,1,.034.053l.119.871a.075.075,0,0,1-.038.077l-.331.164-.024,4.163a.073.073,0,0,1-.037.065l-.478.261a.06.06,0,0,1-.029.008Z" transform="translate(-410.857 -752.169)" fill="#fff"/>
    <path id="Path_14405" data-name="Path 14405" d="M418.853,754.311a.065.065,0,0,0-.029.007l-.994.48a.078.078,0,0,0-.042.061l-.135,1.008a.084.084,0,0,0,.028.075.069.069,0,0,0,.044.016.066.066,0,0,0,.029-.007l.272-.135,0,4.1a.082.082,0,0,0,.034.068.067.067,0,0,0,.033.012h0a.065.065,0,0,0,.032-.008l.478-.261a.08.08,0,0,0,.04-.07l.024-4.159.328-.162a.081.081,0,0,0,.041-.084l-.119-.871a.078.078,0,0,0-.036-.058.066.066,0,0,0-.035-.01m0,.012a.057.057,0,0,1,.03.009.067.067,0,0,1,.031.049l.119.871a.068.068,0,0,1-.035.071l-.328.162-.006,0v.008l-.024,4.16a.067.067,0,0,1-.033.059l-.478.261a.056.056,0,0,1-.027.007h0a.056.056,0,0,1-.028-.01.069.069,0,0,1-.029-.057l0-4.1V755.8l-.015.007-.271.135a.056.056,0,0,1-.025.006.059.059,0,0,1-.037-.014.071.071,0,0,1-.023-.063l.134-1.008a.066.066,0,0,1,.035-.051l.994-.48a.054.054,0,0,1,.024-.006" transform="translate(-410.769 -752.081)" fill="#252324"/>
    <path id="Path_14406" data-name="Path 14406" d="M417.927,755.7v.011l0,4.1a.074.074,0,0,0,.031.061.065.065,0,0,0,.03.011.061.061,0,0,0,.033-.007l.478-.261a.073.073,0,0,0,.036-.064l.024-4.164.332-.164a.074.074,0,0,0,.038-.076l-.119-.871a.073.073,0,0,0-.033-.053.06.06,0,0,0-.058,0l-.994.48a.071.071,0,0,0-.038.055l-.134,1.009a.077.077,0,0,0,.025.068.061.061,0,0,0,.066.009Zm.068,4.2h-.005a.073.073,0,0,1-.036-.013.09.09,0,0,1-.037-.074l0-4.088-.263.13a.071.071,0,0,1-.079-.01.091.091,0,0,1-.03-.082l.134-1.009a.085.085,0,0,1,.046-.066l.994-.48a.071.071,0,0,1,.069,0,.088.088,0,0,1,.04.063l.119.871a.089.089,0,0,1-.045.092l-.324.16-.024,4.154a.088.088,0,0,1-.043.077l-.478.261a.073.073,0,0,1-.034.009" transform="translate(-410.664 -751.976)" fill="#252324"/>
    <path id="Path_14407" data-name="Path 14407" d="M304.107,816.146l-1.061-.8-.018-.242,1.017.755.026.021a.1.1,0,0,1,.014.015.043.043,0,0,1,.006.014.1.1,0,0,1,0,.022Zm1.349,1.014-.775-.582-.027-.49a.932.932,0,0,0-.045-.243.88.88,0,0,0-.1-.2,1.034,1.034,0,0,0-.138-.169,1.413,1.413,0,0,0-.166-.14l-1.394-1.016a.667.667,0,0,0-.146-.084.2.2,0,0,0-.122-.014.126.126,0,0,0-.084.081.351.351,0,0,0-.015.151l.086,1.1a.082.082,0,0,0,.031.059l2.857,2.186a.07.07,0,0,0,.036.014.068.068,0,0,0,.04-.01.081.081,0,0,0,.037-.073l-.021-.461a.145.145,0,0,0-.056-.11" transform="translate(-302.076 -808.051)" fill="#252324"/>
    <path id="Path_14408" data-name="Path 14408" d="M302.948,815.241l1.048.787-.012-.2a.116.116,0,0,0,0-.021.04.04,0,0,0-.005-.012.079.079,0,0,0-.013-.014l-.025-.02-1.006-.747Zm1.062.815-1.074-.806-.019-.261,1.027.763.026.021a.1.1,0,0,1,.015.017.059.059,0,0,1,.007.016.117.117,0,0,1,0,.024Zm-1.532-1.939a.118.118,0,0,0-.115.081.341.341,0,0,0-.015.148l.086,1.1a.074.074,0,0,0,.028.053l2.857,2.186a.063.063,0,0,0,.033.013.06.06,0,0,0,.036-.009.073.073,0,0,0,.033-.066l-.021-.461a.139.139,0,0,0-.053-.1l-.778-.584-.027-.494a.922.922,0,0,0-.044-.24.885.885,0,0,0-.1-.2,1.044,1.044,0,0,0-.137-.168,1.413,1.413,0,0,0-.165-.139l-1.394-1.016a.667.667,0,0,0-.144-.083.237.237,0,0,0-.084-.018m2.879,3.6h-.005a.078.078,0,0,1-.039-.015l-2.857-2.186a.09.09,0,0,1-.034-.064l-.086-1.1a.356.356,0,0,1,.016-.155.132.132,0,0,1,.088-.085.2.2,0,0,1,.126.014.674.674,0,0,1,.147.085l1.394,1.016a1.376,1.376,0,0,1,.166.141,1.039,1.039,0,0,1,.139.17.894.894,0,0,1,.1.206.95.95,0,0,1,.045.244l.026.486.773.58a.154.154,0,0,1,.059.115l.02.461a.088.088,0,0,1-.04.08.072.072,0,0,1-.038.011" transform="translate(-301.971 -807.947)" fill="#252324"/>
    <path id="Path_14409" data-name="Path 14409" d="M300.689,787.9l.891.624.025.02a.086.086,0,0,1,.014.016.045.045,0,0,1,.007.015.081.081,0,0,1,0,.021l.014.221-.935-.663Zm2.475,2.679a.068.068,0,0,0,.04-.01.081.081,0,0,0,.036-.073l-.023-.523a.082.082,0,0,0-.033-.063l-.975-.691.891.366a.065.065,0,0,0,.067-.01.082.082,0,0,0,.029-.068l-.026-.571a.079.079,0,0,0-.049-.072l-.953-.351a.531.531,0,0,0-.03-.121.721.721,0,0,0-.071-.139.82.82,0,0,0-.1-.12.694.694,0,0,0-.107-.092l-1.373-.941a.651.651,0,0,0-.159-.084.191.191,0,0,0-.133,0,.151.151,0,0,0-.085.1.477.477,0,0,0-.014.182l.086,1.108a.081.081,0,0,0,.032.06l2.91,2.1a.069.069,0,0,0,.034.013" transform="translate(-299.863 -782.626)" fill="#252324"/>
    <path id="Path_14410" data-name="Path 14410" d="M300.607,788.047l.922.653-.013-.207a.087.087,0,0,0,0-.02.045.045,0,0,0-.006-.013.079.079,0,0,0-.013-.015l-.025-.019-.88-.616Zm.937.681-.949-.672v0l-.019-.269.9.631a.248.248,0,0,1,.026.021.1.1,0,0,1,.015.017.056.056,0,0,1,.008.017.1.1,0,0,1,0,.023Zm-1.4-1.822a.133.133,0,0,0-.134.105.469.469,0,0,0-.013.179l.086,1.108a.073.073,0,0,0,.029.055l2.91,2.1a.063.063,0,0,0,.032.012.061.061,0,0,0,.037-.01.073.073,0,0,0,.032-.066l-.023-.523a.074.074,0,0,0-.03-.057l-1.027-.728.948.39a.06.06,0,0,0,.061-.009.075.075,0,0,0,.026-.062l-.026-.571a.072.072,0,0,0-.045-.065l-.957-.353v0a.521.521,0,0,0-.03-.119.714.714,0,0,0-.07-.137.837.837,0,0,0-.094-.119.691.691,0,0,0-.106-.091L300.383,787a.643.643,0,0,0-.158-.084.242.242,0,0,0-.076-.014m2.914,3.578h-.005a.073.073,0,0,1-.037-.014l-2.91-2.1a.089.089,0,0,1-.035-.066l-.086-1.108a.487.487,0,0,1,.014-.185.157.157,0,0,1,.089-.1.2.2,0,0,1,.136,0,.674.674,0,0,1,.16.085l1.373.942a.7.7,0,0,1,.108.093.811.811,0,0,1,.1.121.729.729,0,0,1,.072.141.538.538,0,0,1,.03.118l.949.35a.086.086,0,0,1,.054.078l.026.571a.09.09,0,0,1-.032.074.071.071,0,0,1-.073.011l-.834-.343.923.654a.09.09,0,0,1,.036.069l.023.524a.089.089,0,0,1-.039.079.072.072,0,0,1-.038.011" transform="translate(-299.756 -782.522)" fill="#252324"/>
    <path id="Path_14411" data-name="Path 14411" d="M298.151,759.347l1.865,1.222.028.02a.081.081,0,0,1,.014.015.043.043,0,0,1,.007.014.112.112,0,0,1,0,.025l.012.234-.008-.005-1.862-1.236-.02-.015a.082.082,0,0,1-.012-.014.052.052,0,0,1-.007-.014.087.087,0,0,1,0-.019Zm-.28.724a1.061,1.061,0,0,0,.16.133l2.209,1.5a.994.994,0,0,0,.18.1.374.374,0,0,0,.112.029.215.215,0,0,0,.049,0,.161.161,0,0,0,.121-.094.464.464,0,0,0,.032-.221l-.034-.761a.916.916,0,0,0-.166-.491,1.061,1.061,0,0,0-.159-.179,1.382,1.382,0,0,0-.183-.14l-2.245-1.434a.623.623,0,0,0-.162-.078.192.192,0,0,0-.135,0,.166.166,0,0,0-.084.108.526.526,0,0,0-.013.19l.06.772a.918.918,0,0,0,.043.215.877.877,0,0,0,.088.188.928.928,0,0,0,.127.161" transform="translate(-297.459 -755.923)" fill="#252324"/>
    <path id="Path_14412" data-name="Path 14412" d="M298.053,759.254l.016.213a.075.075,0,0,0,0,.017.051.051,0,0,0,.006.012l.011.013.019.014,1.86,1.234-.011-.221a.106.106,0,0,0,0-.024.038.038,0,0,0-.005-.012.073.073,0,0,0-.013-.014l-.027-.02Zm1.929,1.53-.018-.012-1.862-1.236-.02-.016a.089.089,0,0,1-.013-.015.063.063,0,0,1-.008-.016.082.082,0,0,1,0-.021l-.017-.241.01.007,1.865,1.222.028.02a.088.088,0,0,1,.016.016.056.056,0,0,1,.007.016.126.126,0,0,1,0,.027Zm-2.212-.825a1.055,1.055,0,0,0,.159.132l2.209,1.5a1,1,0,0,0,.179.1.36.36,0,0,0,.11.029.187.187,0,0,0,.048,0,.155.155,0,0,0,.117-.09.457.457,0,0,0,.031-.217l-.034-.761a.93.93,0,0,0-.051-.266.907.907,0,0,0-.114-.221,1.063,1.063,0,0,0-.158-.178,1.377,1.377,0,0,0-.183-.139l-2.245-1.434a.612.612,0,0,0-.161-.077.185.185,0,0,0-.131,0,.159.159,0,0,0-.081.1.509.509,0,0,0-.013.187l.06.772a.9.9,0,0,0,.042.212.855.855,0,0,0,.087.187.916.916,0,0,0,.126.159m2.674,1.776h-.018a.386.386,0,0,1-.114-.029,1.014,1.014,0,0,1-.181-.1l-2.209-1.5a1.1,1.1,0,0,1-.161-.133h0a.921.921,0,0,1-.128-.162.868.868,0,0,1-.089-.19.919.919,0,0,1-.043-.217l-.06-.772a.529.529,0,0,1,.014-.193.171.171,0,0,1,.088-.113.2.2,0,0,1,.138,0,.635.635,0,0,1,.164.079l2.244,1.434a1.362,1.362,0,0,1,.184.14,1.09,1.09,0,0,1,.16.18.926.926,0,0,1,.116.225.938.938,0,0,1,.052.27l.034.761a.473.473,0,0,1-.033.225.167.167,0,0,1-.126.1l-.032,0" transform="translate(-297.353 -755.817)" fill="#252324"/>
    <path id="Path_14413" data-name="Path 14413" d="M301.615,816.043l1.072.805-.013-.224a.118.118,0,0,0,0-.024.055.055,0,0,0-.007-.016.1.1,0,0,0-.014-.016l-.026-.021-1.026-.762Zm2.416,2.454a.062.062,0,0,1-.033-.013L301.14,816.3a.076.076,0,0,1-.029-.054l-.085-1.1a.344.344,0,0,1,.015-.149.12.12,0,0,1,.08-.077.135.135,0,0,1,.035,0,.232.232,0,0,1,.084.018.664.664,0,0,1,.145.083l1.394,1.016a1.379,1.379,0,0,1,.165.139,1.038,1.038,0,0,1,.138.168.893.893,0,0,1,.1.2.935.935,0,0,1,.045.241l.027.493.777.584a.138.138,0,0,1,.053.1l.021.461a.074.074,0,0,1-.034.067.06.06,0,0,1-.032.009Z" transform="translate(-300.736 -808.701)" fill="#fff"/>
    <path id="Path_14414" data-name="Path 14414" d="M302.591,816.748l-1.061-.8-.017-.242,1.017.755.026.021a.079.079,0,0,1,.014.015.048.048,0,0,1,.006.014.117.117,0,0,1,0,.022Zm-1.525-1.933a.134.134,0,0,0-.036,0,.126.126,0,0,0-.084.081.353.353,0,0,0-.015.151l.086,1.1a.082.082,0,0,0,.031.059L303.9,818.4a.07.07,0,0,0,.036.014h0a.066.066,0,0,0,.035-.01.081.081,0,0,0,.037-.073l-.021-.461a.145.145,0,0,0-.056-.11l-.775-.582-.026-.49a.939.939,0,0,0-.045-.242.9.9,0,0,0-.1-.2,1.038,1.038,0,0,0-.138-.169,1.429,1.429,0,0,0-.166-.14l-1.394-1.016a.651.651,0,0,0-.146-.084.237.237,0,0,0-.085-.018m1.537,1.957v-.025l-.013-.212a.123.123,0,0,0,0-.025.056.056,0,0,0-.008-.017.09.09,0,0,0-.016-.018l-.026-.022-1.017-.755-.018-.014,0,.025.018.242v.006l0,0,1.061.8Zm-1.537-1.944a.229.229,0,0,1,.082.018.657.657,0,0,1,.143.083l1.394,1.016a1.4,1.4,0,0,1,.164.139,1.034,1.034,0,0,1,.137.167.868.868,0,0,1,.1.2.921.921,0,0,1,.044.239l.027.49v.006l0,0,.775.582a.133.133,0,0,1,.051.1l.021.461a.068.068,0,0,1-.031.062.057.057,0,0,1-.03.009h0a.063.063,0,0,1-.031-.012l-2.857-2.185a.07.07,0,0,1-.026-.05l-.086-1.1a.338.338,0,0,1,.014-.146.115.115,0,0,1,.077-.074.127.127,0,0,1,.034,0" transform="translate(-300.646 -808.613)" fill="#252324"/>
    <path id="Path_14415" data-name="Path 14415" d="M301.43,815.842l1.047.787-.012-.2a.1.1,0,0,0,0-.021.036.036,0,0,0-.005-.012.068.068,0,0,0-.012-.014l-.025-.021-1.006-.747Zm1.062.815-1.074-.807-.019-.261,1.027.763.026.021a.09.09,0,0,1,.015.017.052.052,0,0,1,.007.016.115.115,0,0,1,0,.024Zm-1.532-1.94a.135.135,0,0,0-.035,0,.119.119,0,0,0-.08.077.341.341,0,0,0-.015.148l.086,1.1a.074.074,0,0,0,.028.053l2.857,2.185a.06.06,0,0,0,.033.013.061.061,0,0,0,.036-.009.073.073,0,0,0,.033-.066l-.021-.461a.138.138,0,0,0-.053-.1l-.778-.584-.027-.493a.925.925,0,0,0-.044-.24.878.878,0,0,0-.1-.2,1.029,1.029,0,0,0-.138-.168,1.4,1.4,0,0,0-.165-.139l-1.394-1.016a.663.663,0,0,0-.145-.083.234.234,0,0,0-.084-.018m2.879,3.6h-.005a.074.074,0,0,1-.039-.015l-2.857-2.185a.091.091,0,0,1-.034-.065l-.086-1.1a.356.356,0,0,1,.016-.155.132.132,0,0,1,.088-.085.2.2,0,0,1,.126.014.667.667,0,0,1,.147.085l1.394,1.016a1.41,1.41,0,0,1,.166.141,1.039,1.039,0,0,1,.139.17.9.9,0,0,1,.1.206.951.951,0,0,1,.045.245l.026.486.773.58a.153.153,0,0,1,.059.116l.021.461a.088.088,0,0,1-.04.08.072.072,0,0,1-.038.011" transform="translate(-300.539 -808.508)" fill="#252324"/>
    <path id="Path_14416" data-name="Path 14416" d="M299.275,788.849l.946.671-.014-.234a.1.1,0,0,0,0-.023.055.055,0,0,0-.008-.016.092.092,0,0,0-.015-.017.259.259,0,0,0-.026-.02l-.9-.63Zm2.462,2.415a.063.063,0,0,1-.032-.012l-2.91-2.1a.074.074,0,0,1-.03-.055l-.086-1.108a.472.472,0,0,1,.013-.179.146.146,0,0,1,.082-.1.148.148,0,0,1,.053-.009.247.247,0,0,1,.077.014.657.657,0,0,1,.158.084l1.373.941a.677.677,0,0,1,.106.091.809.809,0,0,1,.094.119.715.715,0,0,1,.07.138.517.517,0,0,1,.03.119v0l.956.352a.073.073,0,0,1,.045.066l.026.571a.076.076,0,0,1-.027.062.061.061,0,0,1-.062.01l-.94-.386,1.019.722a.075.075,0,0,1,.031.058l.023.524a.074.074,0,0,1-.033.067.061.061,0,0,1-.033.01Z" transform="translate(-298.521 -783.277)" fill="#fff"/>
    <path id="Path_14417" data-name="Path 14417" d="M300.125,789.42l-.936-.663-.018-.255.891.624a.215.215,0,0,1,.025.02.082.082,0,0,1,.014.016.056.056,0,0,1,.007.015.092.092,0,0,1,0,.021Zm-1.388-1.816a.142.142,0,0,0-.054.01.151.151,0,0,0-.085.1.477.477,0,0,0-.014.182L298.67,789a.082.082,0,0,0,.033.06l2.91,2.1a.068.068,0,0,0,.034.013h.005a.066.066,0,0,0,.035-.01.081.081,0,0,0,.036-.073l-.023-.524a.082.082,0,0,0-.033-.063l-.975-.691.891.366a.069.069,0,0,0,.025.005.066.066,0,0,0,.042-.016.082.082,0,0,0,.029-.068l-.025-.571a.08.08,0,0,0-.049-.072l-.953-.351a.526.526,0,0,0-.03-.121.724.724,0,0,0-.071-.139.837.837,0,0,0-.1-.12.708.708,0,0,0-.107-.092l-1.373-.941a.664.664,0,0,0-.159-.084.246.246,0,0,0-.078-.014m1.4,1.839v-.024l-.014-.221a.108.108,0,0,0,0-.025.061.061,0,0,0-.008-.018.1.1,0,0,0-.016-.018l-.027-.021-.891-.624-.018-.013,0,.024.018.254v.006l0,0,.935.663Zm-1.4-1.826a.242.242,0,0,1,.075.014.658.658,0,0,1,.157.083l1.373.942a.663.663,0,0,1,.1.09.825.825,0,0,1,.094.118.7.7,0,0,1,.07.136.513.513,0,0,1,.03.118v.008l.006,0,.953.351a.068.068,0,0,1,.042.061l.025.571a.069.069,0,0,1-.025.057.055.055,0,0,1-.057.009l-.891-.366-.1-.04.088.062.975.691a.069.069,0,0,1,.028.053l.023.524a.068.068,0,0,1-.03.061.054.054,0,0,1-.03.009h0a.057.057,0,0,1-.029-.011l-2.91-2.1a.068.068,0,0,1-.028-.051l-.086-1.108a.461.461,0,0,1,.013-.177.129.129,0,0,1,.13-.1" transform="translate(-298.431 -783.189)" fill="#252324"/>
    <path id="Path_14418" data-name="Path 14418" d="M299.091,788.648l.922.653-.013-.207a.086.086,0,0,0,0-.02.045.045,0,0,0-.006-.013.076.076,0,0,0-.013-.015l-.025-.019-.88-.616Zm.937.681-.949-.672v0l-.019-.269.9.631.026.021a.086.086,0,0,1,.015.017.058.058,0,0,1,.008.017.107.107,0,0,1,0,.023Zm1.515,1.741a.06.06,0,0,0,.037-.01.073.073,0,0,0,.033-.066l-.023-.523a.074.074,0,0,0-.03-.058l-1.027-.727.948.389a.06.06,0,0,0,.061-.009.075.075,0,0,0,.027-.061l-.026-.571a.073.073,0,0,0-.045-.065l-.957-.353v0a.521.521,0,0,0-.03-.119.707.707,0,0,0-.07-.138.84.84,0,0,0-.094-.119.689.689,0,0,0-.106-.091l-1.373-.941a.656.656,0,0,0-.158-.084.186.186,0,0,0-.129,0,.144.144,0,0,0-.081.1.467.467,0,0,0-.013.179l.086,1.108a.074.074,0,0,0,.029.055l2.91,2.1a.063.063,0,0,0,.032.012m0,.015h-.005a.073.073,0,0,1-.037-.014l-2.91-2.1a.088.088,0,0,1-.035-.066l-.086-1.108a.493.493,0,0,1,.014-.185.157.157,0,0,1,.089-.1.2.2,0,0,1,.136,0,.668.668,0,0,1,.161.085l1.373.941a.715.715,0,0,1,.108.092.854.854,0,0,1,.1.121.722.722,0,0,1,.072.14.553.553,0,0,1,.03.118l.949.35a.086.086,0,0,1,.054.078l.025.571a.09.09,0,0,1-.032.074.071.071,0,0,1-.073.011l-.834-.343.923.654a.09.09,0,0,1,.036.069l.023.524a.089.089,0,0,1-.039.079.07.07,0,0,1-.038.011" transform="translate(-298.326 -783.084)" fill="#252324"/>
    <path id="Path_14419" data-name="Path 14419" d="M296.734,760.262a.084.084,0,0,0,0,.02.068.068,0,0,0,.008.016.082.082,0,0,0,.013.015l.021.016,1.87,1.241.009.005-.012-.246a.133.133,0,0,0,0-.027.049.049,0,0,0-.008-.016.078.078,0,0,0-.015-.016l-.028-.02-1.874-1.227Zm2.388,2.253H299.1a.372.372,0,0,1-.111-.029,1.009,1.009,0,0,1-.179-.1l-2.209-1.5a1.088,1.088,0,0,1-.159-.132.92.92,0,0,1-.126-.159.857.857,0,0,1-.087-.187.9.9,0,0,1-.042-.213l-.06-.772a.514.514,0,0,1,.013-.187.16.16,0,0,1,.081-.1.15.15,0,0,1,.065-.014.25.25,0,0,1,.066.01.623.623,0,0,1,.161.077l2.245,1.434a1.362,1.362,0,0,1,.183.139,1.081,1.081,0,0,1,.158.178.916.916,0,0,1,.114.221.928.928,0,0,1,.051.266l.034.761a.457.457,0,0,1-.031.218.156.156,0,0,1-.118.091l-.031,0" transform="translate(-296.117 -756.571)" fill="#fff"/>
    <path id="Path_14420" data-name="Path 14420" d="M298.563,761.478l-.008-.005-1.862-1.235-.02-.015a.083.083,0,0,1-.013-.014.063.063,0,0,1-.007-.014.077.077,0,0,1,0-.019l-.016-.227,1.865,1.221.028.02a.089.089,0,0,1,.014.015.049.049,0,0,1,.007.014.119.119,0,0,1,0,.025Zm-2.362-2.455a.155.155,0,0,0-.067.014.165.165,0,0,0-.084.109.518.518,0,0,0-.013.19l.06.772a.913.913,0,0,0,.042.215.861.861,0,0,0,.088.188.919.919,0,0,0,.127.161,1.046,1.046,0,0,0,.16.133l2.209,1.5a1.021,1.021,0,0,0,.18.1.38.38,0,0,0,.112.029h.017l.032,0a.161.161,0,0,0,.121-.094.463.463,0,0,0,.032-.221l-.034-.761a.932.932,0,0,0-.051-.268.916.916,0,0,0-.115-.223,1.081,1.081,0,0,0-.159-.179,1.364,1.364,0,0,0-.183-.139l-2.245-1.434a.624.624,0,0,0-.163-.078.256.256,0,0,0-.067-.01m2.374,2.476v-.022l-.012-.235a.123.123,0,0,0,0-.028.065.065,0,0,0-.008-.018.085.085,0,0,0-.016-.017l-.029-.021-1.865-1.221-.018-.012,0,.023.016.227a.1.1,0,0,0,0,.022.079.079,0,0,0,.009.017.1.1,0,0,0,.014.016l.021.016,1.862,1.236.008.005Zm-2.374-2.464a.253.253,0,0,1,.065.01.608.608,0,0,1,.16.077l2.244,1.434a1.35,1.35,0,0,1,.182.138,1.064,1.064,0,0,1,.157.177.905.905,0,0,1,.113.22.92.92,0,0,1,.05.264l.034.761a.451.451,0,0,1-.031.214.15.15,0,0,1-.114.088l-.03,0h-.017a.375.375,0,0,1-.109-.028.993.993,0,0,1-.178-.1l-2.209-1.5a1.053,1.053,0,0,1-.159-.131.927.927,0,0,1-.126-.158.874.874,0,0,1-.087-.185.9.9,0,0,1-.042-.211l-.06-.772a.5.5,0,0,1,.013-.185.154.154,0,0,1,.078-.1.146.146,0,0,1,.063-.013" transform="translate(-296.027 -756.484)" fill="#252324"/>
    <path id="Path_14421" data-name="Path 14421" d="M296.535,759.856l.015.213a.067.067,0,0,0,0,.017.056.056,0,0,0,.006.012l.011.013.019.014,1.86,1.234-.011-.221a.1.1,0,0,0,0-.023.037.037,0,0,0-.005-.012.07.07,0,0,0-.013-.014l-.027-.02Zm1.929,1.53-.018-.012-1.862-1.236-.021-.016a.088.088,0,0,1-.013-.016.065.065,0,0,1-.008-.016.093.093,0,0,1,0-.021l-.017-.241.01.007,1.865,1.221.028.021a.083.083,0,0,1,.016.016.06.06,0,0,1,.007.016.119.119,0,0,1,0,.027Zm-2.369-2.46a.149.149,0,0,0-.065.014.159.159,0,0,0-.081.1.513.513,0,0,0-.013.187L296,760a.915.915,0,0,0,.042.213.87.87,0,0,0,.087.186.918.918,0,0,0,.126.159,1.043,1.043,0,0,0,.159.132l2.209,1.5a.992.992,0,0,0,.179.1.359.359,0,0,0,.11.029.192.192,0,0,0,.048,0,.155.155,0,0,0,.117-.09.457.457,0,0,0,.031-.217l-.034-.761a.923.923,0,0,0-.051-.266.911.911,0,0,0-.114-.221,1.061,1.061,0,0,0-.158-.178,1.333,1.333,0,0,0-.183-.139l-2.244-1.435a.624.624,0,0,0-.161-.077.249.249,0,0,0-.066-.01m2.831,3.411h-.018a.38.38,0,0,1-.114-.03,1.033,1.033,0,0,1-.181-.1l-2.209-1.5a1.075,1.075,0,0,1-.161-.134.921.921,0,0,1-.128-.162.872.872,0,0,1-.089-.19.931.931,0,0,1-.043-.216l-.06-.772a.531.531,0,0,1,.014-.193.172.172,0,0,1,.088-.113.2.2,0,0,1,.138,0,.629.629,0,0,1,.164.079l2.244,1.434a1.35,1.35,0,0,1,.184.14,1.08,1.08,0,0,1,.16.18.927.927,0,0,1,.116.225.946.946,0,0,1,.051.271l.034.761a.473.473,0,0,1-.033.225.167.167,0,0,1-.126.1l-.032,0" transform="translate(-295.921 -756.379)" fill="#252324"/>
  </g>
</svg>
