<svg id="Group_17379" data-name="Group 17379" xmlns="http://www.w3.org/2000/svg" xmlns:xlink="http://www.w3.org/1999/xlink" width="32" height="32" viewBox="0 0 32 32">
  <defs>
    <clipPath id="clip-path">
      <rect id="Rectangle_1492" data-name="Rectangle 1492" width="24" height="24" fill="none"/>
    </clipPath>
  </defs>
  <rect id="Rectangle_1493" data-name="Rectangle 1493" width="32" height="32" fill="none"/>
  <g id="Mask_Group_103" data-name="Mask Group 103" transform="translate(4 4)" clip-path="url(#clip-path)">
    <path id="Path_120" data-name="Path 120" d="M151,295a5,5,0,0,1,10,0v3h1a3,3,0,0,1,3,3v6a3,3,0,0,1-3,3H150a3,3,0,0,1-3-3v-6a3,3,0,0,1,3-3h1Zm2,3h6v-3a3,3,0,0,0-6,0Zm-3,2a1,1,0,0,0-1,1v6a1,1,0,0,0,1,1h12a1,1,0,0,0,1-1v-6a1,1,0,0,0-1-1Zm6,2a1,1,0,0,1,1,1v2a1,1,0,0,1-2,0v-2A1,1,0,0,1,156,302Z" transform="translate(-144.038 -288.071)" fill="#a5a5a5" fill-rule="evenodd"/>
  </g>
</svg>
