<svg id="Group_17379" data-name="Group 17379" xmlns="http://www.w3.org/2000/svg" xmlns:xlink="http://www.w3.org/1999/xlink" width="32" height="32" viewBox="0 0 32 32">
  <defs>
    <clipPath id="clip-path">
      <rect id="Rectangle_1492" data-name="Rectangle 1492" width="24" height="24" fill="none"/>
    </clipPath>
  </defs>
  <rect id="Rectangle_1493" data-name="Rectangle 1493" width="32" height="32" fill="none"/>
  <g id="Mask_Group_103" data-name="Mask Group 103" transform="translate(4 4)" clip-path="url(#clip-path)">
    <path id="Path_93" data-name="Path 93" d="M60,52a3,3,0,1,0,3,3A3,3,0,0,0,60,52Zm-5,3a5,5,0,1,1,5,5A5,5,0,0,1,55,55Zm-.917,13H65.917a6,6,0,0,0-11.834,0ZM52,69a8,8,0,0,1,16,0,1,1,0,0,1-1,1H53A1,1,0,0,1,52,69Z" transform="translate(-47.661 -48)" fill="#a5a5a5" fill-rule="evenodd"/>
  </g>
</svg>
