<svg xmlns="http://www.w3.org/2000/svg" width="34" height="26.819" viewBox="0 0 34 26.819">
  <g id="Group_18983" data-name="Group 18983" transform="translate(-180 -165)">
    <path id="Path_14727" data-name="Path 14727" d="M210.3,176.568a1.975,1.975,0,0,0-.963-.395,2.039,2.039,0,0,0-1.043.139l-6.079,2.51-3.532-5.913a1.876,1.876,0,0,0-.709-.665,2.064,2.064,0,0,0-1.947,0,1.866,1.866,0,0,0-.708.665l-3.533,5.913-6.079-2.51a2.054,2.054,0,0,0-1.044-.139,2,2,0,0,0-.967.393,1.8,1.8,0,0,0-.6.809,1.665,1.665,0,0,0-.047.978l3.052,12.082a1.715,1.715,0,0,0,.32.649,1.859,1.859,0,0,0,.569.478,2.061,2.061,0,0,0,1,.257,1.943,1.943,0,0,0,.5-.067,34.27,34.27,0,0,1,17,0,2.11,2.11,0,0,0,1.5-.19,1.826,1.826,0,0,0,.572-.477,1.694,1.694,0,0,0,.318-.65l3.063-12.082a1.658,1.658,0,0,0-.05-.978A1.794,1.794,0,0,0,210.3,176.568Z" fill="#ceaa5d"/>
    <circle id="Ellipse_208" data-name="Ellipse 208" cx="4" cy="4" r="4" transform="translate(193 165)" fill="#ceaa5d"/>
    <circle id="Ellipse_209" data-name="Ellipse 209" cx="3" cy="3" r="3" transform="translate(194 180)" fill="#fef5bf"/>
    <circle id="Ellipse_210" data-name="Ellipse 210" cx="2.5" cy="2.5" r="2.5" transform="translate(209 173)" fill="#ceaa5d"/>
    <circle id="Ellipse_211" data-name="Ellipse 211" cx="2.5" cy="2.5" r="2.5" transform="translate(180 173)" fill="#ceaa5d"/>
    <circle id="Ellipse_212" data-name="Ellipse 212" cx="1.5" cy="1.5" r="1.5" transform="translate(188 183)" fill="#fef5bf"/>
    <circle id="Ellipse_213" data-name="Ellipse 213" cx="1.5" cy="1.5" r="1.5" transform="translate(203 183)" fill="#fef5bf"/>
  </g>
</svg>
