<svg xmlns="http://www.w3.org/2000/svg" width="27" height="27.098" viewBox="0 0 27 27.098">
  <path id="home" d="M26.011,10.243l-8.533-8.57a5.617,5.617,0,0,0-7.956,0L.989,10.243A3.372,3.372,0,0,0,0,12.639V23.73a3.382,3.382,0,0,0,3.375,3.389h20.25A3.382,3.382,0,0,0,27,23.73V12.639A3.372,3.372,0,0,0,26.011,10.243ZM16.875,24.86h-6.75V20.415a3.375,3.375,0,1,1,6.75,0Zm7.875-1.13a1.127,1.127,0,0,1-1.125,1.13h-4.5V20.415a5.625,5.625,0,1,0-11.25,0V24.86h-4.5A1.127,1.127,0,0,1,2.25,23.73V12.639a1.141,1.141,0,0,1,.33-.8l8.533-8.567a3.374,3.374,0,0,1,4.774,0l8.533,8.57a1.141,1.141,0,0,1,.33.8Z" transform="translate(0 -0.021)"/>
</svg>
