<svg xmlns="http://www.w3.org/2000/svg" width="24" height="24" viewBox="0 0 24 24">
  <path id="Path_4478" data-name="Path 4478" d="M347.713,772.286A2.3,2.3,0,0,1,350.026,770h.115a3.621,3.621,0,0,1,3.642,3.6v4.8h4.57a3.6,3.6,0,0,1,3.257,5.21l-4.249,8.4A3.647,3.647,0,0,1,354.1,794h-4.878a3.654,3.654,0,0,1-.883-.108l-4.422-1.092h-2.279A3.621,3.621,0,0,1,338,789.2V782a3.621,3.621,0,0,1,3.642-3.6h2.587l2.949-4.372A3.115,3.115,0,0,0,347.713,772.286Zm-4.856,8.514h-1.214a1.208,1.208,0,0,0-1.214,1.2v7.2a1.208,1.208,0,0,0,1.214,1.2h1.214Zm2.428,9.863v-9.5l3.914-5.8a5.5,5.5,0,0,0,.941-2.959,1.209,1.209,0,0,1,1.215,1.2v4.8h-1.214a1.2,1.2,0,1,0,0,2.4h8.212a1.2,1.2,0,0,1,1.085,1.736l-4.249,8.4a1.214,1.214,0,0,1-1.085.663h-4.878a1.2,1.2,0,0,1-.294-.036Z" transform="translate(-338 -770)" fill="#a5a5a5" fill-rule="evenodd"/>
</svg>
