<svg xmlns="http://www.w3.org/2000/svg" width="25" height="25" viewBox="0 0 25 25">
  <g id="Group_17872" data-name="Group 17872" transform="translate(2 -715.207)">
    <circle id="Ellipse_6" data-name="Ellipse 6" cx="12.5" cy="12.5" r="12.5" transform="translate(-2 715.207)"/>
    <path id="Path_13135" data-name="Path 13135" d="M342.856,771.143A1.15,1.15,0,0,1,344.013,770h.058a1.811,1.811,0,0,1,1.821,1.8v2.4h2.285a1.8,1.8,0,0,1,1.629,2.605l-2.125,4.2a1.823,1.823,0,0,1-1.629.995h-2.439a1.827,1.827,0,0,1-.441-.054l-2.211-.546h-1.139A1.811,1.811,0,0,1,338,779.6V776a1.811,1.811,0,0,1,1.821-1.8h1.294l1.474-2.186A1.557,1.557,0,0,0,342.856,771.143Zm-2.428,4.257h-.607a.6.6,0,0,0-.607.6v3.6a.6.6,0,0,0,.607.6h.607Zm1.214,4.931v-4.75l1.957-2.9a2.749,2.749,0,0,0,.47-1.48.6.6,0,0,1,.608.6v2.4h-.607a.6.6,0,1,0,0,1.2h4.106a.6.6,0,0,1,.543.868l-2.125,4.2a.607.607,0,0,1-.543.332h-2.439a.6.6,0,0,1-.147-.018Z" transform="translate(-333 -48.293)" fill="#fff" fill-rule="evenodd"/>
  </g>
</svg>
