<svg id="Group_17352" data-name="Group 17352" xmlns="http://www.w3.org/2000/svg" width="31.949" height="32.85" viewBox="0 0 31.949 32.85">
  <path id="Path_4516" data-name="Path 4516" d="M338,780.08a3.08,3.08,0,0,1,6.159,0V792.4a3.08,3.08,0,0,1-6.159,0Z" transform="translate(-338 -762.628)" fill="#fff"/>
  <path id="Path_4517" data-name="Path 4517" d="M342,787.109v11.15a4.108,4.108,0,0,0,2.271,3.673l.1.051a8.237,8.237,0,0,0,3.673.866h11.12a4.107,4.107,0,0,0,4.028-3.3l2.464-12.319a4.108,4.108,0,0,0-4.028-4.911h-7.309v-8.212A4.105,4.105,0,0,0,350.213,770a2.054,2.054,0,0,0-2.053,2.053v1.369a8.221,8.221,0,0,1-1.643,4.927l-2.874,3.831A8.221,8.221,0,0,0,342,787.109Z" transform="translate(-333.788 -770)" fill="#fff"/>
</svg>
