<svg xmlns="http://www.w3.org/2000/svg" width="24" height="21.6" viewBox="0 0 24 21.6">
  <path id="Path_282" data-name="Path 282" d="M198.8,869.4a2.4,2.4,0,0,0-2.4,2.4v12a2.4,2.4,0,0,0,2.4,2.4h4.8a2.4,2.4,0,0,0,2.4-2.4v-1.2a1.2,1.2,0,0,1,2.4,0v1.2a4.8,4.8,0,0,1-4.8,4.8h-4.8a4.8,4.8,0,0,1-4.8-4.8v-12a4.8,4.8,0,0,1,4.8-4.8h4.8a4.8,4.8,0,0,1,4.8,4.8V873a1.2,1.2,0,1,1-2.4,0v-1.2a2.4,2.4,0,0,0-2.4-2.4Zm12.351,2.752a1.2,1.2,0,0,1,1.7,0l4.8,4.8a1.2,1.2,0,0,1,0,1.7l-4.8,4.8a1.2,1.2,0,0,1-1.7-1.7L213.9,879H200a1.2,1.2,0,1,1,0-2.4h13.9l-2.752-2.752A1.2,1.2,0,0,1,211.151,872.152Z" transform="translate(-194 -867)" fill-rule="evenodd"/>
</svg>
