<svg id="Group_42126" data-name="Group 42126" xmlns="http://www.w3.org/2000/svg" xmlns:xlink="http://www.w3.org/1999/xlink" width="379.738" height="169.933" viewBox="0 0 379.738 169.933">
  <defs>
    <clipPath id="clip-path">
      <rect id="Rectangle_17893" data-name="Rectangle 17893" width="379.738" height="169.933" fill="none"/>
    </clipPath>
  </defs>
  <g id="Group_42125" data-name="Group 42125">
    <g id="Group_42124" data-name="Group 42124" clip-path="url(#clip-path)">
      <g id="Group_42123" data-name="Group 42123">
        <g id="Group_42122" data-name="Group 42122" clip-path="url(#clip-path)">
          <path id="Path_15978" data-name="Path 15978" d="M169,42.014V40.99h.555a.775.775,0,0,1,.5.136.447.447,0,0,1,.159.375.455.455,0,0,1-.159.377.781.781,0,0,1-.5.136Zm1.1.243a.832.832,0,0,0,.333-.254.809.809,0,0,0,.159-.5.78.78,0,0,0-.282-.637,1.165,1.165,0,0,0-.746-.223h-.939V43.09H169v-.736h.562c.057,0,.11-.005.164-.01l.544.746h.441Z" fill="#161615"/>
          <path id="Path_15979" data-name="Path 15979" d="M169.911,39.407a2.368,2.368,0,1,0,1.179.317,2.369,2.369,0,0,0-1.179-.317m-.009,5.257a2.889,2.889,0,1,1,2.507-1.445,2.876,2.876,0,0,1-2.507,1.445" fill="#161615"/>
          <path id="Path_15980" data-name="Path 15980" d="M169.275,41.923V40.881h.56a.786.786,0,0,1,.5.138.458.458,0,0,1,.159.381.463.463,0,0,1-.159.383.774.774,0,0,1-.5.14Zm1.109.248a.8.8,0,0,0,.5-.771.792.792,0,0,0-.286-.646,1.155,1.155,0,0,0-.753-.228H168.9v2.493h.38v-.75h.568a1.472,1.472,0,0,0,.165-.008l.548.758H171Z" fill="#161615"/>
          <path id="Path_15981" data-name="Path 15981" d="M29.322,45.756l8.068,4.121a1.271,1.271,0,0,0,1.166.032l10.877-4.224a.477.477,0,0,0,.06-.029L83.8,63.9l.116.063L81.19,65.086a.888.888,0,0,1-.266.066,1.069,1.069,0,0,1-.278-.014,2,2,0,0,1-.365-.108,4.12,4.12,0,0,1-.45-.214L57.356,52.467a1.286,1.286,0,0,0-1.139-.045L49.9,55.29a1.168,1.168,0,0,0-.088,2.1l25.2,14.171a22.339,22.339,0,0,0,3.7,1.616,20.424,20.424,0,0,0,3.726.869c.4.054.791.092,1.177.118a14.89,14.89,0,0,0,2.339-.023,10.444,10.444,0,0,0,3.068-.724l10.205-4.258a3.84,3.84,0,0,0,2.078-1.682,2.452,2.452,0,0,0-.092-2.256,6.787,6.787,0,0,0-1.832-2.106,18.349,18.349,0,0,0-3.088-1.974L49.654,36.778a2.472,2.472,0,0,0-2.2-.055L29.385,43.644a.661.661,0,0,0-.066.03,1.177,1.177,0,0,0-.641,1.029,1.2,1.2,0,0,0,.644,1.053" fill="#161615"/>
          <path id="Path_15982" data-name="Path 15982" d="M56.742,52.42a1.176,1.176,0,0,0-.48.1L49.946,55.39a1.058,1.058,0,0,0-.079,1.9l25.2,14.171a22.226,22.226,0,0,0,3.678,1.608,20.315,20.315,0,0,0,3.707.864c.386.052.779.092,1.169.117a14.792,14.792,0,0,0,2.322-.022,10.408,10.408,0,0,0,3.036-.716l10.2-4.259a3.742,3.742,0,0,0,2.024-1.63,2.348,2.348,0,0,0-.093-2.157,6.693,6.693,0,0,0-1.8-2.072,18.268,18.268,0,0,0-3.07-1.96L49.6,36.875a2.366,2.366,0,0,0-2.1-.054L29.425,43.747a.339.339,0,0,0-.055.024,1.068,1.068,0,0,0-.581.933,1.08,1.08,0,0,0,.584.956l8.067,4.12a1.167,1.167,0,0,0,1.069.031l10.885-4.228a.331.331,0,0,0,.047-.022l.052-.029.052.028L84.169,63.982l-2.937,1.2a.988.988,0,0,1-.3.074,1.18,1.18,0,0,1-.308-.015,2.2,2.2,0,0,1-.385-.114,4.115,4.115,0,0,1-.462-.219L57.3,52.563a1.174,1.174,0,0,0-.562-.143M84.657,74.307c-.346,0-.7-.011-1.055-.035-.394-.025-.792-.065-1.184-.118a20.518,20.518,0,0,1-3.746-.874,22.421,22.421,0,0,1-3.715-1.624l-25.2-14.172a1.277,1.277,0,0,1,.1-2.293l6.317-2.868a1.4,1.4,0,0,1,1.237.048l22.476,12.35a4.02,4.02,0,0,0,.437.207,1.826,1.826,0,0,0,.344.1.86.86,0,0,0,.248.013.762.762,0,0,0,.236-.058l2.509-1.03L49.492,45.779l-.018.008L38.6,50.012a1.377,1.377,0,0,1-1.258-.039l-8.069-4.121a1.275,1.275,0,0,1,0-2.275.681.681,0,0,1,.078-.034l18.066-6.922a2.587,2.587,0,0,1,2.293.06L96.338,61.044a18.479,18.479,0,0,1,3.107,1.985,6.9,6.9,0,0,1,1.86,2.143,2.558,2.558,0,0,1,.093,2.353,3.944,3.944,0,0,1-2.135,1.734l-10.2,4.259a10.574,10.574,0,0,1-3.1.731c-.421.039-.856.058-1.3.058" fill="#191717"/>
          <path id="Path_15983" data-name="Path 15983" d="M52.543,35.569l55.567,28.7a1.271,1.271,0,0,0,1.074.043l14.569-6.079a1.166,1.166,0,0,0,.172-2.084l-8.792-5.49a1.271,1.271,0,0,0-1.156-.1l-8.056,3.3-11.478-5.8,4.338-1.745a1.168,1.168,0,0,0,.08-2.149l-8.508-4.232a1.283,1.283,0,0,0-1.037-.044l-6.177,2.449L71.4,36.411l6.1-2.368a1.176,1.176,0,0,0,.767-1.1,1.192,1.192,0,0,0-.775-1.1l-9.791-3.816a1.27,1.27,0,0,0-.918,0l-14.115,5.4a1.169,1.169,0,0,0-.118,2.149" fill="#161615"/>
          <path id="Path_15984" data-name="Path 15984" d="M66.8,28.131,52.7,33.523a1.059,1.059,0,0,0-.108,1.949l55.567,28.7a1.172,1.172,0,0,0,.458.128,1.149,1.149,0,0,0,.524-.088l14.569-6.078a1.08,1.08,0,0,0,.668-.9,1.069,1.069,0,0,0-.512-.993l-8.792-5.49a1.158,1.158,0,0,0-1.056-.089l-8.1,3.324L94.179,48.052l4.561-1.834a1.059,1.059,0,0,0,.073-1.95L90.3,40.036a1.169,1.169,0,0,0-.948-.04l-6.222,2.467-.044-.022L71.128,36.4l6.326-2.456a1.068,1.068,0,0,0,.7-1,1.086,1.086,0,0,0-.706-1l-9.79-3.816a1.157,1.157,0,0,0-.839,0Zm41.9,36.387-.089,0a1.362,1.362,0,0,1-.544-.151l-55.567-28.7a1.277,1.277,0,0,1,.13-2.348l14.134-5.406a1.376,1.376,0,0,1,.977.011l9.79,3.816a1.3,1.3,0,0,1,.845,1.2,1.285,1.285,0,0,1-.836,1.2l-5.869,2.279,11.481,5.8,6.13-2.43a1.392,1.392,0,0,1,1.127.047l8.508,4.232a1.278,1.278,0,0,1-.088,2.349l-4.114,1.654,11.218,5.67,8.01-3.286a1.374,1.374,0,0,1,1.255.1l8.792,5.49a1.275,1.275,0,0,1-.188,2.278l-14.569,6.079a1.39,1.39,0,0,1-.533.107" fill="#191717"/>
          <path id="Path_15985" data-name="Path 15985" d="M75.928,28.656a13.29,13.29,0,0,0,2.606,1.612l41.659,20.464a41.954,41.954,0,0,0,4.751,2.022,21.421,21.421,0,0,0,4.193,1.033c.354.046.7.082,1.046.1a13.894,13.894,0,0,0,2.8-.093,14.576,14.576,0,0,0,3.659-1.015l6.424-2.682a1.166,1.166,0,0,0,.153-2.1l-8.876-5.324A1.281,1.281,0,0,0,133.2,42.6L127.349,45a.849.849,0,0,1-.247.06,1.17,1.17,0,0,1-.286-.012,2.246,2.246,0,0,1-.378-.1,4.5,4.5,0,0,1-.472-.2L91.9,28.348l4-1.554a1.172,1.172,0,0,0,.766-1.108,1.191,1.191,0,0,0-.791-1.1L85.8,20.812a.642.642,0,0,0-.453,0l-8.777,3.358a3.64,3.64,0,0,0-1.648,1.108A1.787,1.787,0,0,0,74.647,27a3.916,3.916,0,0,0,1.281,1.661" fill="#161615"/>
          <path id="Path_15986" data-name="Path 15986" d="M85.574,20.882a.506.506,0,0,0-.188.035l-8.778,3.358a3.528,3.528,0,0,0-1.6,1.072,1.68,1.68,0,0,0-.259,1.614A3.811,3.811,0,0,0,76,28.573a13.165,13.165,0,0,0,2.584,1.6l41.659,20.464a41.793,41.793,0,0,0,4.739,2.017,21.3,21.3,0,0,0,4.171,1.028c.353.046.7.081,1.039.1a13.617,13.617,0,0,0,2.774-.093,14.388,14.388,0,0,0,3.631-1.007L143.019,50a1.057,1.057,0,0,0,.14-1.9l-8.876-5.324a1.17,1.17,0,0,0-1.04-.078l-5.853,2.4a.953.953,0,0,1-.277.068,1.3,1.3,0,0,1-.314-.013,2.224,2.224,0,0,1-.4-.107,4.7,4.7,0,0,1-.482-.205l-34.291-16.5,4.235-1.646a1.063,1.063,0,0,0,.7-1,1.083,1.083,0,0,0-.72-1L85.76,20.916a.519.519,0,0,0-.186-.034M131.13,54.033c-.315,0-.632-.011-.954-.031-.341-.023-.7-.058-1.054-.1a21.615,21.615,0,0,1-4.214-1.038,42.236,42.236,0,0,1-4.763-2.028L78.485,30.367a13.432,13.432,0,0,1-2.627-1.626,4.017,4.017,0,0,1-1.315-1.71,1.892,1.892,0,0,1,.291-1.816,3.741,3.741,0,0,1,1.7-1.144l8.777-3.358a.75.75,0,0,1,.53,0l10.08,3.774a1.3,1.3,0,0,1,.862,1.2,1.283,1.283,0,0,1-.837,1.211L92.177,28.36l33.837,16.285a4.411,4.411,0,0,0,.46.2,2.117,2.117,0,0,0,.359.1,1.061,1.061,0,0,0,.259.012.788.788,0,0,0,.215-.053l5.853-2.4a1.39,1.39,0,0,1,1.235.094l8.876,5.324a1.276,1.276,0,0,1-.167,2.29l-6.424,2.681a14.617,14.617,0,0,1-3.686,1.023,13.82,13.82,0,0,1-1.864.126" fill="#191717"/>
          <path id="Path_15987" data-name="Path 15987" d="M91.9,19.575l7.858,5.2a1.272,1.272,0,0,0,1.176.133l4.612-1.792,44.792,23.821a1.3,1.3,0,0,0,.455.115,1.255,1.255,0,0,0,.573-.094l9.727-4.276a1.168,1.168,0,0,0,.028-2.161L114.934,19.476l2.243-.872a1.17,1.17,0,0,0,.766-1.136,1.184,1.184,0,0,0-.825-1.083l-10.455-3.8a3.543,3.543,0,0,0-2.357.061l-.008,0L92.146,17.5a1.166,1.166,0,0,0-.242,2.076" fill="#161615"/>
          <path id="Path_15988" data-name="Path 15988" d="M105.556,23l.044.023,44.793,23.82a1.185,1.185,0,0,0,.412.1,1.142,1.142,0,0,0,.523-.087l9.725-4.274a1.056,1.056,0,0,0,.672-.969,1.069,1.069,0,0,0-.646-.994L114.652,19.467l2.485-.966a1.06,1.06,0,0,0,.7-1.03,1.081,1.081,0,0,0-.75-.983l-10.459-3.8a3.431,3.431,0,0,0-2.28.06L92.186,17.6a1.057,1.057,0,0,0-.222,1.883l7.858,5.2a1.162,1.162,0,0,0,1.076.123Zm45.325,24.168c-.03,0-.061,0-.091,0a1.412,1.412,0,0,1-.494-.126l-44.754-23.8-4.565,1.773a1.377,1.377,0,0,1-1.276-.145l-7.859-5.2a1.276,1.276,0,0,1,.265-2.269l12.151-4.844a3.664,3.664,0,0,1,2.438-.067l10.459,3.8a1.3,1.3,0,0,1,.9,1.181,1.276,1.276,0,0,1-.836,1.242l-2,.778L161.17,40.424a1.287,1.287,0,0,1,.774,1.2,1.27,1.27,0,0,1-.8,1.166l-9.725,4.275a1.382,1.382,0,0,1-.533.107" fill="#191717"/>
          <path id="Path_15989" data-name="Path 15989" d="M29.44,44.339l8.069,4.121a1.273,1.273,0,0,0,1.166.033l10.877-4.225c.022-.009.04-.018.061-.029l34.3,18.249.117.063-2.724,1.118a.881.881,0,0,1-.265.066,1.042,1.042,0,0,1-.28-.014,2.011,2.011,0,0,1-.364-.108,4.3,4.3,0,0,1-.45-.213L57.475,51.05a1.286,1.286,0,0,0-1.139-.045l-6.317,2.868a1.167,1.167,0,0,0-.087,2.1l25.2,14.171a22.292,22.292,0,0,0,3.7,1.616,20.59,20.59,0,0,0,3.727.871c.4.052.79.091,1.176.116a14.89,14.89,0,0,0,2.339-.023A10.476,10.476,0,0,0,89.135,72l10.2-4.259a3.832,3.832,0,0,0,2.078-1.682,2.452,2.452,0,0,0-.091-2.255A6.8,6.8,0,0,0,99.494,61.7a18.349,18.349,0,0,0-3.088-1.974L49.773,35.361a2.472,2.472,0,0,0-2.2-.055L29.5,42.227a.68.68,0,0,0-.067.03,1.175,1.175,0,0,0-.639,1.029,1.2,1.2,0,0,0,.642,1.053" fill="#fff"/>
          <path id="Path_15990" data-name="Path 15990" d="M56.861,51.167a1,1,0,0,0-.413.088l-6.316,2.867a.894.894,0,0,0-.066,1.612L75.262,69.9a22.053,22.053,0,0,0,3.649,1.6,20.264,20.264,0,0,0,3.677.859c.386.051.776.09,1.158.115a14.82,14.82,0,0,0,2.3-.022,10.209,10.209,0,0,0,2.988-.7l10.205-4.259a3.582,3.582,0,0,0,1.939-1.552,2.2,2.2,0,0,0-.091-2.01,6.539,6.539,0,0,0-1.762-2.019,18.067,18.067,0,0,0-3.041-1.942L49.646,35.6a2.2,2.2,0,0,0-1.956-.053L29.6,42.482a.892.892,0,0,0-.034,1.616l8.065,4.119a1,1,0,0,0,.923.03l11.026-4.3.159.055L84.627,62.557l-.491.247-2.723,1.118a1.161,1.161,0,0,1-.346.085,1.244,1.244,0,0,1-.349-.017,2.305,2.305,0,0,1-.417-.122,4.6,4.6,0,0,1-.481-.228L57.344,51.29a1,1,0,0,0-.483-.123M84.777,73.054c-.35,0-.706-.012-1.066-.035-.395-.026-.8-.066-1.195-.118a20.936,20.936,0,0,1-3.778-.882A22.548,22.548,0,0,1,75,70.382L49.8,56.21a1.44,1.44,0,0,1,.108-2.585l6.317-2.868a1.557,1.557,0,0,1,1.383.054L80.082,63.16a3.929,3.929,0,0,0,.418.2,1.742,1.742,0,0,0,.314.093.76.76,0,0,0,.2.011.644.644,0,0,0,.19-.046l2.186-.9L49.6,44.542,38.774,48.747a1.536,1.536,0,0,1-1.4-.048l-8.068-4.12a1.478,1.478,0,0,1-.785-1.294,1.455,1.455,0,0,1,.786-1.27.862.862,0,0,1,.1-.043l18.066-6.921a2.739,2.739,0,0,1,2.427.068L96.533,59.482a18.589,18.589,0,0,1,3.134,2,7.072,7.072,0,0,1,1.9,2.2,2.72,2.72,0,0,1,.091,2.5,4.093,4.093,0,0,1-2.218,1.812L89.24,72.252A10.79,10.79,0,0,1,86.092,73q-.638.059-1.315.058" fill="#1a1818"/>
          <path id="Path_15991" data-name="Path 15991" d="M56.861,51a1.16,1.16,0,0,0-.48.1l-6.317,2.868a1.058,1.058,0,0,0-.078,1.9l25.2,14.171a22.175,22.175,0,0,0,3.677,1.607,20.343,20.343,0,0,0,3.707.866c.39.052.783.091,1.169.116a14.922,14.922,0,0,0,2.323-.022,10.394,10.394,0,0,0,3.035-.716l10.2-4.259a3.736,3.736,0,0,0,2.023-1.63,2.353,2.353,0,0,0-.091-2.157,6.716,6.716,0,0,0-1.805-2.072,18.275,18.275,0,0,0-3.069-1.96L49.722,35.459a2.363,2.363,0,0,0-2.1-.054L29.543,42.33a.427.427,0,0,0-.053.024,1.056,1.056,0,0,0,0,1.889l8.068,4.121a1.165,1.165,0,0,0,1.068.031l10.885-4.228a.36.36,0,0,0,.049-.023l.051-.028.052.027L84.289,62.565l-2.938,1.206a.98.98,0,0,1-.3.074,1.129,1.129,0,0,1-.307-.015,2.172,2.172,0,0,1-.385-.114A4.216,4.216,0,0,1,79.9,63.5L57.422,51.147A1.167,1.167,0,0,0,56.861,51M84.777,72.891c-.346,0-.7-.011-1.056-.035-.391-.025-.789-.065-1.184-.117a20.6,20.6,0,0,1-3.747-.875,22.421,22.421,0,0,1-3.714-1.624l-25.2-14.172a1.276,1.276,0,0,1,.095-2.293l6.317-2.868a1.4,1.4,0,0,1,1.237.049L80,63.305a3.933,3.933,0,0,0,.437.207,1.848,1.848,0,0,0,.344.1.938.938,0,0,0,.248.013.77.77,0,0,0,.236-.058l2.509-1.03L49.611,44.363l-.018.008L38.714,48.6a1.377,1.377,0,0,1-1.258-.039l-8.068-4.121a1.275,1.275,0,0,1,0-2.275.63.63,0,0,1,.078-.035L47.53,35.205a2.583,2.583,0,0,1,2.293.06L96.457,59.628a18.485,18.485,0,0,1,3.106,1.985,6.931,6.931,0,0,1,1.862,2.144,2.559,2.559,0,0,1,.091,2.352,3.934,3.934,0,0,1-2.134,1.734L89.177,72.1a10.528,10.528,0,0,1-3.1.732c-.419.039-.854.058-1.3.058" fill="#191717"/>
          <path id="Path_15992" data-name="Path 15992" d="M52.662,34.153l55.567,28.7a1.266,1.266,0,0,0,1.074.044l14.569-6.079a1.167,1.167,0,0,0,.172-2.085l-8.792-5.489a1.273,1.273,0,0,0-1.155-.1l-8.057,3.305-11.478-5.8L98.9,44.9a1.168,1.168,0,0,0,.08-2.149l-8.508-4.232a1.281,1.281,0,0,0-1.036-.044l-6.178,2.449L71.515,34.994l6.1-2.368a1.175,1.175,0,0,0,.766-1.1,1.191,1.191,0,0,0-.775-1.1l-9.791-3.817a1.28,1.28,0,0,0-.918,0h0L52.781,32a1.168,1.168,0,0,0-.119,2.149" fill="#fff"/>
          <path id="Path_15993" data-name="Path 15993" d="M52.787,33.91l55.567,28.7a.99.99,0,0,0,.843.034l14.569-6.079a.892.892,0,0,0,.133-1.6l-8.792-5.49a1,1,0,0,0-.907-.076l-8.171,3.352L93.9,46.619l4.9-1.97A.895.895,0,0,0,98.858,43L90.35,38.766a1,1,0,0,0-.814-.034l-6.292,2.494-12.4-6.265,6.669-2.59a.9.9,0,0,0,.592-.844.921.921,0,0,0-.6-.848l-9.791-3.816a1,1,0,0,0-.7-.012l-.02.008-14.114,5.4a.895.895,0,0,0-.091,1.651m56.025,29.355c-.033,0-.067,0-.1,0a1.545,1.545,0,0,1-.609-.169L52.536,34.4a1.442,1.442,0,0,1,.147-2.647l14.115-5.4a1.551,1.551,0,0,1,1.114.006L77.7,30.17a1.465,1.465,0,0,1,.95,1.355,1.445,1.445,0,0,1-.941,1.355l-5.526,2.146,11.086,5.6,6.064-2.4a1.546,1.546,0,0,1,1.258.053L99.1,42.508a1.441,1.441,0,0,1-.1,2.648l-3.779,1.519,10.829,5.473,7.94-3.258a1.541,1.541,0,0,1,1.4.119l8.792,5.489a1.44,1.44,0,0,1-.211,2.569l-14.57,6.079a1.549,1.549,0,0,1-.6.119" fill="#1a1818"/>
          <path id="Path_15994" data-name="Path 15994" d="M52.712,34.057l55.567,28.7a1.145,1.145,0,0,0,.457.127,1.194,1.194,0,0,0,.524-.087l14.569-6.08a1.057,1.057,0,0,0,.157-1.891l-8.792-5.489a1.166,1.166,0,0,0-1.057-.089l-8.1,3.324L94.3,46.638,98.859,44.8a1.059,1.059,0,0,0,.072-1.95l-8.508-4.232a1.167,1.167,0,0,0-.947-.04l-6.223,2.467-.045-.022L71.246,34.983l6.326-2.457a1.067,1.067,0,0,0,.7-1,1.085,1.085,0,0,0-.706-1l-9.79-3.816a1.164,1.164,0,0,0-.824-.01l-.016.006-14.114,5.4a1.059,1.059,0,0,0-.107,1.949m56.1,29.046q-.045,0-.09,0a1.371,1.371,0,0,1-.544-.151l-55.566-28.7a1.278,1.278,0,0,1,.129-2.348l14.115-5.4a1.385,1.385,0,0,1,1,0l9.791,3.816a1.3,1.3,0,0,1,.845,1.2,1.284,1.284,0,0,1-.837,1.2l-5.869,2.279,11.481,5.8,6.132-2.43a1.384,1.384,0,0,1,1.125.048l8.508,4.231a1.277,1.277,0,0,1-.088,2.349L94.826,46.66l11.219,5.67,8.009-3.286a1.379,1.379,0,0,1,1.256.106l8.791,5.489a1.275,1.275,0,0,1-.187,2.278L109.344,63a1.4,1.4,0,0,1-.532.106" fill="#191717"/>
          <path id="Path_15995" data-name="Path 15995" d="M76.047,27.24a13.261,13.261,0,0,0,2.606,1.612l41.659,20.464a41.977,41.977,0,0,0,4.751,2.023,21.4,21.4,0,0,0,4.193,1.032c.354.047.7.082,1.046.105a13.967,13.967,0,0,0,2.8-.094,14.549,14.549,0,0,0,3.659-1.016l6.424-2.681a1.166,1.166,0,0,0,.153-2.1l-8.876-5.323a1.278,1.278,0,0,0-1.137-.087l-5.853,2.4a.849.849,0,0,1-.247.06,1.17,1.17,0,0,1-.286-.012,2.246,2.246,0,0,1-.378-.1,4.5,4.5,0,0,1-.472-.2L92.022,26.932l4-1.554a1.172,1.172,0,0,0,.766-1.108,1.191,1.191,0,0,0-.791-1.1L85.918,19.4a.642.642,0,0,0-.453,0l-8.777,3.358a3.64,3.64,0,0,0-1.648,1.108,1.788,1.788,0,0,0-.274,1.715,3.916,3.916,0,0,0,1.281,1.661" fill="#fff"/>
          <path id="Path_15996" data-name="Path 15996" d="M76.222,27.03a12.991,12.991,0,0,0,2.551,1.577l41.66,20.464a41.767,41.767,0,0,0,4.719,2.009,21.111,21.111,0,0,0,4.14,1.02c.347.046.69.081,1.028.1a13.506,13.506,0,0,0,2.741-.092,14.355,14.355,0,0,0,3.59-1l6.424-2.682a.893.893,0,0,0,.119-1.609L134.317,41.5a1,1,0,0,0-.893-.068l-5.853,2.4a1.113,1.113,0,0,1-.324.079,1.432,1.432,0,0,1-.355-.014,2.563,2.563,0,0,1-.426-.114,5.226,5.226,0,0,1-.5-.212L91.336,26.905l4.587-1.782a.9.9,0,0,0,.592-.849.919.919,0,0,0-.614-.847L85.822,19.652a.367.367,0,0,0-.259,0l-8.777,3.358a3.373,3.373,0,0,0-1.527,1.017,1.521,1.521,0,0,0-.234,1.464,3.648,3.648,0,0,0,1.2,1.538m55.027,25.75c-.318,0-.639-.011-.965-.032-.35-.023-.705-.059-1.064-.106a21.67,21.67,0,0,1-4.246-1.045,42.27,42.27,0,0,1-4.783-2.036L78.532,29.1a13.544,13.544,0,0,1-2.66-1.647,4.166,4.166,0,0,1-1.365-1.784,2.048,2.048,0,0,1,.316-1.967,3.893,3.893,0,0,1,1.767-1.2l8.777-3.358a.915.915,0,0,1,.646,0l10.08,3.775a1.462,1.462,0,0,1,.968,1.352,1.443,1.443,0,0,1-.941,1.366l-3.413,1.326L126.2,43.08a4.12,4.12,0,0,0,.444.189,1.925,1.925,0,0,0,.332.091.9.9,0,0,0,.217.009.558.558,0,0,0,.168-.041l5.852-2.4a1.552,1.552,0,0,1,1.382.1l8.875,5.324a1.439,1.439,0,0,1-.188,2.582l-6.425,2.682a14.826,14.826,0,0,1-3.726,1.033,13.972,13.972,0,0,1-1.886.128" fill="#1a1818"/>
          <path id="Path_15997" data-name="Path 15997" d="M76.117,27.156a13.143,13.143,0,0,0,2.584,1.6L120.36,49.218a41.851,41.851,0,0,0,4.739,2.017,21.184,21.184,0,0,0,4.172,1.027c.35.047.7.082,1.038.1a13.614,13.614,0,0,0,2.774-.093,14.445,14.445,0,0,0,3.631-1.007l6.424-2.682a1.057,1.057,0,0,0,.14-1.9L134.4,41.359a1.17,1.17,0,0,0-1.04-.079l-5.853,2.4a.959.959,0,0,1-.278.068,1.3,1.3,0,0,1-.313-.013,2.38,2.38,0,0,1-.4-.107,4.722,4.722,0,0,1-.482-.205l-34.291-16.5,4.235-1.645a1.065,1.065,0,0,0,.7-1,1.083,1.083,0,0,0-.72-1L85.879,19.5a.524.524,0,0,0-.374,0l-8.778,3.358a3.528,3.528,0,0,0-1.6,1.072,1.679,1.679,0,0,0-.259,1.614,3.815,3.815,0,0,0,1.248,1.612m55.132,25.46c-.315,0-.632-.011-.954-.031-.344-.023-.7-.059-1.053-.106a21.412,21.412,0,0,1-4.215-1.038,41.906,41.906,0,0,1-4.763-2.027L78.6,28.95a13.362,13.362,0,0,1-2.627-1.626,4.022,4.022,0,0,1-1.315-1.71,1.892,1.892,0,0,1,.291-1.816,3.755,3.755,0,0,1,1.7-1.145L85.426,19.3a.745.745,0,0,1,.53,0l10.079,3.774a1.3,1.3,0,0,1,.863,1.2,1.283,1.283,0,0,1-.837,1.211L92.3,26.943l33.837,16.285a4.347,4.347,0,0,0,.461.2,2.068,2.068,0,0,0,.359.1,1.1,1.1,0,0,0,.258.012.778.778,0,0,0,.216-.054l5.852-2.4a1.386,1.386,0,0,1,1.235.094L143.39,46.5a1.276,1.276,0,0,1-.167,2.29L136.8,51.467a14.643,14.643,0,0,1-3.685,1.023,13.821,13.821,0,0,1-1.864.126" fill="#191717"/>
          <path id="Path_15998" data-name="Path 15998" d="M92.023,18.158l7.858,5.2a1.272,1.272,0,0,0,1.176.133l4.612-1.792,44.792,23.821a1.3,1.3,0,0,0,.455.115,1.269,1.269,0,0,0,.573-.094l9.727-4.276a1.168,1.168,0,0,0,.739-1.067,1.181,1.181,0,0,0-.711-1.1L115.053,18.059l2.243-.872a1.17,1.17,0,0,0,.766-1.137,1.182,1.182,0,0,0-.825-1.082l-10.455-3.8a3.549,3.549,0,0,0-2.357.062l-.008,0L92.265,16.082a1.166,1.166,0,0,0-.242,2.076" fill="#fff"/>
          <path id="Path_15999" data-name="Path 15999" d="M105.686,21.4l44.9,23.879a1.016,1.016,0,0,0,.345.084,1,1,0,0,0,.45-.074l9.722-4.273a.9.9,0,0,0,.575-.821.909.909,0,0,0-.55-.842L114.35,18.038l2.847-1.106a.9.9,0,0,0-.044-1.7l-10.465-3.8a3.264,3.264,0,0,0-2.148.053L92.366,16.335a.894.894,0,0,0-.191,1.6l7.857,5.2a1,1,0,0,0,.926.107ZM151,45.915c-.035,0-.069,0-.1,0a1.552,1.552,0,0,1-.55-.141L105.651,22l-4.5,1.746a1.54,1.54,0,0,1-1.428-.162l-7.859-5.2a1.44,1.44,0,0,1,.3-2.557l12.18-4.854a3.8,3.8,0,0,1,2.519-.06l10.464,3.8a1.461,1.461,0,0,1,1,1.33,1.439,1.439,0,0,1-.941,1.4l-1.639.637,45.6,20.781a1.441,1.441,0,0,1-.036,2.662L151.6,45.794a1.551,1.551,0,0,1-.6.121" fill="#1a1818"/>
          <path id="Path_16000" data-name="Path 16000" d="M105.675,21.584l.044.023,44.793,23.82a1.18,1.18,0,0,0,.411.1,1.14,1.14,0,0,0,.524-.087l9.724-4.274a1.059,1.059,0,0,0,.673-.97,1.07,1.07,0,0,0-.646-.993L114.771,18.051l2.485-.966a1.061,1.061,0,0,0,.7-1.03,1.081,1.081,0,0,0-.749-.983l-10.459-3.8a3.437,3.437,0,0,0-2.28.061L92.305,16.184a1.057,1.057,0,0,0-.222,1.883l7.858,5.2a1.158,1.158,0,0,0,1.076.122ZM151,45.752l-.093,0a1.4,1.4,0,0,1-.493-.126l-44.754-23.8L101.1,23.6a1.379,1.379,0,0,1-1.277-.145l-7.858-5.2a1.275,1.275,0,0,1,.264-2.269l12.151-4.844a3.658,3.658,0,0,1,2.438-.067l10.46,3.8a1.3,1.3,0,0,1,.9,1.182,1.278,1.278,0,0,1-.836,1.242l-2,.778,45.956,20.941a1.289,1.289,0,0,1,.774,1.195,1.273,1.273,0,0,1-.806,1.167l-9.725,4.275a1.369,1.369,0,0,1-.531.107" fill="#191717"/>
          <path id="Path_16001" data-name="Path 16001" d="M108.76,67.9a1.648,1.648,0,0,0-1.494-.114l-8.881,3.727a1.514,1.514,0,0,0-.949,1.453l.815,21.551a.315.315,0,0,1-.311.35.327.327,0,0,1-.389-.271l-4.1-18.989a1.543,1.543,0,0,0-.831-1.055,1.642,1.642,0,0,0-1.371-.046l-8.514,3.573a1.529,1.529,0,0,0-.949,1.471l3.85,77.393a2.062,2.062,0,0,0,1.059,1.69,2.211,2.211,0,0,0,2.046.078l6.65-3.153a1.519,1.519,0,0,0,.882-1.43l-.882-20.942a.315.315,0,0,1,.308-.35.326.326,0,0,1,.391.267l4.091,18.054a1.542,1.542,0,0,0,.867,1.058,1.633,1.633,0,0,0,1.4,0l8.472-4.018a1.521,1.521,0,0,0,.883-1.411l-2.3-77.629a1.527,1.527,0,0,0-.741-1.255" fill="#161615"/>
          <path id="Path_16002" data-name="Path 16002" d="M91.884,74.486a1.529,1.529,0,0,0-.593.12l-8.514,3.572a1.42,1.42,0,0,0-.882,1.365l3.849,77.393a1.954,1.954,0,0,0,1,1.6,2.1,2.1,0,0,0,1.945.075l.023-.011,6.627-3.142a1.411,1.411,0,0,0,.82-1.327l-.882-20.941a.42.42,0,0,1,.4-.464.434.434,0,0,1,.51.351l4.091,18.055a1.437,1.437,0,0,0,.806.983,1.527,1.527,0,0,0,1.306,0l8.471-4.018a1.41,1.41,0,0,0,.82-1.309l-2.3-77.63a1.418,1.418,0,0,0-.689-1.164,1.539,1.539,0,0,0-1.4-.107l-8.88,3.727a1.4,1.4,0,0,0-.882,1.349l.814,21.551a.421.421,0,0,1-.407.462.429.429,0,0,1-.509-.356l-4.1-18.99a1.435,1.435,0,0,0-.773-.98,1.54,1.54,0,0,0-.687-.162m-4.091,84.546c-.05,0-.1,0-.152-.005a2.338,2.338,0,0,1-1-.3,2.17,2.17,0,0,1-1.114-1.779l-3.85-77.394a1.641,1.641,0,0,1,1.016-1.577L91.206,74.4a1.753,1.753,0,0,1,1.462.049,1.654,1.654,0,0,1,.89,1.129l4.1,18.99a.218.218,0,0,0,.271.184c.2-.022.217-.145.213-.236l-.814-21.551a1.622,1.622,0,0,1,1.015-1.559l8.881-3.727a1.757,1.757,0,0,1,1.593.122,1.636,1.636,0,0,1,.793,1.345l2.3,77.629a1.631,1.631,0,0,1-.945,1.514l-8.472,4.017a1.742,1.742,0,0,1-1.491,0,1.657,1.657,0,0,1-.928-1.133l-4.09-18.055a.214.214,0,0,0-.272-.182c-.221.025-.214.179-.212.238l.882,20.941a1.63,1.63,0,0,1-.944,1.534l-6.673,3.163a2.328,2.328,0,0,1-.971.213" fill="#191717"/>
          <path id="Path_16003" data-name="Path 16003" d="M134.548,96.651a.238.238,0,0,1,0-.088l6.159-40.17a1.45,1.45,0,0,0-.585-1.382,1.579,1.579,0,0,0-1.535-.182l-7.966,3.344a1.464,1.464,0,0,0-.9,1.177l-2.641,23.442a.258.258,0,0,1-.276.242.262.262,0,0,1-.286-.234l-3.078-19.6a1.463,1.463,0,0,0-.77-1.068,1.561,1.561,0,0,0-1.347-.062l-8.5,3.567a1.45,1.45,0,0,0-.875,1.636l7.742,35.382a.246.246,0,0,1,0,.09v0L113.9,144.422a1.446,1.446,0,0,0,.622,1.388,1.567,1.567,0,0,0,1.563.127l7.878-3.735a1.45,1.45,0,0,0,.834-1.149l2.425-21.573a.258.258,0,0,1,.274-.243.261.261,0,0,1,.288.232l2.886,17.428a1.461,1.461,0,0,0,.807,1.074,1.558,1.558,0,0,0,1.373.016l7.906-3.748a1.447,1.447,0,0,0,.817-1.577Z" fill="#161615"/>
          <path id="Path_16004" data-name="Path 16004" d="M121.929,62.059a1.462,1.462,0,0,0-.565.114l-8.5,3.568a1.342,1.342,0,0,0-.81,1.513l7.742,35.38a.412.412,0,0,1,0,.13l-5.783,41.674a1.336,1.336,0,0,0,.576,1.282,1.469,1.469,0,0,0,.735.257,1.511,1.511,0,0,0,.719-.138l7.878-3.735a1.344,1.344,0,0,0,.772-1.062l2.425-21.574a.362.362,0,0,1,.381-.339.367.367,0,0,1,.4.322l2.886,17.429a1.361,1.361,0,0,0,.748.995,1.456,1.456,0,0,0,1.278.014l7.906-3.748a1.338,1.338,0,0,0,.757-1.458l-7.03-36.01a.357.357,0,0,1,0-.13L140.6,56.376a1.34,1.34,0,0,0-.541-1.276,1.463,1.463,0,0,0-1.429-.169l-7.966,3.342a1.359,1.359,0,0,0-.833,1.089L127.187,82.8a.362.362,0,0,1-.382.339.367.367,0,0,1-.4-.325l-3.078-19.6a1.352,1.352,0,0,0-.714-.988,1.46,1.46,0,0,0-.688-.173M115.416,146.2c-.035,0-.07,0-.106,0a1.681,1.681,0,0,1-.845-.294,1.551,1.551,0,0,1-.668-1.492l5.782-41.674a.154.154,0,0,0,0-.056L111.835,67.3a1.561,1.561,0,0,1,.94-1.761l8.5-3.567a1.671,1.671,0,0,1,1.441.068,1.57,1.57,0,0,1,.827,1.147l3.078,19.6c.011.069.041.14.178.14s.16-.078.167-.144l2.641-23.443a1.58,1.58,0,0,1,.966-1.266l7.966-3.342a1.688,1.688,0,0,1,1.642.195,1.553,1.553,0,0,1,.627,1.485l-6.158,40.17a.13.13,0,0,0,0,.052l7.03,36.01a1.554,1.554,0,0,1-.877,1.7l-7.906,3.748a1.669,1.669,0,0,1-1.47-.016,1.571,1.571,0,0,1-.865-1.154l-2.886-17.429a.153.153,0,0,0-.173-.14c-.139,0-.165.079-.172.146l-2.425,21.573a1.561,1.561,0,0,1-.9,1.235l-7.878,3.735a1.689,1.689,0,0,1-.721.162" fill="#191717"/>
          <path id="Path_16005" data-name="Path 16005" d="M163.391,45.805a1.191,1.191,0,0,0-.626-.867,1.272,1.272,0,0,0-1.094-.051l-17.119,7.182a1.184,1.184,0,0,0-.723.911l-2.314,15.089a1.173,1.173,0,0,0,.478,1.125,1.277,1.277,0,0,0,1.252.139l4.677-2.015.04,61.328a1.182,1.182,0,0,0,.586,1.013,1.275,1.275,0,0,0,1.2.058l8.23-3.9a1.172,1.172,0,0,0,.684-1.053l.416-62.239,5.644-2.428a1.177,1.177,0,0,0,.712-1.257Z" fill="#161615"/>
          <path id="Path_16006" data-name="Path 16006" d="M148.031,67.152v.166l.04,61.328a1.074,1.074,0,0,0,.533.919,1.166,1.166,0,0,0,.523.163,1.144,1.144,0,0,0,.574-.11l8.23-3.9a1.062,1.062,0,0,0,.622-.955l.416-62.31,5.709-2.456a1.07,1.07,0,0,0,.649-1.14l-2.044-13.033a1.078,1.078,0,0,0-.57-.787,1.162,1.162,0,0,0-1-.047L144.594,52.17a1.072,1.072,0,0,0-.657.826l-2.314,15.09a1.063,1.063,0,0,0,.434,1.019,1.164,1.164,0,0,0,1.145.128Zm1.171,62.8-.089,0a1.374,1.374,0,0,1-.622-.193,1.3,1.3,0,0,1-.639-1.106l-.04-61.163-4.523,1.95a1.387,1.387,0,0,1-1.361-.152,1.28,1.28,0,0,1-.521-1.229l2.314-15.09a1.291,1.291,0,0,1,.789-1l17.119-7.182a1.38,1.38,0,0,1,1.187.056,1.3,1.3,0,0,1,.683.946l2.043,13.033a1.286,1.286,0,0,1-.777,1.374l-5.579,2.4-.415,62.167a1.283,1.283,0,0,1-.746,1.152l-8.23,3.9a1.381,1.381,0,0,1-.593.133" fill="#191717"/>
          <path id="Path_16007" data-name="Path 16007" d="M110.241,67.309a1.641,1.641,0,0,0-1.491-.114l-8.867,3.721a1.513,1.513,0,0,0-.948,1.451l.814,21.517a.316.316,0,0,1-.311.349.324.324,0,0,1-.388-.27L94.956,75a1.544,1.544,0,0,0-.83-1.053,1.638,1.638,0,0,0-1.369-.046l-8.5,3.566a1.528,1.528,0,0,0-.947,1.469l3.843,77.272A2.06,2.06,0,0,0,88.21,157.9a2.211,2.211,0,0,0,2.042.078h0l6.639-3.148a1.517,1.517,0,0,0,.881-1.427l-.881-20.91a.316.316,0,0,1,.308-.35.326.326,0,0,1,.39.267l4.085,18.026a1.545,1.545,0,0,0,.866,1.058,1.634,1.634,0,0,0,1.395,0l8.459-4.011a1.519,1.519,0,0,0,.881-1.409l-2.295-77.507a1.526,1.526,0,0,0-.74-1.253" fill="#fff"/>
          <path id="Path_16008" data-name="Path 16008" d="M93.391,74.05a1.365,1.365,0,0,0-.528.107l-8.5,3.566a1.254,1.254,0,0,0-.78,1.2L87.426,156.2a1.783,1.783,0,0,0,.919,1.462,1.917,1.917,0,0,0,.835.251,1.943,1.943,0,0,0,.955-.182l6.64-3.148a1.244,1.244,0,0,0,.725-1.169L96.619,132.5a.584.584,0,0,1,.55-.633.594.594,0,0,1,.688.477l4.084,18.027a1.276,1.276,0,0,0,.715.87,1.363,1.363,0,0,0,1.164,0l8.459-4.011a1.245,1.245,0,0,0,.724-1.154L110.708,68.57a1.251,1.251,0,0,0-.609-1.028,1.372,1.372,0,0,0-1.244-.1l-8.866,3.721a1.241,1.241,0,0,0-.781,1.188l.814,21.518a.586.586,0,0,1-.553.631.6.6,0,0,1-.686-.484l-4.094-18.96A1.271,1.271,0,0,0,94,74.195a1.377,1.377,0,0,0-.613-.145m-4.084,84.413q-.081,0-.162-.006a2.488,2.488,0,0,1-1.07-.321,2.326,2.326,0,0,1-1.195-1.911L83.036,78.954a1.8,1.8,0,0,1,1.115-1.734l8.5-3.567a1.911,1.911,0,0,1,1.6.053,1.814,1.814,0,0,1,.975,1.24l4.094,18.96c.011.051.013.065.093.056a.13.13,0,0,0,.062-.02l-.809-21.565a1.782,1.782,0,0,1,1.114-1.713l8.867-3.721a1.922,1.922,0,0,1,1.74.133,1.8,1.8,0,0,1,.87,1.478l2.3,77.506a1.791,1.791,0,0,1-1.038,1.664l-8.459,4.012a1.909,1.909,0,0,1-1.628,0,1.82,1.82,0,0,1-1.017-1.244l-4.084-18.027c-.012-.052-.016-.064-.094-.055a.109.109,0,0,0-.06.019l.876,20.957a1.79,1.79,0,0,1-1.037,1.686l-6.639,3.148a2.494,2.494,0,0,1-1.063.239" fill="#1a1818"/>
          <path id="Path_16009" data-name="Path 16009" d="M93.391,73.886A1.533,1.533,0,0,0,92.8,74l-8.5,3.567a1.417,1.417,0,0,0-.881,1.363l3.844,77.271a1.95,1.95,0,0,0,1,1.6,2.1,2.1,0,0,0,1.941.074l6.64-3.148a1.407,1.407,0,0,0,.819-1.324L96.783,132.5a.419.419,0,0,1,.4-.463.433.433,0,0,1,.51.351l4.084,18.026a1.437,1.437,0,0,0,.806.982,1.522,1.522,0,0,0,1.3,0l8.459-4.011a1.408,1.408,0,0,0,.819-1.308l-2.3-77.506a1.414,1.414,0,0,0-.687-1.163,1.535,1.535,0,0,0-1.393-.106l-8.866,3.721a1.4,1.4,0,0,0-.88,1.346l.813,21.517a.419.419,0,0,1-.407.461.428.428,0,0,1-.508-.355l-4.094-18.96a1.435,1.435,0,0,0-.772-.978,1.533,1.533,0,0,0-.686-.162M89.307,158.3c-.051,0-.1,0-.152,0a2.34,2.34,0,0,1-1-.3,2.167,2.167,0,0,1-1.113-1.777L83.2,78.945a1.636,1.636,0,0,1,1.014-1.574l8.5-3.567a1.746,1.746,0,0,1,1.46.049,1.651,1.651,0,0,1,.887,1.127l4.094,18.96a.218.218,0,0,0,.271.184c.2-.023.216-.145.212-.236l-.813-21.517a1.621,1.621,0,0,1,1.015-1.556l8.866-3.721a1.755,1.755,0,0,1,1.591.122,1.633,1.633,0,0,1,.792,1.343l2.3,77.506a1.627,1.627,0,0,1-.943,1.511l-8.459,4.011a1.748,1.748,0,0,1-1.489,0,1.658,1.658,0,0,1-.926-1.133l-4.084-18.026a.212.212,0,0,0-.272-.182c-.22.025-.213.179-.211.237l.881,20.909a1.626,1.626,0,0,1-.943,1.531l-6.662,3.158a2.323,2.323,0,0,1-.97.213" fill="#191717"/>
          <path id="Path_16010" data-name="Path 16010" d="M116.849,145.089a1.279,1.279,0,0,1-.65-.227,1.168,1.168,0,0,1-.506-1.122l5.773-41.613a.542.542,0,0,0-.005-.183L113.729,66.61a1.177,1.177,0,0,1,.712-1.324l8.493-3.562a1.286,1.286,0,0,1,1.11.053,1.186,1.186,0,0,1,.628.867l3.074,19.568a.557.557,0,0,0,1.1-.021l2.637-23.407a1.19,1.19,0,0,1,.732-.954l7.955-3.338a1.284,1.284,0,0,1,.5-.1,1.31,1.31,0,0,1,.768.25,1.173,1.173,0,0,1,.474,1.118l-6.149,40.109a.5.5,0,0,0,0,.184l7.019,35.957a1.171,1.171,0,0,1-.664,1.276l-7.894,3.743a1.288,1.288,0,0,1-.553.126,1.273,1.273,0,0,1-.579-.139,1.19,1.19,0,0,1-.659-.874l-2.882-17.4a.528.528,0,0,0-.538-.46.534.534,0,0,0-.564.487l-2.421,21.54a1.177,1.177,0,0,1-.679.931l-7.866,3.729a1.291,1.291,0,0,1-.555.125Z" fill="#fff"/>
          <path id="Path_16011" data-name="Path 16011" d="M140.671,54.12a1.566,1.566,0,0,0-.6.121l-7.955,3.337a1.467,1.467,0,0,0-.9,1.176l-2.637,23.408a.257.257,0,0,1-.275.241.261.261,0,0,1-.286-.232L124.943,62.6a1.462,1.462,0,0,0-.77-1.066,1.567,1.567,0,0,0-1.345-.063l-8.492,3.562a1.448,1.448,0,0,0-.873,1.635L121.193,102a.279.279,0,0,1,0,.091h0L115.423,143.7a1.443,1.443,0,0,0,.621,1.386,1.558,1.558,0,0,0,.789.274c.033,0,.067,0,.1,0a1.569,1.569,0,0,0,.672-.151l7.866-3.73a1.452,1.452,0,0,0,.833-1.147l2.421-21.541a.257.257,0,0,1,.274-.242h.018a.257.257,0,0,1,.269.232l2.882,17.4a1.46,1.46,0,0,0,.805,1.073,1.56,1.56,0,0,0,1.372.016l7.894-3.743a1.445,1.445,0,0,0,.816-1.575L136.035,96a.227.227,0,0,1,0-.09l6.149-40.11a1.445,1.445,0,0,0-.584-1.38,1.571,1.571,0,0,0-.928-.3m0,.546a1.028,1.028,0,0,1,.6.2.9.9,0,0,1,.368.857l-6.147,40.1a.764.764,0,0,0,0,.29l7.02,35.958a.9.9,0,0,1-.514.976l-7.894,3.743a1.025,1.025,0,0,1-.436.1,1.013,1.013,0,0,1-.458-.11.918.918,0,0,1-.51-.673l-2.882-17.4a.8.8,0,0,0-.808-.688h-.028a.8.8,0,0,0-.807.728l-2.421,21.541a.91.91,0,0,1-.524.715l-7.867,3.73a1.037,1.037,0,0,1-.437.1c-.022,0-.044,0-.064,0a1.024,1.024,0,0,1-.514-.178.9.9,0,0,1-.391-.862l5.774-41.612,0-.038v-.01a.831.831,0,0,0-.016-.236L114,66.553a.9.9,0,0,1,.552-1.014l8.492-3.562a1.013,1.013,0,0,1,.394-.08,1.031,1.031,0,0,1,.482.121.919.919,0,0,1,.487.669l3.074,19.569a.809.809,0,0,0,.834.694h0a.8.8,0,0,0,.808-.727l2.637-23.407a.922.922,0,0,1,.566-.734l7.955-3.337a1.014,1.014,0,0,1,.393-.079" fill="#1a1818"/>
          <path id="Path_16012" data-name="Path 16012" d="M123.435,61.46a1.462,1.462,0,0,0-.565.114l-8.492,3.562a1.338,1.338,0,0,0-.809,1.51l7.731,35.328a.4.4,0,0,1,0,.132l-5.773,41.611a1.332,1.332,0,0,0,.575,1.281,1.46,1.46,0,0,0,.733.256,1.5,1.5,0,0,0,.718-.138l7.867-3.729a1.339,1.339,0,0,0,.77-1.061l2.422-21.541a.394.394,0,0,1,.777-.018l2.882,17.4a1.351,1.351,0,0,0,.747.993,1.448,1.448,0,0,0,1.276.015l7.894-3.743a1.335,1.335,0,0,0,.756-1.455l-7.02-35.958a.331.331,0,0,1,0-.129l6.149-40.108a1.338,1.338,0,0,0-.541-1.275,1.462,1.462,0,0,0-1.425-.169l-7.955,3.338a1.354,1.354,0,0,0-.831,1.087l-2.637,23.408a.394.394,0,0,1-.778.014l-3.073-19.569a1.353,1.353,0,0,0-.713-.987,1.467,1.467,0,0,0-.687-.172m-6.5,84.015c-.035,0-.071,0-.107,0a1.671,1.671,0,0,1-.844-.294,1.551,1.551,0,0,1-.667-1.489l5.774-41.613a.179.179,0,0,0,0-.056l-7.73-35.326a1.558,1.558,0,0,1,.938-1.759l8.492-3.562a1.674,1.674,0,0,1,1.439.068,1.572,1.572,0,0,1,.826,1.145l3.073,19.569c.011.069.04.14.177.14s.16-.079.167-.144L131.1,58.741a1.575,1.575,0,0,1,.965-1.263l7.954-3.338a1.684,1.684,0,0,1,1.64.194,1.553,1.553,0,0,1,.626,1.484l-6.149,40.11a.182.182,0,0,0,0,.052l7.02,35.958a1.554,1.554,0,0,1-.876,1.695l-7.894,3.742a1.658,1.658,0,0,1-1.468-.017,1.567,1.567,0,0,1-.864-1.152l-2.882-17.4a.153.153,0,0,0-.173-.139c-.138,0-.164.079-.171.145l-2.422,21.541a1.558,1.558,0,0,1-.894,1.234l-7.867,3.73a1.679,1.679,0,0,1-.719.161" fill="#191717"/>
          <path id="Path_16013" data-name="Path 16013" d="M150.6,128.9a1,1,0,0,1-.449-.139.911.911,0,0,1-.453-.778l-.04-61.674L144.6,68.485a1,1,0,0,1-.982-.109.9.9,0,0,1-.368-.861l2.311-15.073a.912.912,0,0,1,.559-.7l17.1-7.173a1,1,0,0,1,.857.04.918.918,0,0,1,.485.668l2.041,13.018a.905.905,0,0,1-.55.962l-5.8,2.495-.416,62.348a.9.9,0,0,1-.527.807l-8.221,3.9a.978.978,0,0,1-.425.1Z" fill="#fff"/>
          <path id="Path_16014" data-name="Path 16014" d="M163.611,44.218a1.284,1.284,0,0,0-.493.1l-17.1,7.173a1.184,1.184,0,0,0-.722.91l-2.312,15.073a1.17,1.17,0,0,0,.478,1.123,1.275,1.275,0,0,0,1.251.14l4.671-2.014.04,61.259a1.18,1.18,0,0,0,.585,1.012,1.256,1.256,0,0,0,.571.178q.042,0,.084,0a1.267,1.267,0,0,0,.544-.123l8.22-3.9a1.172,1.172,0,0,0,.684-1.052l.415-62.169,5.638-2.425a1.177,1.177,0,0,0,.711-1.256l-2.04-13.018a1.191,1.191,0,0,0-.626-.866,1.27,1.27,0,0,0-.6-.15m0,.546a.735.735,0,0,1,.342.086.647.647,0,0,1,.343.469l2.041,13.017a.633.633,0,0,1-.388.67l-5.638,2.425-.328.141,0,.357-.415,62.169a.629.629,0,0,1-.372.562l-8.222,3.9a.708.708,0,0,1-.308.069h-.05a.716.716,0,0,1-.323-.1.641.641,0,0,1-.321-.544l-.04-61.259v-.83l-.763.329L144.5,68.234a.713.713,0,0,1-.285.059.726.726,0,0,1-.427-.138.626.626,0,0,1-.26-.6l2.312-15.073a.641.641,0,0,1,.393-.489l17.1-7.173a.725.725,0,0,1,.282-.057" fill="#1a1818"/>
          <path id="Path_16015" data-name="Path 16015" d="M149.493,66.557v.166l.04,61.259a1.076,1.076,0,0,0,.533.918,1.161,1.161,0,0,0,1.094.052l8.222-3.9A1.061,1.061,0,0,0,160,124.1l.416-62.24,5.7-2.453a1.07,1.07,0,0,0,.647-1.139l-2.041-13.018a1.078,1.078,0,0,0-.57-.786,1.154,1.154,0,0,0-1-.046l-17.1,7.173a1.072,1.072,0,0,0-.657.825L143.092,67.49a1.064,1.064,0,0,0,.434,1.018,1.166,1.166,0,0,0,1.143.128Zm1.172,62.726c-.031,0-.061,0-.092,0a1.362,1.362,0,0,1-.62-.193,1.291,1.291,0,0,1-.638-1.105l-.04-61.094-4.519,1.948a1.386,1.386,0,0,1-1.359-.151,1.278,1.278,0,0,1-.52-1.228l2.311-15.073a1.29,1.29,0,0,1,.788-.994l17.1-7.173a1.372,1.372,0,0,1,1.185.055,1.3,1.3,0,0,1,.683.945h0l2.041,13.018a1.287,1.287,0,0,1-.777,1.372l-5.572,2.4-.414,62.1a1.283,1.283,0,0,1-.746,1.151l-8.221,3.9a1.365,1.365,0,0,1-.59.133" fill="#191717"/>
          <path id="Path_16016" data-name="Path 16016" d="M59.481,131.889,41.232,119.98l-.3-3.622,17.49,11.287c.174.112.32.213.442.31a1.394,1.394,0,0,1,.235.23.645.645,0,0,1,.108.206,1.331,1.331,0,0,1,.059.335Zm23.214,15.149-13.34-8.7-.455-7.321a12.367,12.367,0,0,0-.77-3.625,12.576,12.576,0,0,0-1.689-3.052,16.108,16.108,0,0,0-2.381-2.527,23.679,23.679,0,0,0-2.85-2.094L37.231,104.528a12.041,12.041,0,0,0-2.508-1.257,3.871,3.871,0,0,0-2.1-.2,2.064,2.064,0,0,0-1.443,1.208,4.6,4.6,0,0,0-.26,2.266l1.473,16.51a1.189,1.189,0,0,0,.532.88L82.078,156.6a1.276,1.276,0,0,0,1.3.062,1.166,1.166,0,0,0,.629-1.091l-.353-6.892a2.1,2.1,0,0,0-.959-1.64" fill="#161615"/>
          <path id="Path_16017" data-name="Path 16017" d="M41.336,119.919l18.021,11.76-.2-2.944a1.215,1.215,0,0,0-.054-.308.537.537,0,0,0-.091-.174,1.185,1.185,0,0,0-.217-.211,5.245,5.245,0,0,0-.433-.305l-17.3-11.165ZM59.6,132.1l-.184-.12L41.127,120.044l-.324-3.9.186.121,17.49,11.287a5.193,5.193,0,0,1,.451.316,1.337,1.337,0,0,1,.254.25.75.75,0,0,1,.125.237,1.465,1.465,0,0,1,.064.362ZM33.251,103.109a2.573,2.573,0,0,0-.6.067,1.958,1.958,0,0,0-1.369,1.147,4.5,4.5,0,0,0-.25,2.211l1.473,16.51a1.071,1.071,0,0,0,.483.8l49.153,32.665a1.159,1.159,0,0,0,1.188.058,1.058,1.058,0,0,0,.572-.99l-.354-6.892a1.99,1.99,0,0,0-.909-1.553L69.25,138.4l-.459-7.375a12.217,12.217,0,0,0-.764-3.592,12.429,12.429,0,0,0-1.674-3.025,15.991,15.991,0,0,0-2.365-2.51,23.57,23.57,0,0,0-2.837-2.084L37.172,104.622a11.9,11.9,0,0,0-2.485-1.246,4.542,4.542,0,0,0-1.436-.267M82.779,156.92c-.03,0-.059,0-.089,0a1.4,1.4,0,0,1-.673-.227L32.864,124.024a1.293,1.293,0,0,1-.58-.961l-1.473-16.51a4.7,4.7,0,0,1,.269-2.32,2.167,2.167,0,0,1,1.518-1.27,3.958,3.958,0,0,1,2.159.206,12.076,12.076,0,0,1,2.532,1.269l23.979,15.187a23.737,23.737,0,0,1,2.863,2.1,16.2,16.2,0,0,1,2.4,2.544,12.68,12.68,0,0,1,1.7,3.078,12.49,12.49,0,0,1,.777,3.656l.452,7.267,13.293,8.674a2.207,2.207,0,0,1,1.009,1.724l.353,6.892a1.274,1.274,0,0,1-.687,1.194,1.4,1.4,0,0,1-.65.162" fill="#191717"/>
          <path id="Path_16018" data-name="Path 16018" d="M38.752,89.729l15.325,9.323a4.237,4.237,0,0,1,.436.3,1.367,1.367,0,0,1,.238.238.709.709,0,0,1,.116.219,1.247,1.247,0,0,1,.058.32l.234,3.312L39.068,93.531Zm42.581,40.046a1.263,1.263,0,0,0,.693-.153,1.166,1.166,0,0,0,.616-1.085l-.4-7.824a1.184,1.184,0,0,0-.571-.947L64.9,109.443l15.33,5.471a1.267,1.267,0,0,0,1.155-.153,1.163,1.163,0,0,0,.5-1.012l-.439-8.537a1.205,1.205,0,0,0-.848-1.073L64.208,98.892a7.1,7.1,0,0,0-.523-1.807,10.322,10.322,0,0,0-1.222-2.077,12.931,12.931,0,0,0-1.634-1.792,11.678,11.678,0,0,0-1.835-1.37L35.368,77.775a12.094,12.094,0,0,0-2.737-1.264,3.782,3.782,0,0,0-2.279-.065,2.381,2.381,0,0,0-1.469,1.5,6.262,6.262,0,0,0-.234,2.719l1.478,16.559a1.178,1.178,0,0,0,.558.9l50.054,31.458a1.286,1.286,0,0,0,.594.192" fill="#161615"/>
          <path id="Path_16019" data-name="Path 16019" d="M39.173,93.466l15.862,9.766-.218-3.1a1.122,1.122,0,0,0-.053-.292.609.609,0,0,0-.1-.187,1.207,1.207,0,0,0-.221-.22,4.121,4.121,0,0,0-.423-.29L38.88,89.933Zm16.111,10.177-.182-.112L38.964,93.594l-.338-4.072,15.508,9.434a4.375,4.375,0,0,1,.448.308,1.515,1.515,0,0,1,.257.257.83.83,0,0,1,.132.25,1.3,1.3,0,0,1,.064.347Zm-24-27.235a2.731,2.731,0,0,0-.9.14,2.277,2.277,0,0,0-1.4,1.437,6.167,6.167,0,0,0-.227,2.673l1.478,16.558a1.072,1.072,0,0,0,.507.816L80.8,129.489a1.174,1.174,0,0,0,.542.176,1.19,1.19,0,0,0,.633-.14,1.063,1.063,0,0,0,.561-.983l-.4-7.826a1.078,1.078,0,0,0-.518-.859l-17.66-10.869,16.311,5.821a1.154,1.154,0,0,0,1.055-.139,1.052,1.052,0,0,0,.455-.917l-.438-8.537a1.1,1.1,0,0,0-.774-.974L64.109,98.974l-.009-.067a6.979,6.979,0,0,0-.515-1.78,10.217,10.217,0,0,0-1.209-2.055,12.713,12.713,0,0,0-1.62-1.776,11.563,11.563,0,0,0-1.818-1.358L35.313,77.868A11.885,11.885,0,0,0,32.6,76.616a4.719,4.719,0,0,0-1.314-.208m50.132,53.477q-.048,0-.093,0a1.366,1.366,0,0,1-.645-.208L30.627,98.216a1.288,1.288,0,0,1-.608-.979l-1.478-16.56a6.356,6.356,0,0,1,.24-2.767,2.5,2.5,0,0,1,1.536-1.57,3.888,3.888,0,0,1,2.345.066,12.163,12.163,0,0,1,2.763,1.273L59.051,91.751A11.8,11.8,0,0,1,60.9,93.133a13.088,13.088,0,0,1,1.648,1.807,10.465,10.465,0,0,1,1.235,2.1,7.4,7.4,0,0,1,.521,1.769l16.324,5.226a1.315,1.315,0,0,1,.923,1.17l.439,8.538a1.267,1.267,0,0,1-.548,1.106,1.374,1.374,0,0,1-1.254.168l-14.348-5.121,15.885,9.777a1.3,1.3,0,0,1,.623,1.035l.4,7.823a1.273,1.273,0,0,1-.672,1.185,1.369,1.369,0,0,1-.66.17" fill="#191717"/>
          <path id="Path_16020" data-name="Path 16020" d="M36.452,62.068,68.539,80.325a5.116,5.116,0,0,1,.475.3,1.253,1.253,0,0,1,.245.226.631.631,0,0,1,.113.211,1.525,1.525,0,0,1,.063.378l.2,3.505-.142-.079L37.47,66.393a2.542,2.542,0,0,1-.338-.225,1.237,1.237,0,0,1-.215-.212.8.8,0,0,1-.122-.213,1.048,1.048,0,0,1-.061-.28ZM31.639,72.886a18.055,18.055,0,0,0,2.752,1.982l38,22.42a18.351,18.351,0,0,0,3.1,1.5,7.242,7.242,0,0,0,1.929.433,4.087,4.087,0,0,0,.842-.026,2.737,2.737,0,0,0,2.087-1.406,6.117,6.117,0,0,0,.552-3.307l-.583-11.371a12.4,12.4,0,0,0-.878-4.008A13.171,13.171,0,0,0,77.46,75.77a17.1,17.1,0,0,0-2.73-2.679A23.454,23.454,0,0,0,71.574,71L32.962,49.568A11.5,11.5,0,0,0,30.168,48.4a3.761,3.761,0,0,0-2.317.064A2.572,2.572,0,0,0,26.4,50.086a6.793,6.793,0,0,0-.226,2.839L27.2,64.468a12.07,12.07,0,0,0,.732,3.206,12.321,12.321,0,0,0,1.516,2.812,14.36,14.36,0,0,0,2.188,2.4" fill="#161615"/>
          <path id="Path_16021" data-name="Path 16021" d="M36.579,62.264l.265,3.189a.892.892,0,0,0,.054.25.737.737,0,0,0,.1.185,1.2,1.2,0,0,0,.2.193,2.732,2.732,0,0,0,.325.216l31.994,18.45-.192-3.305a1.464,1.464,0,0,0-.057-.351.542.542,0,0,0-.095-.176,1.159,1.159,0,0,0-.224-.206,5.134,5.134,0,0,0-.465-.291ZM69.76,85.133l-.317-.177L37.416,66.486a2.806,2.806,0,0,1-.353-.234,1.44,1.44,0,0,1-.232-.229.95.95,0,0,1-.137-.242,1.127,1.127,0,0,1-.068-.31l-.3-3.6.181.1L68.593,80.229a4.847,4.847,0,0,1,.486.3,1.336,1.336,0,0,1,.267.246.75.75,0,0,1,.13.244,1.611,1.611,0,0,1,.068.406ZM31.711,72.8a17.894,17.894,0,0,0,2.736,1.97l38,22.42a18.151,18.151,0,0,0,3.077,1.492,7.143,7.143,0,0,0,1.9.428,3.947,3.947,0,0,0,.819-.026,2.633,2.633,0,0,0,2.009-1.351,6.027,6.027,0,0,0,.537-3.248L80.2,83.116a12.246,12.246,0,0,0-.87-3.973,13.109,13.109,0,0,0-1.958-3.306,17.007,17.007,0,0,0-2.712-2.662A23.306,23.306,0,0,0,71.521,71.1L32.909,49.661a11.393,11.393,0,0,0-2.767-1.155,3.646,3.646,0,0,0-2.248.059A2.465,2.465,0,0,0,26.5,50.121a6.708,6.708,0,0,0-.221,2.793l1.03,11.542a11.954,11.954,0,0,0,.725,3.178,12.214,12.214,0,0,0,1.5,2.786A14.231,14.231,0,0,0,31.711,72.8m46,26.538c-.1,0-.2,0-.3-.01a7.323,7.323,0,0,1-1.958-.44,18.261,18.261,0,0,1-3.116-1.51l-38-22.42a18.15,18.15,0,0,1-2.77-1.994,14.5,14.5,0,0,1-2.2-2.418,12.4,12.4,0,0,1-1.529-2.837,12.18,12.18,0,0,1-.739-3.235l-1.03-11.543a6.9,6.9,0,0,1,.234-2.885,2.669,2.669,0,0,1,1.512-1.685,3.851,3.851,0,0,1,2.383-.069,11.577,11.577,0,0,1,2.822,1.176L71.627,70.908A23.39,23.39,0,0,1,74.8,73a17.149,17.149,0,0,1,2.747,2.7,13.315,13.315,0,0,1,1.991,3.361,12.487,12.487,0,0,1,.886,4.044L81,94.476a6.206,6.206,0,0,1-.565,3.365A2.84,2.84,0,0,1,78.272,99.3a4.083,4.083,0,0,1-.56.037" fill="#191717"/>
          <path id="Path_16022" data-name="Path 16022" d="M58.005,132.479,39.756,120.57l-.3-3.622,17.49,11.287c.174.112.32.213.443.31a1.421,1.421,0,0,1,.234.23.668.668,0,0,1,.109.206,1.336,1.336,0,0,1,.058.335Zm23.214,15.149-13.339-8.7-.456-7.32a12.335,12.335,0,0,0-.77-3.625,12.576,12.576,0,0,0-1.689-3.052,16.108,16.108,0,0,0-2.381-2.527,23.6,23.6,0,0,0-2.85-2.094L35.755,105.118a11.993,11.993,0,0,0-2.508-1.257,3.871,3.871,0,0,0-2.1-.2,2.064,2.064,0,0,0-1.443,1.208,4.605,4.605,0,0,0-.26,2.266l1.474,16.51a1.185,1.185,0,0,0,.531.88L80.6,157.189a1.278,1.278,0,0,0,1.3.062,1.167,1.167,0,0,0,.63-1.092l-.354-6.891a2.1,2.1,0,0,0-.959-1.64" fill="#fff"/>
          <path id="Path_16023" data-name="Path 16023" d="M40.017,120.416,57.695,131.95l-.179-2.616a1.137,1.137,0,0,0-.045-.266.389.389,0,0,0-.066-.124,1.085,1.085,0,0,0-.19-.186,5.055,5.055,0,0,0-.419-.293L39.772,117.479Zm18.3,12.591-18.82-12.28-.359-4.31,17.957,11.589a5.674,5.674,0,0,1,.464.327,1.561,1.561,0,0,1,.283.281.918.918,0,0,1,.149.282,1.649,1.649,0,0,1,.072.4ZM31.776,103.863a2.423,2.423,0,0,0-.565.061,1.8,1.8,0,0,0-1.258,1.055,4.332,4.332,0,0,0-.236,2.128l1.473,16.511a.917.917,0,0,0,.411.678l49.152,32.665a.989.989,0,0,0,.486.163.973.973,0,0,0,.535-.114.9.9,0,0,0,.485-.837l-.354-6.891a1.833,1.833,0,0,0-.835-1.426l-13.454-8.779-.464-7.455a12.1,12.1,0,0,0-.753-3.546,12.336,12.336,0,0,0-1.653-2.986,15.842,15.842,0,0,0-2.341-2.484,23.287,23.287,0,0,0-2.817-2.069L35.609,105.35a11.77,11.77,0,0,0-2.449-1.23,4.414,4.414,0,0,0-1.384-.257M81.3,157.673l-.1,0a1.558,1.558,0,0,1-.752-.253L31.3,124.75a1.463,1.463,0,0,1-.653-1.083l-1.473-16.51a4.867,4.867,0,0,1,.283-2.4,2.328,2.328,0,0,1,1.629-1.362,4.111,4.111,0,0,1,2.25.21,12.278,12.278,0,0,1,2.567,1.285l23.98,15.188a23.889,23.889,0,0,1,2.882,2.118,16.388,16.388,0,0,1,2.421,2.57,12.809,12.809,0,0,1,1.725,3.118,12.591,12.591,0,0,1,.788,3.706l.447,7.183L81.369,147.4a2.378,2.378,0,0,1,1.082,1.854l.354,6.892a1.436,1.436,0,0,1-.775,1.347,1.55,1.55,0,0,1-.726.181" fill="#1a1818"/>
          <path id="Path_16024" data-name="Path 16024" d="M39.861,120.508l18.02,11.759-.2-2.944a1.258,1.258,0,0,0-.053-.308.52.52,0,0,0-.092-.172,1.115,1.115,0,0,0-.216-.212,5.242,5.242,0,0,0-.433-.3l-17.3-11.167Zm18.268,12.181-.184-.119L39.652,120.633l-.325-3.9.186.121L57,128.143c.2.127.335.225.451.317a1.434,1.434,0,0,1,.254.25.779.779,0,0,1,.125.237,1.526,1.526,0,0,1,.064.36ZM31.776,103.7a2.628,2.628,0,0,0-.6.066,1.957,1.957,0,0,0-1.369,1.147,4.489,4.489,0,0,0-.251,2.211l1.473,16.51a1.079,1.079,0,0,0,.484.8L80.662,157.1a1.162,1.162,0,0,0,1.188.057,1.058,1.058,0,0,0,.573-.99l-.354-6.891a1.993,1.993,0,0,0-.909-1.554l-13.386-8.734-.459-7.374a12.261,12.261,0,0,0-.763-3.594,12.5,12.5,0,0,0-1.674-3.025,16.082,16.082,0,0,0-2.365-2.51,23.621,23.621,0,0,0-2.837-2.084L35.7,105.21a11.9,11.9,0,0,0-2.485-1.246,4.567,4.567,0,0,0-1.436-.266M81.3,157.509c-.03,0-.06,0-.089,0a1.384,1.384,0,0,1-.674-.227L31.389,124.613a1.294,1.294,0,0,1-.58-.961l-1.473-16.511a4.687,4.687,0,0,1,.269-2.32,2.168,2.168,0,0,1,1.517-1.269,3.96,3.96,0,0,1,2.16.205,12.175,12.175,0,0,1,2.532,1.269l23.979,15.188a23.757,23.757,0,0,1,2.863,2.1,16.242,16.242,0,0,1,2.4,2.544,12.69,12.69,0,0,1,1.7,3.078,12.5,12.5,0,0,1,.778,3.658l.451,7.265,13.294,8.674a2.215,2.215,0,0,1,1.008,1.726l.354,6.891a1.273,1.273,0,0,1-.688,1.194,1.375,1.375,0,0,1-.649.162" fill="#191717"/>
          <path id="Path_16025" data-name="Path 16025" d="M37.276,90.317,52.6,99.64a4.239,4.239,0,0,1,.436.3,1.367,1.367,0,0,1,.238.238.743.743,0,0,1,.116.219,1.246,1.246,0,0,1,.058.32l.234,3.312L37.592,94.119Zm42.581,40.046a1.264,1.264,0,0,0,.693-.153,1.165,1.165,0,0,0,.616-1.085l-.4-7.824a1.184,1.184,0,0,0-.571-.947L63.422,110.031,78.753,115.5a1.266,1.266,0,0,0,1.154-.153,1.163,1.163,0,0,0,.5-1.012l-.439-8.537a1.205,1.205,0,0,0-.848-1.073L62.732,99.48a7.139,7.139,0,0,0-.523-1.807A10.315,10.315,0,0,0,60.988,95.6,13.066,13.066,0,0,0,59.353,93.8a11.678,11.678,0,0,0-1.835-1.37L33.892,78.363A12.1,12.1,0,0,0,31.155,77.1a3.782,3.782,0,0,0-2.279-.065,2.383,2.383,0,0,0-1.469,1.5,6.262,6.262,0,0,0-.234,2.719l1.478,16.559a1.179,1.179,0,0,0,.558.9l50.054,31.458a1.286,1.286,0,0,0,.594.192" fill="#fff"/>
          <path id="Path_16026" data-name="Path 16026" d="M37.854,93.959l15.519,9.555-.195-2.779a1.03,1.03,0,0,0-.045-.251.487.487,0,0,0-.075-.143,1.115,1.115,0,0,0-.192-.191,4.008,4.008,0,0,0-.407-.277L37.593,90.829Zm16.139,10.579L37.332,94.279l-.372-4.474,15.783,9.6a4.352,4.352,0,0,1,.466.318,1.658,1.658,0,0,1,.284.286.994.994,0,0,1,.157.3,1.491,1.491,0,0,1,.072.388ZM79.876,130.09a.984.984,0,0,0,.543-.12.892.892,0,0,0,.474-.831l-.4-7.824a.911.911,0,0,0-.442-.728L61.061,108.9l17.784,6.347a.987.987,0,0,0,.9-.12.891.891,0,0,0,.386-.774l-.439-8.537a.934.934,0,0,0-.659-.827l-16.552-5.3-.024-.17a6.822,6.822,0,0,0-.5-1.738,10,10,0,0,0-1.189-2.02,12.655,12.655,0,0,0-1.6-1.754,11.312,11.312,0,0,0-1.792-1.337L33.753,78.6a11.8,11.8,0,0,0-2.674-1.236,3.524,3.524,0,0,0-2.114-.07,2.124,2.124,0,0,0-1.3,1.34,6.011,6.011,0,0,0-.217,2.6l1.477,16.558a.907.907,0,0,0,.432.69L79.409,129.94a1.022,1.022,0,0,0,.467.15m.065.549q-.051,0-.1,0h0a1.565,1.565,0,0,1-.719-.234L29.064,98.945a1.452,1.452,0,0,1-.685-1.105L26.9,81.281a6.512,6.512,0,0,1,.249-2.839,2.654,2.654,0,0,1,1.637-1.667,4.05,4.05,0,0,1,2.444.062,12.348,12.348,0,0,1,2.8,1.291L57.658,92.2a11.914,11.914,0,0,1,1.879,1.4,13.221,13.221,0,0,1,1.67,1.83,10.56,10.56,0,0,1,1.253,2.132,7.516,7.516,0,0,1,.516,1.707L79.2,104.466a1.485,1.485,0,0,1,1.039,1.32l.438,8.537a1.434,1.434,0,0,1-.616,1.249,1.541,1.541,0,0,1-1.4.188l-12.876-4.6,14.553,8.957a1.459,1.459,0,0,1,.7,1.166l.4,7.824a1.435,1.435,0,0,1-.757,1.337,1.523,1.523,0,0,1-.741.191" fill="#1a1818"/>
          <path id="Path_16027" data-name="Path 16027" d="M37.7,94.056l15.862,9.766-.218-3.1a1.174,1.174,0,0,0-.053-.293.646.646,0,0,0-.1-.189,1.251,1.251,0,0,0-.219-.218,3.932,3.932,0,0,0-.425-.29L37.4,90.523Zm16.11,10.176-.181-.112L37.488,94.184l-.338-4.071,15.508,9.434a4.249,4.249,0,0,1,.448.307,1.439,1.439,0,0,1,.256.257.809.809,0,0,1,.132.25,1.366,1.366,0,0,1,.065.348Zm26.058,26.023a1.155,1.155,0,0,0,.633-.14,1.058,1.058,0,0,0,.559-.984l-.4-7.824a1.074,1.074,0,0,0-.519-.859L62.478,109.579,78.79,115.4a1.157,1.157,0,0,0,1.055-.14,1.054,1.054,0,0,0,.454-.917l-.438-8.537a1.1,1.1,0,0,0-.773-.974L62.633,99.564l-.009-.068a7.013,7.013,0,0,0-.515-1.78A10.185,10.185,0,0,0,60.9,95.662a12.932,12.932,0,0,0-1.621-1.777,11.468,11.468,0,0,0-1.818-1.356L33.837,78.457a11.991,11.991,0,0,0-2.712-1.252,3.691,3.691,0,0,0-2.214-.068,2.284,2.284,0,0,0-1.4,1.439,6.145,6.145,0,0,0-.227,2.672L28.76,97.807a1.07,1.07,0,0,0,.508.814l50.054,31.458a1.194,1.194,0,0,0,.543.176m.076.221-.091,0a1.4,1.4,0,0,1-.644-.209L29.151,98.806a1.289,1.289,0,0,1-.609-.98L27.065,81.267a6.357,6.357,0,0,1,.24-2.767,2.492,2.492,0,0,1,1.535-1.569A3.889,3.889,0,0,1,31.186,77a12.18,12.18,0,0,1,2.763,1.275L57.574,92.341a11.733,11.733,0,0,1,1.853,1.383,13.059,13.059,0,0,1,1.648,1.807,10.391,10.391,0,0,1,1.235,2.1,7.278,7.278,0,0,1,.52,1.767l16.325,5.226a1.319,1.319,0,0,1,.924,1.172l.439,8.537a1.273,1.273,0,0,1-.547,1.107,1.376,1.376,0,0,1-1.255.167l-14.348-5.121,15.884,9.777a1.292,1.292,0,0,1,.622,1.034l.4,7.824a1.277,1.277,0,0,1-.673,1.186,1.368,1.368,0,0,1-.662.17" fill="#191717"/>
          <path id="Path_16028" data-name="Path 16028" d="M34.976,62.657,67.063,80.913a5.294,5.294,0,0,1,.474.3,1.233,1.233,0,0,1,.246.226.649.649,0,0,1,.113.211,1.485,1.485,0,0,1,.062.378l.205,3.5-.142-.079L35.994,66.982a2.658,2.658,0,0,1-.339-.225,1.273,1.273,0,0,1-.215-.212.836.836,0,0,1-.121-.213,1.048,1.048,0,0,1-.061-.28ZM30.162,73.475a18.115,18.115,0,0,0,2.753,1.982l38,22.42a18.277,18.277,0,0,0,3.1,1.5,7.241,7.241,0,0,0,1.929.433,4.011,4.011,0,0,0,.841-.026,2.739,2.739,0,0,0,2.088-1.406,6.109,6.109,0,0,0,.551-3.307L78.836,83.7a12.376,12.376,0,0,0-.878-4.008,13.2,13.2,0,0,0-1.974-3.334,17.1,17.1,0,0,0-2.73-2.679A23.466,23.466,0,0,0,70.1,71.594L31.486,50.157a11.49,11.49,0,0,0-2.8-1.167,3.75,3.75,0,0,0-2.316.065,2.565,2.565,0,0,0-1.451,1.62,6.806,6.806,0,0,0-.227,2.839l1.03,11.543a12.107,12.107,0,0,0,.731,3.206,12.325,12.325,0,0,0,1.517,2.812,14.4,14.4,0,0,0,2.187,2.4" fill="#fff"/>
          <path id="Path_16029" data-name="Path 16029" d="M35.292,63.15l.239,2.879a.735.735,0,0,0,.044.206.531.531,0,0,0,.081.142.986.986,0,0,0,.169.165,2.562,2.562,0,0,0,.305.2l31.731,18.3-.175-3a1.32,1.32,0,0,0-.049-.309.364.364,0,0,0-.067-.125.993.993,0,0,0-.194-.177c-.124-.09-.274-.18-.45-.282ZM68.465,86.011l-.58-.323L35.857,67.218a2.987,2.987,0,0,1-.371-.247,1.584,1.584,0,0,1-.26-.257,1.127,1.127,0,0,1-.162-.283,1.318,1.318,0,0,1-.078-.357l-.325-3.911L67.2,80.675a5.685,5.685,0,0,1,.5.316,1.485,1.485,0,0,1,.3.277.919.919,0,0,1,.157.294,1.731,1.731,0,0,1,.076.447ZM30.343,73.269a17.8,17.8,0,0,0,2.711,1.952l38,22.42A18.056,18.056,0,0,0,74.1,99.12a6.965,6.965,0,0,0,1.855.418,3.779,3.779,0,0,0,.787-.024,2.476,2.476,0,0,0,1.887-1.27,5.851,5.851,0,0,0,.517-3.159l-.584-11.37a12.083,12.083,0,0,0-.858-3.921,12.981,12.981,0,0,0-1.934-3.265,16.84,16.84,0,0,0-2.686-2.635,23.14,23.14,0,0,0-3.12-2.062L31.353,50.4a11.17,11.17,0,0,0-2.725-1.139,3.481,3.481,0,0,0-2.148.05,2.309,2.309,0,0,0-1.3,1.459,6.539,6.539,0,0,0-.213,2.724L26,65.032a11.853,11.853,0,0,0,.714,3.134A12.08,12.08,0,0,0,28.2,70.914a14.074,14.074,0,0,0,2.146,2.355m45.9,26.825c-.1,0-.211,0-.318-.011a7.49,7.49,0,0,1-2-.448,18.525,18.525,0,0,1-3.144-1.524l-38-22.42a18.455,18.455,0,0,1-2.8-2.011h0a14.657,14.657,0,0,1-2.228-2.446A12.656,12.656,0,0,1,26.2,68.36a12.416,12.416,0,0,1-.747-3.28l-1.03-11.542a7.046,7.046,0,0,1,.242-2.954,2.828,2.828,0,0,1,1.6-1.783,4.013,4.013,0,0,1,2.484-.077,11.807,11.807,0,0,1,2.864,1.193L70.23,71.354a23.827,23.827,0,0,1,3.194,2.111A17.39,17.39,0,0,1,76.2,76.187a13.508,13.508,0,0,1,2.014,3.4,12.645,12.645,0,0,1,.9,4.1l.583,11.37a6.35,6.35,0,0,1-.585,3.454,3,3,0,0,1-2.289,1.544,4.2,4.2,0,0,1-.579.039" fill="#1a1818"/>
          <path id="Path_16030" data-name="Path 16030" d="M35.1,62.854l.265,3.189a.936.936,0,0,0,.054.251.773.773,0,0,0,.1.185,1.164,1.164,0,0,0,.2.192,2.693,2.693,0,0,0,.325.217l31.994,18.45-.193-3.305a1.391,1.391,0,0,0-.057-.35A.549.549,0,0,0,67.7,81.5a1.2,1.2,0,0,0-.225-.2,5.375,5.375,0,0,0-.465-.292Zm33.181,22.87-.317-.177L35.939,67.077a3.028,3.028,0,0,1-.352-.234,1.449,1.449,0,0,1-.233-.229.985.985,0,0,1-.137-.242,1.115,1.115,0,0,1-.067-.311l-.3-3.6.18.1L67.117,80.818a5.347,5.347,0,0,1,.485.306,1.305,1.305,0,0,1,.267.246.751.751,0,0,1,.131.244,1.7,1.7,0,0,1,.068.406ZM30.234,73.393a17.992,17.992,0,0,0,2.736,1.97l38,22.42a18.114,18.114,0,0,0,3.077,1.492,7.132,7.132,0,0,0,1.9.427,4.022,4.022,0,0,0,.819-.025,2.637,2.637,0,0,0,2.008-1.351,6.008,6.008,0,0,0,.537-3.248l-.583-11.371a12.273,12.273,0,0,0-.871-3.973A13.081,13.081,0,0,0,75.9,76.428a16.97,16.97,0,0,0-2.713-2.662,23.309,23.309,0,0,0-3.142-2.077L31.433,50.252A11.425,11.425,0,0,0,28.666,49.1a3.65,3.65,0,0,0-2.249.058,2.466,2.466,0,0,0-1.39,1.556,6.7,6.7,0,0,0-.221,2.794l1.03,11.542a11.989,11.989,0,0,0,.724,3.178,12.208,12.208,0,0,0,1.5,2.786,14.317,14.317,0,0,0,2.171,2.382m46,26.538c-.1,0-.2,0-.308-.011a7.328,7.328,0,0,1-1.958-.439,18.407,18.407,0,0,1-3.115-1.51l-38-22.42a18.25,18.25,0,0,1-2.77-1.994,14.5,14.5,0,0,1-2.2-2.419A12.47,12.47,0,0,1,26.355,68.3a12.25,12.25,0,0,1-.737-3.236l-1.03-11.542a6.89,6.89,0,0,1,.233-2.885,2.673,2.673,0,0,1,1.512-1.686,3.861,3.861,0,0,1,2.384-.069,11.64,11.64,0,0,1,2.822,1.177L70.15,71.5a23.5,23.5,0,0,1,3.172,2.1,17.188,17.188,0,0,1,2.747,2.7,13.316,13.316,0,0,1,1.99,3.361,12.482,12.482,0,0,1,.886,4.044l.583,11.37a6.209,6.209,0,0,1-.564,3.366,2.847,2.847,0,0,1-2.169,1.462,4.025,4.025,0,0,1-.556.037" fill="#191717"/>
          <path id="Path_16031" data-name="Path 16031" d="M29.44,44.34l8.069,4.121a1.273,1.273,0,0,0,1.166.033l10.877-4.225c.022-.009.04-.018.061-.029l34.3,18.249.117.063L81.309,63.67a.881.881,0,0,1-.265.066,1.042,1.042,0,0,1-.28-.014,2.1,2.1,0,0,1-.364-.108,4.3,4.3,0,0,1-.45-.213L57.475,51.051a1.286,1.286,0,0,0-1.139-.045l-6.317,2.868a1.167,1.167,0,0,0-.087,2.1l25.2,14.171a22.292,22.292,0,0,0,3.7,1.616,20.675,20.675,0,0,0,3.727.871c.4.052.79.091,1.176.116a15.012,15.012,0,0,0,2.339-.023A10.476,10.476,0,0,0,89.135,72l10.2-4.259a3.832,3.832,0,0,0,2.078-1.682,2.452,2.452,0,0,0-.091-2.255A6.774,6.774,0,0,0,99.494,61.7a18.349,18.349,0,0,0-3.088-1.974L49.773,35.362a2.472,2.472,0,0,0-2.2-.055L29.5,42.228a.681.681,0,0,0-.067.03,1.176,1.176,0,0,0-.639,1.029,1.2,1.2,0,0,0,.642,1.053" fill="#fff"/>
          <path id="Path_16032" data-name="Path 16032" d="M52.662,34.154l55.567,28.7a1.266,1.266,0,0,0,1.074.044l14.569-6.079a1.167,1.167,0,0,0,.172-2.085l-8.792-5.489a1.273,1.273,0,0,0-1.155-.1l-8.057,3.305-11.478-5.8L98.9,44.9a1.168,1.168,0,0,0,.08-2.149l-8.508-4.232a1.281,1.281,0,0,0-1.036-.044l-6.178,2.449L71.515,34.995l6.1-2.368a1.175,1.175,0,0,0,.766-1.1,1.191,1.191,0,0,0-.775-1.1l-9.791-3.817a1.28,1.28,0,0,0-.918,0h0l-14.114,5.4a1.168,1.168,0,0,0-.119,2.149" fill="#fff"/>
          <path id="Path_16033" data-name="Path 16033" d="M76.047,27.24a13.261,13.261,0,0,0,2.606,1.612l41.659,20.464a41.977,41.977,0,0,0,4.751,2.023,21.4,21.4,0,0,0,4.193,1.032c.354.047.7.082,1.046.105a13.967,13.967,0,0,0,2.8-.094,14.549,14.549,0,0,0,3.659-1.016l6.424-2.681a1.166,1.166,0,0,0,.153-2.1l-8.876-5.323a1.278,1.278,0,0,0-1.137-.087l-5.853,2.4a.849.849,0,0,1-.247.06,1.17,1.17,0,0,1-.286-.012,2.246,2.246,0,0,1-.378-.1,4.5,4.5,0,0,1-.472-.2L92.022,26.932l4-1.554a1.172,1.172,0,0,0,.766-1.108,1.191,1.191,0,0,0-.791-1.1L85.918,19.4a.642.642,0,0,0-.453,0l-8.777,3.358a3.64,3.64,0,0,0-1.648,1.108,1.788,1.788,0,0,0-.274,1.715,3.916,3.916,0,0,0,1.281,1.661" fill="#fff"/>
          <path id="Path_16034" data-name="Path 16034" d="M92.023,18.158l7.858,5.2a1.272,1.272,0,0,0,1.176.133l4.612-1.792,44.792,23.821a1.3,1.3,0,0,0,.455.115,1.269,1.269,0,0,0,.573-.094l9.727-4.276a1.168,1.168,0,0,0,.739-1.067,1.181,1.181,0,0,0-.711-1.1L115.053,18.059l2.243-.872a1.17,1.17,0,0,0,.766-1.137,1.182,1.182,0,0,0-.825-1.082l-10.455-3.8a3.549,3.549,0,0,0-2.357.062l-.008,0L92.265,16.082a1.166,1.166,0,0,0-.242,2.076" fill="#fff"/>
          <path id="Path_16035" data-name="Path 16035" d="M109.376,106.066c-7.012,6.587-15.511,8.792-24.308,8.227l2.085,41.918A2.059,2.059,0,0,0,88.21,157.9a2.213,2.213,0,0,0,2.043.078h0l6.639-3.148a1.516,1.516,0,0,0,.881-1.427l-.881-20.908a.316.316,0,0,1,.308-.351.325.325,0,0,1,.39.266l4.084,18.027a1.543,1.543,0,0,0,.866,1.057,1.636,1.636,0,0,0,1.4,0l8.459-4.011a1.52,1.52,0,0,0,.881-1.409l-1.262-42.59c-.868.882-1.746,1.748-2.639,2.588" fill="#161615"/>
          <path id="Path_16036" data-name="Path 16036" d="M110.241,67.31a1.641,1.641,0,0,0-1.491-.114l-8.867,3.721a1.512,1.512,0,0,0-.948,1.451l.814,21.517a.316.316,0,0,1-.311.349.325.325,0,0,1-.388-.27L94.956,75a1.544,1.544,0,0,0-.83-1.052,1.634,1.634,0,0,0-1.369-.046l-8.5,3.566a1.528,1.528,0,0,0-.947,1.469l1.758,35.354c8.8.565,17.3-1.641,24.308-8.228.893-.84,1.771-1.707,2.64-2.588l-1.034-34.916a1.526,1.526,0,0,0-.74-1.253" fill="#fff"/>
          <path id="Path_16037" data-name="Path 16037" d="M119.968,95.122l1.493,6.824a.542.542,0,0,1,.006.183l-5.774,41.612a1.171,1.171,0,0,0,.506,1.122,1.289,1.289,0,0,0,.651.227l.083,0a1.294,1.294,0,0,0,.555-.125l7.866-3.729a1.176,1.176,0,0,0,.678-.931l2.422-21.54a.534.534,0,0,1,.563-.487.526.526,0,0,1,.538.46l2.882,17.4a1.193,1.193,0,0,0,.659.874,1.285,1.285,0,0,0,1.132.013l7.894-3.743a1.171,1.171,0,0,0,.665-1.276l-7.02-35.956a.482.482,0,0,1,0-.185l2.013-13.131c-7.013,2.084-12.54,6.957-17.809,12.383" fill="#151614"/>
          <path id="Path_16038" data-name="Path 16038" d="M141.438,54.643a1.3,1.3,0,0,0-.767-.25,1.289,1.289,0,0,0-.5.1l-7.955,3.338a1.191,1.191,0,0,0-.731.954l-2.637,23.407a.558.558,0,0,1-1.1.022l-3.073-19.569a1.191,1.191,0,0,0-.628-.867,1.289,1.289,0,0,0-1.111-.053l-8.492,3.562a1.176,1.176,0,0,0-.713,1.324l6.239,28.511c5.269-5.427,10.8-10.3,17.809-12.384l4.136-26.977a1.175,1.175,0,0,0-.475-1.118" fill="#fff"/>
          <path id="Path_16039" data-name="Path 16039" d="M166.056,59.258a.9.9,0,0,0,.55-.962l-2.041-13.018a.917.917,0,0,0-.484-.668,1,1,0,0,0-.858-.04l-17.1,7.173a.912.912,0,0,0-.559.7l-2.311,15.073a.9.9,0,0,0,.368.861,1,1,0,0,0,.982.109l5.052-2.178.012,17.741c3.447,1.045,7.021,2.3,10.418,3l.169-25.3Z" fill="#fff"/>
          <path id="Path_16040" data-name="Path 16040" d="M149.7,127.982a.913.913,0,0,0,.453.779.98.98,0,0,0,.449.138l.067,0a.978.978,0,0,0,.425-.1l8.221-3.9a.9.9,0,0,0,.527-.807l.247-37.051c-3.4-.7-6.971-1.956-10.418-3Z" fill="#161615"/>
          <path id="Path_16041" data-name="Path 16041" d="M39.756,120.57l-.3-3.622,17.49,11.287c.174.112.32.213.442.31a1.394,1.394,0,0,1,.235.23.645.645,0,0,1,.108.206,1.378,1.378,0,0,1,.059.335l.217,3.163Zm41.463,27.058-13.34-8.7-.455-7.32a12.367,12.367,0,0,0-.77-3.625,12.576,12.576,0,0,0-1.689-3.052,16.2,16.2,0,0,0-2.381-2.527,23.679,23.679,0,0,0-2.85-2.094L35.755,105.118a12.041,12.041,0,0,0-2.508-1.257,3.871,3.871,0,0,0-2.1-.2,2.064,2.064,0,0,0-1.443,1.208,4.605,4.605,0,0,0-.26,2.266l1.473,16.51a1.189,1.189,0,0,0,.532.88L80.6,157.189a1.278,1.278,0,0,0,1.3.062,1.166,1.166,0,0,0,.629-1.092l-.353-6.891a2.1,2.1,0,0,0-.959-1.64" fill="#161615"/>
          <path id="Path_16042" data-name="Path 16042" d="M79.121,104.727,62.732,99.48a7.139,7.139,0,0,0-.523-1.807A10.343,10.343,0,0,0,60.988,95.6a12.876,12.876,0,0,0-1.635-1.791,11.64,11.64,0,0,0-1.835-1.371L33.892,78.363A12.086,12.086,0,0,0,31.155,77.1a3.775,3.775,0,0,0-2.279-.066,2.388,2.388,0,0,0-1.469,1.5,6.253,6.253,0,0,0-.233,2.72l.587,6.584A53.494,53.494,0,0,1,37.4,91.808l-.124-1.491L52.6,99.64a4.4,4.4,0,0,1,.436.3,1.4,1.4,0,0,1,.238.238.725.725,0,0,1,.116.22,1.27,1.27,0,0,1,.059.32l.139,1.977c8.115,5.183,17.5,9.481,26.788,11.048l-.408-7.941a1.207,1.207,0,0,0-.848-1.073" fill="#fff"/>
          <path id="Path_16043" data-name="Path 16043" d="M53.683,104.027,37.592,94.12,37.4,91.809a53.426,53.426,0,0,0-9.639-3.967l.89,9.974a1.184,1.184,0,0,0,.558.9l50.054,31.456a1.274,1.274,0,0,0,1.287.039,1.165,1.165,0,0,0,.616-1.085l-.4-7.824a1.182,1.182,0,0,0-.571-.946L63.423,110.032l15.33,5.471a1.268,1.268,0,0,0,1.154-.154,1.162,1.162,0,0,0,.5-1.011l-.031-.6c-9.288-1.567-18.673-5.865-26.788-11.046Z" fill="#161615"/>
          <path id="Path_16044" data-name="Path 16044" d="M67.063,80.912a5.461,5.461,0,0,1,.475.3,1.251,1.251,0,0,1,.245.225.644.644,0,0,1,.113.212,1.526,1.526,0,0,1,.063.378l.2,3.5-.142-.08L35.994,66.982a2.934,2.934,0,0,1-.339-.226,1.35,1.35,0,0,1-.215-.211.885.885,0,0,1-.121-.213,1.028,1.028,0,0,1-.06-.28l-.283-3.4ZM25.727,65.056a12.123,12.123,0,0,0,.731,3.207,12.339,12.339,0,0,0,1.517,2.811,14.4,14.4,0,0,0,2.187,2.4,18.1,18.1,0,0,0,2.753,1.982l38,22.42a18.235,18.235,0,0,0,3.1,1.5,7.255,7.255,0,0,0,1.929.434,4.086,4.086,0,0,0,.842-.027,2.741,2.741,0,0,0,2.088-1.406,6.116,6.116,0,0,0,.551-3.307L78.836,83.7a12.377,12.377,0,0,0-.878-4.009,13.215,13.215,0,0,0-1.974-3.334,17.1,17.1,0,0,0-2.73-2.679A23.517,23.517,0,0,0,70.1,71.593L31.486,50.156a11.494,11.494,0,0,0-2.794-1.166,3.746,3.746,0,0,0-2.317.064,2.565,2.565,0,0,0-1.451,1.62,6.809,6.809,0,0,0-.227,2.839Z" fill="#fff"/>
          <path id="Path_16045" data-name="Path 16045" d="M236.613,89.933l-4.351,11.681c.96.649,1.915,1.258,2.866,1.835,1.85-5.077,3.21-8.86,3.21-8.86s.388,4.959.906,11.167c1.259.644,2.506,1.226,3.741,1.756L241.5,89.933Z" fill="#161615"/>
          <path id="Path_16046" data-name="Path 16046" d="M249.6,89.933V109.9q1.811.531,3.564.922V89.933Z" fill="#161615"/>
          <path id="Path_16047" data-name="Path 16047" d="M261.616,99.705c0-3.966,3.276-6.61,8.449-6.61a15.953,15.953,0,0,1,7.99,2.184V91.314a17.908,17.908,0,0,0-8.047-1.725c-6.323,0-12.071,3.506-12.071,10.346,0,7.242,6.611,9.254,12.013,11.668l.538.243a49.866,49.866,0,0,0,5.736-.934,32.312,32.312,0,0,0-6.216-3.217c-4.368-1.9-8.392-3.621-8.392-7.99" fill="#161615"/>
          <path id="Path_16048" data-name="Path 16048" d="M284.32,89.933v17.94c.931-.648,2.145-1.574,3.564-2.719V93.1h5.575a11.625,11.625,0,0,1,6.356,1.5q1.206-1.149,2.411-2.335c-2.187-1.5-5.218-2.328-9.17-2.328Z" fill="#161615"/>
          <path id="Path_16049" data-name="Path 16049" d="M328.911,76.78a86.28,86.28,0,0,0,13.344,66.2c-3.616-21.68-1.168-43.022,4.546-62.867a62.989,62.989,0,0,0-17.89-3.334" fill="#d30d1c"/>
          <path id="Path_16050" data-name="Path 16050" d="M239.89,113.327l1.322,15.347h3.563l-1.789-21.161c-1.235-.53-2.482-1.112-3.742-1.756.2,2.409.421,5,.646,7.57" fill="#161615"/>
          <path id="Path_16051" data-name="Path 16051" d="M231.325,104.131c-3.277,8.794-7.242,19.715-7.242,19.715s-3.851-11.265-6.841-19.715l-5.057-14.2H207.3l-2.7,38.741h3.564l1.092-15.347c.69-9.656,1.207-18.336,1.207-18.336l6.438,18.336,5.058,14.369h4.2l5.345-14.369c1.263-3.4,2.533-6.867,3.631-9.878-.951-.577-1.906-1.186-2.866-1.835Z" fill="#161615"/>
          <path id="Path_16052" data-name="Path 16052" d="M249.6,128.674h3.564V110.818q-1.752-.39-3.564-.922Z" fill="#161615"/>
          <path id="Path_16053" data-name="Path 16053" d="M276.676,118.73c0,4.541-3.277,6.9-8.622,6.9a17.505,17.505,0,0,1-10-3.046v3.966a20.384,20.384,0,0,0,10.174,2.529c6.667,0,12.07-3.391,12.07-10.4a9.032,9.032,0,0,0-4.073-7.762,49.815,49.815,0,0,1-5.736.935c3.385,1.55,6.188,3.335,6.188,6.884" fill="#161615"/>
          <path id="Path_16054" data-name="Path 16054" d="M303,101.545c0,4.426-2.932,8.219-8.852,8.219h-6.265v-4.609c-1.419,1.145-2.633,2.071-3.564,2.719v20.8h3.564V112.926h6.955l9.714,15.749H308.8l-10.289-16.382c5.231-1.437,7.875-5.518,8.048-10.575,0-4.184-1.4-7.436-4.339-9.456q-1.2,1.184-2.411,2.335c2.156,1.39,3.186,3.723,3.186,6.948" fill="#161615"/>
          <path id="Path_16055" data-name="Path 16055" d="M207.334,29.194a1.974,1.974,0,0,0,.8,1.1,2.643,2.643,0,0,0,1.47.379,3.142,3.142,0,0,0,2.834-1.68,3.666,3.666,0,0,0,.423-1.767,2.289,2.289,0,0,0-.682-1.744,2.527,2.527,0,0,0-1.806-.643,3.069,3.069,0,0,0-1.374.3,2.877,2.877,0,0,0-1.036.854l.22-1.113h-.538l-1.575,7.882h.551Zm.584-2.449a2.649,2.649,0,0,1,.964-1.041,2.59,2.59,0,0,1,1.38-.375,2.1,2.1,0,0,1,1.5.508,1.857,1.857,0,0,1,.533,1.419,3.178,3.178,0,0,1-.346,1.5,2.607,2.607,0,0,1-.957,1.038,2.559,2.559,0,0,1-1.381.382,2.111,2.111,0,0,1-1.509-.508,1.851,1.851,0,0,1-.538-1.42,3.181,3.181,0,0,1,.351-1.5" fill="#161615"/>
          <path id="Path_16056" data-name="Path 16056" d="M216.6,30.669a3.253,3.253,0,0,0,1.695-.446,3.124,3.124,0,0,0,1.172-1.232,3.678,3.678,0,0,0,.426-1.767,2.281,2.281,0,0,0-.69-1.746,2.6,2.6,0,0,0-1.854-.644,3.172,3.172,0,0,0-2.867,1.685,3.638,3.638,0,0,0-.424,1.762,2.281,2.281,0,0,0,.688,1.739,2.591,2.591,0,0,0,1.854.649m-1.639-3.914a2.651,2.651,0,0,1,.962-1.044,2.556,2.556,0,0,1,1.382-.38,2.085,2.085,0,0,1,1.5.506,1.863,1.863,0,0,1,.536,1.42,3.152,3.152,0,0,1-.354,1.5,2.581,2.581,0,0,1-2.344,1.414,2.1,2.1,0,0,1-1.5-.509,1.859,1.859,0,0,1-.533-1.417,3.126,3.126,0,0,1,.353-1.493" fill="#161615"/>
          <path id="Path_16057" data-name="Path 16057" d="M222.755,30.623l2.862-4.995,1.047,4.995h.528l3.246-5.745H229.9L227.015,30l-1.034-5.12h-.475l-2.915,5.13-1-5.13h-.505l1.144,5.745Z" fill="#161615"/>
          <path id="Path_16058" data-name="Path 16058" d="M233.093,30.668a3.54,3.54,0,0,0,1.282-.231,2.567,2.567,0,0,0,.985-.648l-.254-.385a2.318,2.318,0,0,1-.854.564,2.928,2.928,0,0,1-1.116.2,2.251,2.251,0,0,1-1.584-.5,1.863,1.863,0,0,1-.541-1.437c0-.082.007-.2.023-.364h4.952a3.762,3.762,0,0,0,.067-.639,2.341,2.341,0,0,0-.659-1.761,2.463,2.463,0,0,0-1.785-.637A2.987,2.987,0,0,0,232,25.28a3.137,3.137,0,0,0-1.12,1.228,3.711,3.711,0,0,0-.408,1.75,2.278,2.278,0,0,0,.7,1.772,2.747,2.747,0,0,0,1.923.638m-1.108-4.775a2.386,2.386,0,0,1,1.613-.584,1.992,1.992,0,0,1,1.408.489,1.756,1.756,0,0,1,.529,1.359,2.642,2.642,0,0,1-.011.288H231.1a2.727,2.727,0,0,1,.884-1.552" fill="#161615"/>
          <path id="Path_16059" data-name="Path 16059" d="M238.506,27.675a3.139,3.139,0,0,1,.859-1.729,2.274,2.274,0,0,1,1.606-.584l.177.013.1-.539a3.14,3.14,0,0,0-1.46.313,2.5,2.5,0,0,0-.984.941l.241-1.21h-.539l-1.146,5.744h.552Z" fill="#161615"/>
          <path id="Path_16060" data-name="Path 16060" d="M244.3,30.668a3.54,3.54,0,0,0,1.282-.231,2.575,2.575,0,0,0,.985-.648l-.254-.385a2.318,2.318,0,0,1-.854.564,2.926,2.926,0,0,1-1.115.2,2.252,2.252,0,0,1-1.585-.5,1.863,1.863,0,0,1-.541-1.437c0-.082.007-.2.023-.364h4.952a3.764,3.764,0,0,0,.067-.639,2.338,2.338,0,0,0-.66-1.761,2.459,2.459,0,0,0-1.784-.637,2.987,2.987,0,0,0-1.609.444,3.137,3.137,0,0,0-1.12,1.228,3.723,3.723,0,0,0-.408,1.75,2.278,2.278,0,0,0,.7,1.772,2.747,2.747,0,0,0,1.923.638m-1.108-4.775a2.386,2.386,0,0,1,1.613-.584,1.992,1.992,0,0,1,1.408.489,1.756,1.756,0,0,1,.529,1.359c0,.126,0,.221-.01.288H242.3a2.734,2.734,0,0,1,.885-1.552" fill="#161615"/>
          <path id="Path_16061" data-name="Path 16061" d="M250.954,30.669a3.022,3.022,0,0,0,1.382-.31,2.906,2.906,0,0,0,1.042-.856l-.221,1.123h.528l1.629-8.168h-.552l-.769,3.862a1.905,1.905,0,0,0-.792-1.1,2.64,2.64,0,0,0-1.475-.384,3.173,3.173,0,0,0-1.667.446,3.118,3.118,0,0,0-1.162,1.231,3.714,3.714,0,0,0-.418,1.767,2.294,2.294,0,0,0,.677,1.744,2.5,2.5,0,0,0,1.8.646m-1.572-3.914a2.689,2.689,0,0,1,.962-1.045,2.579,2.579,0,0,1,1.382-.381,2.089,2.089,0,0,1,1.5.51,1.852,1.852,0,0,1,.533,1.416,3.177,3.177,0,0,1-.351,1.5,2.621,2.621,0,0,1-.965,1.04,2.573,2.573,0,0,1-1.379.375,2.093,2.093,0,0,1-1.5-.506,1.86,1.86,0,0,1-.536-1.421,3.129,3.129,0,0,1,.354-1.491" fill="#161615"/>
          <path id="Path_16062" data-name="Path 16062" d="M260.091,29.161a1.94,1.94,0,0,0,.795,1.116,2.6,2.6,0,0,0,1.485.392,3.142,3.142,0,0,0,2.834-1.68,3.666,3.666,0,0,0,.423-1.767,2.289,2.289,0,0,0-.682-1.744,2.527,2.527,0,0,0-1.806-.643,3.1,3.1,0,0,0-1.359.292,2.814,2.814,0,0,0-1.028.831l.692-3.5H260.9l-1.631,8.168h.539Zm.6-2.416a2.649,2.649,0,0,1,.964-1.041,2.59,2.59,0,0,1,1.38-.375,2.1,2.1,0,0,1,1.5.508,1.857,1.857,0,0,1,.533,1.419,3.179,3.179,0,0,1-.346,1.5,2.612,2.612,0,0,1-.956,1.038,2.565,2.565,0,0,1-1.382.382,2.111,2.111,0,0,1-1.509-.508,1.851,1.851,0,0,1-.538-1.42,3.181,3.181,0,0,1,.351-1.5" fill="#161615"/>
          <path id="Path_16063" data-name="Path 16063" d="M267.053,32.1a1.261,1.261,0,0,1-.72.218,1.322,1.322,0,0,1-1.037-.429l-.318.408a1.305,1.305,0,0,0,.549.375,2.147,2.147,0,0,0,.75.13,1.784,1.784,0,0,0,1.027-.292,3.5,3.5,0,0,0,.921-1.038l4.293-6.594h-.572l-3.323,5.139-1.29-5.139h-.562l1.454,5.724-.485.726a2.8,2.8,0,0,1-.687.772" fill="#161615"/>
          <path id="Path_16064" data-name="Path 16064" d="M373.686,22.456,311.213,56.693h25.019a86.24,86.24,0,0,0-6.321,19.087,63,63,0,0,1,17.89,3.334c6.056-21.034,15.781-40.386,25.885-56.658" fill="#d30d1c"/>
          <path id="Path_16065" data-name="Path 16065" d="M347.969,79.433l-.247-.082A62.536,62.536,0,0,0,329.9,76.029l-.3-.007.06-.293a86.6,86.6,0,0,1,6.175-18.787h-25.6L374.4,21.778l-.5.809c-11.83,19.052-20.53,38.094-25.858,56.6Zm-17.752-3.9a63.247,63.247,0,0,1,17.416,3.257c5.271-18.206,13.8-36.929,25.342-55.664L312.19,56.442h24.435l-.166.356a86.1,86.1,0,0,0-6.242,18.739" fill="#d30d1c"/>
          <path id="Path_16066" data-name="Path 16066" d="M215.455,62.631h15.676V55.152H215.455V44.725h17.617V36.6H205.6V81.4h9.852Z" fill="#161615"/>
          <path id="Path_16067" data-name="Path 16067" d="M215.705,81.65H205.352v-45.3h27.97v8.627H215.705V54.9H231.38v7.979H215.705Zm-9.853-.5h9.353V62.381H230.88V55.4H215.205V44.476h17.617V36.849h-26.97Z" fill="#151614"/>
          <path id="Path_16068" data-name="Path 16068" d="M228.731,81.4h10.14l3.02-8.918h17.474l2.877,8.918h10.714l-16.4-44.8h-11Zm21.933-35.668h.144c.5,2.085,1.366,4.673,2.229,7.334l3.739,11.507h-12.3l3.882-11.507c.864-2.588,1.727-5.321,2.3-7.334" fill="#161615"/>
          <path id="Path_16069" data-name="Path 16069" d="M273.313,81.651H262.06L262,81.477l-2.821-8.744H242.07l-3.019,8.918H228.369l17.017-45.3h11.348l.06.164Zm-10.889-.5H272.6l-16.214-44.3H245.731l-16.639,44.3h9.6l3.02-8.918h17.836l.056.174Zm-5.305-16.327H244.132l3.993-11.837c.912-2.734,1.75-5.4,2.3-7.323l.051-.181h.53l.046.192c.447,1.854,1.177,4.1,1.95,6.473Zm-12.29-.5h11.6L252.526,52.3c-.691-2.122-1.347-4.139-1.8-5.878-.545,1.859-1.3,4.264-2.124,6.721Z" fill="#151614"/>
          <path id="Path_16070" data-name="Path 16070" d="M309.552,68.385c0-5.827-3.6-9.206-8.414-10.283v-.146c3.668-1.006,7.046-4.386,7.046-9.923,0-6.832-5.248-11.434-14.955-11.434H276.186V81.4H293.66c9.707,0,15.892-4.818,15.892-13.015M286.038,44.293h5.968c4.315,0,6.255,2.014,6.255,5.106,0,3.453-1.869,5.465-6.328,5.465h-5.9Zm0,29.412V61.624h6.184c4.458,0,6.687,2.086,6.687,6.113,0,3.955-2.373,5.968-6.761,5.968Z" fill="#161615"/>
          <path id="Path_16071" data-name="Path 16071" d="M293.659,81.651H275.935V36.35h17.293c9.522,0,15.206,4.368,15.206,11.684a10.088,10.088,0,0,1-6.627,9.975A10.128,10.128,0,0,1,309.8,68.386c0,8.182-6.186,13.265-16.143,13.265m-17.224-.5h17.224c9.649,0,15.643-4.891,15.643-12.765,0-5.213-2.995-8.872-8.219-10.04l-.2-.043v-.537l.183-.05c3.166-.869,6.863-3.925,6.863-9.682,0-7-5.5-11.184-14.706-11.184H276.435Zm15.713-7.195h-6.36V61.374h6.434c4.538,0,6.936,2.2,6.936,6.364,0,4.068-2.424,6.218-7.01,6.218m-5.86-.5h5.86c4.32,0,6.51-1.924,6.51-5.718,0-3.891-2.166-5.864-6.436-5.864h-5.934Zm5.646-18.341h-6.146V44.044h6.218c4.194,0,6.5,1.9,6.5,5.356,0,3.792-2.213,5.715-6.577,5.715m-5.646-.5h5.646c4.088,0,6.077-1.706,6.077-5.215,0-3.177-2.077-4.856-6-4.856h-5.718Z" fill="#151614"/>
          <path id="Path_16072" data-name="Path 16072" d="M237.613,88.933l-4.351,11.681c.96.649,1.915,1.258,2.866,1.835,1.85-5.077,3.21-8.86,3.21-8.86s.388,4.959.906,11.167c1.259.644,2.506,1.226,3.741,1.756L242.5,88.933Z" fill="#161615"/>
          <path id="Path_16073" data-name="Path 16073" d="M244.269,106.906l-.383-.165c-1.273-.547-2.537-1.139-3.756-1.762l-.124-.064-.011-.137c-.368-4.412-.671-8.193-.816-10.012-.532,1.476-1.561,4.324-2.816,7.769l-.105.286-.26-.159c-.987-.6-1.954-1.216-2.875-1.84l-.163-.11,4.479-12.028h5.289Zm-3.788-2.31c1.049.534,2.129,1.043,3.22,1.52l-1.432-16.932h-4.482l-4.222,11.334c.784.527,1.6,1.049,2.432,1.558,1.8-4.93,3.105-8.571,3.105-8.571l.394-1.095.09,1.159s.383,4.885.9,11.027" fill="#151614"/>
          <path id="Path_16074" data-name="Path 16074" d="M250.6,88.933V108.9q1.811.531,3.564.922V88.933Z" fill="#161615"/>
          <path id="Path_16075" data-name="Path 16075" d="M254.416,110.13l-.3-.067c-1.166-.261-2.37-.572-3.579-.927l-.18-.052v-20.4h4.063Zm-3.563-1.421c1.033.3,2.062.566,3.063.8V89.183h-3.063Z" fill="#151614"/>
          <path id="Path_16076" data-name="Path 16076" d="M262.616,98.705c0-3.966,3.276-6.61,8.449-6.61a15.953,15.953,0,0,1,7.99,2.184V90.314a17.908,17.908,0,0,0-8.047-1.725c-6.323,0-12.071,3.506-12.071,10.346,0,7.242,6.611,9.254,12.013,11.668l.538.243a49.866,49.866,0,0,0,5.736-.934,32.312,32.312,0,0,0-6.216-3.217c-4.368-1.9-8.392-3.621-8.392-7.99" fill="#161615"/>
          <path id="Path_16077" data-name="Path 16077" d="M271.446,111.1l-.062-.029c-.177-.081-.354-.162-.534-.242-.553-.247-1.117-.489-1.687-.734-4.91-2.108-10.475-4.5-10.475-11.162,0-5.275,3.809-10.6,12.321-10.6a17.894,17.894,0,0,1,8.164,1.755l.132.071V94.75l-.391-.264a15.657,15.657,0,0,0-7.848-2.142c-4.981,0-8.2,2.5-8.2,6.36,0,4.182,3.788,5.827,8.173,7.731l.07.029a32.469,32.469,0,0,1,6.261,3.245l.448.325-.539.121a50,50,0,0,1-5.764.939Zm-.437-22.264c-8.166,0-11.821,5.071-11.821,10.1,0,6.336,5.172,8.556,10.173,10.7.571.245,1.138.489,1.692.737.16.07.319.143.477.215a50.227,50.227,0,0,0,5.082-.8,35.474,35.474,0,0,0-5.7-2.866l-.07-.03c-4.357-1.891-8.474-3.679-8.474-8.189,0-4.167,3.415-6.86,8.7-6.86a16.7,16.7,0,0,1,7.739,1.981V90.464a17.843,17.843,0,0,0-7.8-1.626" fill="#151614"/>
          <path id="Path_16078" data-name="Path 16078" d="M285.32,88.933v17.94c.931-.648,2.145-1.574,3.564-2.719V92.1h5.575a11.625,11.625,0,0,1,6.356,1.5q1.206-1.149,2.411-2.335c-2.187-1.5-5.218-2.328-9.17-2.328Z" fill="#161615"/>
          <path id="Path_16079" data-name="Path 16079" d="M285.07,107.352V88.683h8.986c3.891,0,7.024.8,9.311,2.373l.25.171-.216.213c-.8.789-1.609,1.571-2.414,2.338l-.143.135-.166-.106a11.44,11.44,0,0,0-6.219-1.462h-5.326v11.928l-.092.075c-1.4,1.13-2.637,2.074-3.578,2.73Zm.5-18.169V106.39c.851-.611,1.9-1.416,3.063-2.356V91.845h5.826a12.159,12.159,0,0,1,6.323,1.437q1.024-.978,2.049-1.983a16.1,16.1,0,0,0-8.775-2.116Z" fill="#151614"/>
          <path id="Path_16080" data-name="Path 16080" d="M329.911,75.78a86.28,86.28,0,0,0,13.344,66.2c-3.616-21.68-1.168-43.022,4.546-62.867a62.989,62.989,0,0,0-17.89-3.334" fill="#fff"/>
          <path id="Path_16081" data-name="Path 16081" d="M343.688,143.054l-.638-.931a86.959,86.959,0,0,1-13.384-66.394l.042-.2.209,0a63.025,63.025,0,0,1,17.963,3.347l.227.076-.066.23c-6.3,21.9-7.832,43.017-4.538,62.757ZM330.114,76.035A86.466,86.466,0,0,0,342.827,140.9c-3.053-19.422-1.484-40.148,4.667-61.625a62.568,62.568,0,0,0-17.38-3.241" fill="#d30d1c"/>
          <path id="Path_16082" data-name="Path 16082" d="M240.89,112.327l1.322,15.347h3.563l-1.789-21.161c-1.235-.53-2.482-1.112-3.742-1.756.2,2.409.421,5,.646,7.57" fill="#fff"/>
          <path id="Path_16083" data-name="Path 16083" d="M246.047,127.924h-4.065l-1.342-15.575c-.224-2.571-.444-5.163-.645-7.572l-.037-.448.4.2c1.21.618,2.463,1.206,3.727,1.749l.137.059Zm-3.606-.5H245.5l-1.754-20.742c-1.088-.47-2.168-.974-3.219-1.5.191,2.281.4,4.712.608,7.124h0Z" fill="#151614"/>
          <path id="Path_16084" data-name="Path 16084" d="M232.325,103.131c-3.277,8.794-7.242,19.715-7.242,19.715s-3.851-11.265-6.841-19.715l-5.057-14.2H208.3l-2.7,38.741h3.564l1.092-15.347c.69-9.656,1.207-18.336,1.207-18.336l6.438,18.336,5.058,14.369h4.2l5.345-14.369c1.263-3.4,2.533-6.867,3.631-9.878-.951-.577-1.906-1.186-2.866-1.835Z" fill="#fff"/>
          <path id="Path_16085" data-name="Path 16085" d="M209.393,127.924H205.33l2.735-39.241h5.3l.059.166,5.056,14.2c2.541,7.179,5.739,16.5,6.613,19.049.911-2.505,4.222-11.6,7-19.052l1.048-2.814.263.178c.915.619,1.875,1.234,2.856,1.828l.175.106-.07.193c-1.1,3.012-2.369,6.477-3.631,9.88l-5.406,14.532h-4.547l-11.143-31.7c-.168,2.74-.6,9.666-1.134,17.1Zm-3.528-.5h3.063L210,112.31c.681-9.545,1.2-18.247,1.207-18.334l.074-1.24,11.848,33.71h3.845l5.285-14.206c1.235-3.329,2.478-6.718,3.56-9.684-.833-.508-1.65-1.031-2.437-1.557l-.827,2.218c-3.238,8.693-7.2,19.6-7.241,19.714l-.242.667-.23-.671c-.039-.113-3.884-11.361-6.839-19.713l-5-14.031h-4.477Z" fill="#151614"/>
          <path id="Path_16086" data-name="Path 16086" d="M250.6,127.674h3.564V109.818q-1.752-.39-3.564-.922Z" fill="#fff"/>
          <path id="Path_16087" data-name="Path 16087" d="M254.416,127.924h-4.063V108.563l.32.094c1.2.351,2.393.66,3.548.917l.2.044Zm-3.563-.5h3.063V110.018c-1-.227-2.029-.492-3.063-.789Z" fill="#151614"/>
          <path id="Path_16088" data-name="Path 16088" d="M277.676,117.73c0,4.541-3.277,6.9-8.622,6.9a17.505,17.505,0,0,1-10-3.046v3.966a20.385,20.385,0,0,0,10.174,2.529c6.667,0,12.07-3.391,12.07-10.4a9.032,9.032,0,0,0-4.073-7.762,49.815,49.815,0,0,1-5.736.935c3.385,1.55,6.188,3.335,6.188,6.884" fill="#fff"/>
          <path id="Path_16089" data-name="Path 16089" d="M269.227,128.327a20.5,20.5,0,0,1-10.3-2.565l-.121-.073v-4.615l.4.31a17.394,17.394,0,0,0,9.849,2.994c5.4,0,8.372-2.361,8.372-6.647,0-3.229-2.415-5-6.042-6.657l-.831-.381.909-.1a49.849,49.849,0,0,0,5.707-.93l.111-.025.09.067a9.21,9.21,0,0,1,4.177,7.964c0,6.571-4.721,10.653-12.32,10.653m-9.924-2.921a20.1,20.1,0,0,0,9.924,2.421c5.714,0,11.82-2.668,11.82-10.153a8.722,8.722,0,0,0-3.88-7.494c-1.537.343-3.138.616-4.773.815,2.806,1.359,5.532,3.187,5.532,6.736,0,4.542-3.233,7.147-8.872,7.147a18.033,18.033,0,0,1-9.751-2.8Z" fill="#151614"/>
          <path id="Path_16090" data-name="Path 16090" d="M304,100.545c0,4.426-2.932,8.219-8.852,8.219h-6.265v-4.609c-1.419,1.145-2.633,2.071-3.564,2.719v20.8h3.564V111.926h6.955l9.714,15.749H309.8l-10.289-16.382c5.231-1.437,7.875-5.518,8.048-10.575,0-4.184-1.4-7.436-4.339-9.456q-1.2,1.184-2.411,2.335c2.156,1.39,3.186,3.723,3.186,6.948" fill="#fff"/>
          <path id="Path_16091" data-name="Path 16091" d="M310.257,127.924h-4.844L295.7,112.175h-6.565v15.749H285.07V106.743l.107-.075c.932-.649,2.16-1.586,3.549-2.708l.407-.329v4.883h6.015c6.349,0,8.6-4.294,8.6-7.97,0-3.2-1.005-5.406-3.072-6.737l-.266-.172.229-.219c.8-.765,1.608-1.545,2.408-2.332l.148-.145.17.117c2.951,2.031,4.447,5.281,4.447,9.661-.184,5.374-3.06,9.261-7.909,10.724Zm-4.565-.5h3.661l-10.227-16.283.324-.09c4.818-1.323,7.684-5.093,7.864-10.342,0-4.113-1.366-7.183-4.062-9.123q-1.019,1-2.041,1.978c2.016,1.431,3.039,3.777,3.039,6.98,0,3.907-2.384,8.47-9.1,8.47h-6.515v-4.339c-1.18.945-2.23,1.743-3.063,2.329v20.42h3.063V111.675h7.344Z" fill="#151614"/>
          <rect id="Rectangle_17891" data-name="Rectangle 17891" width="1.185" height="49.339" transform="translate(181.347 60.481)" fill="#1a1818" stroke="#161615" stroke-width="0.5"/>
          <path id="Path_16092" data-name="Path 16092" d="M182.567,88.64l-1.185-.389V60.379h1.185Z" fill="#161615"/>
        </g>
      </g>
    </g>
  </g>
</svg>
