<svg id="Group_42119" data-name="Group 42119" xmlns="http://www.w3.org/2000/svg" xmlns:xlink="http://www.w3.org/1999/xlink" width="379.738" height="169.933" viewBox="0 0 379.738 169.933">
  <defs>
    <clipPath id="clip-path">
      <rect id="Rectangle_17882" data-name="Rectangle 17882" width="379.738" height="169.933" fill="none"/>
    </clipPath>
  </defs>
  <g id="Group_42118" data-name="Group 42118">
    <g id="Group_42117" data-name="Group 42117" clip-path="url(#clip-path)">
      <g id="Group_42116" data-name="Group 42116">
        <g id="Group_42115" data-name="Group 42115" clip-path="url(#clip-path)">
          <path id="Path_15550" data-name="Path 15550" d="M210.588,29.942a2.6,2.6,0,0,0,.955-1.038,3.17,3.17,0,0,0,.346-1.5,1.853,1.853,0,0,0-.533-1.418,2.094,2.094,0,0,0-1.5-.508,2.586,2.586,0,0,0-1.379.375,2.629,2.629,0,0,0-.963,1.04,3.178,3.178,0,0,0-.351,1.5,1.851,1.851,0,0,0,.537,1.42,2.111,2.111,0,0,0,1.509.508,2.564,2.564,0,0,0,1.381-.382m1.181-4.311a2.286,2.286,0,0,1,.682,1.743,3.665,3.665,0,0,1-.423,1.766,3.138,3.138,0,0,1-1.166,1.232,3.171,3.171,0,0,1-1.666.446,2.643,2.643,0,0,1-1.47-.379,1.972,1.972,0,0,1-.8-1.094l-.714,3.563h-.55l1.574-7.877h.537l-.219,1.113a2.865,2.865,0,0,1,1.035-.854,3.065,3.065,0,0,1,1.373-.3,2.525,2.525,0,0,1,1.8.643" fill="#161615"/>
          <path id="Path_15551" data-name="Path 15551" d="M217.616,29.949a2.6,2.6,0,0,0,.961-1.038,3.156,3.156,0,0,0,.354-1.5,1.865,1.865,0,0,0-.535-1.42,2.086,2.086,0,0,0-1.5-.505,2.563,2.563,0,0,0-1.381.379,2.647,2.647,0,0,0-.961,1.043A3.127,3.127,0,0,0,214.2,28.4a1.859,1.859,0,0,0,.533,1.417,2.093,2.093,0,0,0,1.5.508,2.606,2.606,0,0,0,1.381-.374m-3.278.22a2.275,2.275,0,0,1-.687-1.738,3.637,3.637,0,0,1,.423-1.761,3.176,3.176,0,0,1,2.865-1.683,2.6,2.6,0,0,1,1.853.643,2.278,2.278,0,0,1,.69,1.746,3.683,3.683,0,0,1-.426,1.766,3.114,3.114,0,0,1-1.17,1.23,3.258,3.258,0,0,1-1.7.446,2.589,2.589,0,0,1-1.853-.649" fill="#161615"/>
          <path id="Path_15552" data-name="Path 15552" d="M230.019,25.032l-3.245,5.742h-.528L225.2,25.781l-2.86,4.993h-.529l-1.142-5.742h.5l1,5.126,2.914-5.126h.475l1.032,5.116,2.881-5.116Z" fill="#161615"/>
          <path id="Path_15553" data-name="Path 15553" d="M231.564,26.045a2.735,2.735,0,0,0-.883,1.551H235.1c.007-.067.01-.162.01-.287a1.758,1.758,0,0,0-.527-1.359,1.994,1.994,0,0,0-1.409-.488,2.388,2.388,0,0,0-1.612.583m-.95,1.979c-.015.162-.023.282-.023.364a1.86,1.86,0,0,0,.541,1.436,2.25,2.25,0,0,0,1.584.5,2.924,2.924,0,0,0,1.114-.2,2.314,2.314,0,0,0,.855-.564l.253.385a2.55,2.55,0,0,1-.984.647,3.548,3.548,0,0,1-1.282.231,2.751,2.751,0,0,1-1.922-.637,2.28,2.28,0,0,1-.7-1.771,3.721,3.721,0,0,1,.407-1.749,3.127,3.127,0,0,1,1.12-1.227,2.984,2.984,0,0,1,1.607-.443,2.458,2.458,0,0,1,1.784.635,2.341,2.341,0,0,1,.659,1.761,3.763,3.763,0,0,1-.067.638Z" fill="#161615"/>
          <path id="Path_15554" data-name="Path 15554" d="M239.363,25.3a3.13,3.13,0,0,1,1.459-.313l-.1.539-.177-.013a2.273,2.273,0,0,0-1.6.584,3.142,3.142,0,0,0-.859,1.727l-.594,2.948h-.552l1.146-5.741h.539l-.241,1.209a2.509,2.509,0,0,1,.984-.94" fill="#161615"/>
          <path id="Path_15555" data-name="Path 15555" d="M242.762,26.045a2.735,2.735,0,0,0-.883,1.551H246.3c.007-.067.01-.162.01-.287a1.758,1.758,0,0,0-.527-1.359,1.994,1.994,0,0,0-1.409-.488,2.386,2.386,0,0,0-1.612.583m-.95,1.979c-.015.162-.023.282-.023.364a1.86,1.86,0,0,0,.541,1.436,2.25,2.25,0,0,0,1.584.5,2.924,2.924,0,0,0,1.114-.2,2.314,2.314,0,0,0,.855-.564l.253.385a2.55,2.55,0,0,1-.984.647,3.547,3.547,0,0,1-1.282.231,2.751,2.751,0,0,1-1.922-.637,2.28,2.28,0,0,1-.7-1.771,3.721,3.721,0,0,1,.407-1.749,3.127,3.127,0,0,1,1.12-1.227,2.984,2.984,0,0,1,1.607-.443,2.459,2.459,0,0,1,1.784.635,2.341,2.341,0,0,1,.659,1.761,3.763,3.763,0,0,1-.067.638Z" fill="#161615"/>
          <path id="Path_15556" data-name="Path 15556" d="M252.015,29.948a2.621,2.621,0,0,0,.963-1.039,3.176,3.176,0,0,0,.351-1.5,1.858,1.858,0,0,0-.533-1.417,2.088,2.088,0,0,0-1.5-.508,2.575,2.575,0,0,0-1.381.38,2.686,2.686,0,0,0-.961,1.045A3.127,3.127,0,0,0,248.6,28.4a1.862,1.862,0,0,0,.535,1.419,2.1,2.1,0,0,0,1.5.5,2.583,2.583,0,0,0,1.379-.373m2.865-7.336-1.628,8.164h-.528l.221-1.123a2.928,2.928,0,0,1-1.04.856,3.041,3.041,0,0,1-1.382.31,2.49,2.49,0,0,1-1.8-.647,2.286,2.286,0,0,1-.677-1.741,3.7,3.7,0,0,1,.418-1.766,3.112,3.112,0,0,1,1.161-1.232,3.172,3.172,0,0,1,1.666-.445,2.637,2.637,0,0,1,1.474.384,1.905,1.905,0,0,1,.792,1.1l.769-3.861Z" fill="#161615"/>
          <path id="Path_15557" data-name="Path 15557" d="M263.325,29.942a2.6,2.6,0,0,0,.955-1.038,3.17,3.17,0,0,0,.346-1.5,1.853,1.853,0,0,0-.533-1.418,2.094,2.094,0,0,0-1.5-.508,2.586,2.586,0,0,0-1.379.375,2.629,2.629,0,0,0-.963,1.04,3.178,3.178,0,0,0-.351,1.5,1.851,1.851,0,0,0,.537,1.42,2.111,2.111,0,0,0,1.509.508,2.564,2.564,0,0,0,1.381-.382m1.181-4.311a2.286,2.286,0,0,1,.682,1.743,3.665,3.665,0,0,1-.423,1.766,3.139,3.139,0,0,1-1.166,1.232,3.171,3.171,0,0,1-1.666.446,2.6,2.6,0,0,1-1.485-.392,1.935,1.935,0,0,1-.794-1.114l-.287,1.463h-.539l1.63-8.163h.549l-.691,3.5a2.81,2.81,0,0,1,1.027-.83,3.1,3.1,0,0,1,1.358-.292,2.525,2.525,0,0,1,1.805.643" fill="#161615"/>
          <path id="Path_15558" data-name="Path 15558" d="M272.074,25.032l-4.29,6.59a3.479,3.479,0,0,1-.921,1.037,1.787,1.787,0,0,1-1.027.293,2.145,2.145,0,0,1-.749-.131,1.3,1.3,0,0,1-.548-.374l.317-.408a1.321,1.321,0,0,0,1.036.429,1.261,1.261,0,0,0,.72-.218,2.8,2.8,0,0,0,.687-.772l.485-.725-1.454-5.721h.562l1.288,5.136,3.322-5.136Z" fill="#161615"/>
          <path id="Path_15559" data-name="Path 15559" d="M373.181,22.61,310.745,56.826h25a86.226,86.226,0,0,0,7.019,85.237C335.323,97.43,353.556,54.215,373.181,22.61" fill="#d30d1c"/>
          <path id="Path_15560" data-name="Path 15560" d="M205.2,36.745h27.453v8.122H215.044v10.42h15.667v7.474H215.044V81.519H205.2Z" fill="#151614"/>
          <path id="Path_15561" data-name="Path 15561" d="M256.341,64.7,252.6,53.2c-.863-2.658-1.725-5.246-2.228-7.329h-.144c-.575,2.012-1.437,4.744-2.3,7.329l-3.879,11.5ZM245.13,36.745h10.994l16.388,44.774H261.8l-2.875-8.913H241.464l-3.018,8.913H228.312Z" fill="#151614"/>
          <path id="Path_15562" data-name="Path 15562" d="M291.692,73.829c4.385,0,6.756-2.012,6.756-5.965,0-4.024-2.227-6.109-6.683-6.109h-6.18V73.829ZM291.477,55c4.457,0,6.324-2.011,6.324-5.462,0-3.09-1.939-5.1-6.252-5.1h-5.964V55ZM275.739,36.745h17.033c9.7,0,14.947,4.6,14.947,11.427,0,5.534-3.377,8.912-7.043,9.917v.145c4.816,1.077,8.409,4.454,8.409,10.278,0,8.192-6.181,13.007-15.882,13.007H275.739Z" fill="#151614"/>
          <path id="Path_15563" data-name="Path 15563" d="M207.893,89.048h4.883l5.054,14.188c2.988,8.445,6.837,19.7,6.837,19.7s3.964-10.915,7.238-19.7l5.284-14.188h4.884l3.274,38.718h-3.562l-1.322-15.338c-.8-9.192-1.55-18.727-1.55-18.727s-3.447,9.593-6.836,18.727l-5.342,14.36h-4.194l-5.055-14.36L211.053,94.1s-.518,8.675-1.207,18.325l-1.092,15.338h-3.561Z" fill="#151614"/>
          <rect id="Rectangle_17878" data-name="Rectangle 17878" width="3.562" height="38.718" transform="translate(250.171 89.048)" fill="#151614"/>
          <path id="Path_15564" data-name="Path 15564" d="M278.607,94.39a15.95,15.95,0,0,0-7.985-2.184c-5.171,0-8.445,2.644-8.445,6.607,0,4.366,4.021,6.089,8.387,7.985,4.94,2.125,10.284,4.424,10.284,10.972,0,7.009-5.4,10.4-12.064,10.4a20.388,20.388,0,0,1-10.169-2.527v-3.964a17.5,17.5,0,0,0,10,3.045c5.342,0,8.617-2.356,8.617-6.894,0-3.734-3.1-5.514-6.721-7.123-5.4-2.412-12.006-4.423-12.006-11.661,0-6.837,5.744-10.341,12.063-10.341a17.923,17.923,0,0,1,8.043,1.724Z" fill="#151614"/>
          <path id="Path_15565" data-name="Path 15565" d="M294.691,108.866c5.916,0,8.846-3.79,8.846-8.214,0-5.514-2.987-8.444-9.535-8.444h-5.573v16.658Zm10.4,18.9-9.708-15.74h-6.951v15.74h-3.561V89.048H293.6c9.248,0,13.5,4.482,13.5,11.777-.173,5.055-2.816,9.133-8.042,10.569l10.282,16.372Z" fill="#151614"/>
          <path id="Path_15566" data-name="Path 15566" d="M207.275,29.309a1.974,1.974,0,0,0,.8,1.1,2.643,2.643,0,0,0,1.47.379,3.142,3.142,0,0,0,2.834-1.68,3.666,3.666,0,0,0,.423-1.767,2.289,2.289,0,0,0-.682-1.744,2.527,2.527,0,0,0-1.806-.643,3.069,3.069,0,0,0-1.374.3,2.877,2.877,0,0,0-1.036.854l.22-1.113h-.538l-1.575,7.882h.551Zm.584-2.449a2.649,2.649,0,0,1,.964-1.041,2.59,2.59,0,0,1,1.38-.375,2.1,2.1,0,0,1,1.5.508,1.857,1.857,0,0,1,.533,1.419,3.179,3.179,0,0,1-.346,1.5,2.607,2.607,0,0,1-.957,1.038,2.559,2.559,0,0,1-1.381.382,2.111,2.111,0,0,1-1.509-.508,1.85,1.85,0,0,1-.538-1.42,3.181,3.181,0,0,1,.351-1.5" fill="#161615"/>
          <path id="Path_15567" data-name="Path 15567" d="M216.543,30.783a3.244,3.244,0,0,0,1.7-.446A3.118,3.118,0,0,0,219.41,29.1a3.675,3.675,0,0,0,.426-1.766,2.282,2.282,0,0,0-.69-1.747,2.6,2.6,0,0,0-1.854-.643,3.174,3.174,0,0,0-2.867,1.684A3.644,3.644,0,0,0,214,28.4a2.281,2.281,0,0,0,.688,1.74,2.591,2.591,0,0,0,1.854.648M214.9,26.869a2.648,2.648,0,0,1,.962-1.043,2.557,2.557,0,0,1,1.382-.381,2.089,2.089,0,0,1,1.5.506,1.867,1.867,0,0,1,.536,1.421,3.148,3.148,0,0,1-.354,1.5,2.581,2.581,0,0,1-2.344,1.414,2.1,2.1,0,0,1-1.5-.509,1.857,1.857,0,0,1-.533-1.416,3.132,3.132,0,0,1,.353-1.494" fill="#161615"/>
          <path id="Path_15568" data-name="Path 15568" d="M222.7,30.738l2.862-4.995,1.047,4.995h.528l3.246-5.745h-.541l-2.882,5.12-1.034-5.12h-.475l-2.915,5.13-1-5.13h-.505l1.144,5.745Z" fill="#161615"/>
          <path id="Path_15569" data-name="Path 15569" d="M233.034,30.782a3.54,3.54,0,0,0,1.282-.231,2.567,2.567,0,0,0,.985-.648l-.254-.385a2.318,2.318,0,0,1-.854.564,2.927,2.927,0,0,1-1.116.2,2.251,2.251,0,0,1-1.584-.5,1.863,1.863,0,0,1-.541-1.437c0-.082.007-.2.023-.364h4.952a3.764,3.764,0,0,0,.067-.639,2.341,2.341,0,0,0-.659-1.761,2.463,2.463,0,0,0-1.785-.637,2.987,2.987,0,0,0-1.609.444,3.137,3.137,0,0,0-1.12,1.228,3.711,3.711,0,0,0-.408,1.75,2.278,2.278,0,0,0,.7,1.772,2.747,2.747,0,0,0,1.923.638m-1.108-4.775a2.386,2.386,0,0,1,1.613-.584,1.992,1.992,0,0,1,1.408.489,1.756,1.756,0,0,1,.529,1.359,2.639,2.639,0,0,1-.011.288h-4.423a2.727,2.727,0,0,1,.884-1.552" fill="#161615"/>
          <path id="Path_15570" data-name="Path 15570" d="M238.447,27.789a3.139,3.139,0,0,1,.859-1.729,2.274,2.274,0,0,1,1.606-.584l.177.013.1-.539a3.14,3.14,0,0,0-1.46.313,2.5,2.5,0,0,0-.984.941l.241-1.21h-.539L237.3,30.738h.552Z" fill="#161615"/>
          <path id="Path_15571" data-name="Path 15571" d="M244.239,30.782a3.54,3.54,0,0,0,1.282-.231,2.575,2.575,0,0,0,.985-.648l-.254-.385a2.318,2.318,0,0,1-.854.564,2.926,2.926,0,0,1-1.115.2,2.252,2.252,0,0,1-1.585-.5,1.863,1.863,0,0,1-.541-1.437c0-.082.007-.2.023-.364h4.952a3.764,3.764,0,0,0,.067-.639,2.338,2.338,0,0,0-.66-1.761,2.459,2.459,0,0,0-1.784-.637,2.987,2.987,0,0,0-1.609.444,3.137,3.137,0,0,0-1.12,1.228,3.723,3.723,0,0,0-.408,1.75,2.278,2.278,0,0,0,.7,1.772,2.747,2.747,0,0,0,1.923.638m-1.108-4.775a2.386,2.386,0,0,1,1.613-.584,1.992,1.992,0,0,1,1.408.489,1.756,1.756,0,0,1,.529,1.359c0,.126,0,.221-.01.288h-4.425a2.734,2.734,0,0,1,.885-1.552" fill="#161615"/>
          <path id="Path_15572" data-name="Path 15572" d="M250.9,30.784a3.035,3.035,0,0,0,1.382-.31,2.919,2.919,0,0,0,1.042-.857l-.221,1.124h.528l1.629-8.169H254.7l-.769,3.863a1.905,1.905,0,0,0-.792-1.1,2.632,2.632,0,0,0-1.475-.385A3.173,3.173,0,0,0,250,25.4a3.114,3.114,0,0,0-1.162,1.232,3.709,3.709,0,0,0-.418,1.767,2.29,2.29,0,0,0,.677,1.743,2.5,2.5,0,0,0,1.8.647m-1.572-3.914a2.685,2.685,0,0,1,.962-1.046,2.579,2.579,0,0,1,1.382-.38,2.089,2.089,0,0,1,1.5.509,1.855,1.855,0,0,1,.533,1.417,3.18,3.18,0,0,1-.351,1.5,2.612,2.612,0,0,1-.965,1.039,2.573,2.573,0,0,1-1.379.375,2.089,2.089,0,0,1-1.5-.506,1.86,1.86,0,0,1-.536-1.421,3.126,3.126,0,0,1,.354-1.49" fill="#161615"/>
          <path id="Path_15573" data-name="Path 15573" d="M260.032,29.276a1.94,1.94,0,0,0,.795,1.116,2.6,2.6,0,0,0,1.485.392,3.142,3.142,0,0,0,2.834-1.68,3.666,3.666,0,0,0,.423-1.767,2.289,2.289,0,0,0-.682-1.744,2.527,2.527,0,0,0-1.806-.643,3.1,3.1,0,0,0-1.359.292,2.814,2.814,0,0,0-1.028.831l.692-3.5h-.549l-1.631,8.168h.539Zm.6-2.416a2.649,2.649,0,0,1,.964-1.041,2.59,2.59,0,0,1,1.38-.375,2.1,2.1,0,0,1,1.5.508,1.857,1.857,0,0,1,.533,1.419,3.179,3.179,0,0,1-.346,1.5,2.612,2.612,0,0,1-.956,1.038,2.565,2.565,0,0,1-1.382.382,2.111,2.111,0,0,1-1.509-.508,1.85,1.85,0,0,1-.538-1.42,3.181,3.181,0,0,1,.351-1.5" fill="#161615"/>
          <path id="Path_15574" data-name="Path 15574" d="M266.994,32.216a1.261,1.261,0,0,1-.72.218,1.322,1.322,0,0,1-1.037-.429l-.318.408a1.3,1.3,0,0,0,.549.375,2.147,2.147,0,0,0,.75.13,1.784,1.784,0,0,0,1.027-.292,3.5,3.5,0,0,0,.921-1.038l4.293-6.594h-.572l-3.323,5.139-1.29-5.139h-.562l1.454,5.724-.485.726a2.8,2.8,0,0,1-.687.772" fill="#161615"/>
          <path id="Path_15575" data-name="Path 15575" d="M215.4,62.746h15.676V55.267H215.4V44.84h17.617V36.714H205.544v44.8H215.4Z" fill="#151614"/>
          <path id="Path_15576" data-name="Path 15576" d="M215.646,81.765H205.293v-45.3h27.97v8.627H215.646v9.926h15.675V63H215.646Zm-9.853-.5h9.353V62.5h15.675V55.517H215.146V44.591h17.617V36.964h-26.97Z" fill="#151614"/>
          <path id="Path_15577" data-name="Path 15577" d="M228.672,81.515h10.14l3.02-8.918h17.474l2.877,8.918H272.9l-16.4-44.8h-11ZM250.6,45.847h.144c.5,2.085,1.366,4.673,2.229,7.334l3.739,11.507h-12.3L248.3,53.181c.864-2.588,1.727-5.321,2.3-7.334" fill="#151614"/>
          <path id="Path_15578" data-name="Path 15578" d="M273.254,81.765H262l-.056-.174-2.821-8.744H242.011l-3.019,8.918H228.31l17.017-45.3h11.348l.06.164Zm-10.889-.5H272.54l-16.214-44.3H245.672l-16.639,44.3h9.6l3.02-8.918h17.836l.056.174Zm-5.3-16.327H244.073L248.066,53.1c.912-2.734,1.75-5.4,2.3-7.323l.051-.181h.53l.046.192c.447,1.854,1.177,4.1,1.95,6.473Zm-12.29-.5h11.6l-3.906-12.021c-.691-2.122-1.347-4.139-1.8-5.878-.545,1.859-1.3,4.264-2.124,6.721Z" fill="#151614"/>
          <path id="Path_15579" data-name="Path 15579" d="M309.493,68.5c0-5.827-3.6-9.206-8.414-10.283v-.146c3.668-1.006,7.046-4.386,7.046-9.923,0-6.832-5.248-11.434-14.955-11.434H276.127v44.8H293.6c9.707,0,15.892-4.818,15.892-13.015M285.979,44.408h5.968c4.315,0,6.255,2.014,6.255,5.106,0,3.453-1.869,5.465-6.328,5.465h-5.895Zm0,29.412V61.739h6.184c4.458,0,6.687,2.086,6.687,6.113,0,3.955-2.373,5.968-6.761,5.968Z" fill="#151614"/>
          <path id="Path_15580" data-name="Path 15580" d="M293.6,81.765H275.876v-45.3h17.293c9.522,0,15.206,4.368,15.206,11.684a10.088,10.088,0,0,1-6.627,9.975,10.128,10.128,0,0,1,8,10.377c0,8.182-6.186,13.265-16.143,13.265m-17.224-.5H293.6c9.649,0,15.643-4.891,15.643-12.765,0-5.213-3-8.872-8.219-10.04l-.195-.043V57.88l.183-.05c3.166-.869,6.863-3.925,6.863-9.682,0-7-5.5-11.184-14.706-11.184H276.376Zm15.713-7.195h-6.36V61.488h6.434c4.538,0,6.936,2.2,6.936,6.364,0,4.068-2.424,6.218-7.01,6.218m-5.86-.5h5.86c4.32,0,6.51-1.924,6.51-5.718,0-3.891-2.166-5.864-6.436-5.864h-5.934Zm5.646-18.341h-6.146V44.158h6.218c4.194,0,6.505,1.9,6.505,5.356,0,3.792-2.213,5.715-6.577,5.715m-5.646-.5h5.646c4.088,0,6.077-1.706,6.077-5.215,0-3.177-2.077-4.856-6.005-4.856h-5.718Z" fill="#151614"/>
          <path id="Path_15581" data-name="Path 15581" d="M237.554,89.048,233.2,100.729c.96.649,1.915,1.258,2.866,1.835,1.85-5.077,3.21-8.86,3.21-8.86s.388,4.959.906,11.167c1.259.644,2.506,1.226,3.741,1.756l-1.487-17.579Z" fill="#151614"/>
          <path id="Path_15582" data-name="Path 15582" d="M244.21,107.021l-.383-.165c-1.273-.547-2.537-1.14-3.756-1.763l-.124-.063-.011-.138c-.368-4.412-.671-8.193-.816-10.012-.532,1.476-1.561,4.325-2.816,7.769l-.1.286-.26-.158c-.987-.6-1.954-1.217-2.875-1.841l-.163-.11L237.38,88.8h5.289Zm-3.788-2.31c1.049.533,2.129,1.042,3.22,1.52L242.21,89.3h-4.482l-4.222,11.334c.784.527,1.6,1.05,2.432,1.559,1.8-4.931,3.1-8.572,3.1-8.572l.394-1.1.09,1.16s.383,4.885.9,11.027" fill="#151614"/>
          <path id="Path_15583" data-name="Path 15583" d="M250.544,89.048v19.963q1.811.531,3.564.922V89.048Z" fill="#151614"/>
          <path id="Path_15584" data-name="Path 15584" d="M254.357,110.245l-.3-.067c-1.166-.261-2.37-.572-3.579-.927l-.18-.052V88.8h4.063Zm-3.563-1.421c1.033.3,2.062.566,3.063.8V89.3h-3.063Z" fill="#151614"/>
          <path id="Path_15585" data-name="Path 15585" d="M262.557,98.819c0-3.966,3.276-6.61,8.449-6.61A15.953,15.953,0,0,1,279,94.393V90.428a17.908,17.908,0,0,0-8.047-1.725c-6.323,0-12.071,3.506-12.071,10.346,0,7.242,6.611,9.254,12.013,11.668l.538.243a49.867,49.867,0,0,0,5.736-.934,32.312,32.312,0,0,0-6.216-3.217c-4.368-1.9-8.392-3.621-8.392-7.99" fill="#151614"/>
          <path id="Path_15586" data-name="Path 15586" d="M271.388,111.217l-.063-.029c-.177-.081-.354-.162-.534-.242-.553-.247-1.117-.489-1.687-.734-4.91-2.108-10.475-4.5-10.475-11.162,0-5.275,3.809-10.6,12.321-10.6a17.894,17.894,0,0,1,8.164,1.755l.132.071v4.586l-.391-.264a15.657,15.657,0,0,0-7.848-2.142c-4.981,0-8.2,2.5-8.2,6.36,0,4.182,3.788,5.827,8.173,7.731l.07.029a32.468,32.468,0,0,1,6.261,3.245l.448.325-.539.121a50.006,50.006,0,0,1-5.764.939Zm-.438-22.264c-8.166,0-11.821,5.071-11.821,10.1,0,6.336,5.172,8.556,10.173,10.7.571.245,1.138.489,1.692.737.16.07.319.143.477.215a50.23,50.23,0,0,0,5.082-.8,35.475,35.475,0,0,0-5.7-2.866l-.07-.03c-4.357-1.891-8.474-3.679-8.474-8.189,0-4.167,3.415-6.86,8.7-6.86a16.7,16.7,0,0,1,7.739,1.981V90.579a17.843,17.843,0,0,0-7.8-1.626" fill="#151614"/>
          <path id="Path_15587" data-name="Path 15587" d="M285.261,89.048v17.94c.931-.648,2.145-1.574,3.564-2.719V92.21H294.4a11.626,11.626,0,0,1,6.356,1.5q1.206-1.149,2.411-2.335c-2.187-1.5-5.218-2.328-9.17-2.328Z" fill="#151614"/>
          <path id="Path_15588" data-name="Path 15588" d="M285.011,107.467V88.8H294c3.891,0,7.024.8,9.311,2.373l.25.171-.216.213c-.8.789-1.609,1.571-2.414,2.338l-.143.135-.166-.106A11.439,11.439,0,0,0,294.4,92.46h-5.326v11.928l-.092.075c-1.4,1.13-2.637,2.074-3.578,2.73Zm.5-18.169V106.5c.851-.611,1.9-1.416,3.063-2.356V91.96H294.4a12.159,12.159,0,0,1,6.323,1.437q1.025-.978,2.049-1.983A16.1,16.1,0,0,0,294,89.3Z" fill="#151614"/>
          <path id="Path_15589" data-name="Path 15589" d="M373.627,22.57,311.154,56.807h25.019A86.311,86.311,0,0,0,343.2,142.1c-3.617-21.681-1.168-43.023,4.546-62.868,6.056-21.034,15.781-40.386,25.885-56.658" fill="#d30d1c"/>
          <path id="Path_15590" data-name="Path 15590" d="M240.831,112.442l1.322,15.347h3.563l-1.789-21.162c-1.235-.53-2.482-1.112-3.742-1.756.2,2.409.421,5,.646,7.571" fill="#151614"/>
          <path id="Path_15591" data-name="Path 15591" d="M245.988,128.039h-4.065l-1.342-15.575c-.224-2.571-.444-5.163-.645-7.572l-.037-.448.4.2c1.21.618,2.463,1.206,3.727,1.749l.137.059Zm-3.606-.5h3.062L243.69,106.8c-1.088-.47-2.168-.974-3.219-1.5.191,2.281.4,4.712.608,7.124h0Z" fill="#151614"/>
          <path id="Path_15592" data-name="Path 15592" d="M232.266,103.245c-3.277,8.794-7.242,19.715-7.242,19.715s-3.851-11.265-6.841-19.715l-5.057-14.2H208.24l-2.7,38.741H209.1l1.092-15.347c.69-9.656,1.207-18.336,1.207-18.336l6.438,18.336,5.058,14.369h4.2l5.345-14.369c1.263-3.4,2.533-6.867,3.631-9.878-.951-.577-1.906-1.186-2.866-1.835Z" fill="#151614"/>
          <path id="Path_15593" data-name="Path 15593" d="M209.334,128.039h-4.063L208.006,88.8h5.3l.059.166,5.056,14.2c2.541,7.179,5.739,16.5,6.613,19.049.911-2.5,4.222-11.6,7-19.052l1.048-2.814.263.178c.915.619,1.875,1.234,2.856,1.828l.175.106-.07.193c-1.1,3.012-2.369,6.477-3.631,9.88l-5.406,14.532H222.72l-11.143-31.7c-.168,2.74-.6,9.666-1.134,17.1Zm-3.528-.5h3.063l1.076-15.114c.681-9.545,1.2-18.247,1.207-18.334l.074-1.24,11.848,33.71h3.845l5.285-14.206c1.235-3.329,2.478-6.718,3.56-9.684-.833-.508-1.65-1.031-2.437-1.557l-.827,2.218c-3.238,8.693-7.2,19.6-7.241,19.714l-.242.667-.23-.671c-.039-.113-3.884-11.361-6.839-19.713l-5-14.031h-4.477Z" fill="#151614"/>
          <path id="Path_15594" data-name="Path 15594" d="M250.544,127.789h3.564V109.933q-1.752-.39-3.564-.922Z" fill="#151614"/>
          <path id="Path_15595" data-name="Path 15595" d="M254.357,128.039h-4.063V108.678l.32.094c1.2.351,2.393.66,3.548.917l.195.044Zm-3.563-.5h3.063V110.133c-1-.227-2.029-.492-3.063-.789Z" fill="#151614"/>
          <path id="Path_15596" data-name="Path 15596" d="M277.617,117.845c0,4.541-3.277,6.9-8.622,6.9a17.505,17.505,0,0,1-10-3.046v3.966a20.385,20.385,0,0,0,10.174,2.529c6.667,0,12.07-3.391,12.07-10.4a9.032,9.032,0,0,0-4.073-7.762,49.817,49.817,0,0,1-5.736.935c3.385,1.55,6.188,3.335,6.188,6.884" fill="#151614"/>
          <path id="Path_15597" data-name="Path 15597" d="M269.168,128.441a20.5,20.5,0,0,1-10.3-2.565l-.121-.073v-4.615l.4.31a17.394,17.394,0,0,0,9.849,2.994c5.4,0,8.372-2.361,8.372-6.647,0-3.229-2.415-5-6.042-6.657l-.831-.381.909-.1a49.849,49.849,0,0,0,5.707-.93l.111-.025.09.067a9.21,9.21,0,0,1,4.177,7.964c0,6.571-4.721,10.653-12.32,10.653m-9.924-2.921a20.1,20.1,0,0,0,9.924,2.421c5.714,0,11.82-2.668,11.82-10.153a8.722,8.722,0,0,0-3.88-7.494c-1.537.343-3.138.616-4.773.815,2.806,1.359,5.532,3.187,5.532,6.736,0,4.542-3.233,7.147-8.872,7.147a18.033,18.033,0,0,1-9.751-2.8Z" fill="#151614"/>
          <path id="Path_15598" data-name="Path 15598" d="M303.941,100.659c0,4.426-2.932,8.219-8.852,8.219h-6.265v-4.609c-1.419,1.145-2.633,2.071-3.564,2.719v20.8h3.564V112.04h6.955l9.714,15.749h4.253l-10.289-16.382c5.231-1.437,7.875-5.518,8.048-10.575,0-4.184-1.4-7.436-4.339-9.456q-1.2,1.184-2.411,2.335c2.156,1.39,3.186,3.723,3.186,6.948" fill="#151614"/>
          <path id="Path_15599" data-name="Path 15599" d="M310.2,128.039h-4.844l-9.715-15.749h-6.565v15.749h-4.063V106.858l.107-.075c.932-.649,2.16-1.586,3.549-2.708l.407-.329v4.883h6.015c6.349,0,8.6-4.294,8.6-7.97,0-3.2-1.005-5.406-3.072-6.737l-.266-.172.229-.219c.8-.765,1.608-1.545,2.408-2.332l.148-.145.17.117c2.951,2.031,4.447,5.281,4.447,9.661-.184,5.374-3.06,9.261-7.909,10.724Zm-4.565-.5h3.661l-10.227-16.283.324-.09c4.818-1.323,7.684-5.093,7.864-10.342,0-4.113-1.366-7.183-4.062-9.123q-1.018,1-2.041,1.978c2.016,1.431,3.039,3.777,3.039,6.98,0,3.907-2.384,8.47-9.1,8.47h-6.515V104.79c-1.18.945-2.23,1.743-3.063,2.329v20.42h3.063V111.79h7.344Z" fill="#151614"/>
          <path id="Path_15600" data-name="Path 15600" d="M171.961,39.617a2.405,2.405,0,1,0,1.2.322,2.407,2.407,0,0,0-1.2-.322m-.009,5.341A2.936,2.936,0,1,1,174.5,43.49a2.925,2.925,0,0,1-2.547,1.468" fill="#161615"/>
          <path id="Path_15601" data-name="Path 15601" d="M171.315,42.174V41.116h.569a.8.8,0,0,1,.511.139.466.466,0,0,1,.162.387.472.472,0,0,1-.162.39.79.79,0,0,1-.511.142Zm1.127.252a.813.813,0,0,0,.506-.784.808.808,0,0,0-.29-.656,1.178,1.178,0,0,0-.766-.231h-.963v2.533h.386v-.762h.577c.058,0,.114,0,.168-.008l.557.77h.453Z" fill="#161615"/>
          <path id="Path_15602" data-name="Path 15602" d="M29.131,46.068l8.2,4.187a1.292,1.292,0,0,0,1.185.032L49.563,46a.431.431,0,0,0,.061-.03l34.851,18.54.119.064-2.767,1.136a.922.922,0,0,1-.27.067,1.035,1.035,0,0,1-.284-.015,1.991,1.991,0,0,1-.37-.109,4.244,4.244,0,0,1-.457-.217L57.613,52.886a1.308,1.308,0,0,0-1.157-.046l-6.418,2.914a1.186,1.186,0,0,0-.089,2.132l25.6,14.4A22.68,22.68,0,0,0,79.3,73.925a20.731,20.731,0,0,0,3.786.883c.4.055.8.094,1.195.12a15.379,15.379,0,0,0,2.377-.023,10.667,10.667,0,0,0,3.117-.736l10.367-4.326a3.9,3.9,0,0,0,2.111-1.709,2.493,2.493,0,0,0-.093-2.292A6.908,6.908,0,0,0,100.3,63.7a18.7,18.7,0,0,0-3.138-2L49.788,36.947a2.514,2.514,0,0,0-2.239-.056L29.2,43.922a.593.593,0,0,0-.068.031A1.2,1.2,0,0,0,28.478,45a1.216,1.216,0,0,0,.653,1.07" fill="#161615"/>
          <path id="Path_15603" data-name="Path 15603" d="M56.988,52.837a1.178,1.178,0,0,0-.487.1l-6.417,2.913A1.075,1.075,0,0,0,50,57.789l25.6,14.4a22.637,22.637,0,0,0,3.736,1.633A20.674,20.674,0,0,0,83.1,74.7c.392.052.792.092,1.188.118a15.017,15.017,0,0,0,2.359-.023,10.538,10.538,0,0,0,3.084-.727L100.1,69.739a3.792,3.792,0,0,0,2.055-1.655,2.384,2.384,0,0,0-.094-2.192,6.8,6.8,0,0,0-1.832-2.1,18.554,18.554,0,0,0-3.118-1.992L49.736,37.045A2.4,2.4,0,0,0,47.6,36.99L29.236,44.026a.393.393,0,0,0-.056.024,1.085,1.085,0,0,0-.591.949,1.1,1.1,0,0,0,.594.971l8.2,4.185a1.184,1.184,0,0,0,1.086.032l11.058-4.3a.4.4,0,0,0,.048-.022l.052-.03.053.029L84.852,64.583l-2.983,1.225a1.027,1.027,0,0,1-.3.075,1.172,1.172,0,0,1-.312-.016,2.233,2.233,0,0,1-.391-.115,4.35,4.35,0,0,1-.47-.223L57.559,52.982a1.2,1.2,0,0,0-.571-.145m28.36,22.236c-.351,0-.709-.012-1.071-.035-.4-.026-.806-.067-1.2-.12a20.906,20.906,0,0,1-3.806-.888,22.771,22.771,0,0,1-3.774-1.65l-25.6-14.4a1.3,1.3,0,0,1,.1-2.33l6.417-2.913a1.415,1.415,0,0,1,1.257.049L80.5,65.334a4.072,4.072,0,0,0,.445.211,1.989,1.989,0,0,0,.349.1.972.972,0,0,0,.252.013.791.791,0,0,0,.24-.06l2.549-1.046L49.622,46.09,49.6,46.1,38.553,50.39a1.4,1.4,0,0,1-1.278-.039l-8.2-4.186A1.321,1.321,0,0,1,28.367,45a1.306,1.306,0,0,1,.71-1.143.618.618,0,0,1,.078-.036L47.51,36.786a2.625,2.625,0,0,1,2.329.062L97.215,61.6a18.893,18.893,0,0,1,3.157,2.017,7.028,7.028,0,0,1,1.89,2.177,2.6,2.6,0,0,1,.094,2.391,4,4,0,0,1-2.169,1.761L89.82,74.271a10.75,10.75,0,0,1-3.149.743c-.428.039-.87.059-1.323.059" fill="#191717"/>
          <path id="Path_15604" data-name="Path 15604" d="M52.722,35.719l56.452,29.155a1.285,1.285,0,0,0,.509.141,1.3,1.3,0,0,0,.582-.1l14.8-6.177a1.184,1.184,0,0,0,.174-2.117l-8.932-5.578a1.293,1.293,0,0,0-1.174-.1l-8.184,3.357L95.29,48.413,99.7,46.641a1.187,1.187,0,0,0,.083-2.184l-8.645-4.3a1.3,1.3,0,0,0-1.053-.045L83.806,42.6,71.875,36.574l6.195-2.406a1.2,1.2,0,0,0,.779-1.117,1.211,1.211,0,0,0-.788-1.119l-9.946-3.877a1.289,1.289,0,0,0-.933,0h0L52.842,33.536a1.187,1.187,0,0,0-.12,2.183" fill="#161615"/>
          <path id="Path_15605" data-name="Path 15605" d="M67.2,28.162,52.882,33.64a1.076,1.076,0,0,0-.109,1.98l56.452,29.155a1.191,1.191,0,0,0,.466.13,1.171,1.171,0,0,0,.532-.09l14.8-6.175a1.073,1.073,0,0,0,.159-1.921l-8.932-5.578a1.178,1.178,0,0,0-1.073-.09l-8.231,3.377L95.021,48.4l4.634-1.864a1.075,1.075,0,0,0,.074-1.981l-8.644-4.3a1.193,1.193,0,0,0-.963-.041L83.8,42.722l-.045-.022L71.6,36.56l6.427-2.5a1.083,1.083,0,0,0,.708-1.013,1.1,1.1,0,0,0-.717-1.016l-9.946-3.877a1.179,1.179,0,0,0-.853,0Zm42.565,36.967-.091,0a1.391,1.391,0,0,1-.552-.154L52.671,35.817a1.3,1.3,0,0,1,.132-2.385L67.162,27.94a1.4,1.4,0,0,1,.993.011L78.1,31.828a1.322,1.322,0,0,1,.858,1.222,1.3,1.3,0,0,1-.85,1.221l-5.962,2.316,11.664,5.892L90.04,40.01a1.412,1.412,0,0,1,1.144.048l8.644,4.3a1.3,1.3,0,0,1-.09,2.386l-4.179,1.681,11.4,5.76,8.137-3.339a1.4,1.4,0,0,1,1.276.108L125.3,56.53a1.3,1.3,0,0,1-.19,2.315l-14.8,6.176a1.408,1.408,0,0,1-.541.108" fill="#191717"/>
          <path id="Path_15606" data-name="Path 15606" d="M76.48,28.695a13.452,13.452,0,0,0,2.647,1.638l42.323,20.79a42.476,42.476,0,0,0,4.827,2.054,21.749,21.749,0,0,0,4.26,1.05c.359.047.713.083,1.063.106a14.033,14.033,0,0,0,2.84-.1,14.742,14.742,0,0,0,3.717-1.031l6.526-2.724a1.185,1.185,0,0,0,.156-2.129l-9.017-5.409a1.3,1.3,0,0,0-1.156-.087L128.72,45.3a.863.863,0,0,1-.25.061,1.166,1.166,0,0,1-.291-.013,2.3,2.3,0,0,1-.384-.1,5.135,5.135,0,0,1-.479-.205L92.709,28.383l4.064-1.58a1.19,1.19,0,0,0,.779-1.125,1.21,1.21,0,0,0-.8-1.116l-10.24-3.835a.651.651,0,0,0-.46,0l-8.916,3.41a3.706,3.706,0,0,0-1.675,1.127,1.813,1.813,0,0,0-.278,1.742,3.961,3.961,0,0,0,1.3,1.687" fill="#161615"/>
          <path id="Path_15607" data-name="Path 15607" d="M86.28,20.8a.53.53,0,0,0-.192.035l-8.917,3.412a3.594,3.594,0,0,0-1.625,1.088,1.709,1.709,0,0,0-.262,1.641,3.862,3.862,0,0,0,1.267,1.637,13.358,13.358,0,0,0,2.625,1.623L121.5,51.025a42.335,42.335,0,0,0,4.814,2.049,21.6,21.6,0,0,0,4.237,1.044c.359.047.714.083,1.056.1a13.978,13.978,0,0,0,2.818-.094,14.641,14.641,0,0,0,3.689-1.024l6.527-2.724a1.074,1.074,0,0,0,.142-1.932l-9.018-5.408a1.185,1.185,0,0,0-1.056-.08L128.763,45.4a.972.972,0,0,1-.282.07,1.308,1.308,0,0,1-.32-.014,2.308,2.308,0,0,1-.4-.108,4.871,4.871,0,0,1-.489-.209L92.431,28.373l4.3-1.671a1.082,1.082,0,0,0,.708-1.021,1.1,1.1,0,0,0-.732-1.014l-10.24-3.835a.535.535,0,0,0-.189-.034m46.282,33.679c-.32,0-.642-.011-.969-.032-.347-.023-.708-.059-1.071-.107a21.83,21.83,0,0,1-4.281-1.054,42.6,42.6,0,0,1-4.839-2.06L79.078,30.434a13.574,13.574,0,0,1-2.669-1.652,4.072,4.072,0,0,1-1.335-1.738,1.918,1.918,0,0,1,.3-1.844,3.805,3.805,0,0,1,1.723-1.163l8.917-3.411a.756.756,0,0,1,.538,0l10.24,3.835a1.321,1.321,0,0,1,.876,1.22,1.3,1.3,0,0,1-.85,1.23L92.988,28.4l34.376,16.544a4.226,4.226,0,0,0,.468.2,2.013,2.013,0,0,0,.365.1,1.089,1.089,0,0,0,.263.012.774.774,0,0,0,.218-.054l5.946-2.44a1.41,1.41,0,0,1,1.255.095l9.018,5.409a1.3,1.3,0,0,1-.171,2.327L138.2,53.31a14.808,14.808,0,0,1-3.745,1.039,14.087,14.087,0,0,1-1.893.128" fill="#191717"/>
          <path id="Path_15608" data-name="Path 15608" d="M92.711,19.469l7.983,5.287a1.294,1.294,0,0,0,1.194.135l4.686-1.82,45.506,24.2a1.3,1.3,0,0,0,.462.117,1.266,1.266,0,0,0,.582-.1l9.883-4.343a1.182,1.182,0,0,0,.748-1.085,1.2,1.2,0,0,0-.72-1.112L116.107,19.368l2.279-.886a1.183,1.183,0,0,0,.778-1.154,1.2,1.2,0,0,0-.838-1.1L107.7,12.372a3.6,3.6,0,0,0-2.393.063l-.009,0L92.956,17.36a1.184,1.184,0,0,0-.245,2.109" fill="#161615"/>
          <path id="Path_15609" data-name="Path 15609" d="M106.581,22.949l.045.023,45.506,24.2a1.2,1.2,0,0,0,.419.1,1.148,1.148,0,0,0,.531-.088l9.88-4.342a1.075,1.075,0,0,0,.683-.985,1.086,1.086,0,0,0-.657-1.009L115.821,19.36l2.525-.982a1.076,1.076,0,0,0,.708-1.046,1.1,1.1,0,0,0-.761-1l-10.626-3.857a3.49,3.49,0,0,0-2.317.062L93,17.463a1.074,1.074,0,0,0-.226,1.913l7.984,5.287a1.179,1.179,0,0,0,1.093.124ZM152.628,47.5c-.031,0-.062,0-.092,0a1.441,1.441,0,0,1-.5-.128L106.566,23.192l-4.637,1.8a1.4,1.4,0,0,1-1.3-.147l-7.983-5.286a1.3,1.3,0,0,1,.268-2.305l12.345-4.921a3.722,3.722,0,0,1,2.477-.069l10.626,3.857a1.319,1.319,0,0,1,.911,1.2,1.3,1.3,0,0,1-.849,1.261l-2.034.791,46.688,21.275a1.307,1.307,0,0,1,.786,1.214,1.292,1.292,0,0,1-.818,1.186l-9.879,4.342a1.41,1.41,0,0,1-.542.109" fill="#191717"/>
          <path id="Path_15610" data-name="Path 15610" d="M29.252,44.629l8.2,4.187a1.293,1.293,0,0,0,1.184.033l11.05-4.292c.023-.009.041-.018.063-.029L84.6,63.067l.119.065-2.767,1.135a.884.884,0,0,1-.27.067,1.064,1.064,0,0,1-.283-.014,2.032,2.032,0,0,1-.37-.11,4.166,4.166,0,0,1-.458-.217L57.734,51.447a1.3,1.3,0,0,0-1.157-.045l-6.418,2.913a1.186,1.186,0,0,0-.088,2.132l25.6,14.4a22.55,22.55,0,0,0,3.755,1.642,20.841,20.841,0,0,0,3.786.885q.606.08,1.195.118a15.377,15.377,0,0,0,2.377-.023A10.635,10.635,0,0,0,89.9,72.73L100.266,68.4a3.9,3.9,0,0,0,2.112-1.709,2.492,2.492,0,0,0-.093-2.29,6.908,6.908,0,0,0-1.862-2.142,18.7,18.7,0,0,0-3.138-2L49.909,35.508a2.515,2.515,0,0,0-2.238-.056L29.317,42.484a.585.585,0,0,0-.068.03A1.2,1.2,0,0,0,28.6,43.56a1.212,1.212,0,0,0,.652,1.069" fill="#161615"/>
          <path id="Path_15611" data-name="Path 15611" d="M57.11,51.565a1.018,1.018,0,0,0-.419.089l-6.417,2.914a.907.907,0,0,0-.067,1.637l25.6,14.4a22.333,22.333,0,0,0,3.706,1.62,20.515,20.515,0,0,0,3.736.873c.392.052.788.091,1.177.116a14.927,14.927,0,0,0,2.333-.022,10.386,10.386,0,0,0,3.035-.715l10.367-4.327a3.641,3.641,0,0,0,1.971-1.576,2.234,2.234,0,0,0-.093-2.043,6.66,6.66,0,0,0-1.79-2.05,18.342,18.342,0,0,0-3.09-1.974L49.78,35.754a2.236,2.236,0,0,0-1.987-.054L29.416,42.742a.906.906,0,0,0-.034,1.641l8.194,4.185a1.015,1.015,0,0,0,.937.03l11.2-4.372.162.056L85.319,63.137l-.5.251-2.767,1.135a1.174,1.174,0,0,1-.351.087,1.327,1.327,0,0,1-.355-.017,2.3,2.3,0,0,1-.423-.125,4.357,4.357,0,0,1-.489-.231L57.6,51.69a1.017,1.017,0,0,0-.49-.125M85.471,73.8c-.355,0-.717-.012-1.083-.036-.4-.026-.81-.067-1.214-.12a21.093,21.093,0,0,1-3.838-.9,22.942,22.942,0,0,1-3.8-1.662l-25.6-14.4a1.464,1.464,0,0,1,.109-2.627l6.418-2.914a1.585,1.585,0,0,1,1.4.055L80.7,63.75a3.941,3.941,0,0,0,.425.2,1.8,1.8,0,0,0,.319.095.782.782,0,0,0,.205.011.634.634,0,0,0,.193-.047l2.221-.912L49.734,44.835l-11,4.272a1.561,1.561,0,0,1-1.419-.049l-8.2-4.186a1.5,1.5,0,0,1-.8-1.315,1.475,1.475,0,0,1,.8-1.29.9.9,0,0,1,.1-.043l18.353-7.032a2.783,2.783,0,0,1,2.466.07l47.377,24.75a18.9,18.9,0,0,1,3.184,2.036,7.173,7.173,0,0,1,1.935,2.232,2.759,2.759,0,0,1,.093,2.538,4.157,4.157,0,0,1-2.253,1.841L90,72.986a10.9,10.9,0,0,1-3.2.756c-.431.039-.878.059-1.336.059" fill="#161615"/>
          <path id="Path_15612" data-name="Path 15612" d="M57.11,51.4a1.178,1.178,0,0,0-.487.1l-6.418,2.913a1.075,1.075,0,0,0-.08,1.935l25.6,14.4a22.484,22.484,0,0,0,3.736,1.634,20.722,20.722,0,0,0,3.766.88c.4.052.8.091,1.188.117a15.012,15.012,0,0,0,2.359-.023,10.538,10.538,0,0,0,3.084-.727L100.223,68.3a3.8,3.8,0,0,0,2.056-1.655,2.39,2.39,0,0,0-.093-2.192,6.83,6.83,0,0,0-1.833-2.105,18.625,18.625,0,0,0-3.119-1.992L49.857,35.607a2.4,2.4,0,0,0-2.137-.055L29.357,42.587a.376.376,0,0,0-.054.025,1.084,1.084,0,0,0-.592.949,1.1,1.1,0,0,0,.593.97l8.2,4.186a1.187,1.187,0,0,0,1.086.032l11.058-4.3a.438.438,0,0,0,.05-.023l.052-.029.053.028L84.976,63.144,81.991,64.37a1.011,1.011,0,0,1-.3.075,1.125,1.125,0,0,1-.311-.016,2.234,2.234,0,0,1-.391-.115,4.363,4.363,0,0,1-.47-.223L57.681,51.544a1.2,1.2,0,0,0-.571-.145M85.471,73.635c-.351,0-.71-.012-1.073-.035-.4-.026-.8-.066-1.2-.119a20.985,20.985,0,0,1-3.807-.889,22.857,22.857,0,0,1-3.774-1.65l-25.6-14.4a1.3,1.3,0,0,1,.1-2.33L56.531,51.3a1.415,1.415,0,0,1,1.257.049L80.621,63.9a3.98,3.98,0,0,0,.444.211,2,2,0,0,0,.35.1.966.966,0,0,0,.252.013.828.828,0,0,0,.239-.059l2.55-1.047L49.744,44.652l-.018.008L38.674,48.952a1.4,1.4,0,0,1-1.278-.039l-8.2-4.187a1.294,1.294,0,0,1,0-2.31.74.74,0,0,1,.08-.036l18.353-7.032a2.625,2.625,0,0,1,2.329.062L97.337,60.161a18.732,18.732,0,0,1,3.156,2.016,7.045,7.045,0,0,1,1.892,2.178,2.6,2.6,0,0,1,.092,2.39,4,4,0,0,1-2.168,1.761L89.942,72.833a10.757,10.757,0,0,1-3.15.743c-.426.039-.868.059-1.321.059" fill="#191717"/>
          <path id="Path_15613" data-name="Path 15613" d="M52.843,34.28l56.452,29.155a1.285,1.285,0,0,0,1.091.044l14.8-6.176a1.184,1.184,0,0,0,.175-2.117l-8.933-5.578a1.3,1.3,0,0,0-1.173-.1l-8.185,3.358L95.411,46.974,99.818,45.2a1.187,1.187,0,0,0,.082-2.184l-8.645-4.3a1.3,1.3,0,0,0-1.052-.045l-6.276,2.488L72,35.135l6.195-2.406a1.2,1.2,0,0,0,.779-1.117,1.21,1.21,0,0,0-.788-1.119l-9.946-3.878a1.3,1.3,0,0,0-.933,0h0L52.964,32.1a1.187,1.187,0,0,0-.121,2.183" fill="#161615"/>
          <path id="Path_15614" data-name="Path 15614" d="M52.97,34.033l56.452,29.154a1.007,1.007,0,0,0,.857.035l14.8-6.175a.908.908,0,0,0,.134-1.627l-8.932-5.577a1.014,1.014,0,0,0-.921-.077l-8.3,3.405L94.738,46.944l4.976-2a.909.909,0,0,0,.061-1.678l-8.644-4.3a1.017,1.017,0,0,0-.826-.035l-6.392,2.534L71.315,35.1,78.09,32.47a.92.92,0,0,0,.6-.857.935.935,0,0,0-.611-.862l-9.947-3.878a1.02,1.02,0,0,0-.712-.011l-.021.008L53.062,32.356a.91.91,0,0,0-.092,1.677m56.918,29.823c-.034,0-.068,0-.1,0a1.558,1.558,0,0,1-.619-.172L52.715,34.526a1.464,1.464,0,0,1,.149-2.689l14.341-5.486a1.57,1.57,0,0,1,1.131.005l9.947,3.877a1.49,1.49,0,0,1,.964,1.377,1.469,1.469,0,0,1-.956,1.377l-5.614,2.18,11.263,5.69,6.16-2.441a1.573,1.573,0,0,1,1.278.054l8.645,4.3a1.464,1.464,0,0,1-.1,2.689L96.083,47l11,5.56,8.067-3.31a1.569,1.569,0,0,1,1.426.12l8.932,5.577a1.463,1.463,0,0,1-.214,2.61l-14.8,6.176a1.555,1.555,0,0,1-.6.121" fill="#161615"/>
          <path id="Path_15615" data-name="Path 15615" d="M52.894,34.182l56.452,29.155a1.168,1.168,0,0,0,.465.129,1.216,1.216,0,0,0,.532-.088l14.8-6.176a1.074,1.074,0,0,0,.159-1.922L116.372,49.7a1.183,1.183,0,0,0-1.074-.09l-8.231,3.377L95.141,46.963,99.776,45.1a1.076,1.076,0,0,0,.074-1.981l-8.644-4.3a1.182,1.182,0,0,0-.962-.041l-6.323,2.507-.045-.023-12.153-6.14,6.428-2.5a1.085,1.085,0,0,0,.708-1.012,1.1,1.1,0,0,0-.718-1.017L68.195,26.72a1.191,1.191,0,0,0-.838-.01l-.015.007L53,32.2a1.075,1.075,0,0,0-.109,1.98m56.994,29.509c-.03,0-.061,0-.091,0a1.4,1.4,0,0,1-.553-.154L52.792,34.38a1.3,1.3,0,0,1,.132-2.386l14.34-5.486a1.4,1.4,0,0,1,1.012.005l9.946,3.877a1.324,1.324,0,0,1,.859,1.222,1.307,1.307,0,0,1-.85,1.222l-5.963,2.315,11.664,5.892,6.23-2.469a1.4,1.4,0,0,1,1.142.048l8.645,4.3a1.3,1.3,0,0,1-.09,2.387l-4.18,1.68,11.4,5.76,8.137-3.338a1.4,1.4,0,0,1,1.275.107l8.932,5.577a1.3,1.3,0,0,1-.19,2.314l-14.8,6.177a1.4,1.4,0,0,1-.54.108" fill="#191717"/>
          <path id="Path_15616" data-name="Path 15616" d="M76.6,27.256a13.47,13.47,0,0,0,2.647,1.637l42.323,20.791a42.864,42.864,0,0,0,4.827,2.055,21.779,21.779,0,0,0,4.26,1.049q.538.071,1.062.106a14.114,14.114,0,0,0,2.841-.1,14.784,14.784,0,0,0,3.717-1.031l6.526-2.724a1.185,1.185,0,0,0,.156-2.129l-9.017-5.409a1.293,1.293,0,0,0-1.155-.087l-5.947,2.439a.873.873,0,0,1-.25.062,1.216,1.216,0,0,1-.291-.013,2.218,2.218,0,0,1-.384-.1,4.633,4.633,0,0,1-.479-.2L92.83,26.943l4.064-1.578a1.194,1.194,0,0,0,.779-1.126,1.21,1.21,0,0,0-.8-1.117l-10.24-3.835a.651.651,0,0,0-.46,0L77.252,22.7a3.707,3.707,0,0,0-1.674,1.126,1.819,1.819,0,0,0-.279,1.743,3.978,3.978,0,0,0,1.3,1.687" fill="#161615"/>
          <path id="Path_15617" data-name="Path 15617" d="M76.779,27.043a13.114,13.114,0,0,0,2.591,1.6l42.324,20.791a42.4,42.4,0,0,0,4.795,2.041,21.461,21.461,0,0,0,4.206,1.036c.353.047.7.082,1.044.1a13.719,13.719,0,0,0,2.785-.094,14.513,14.513,0,0,0,3.647-1.012l6.527-2.724a.908.908,0,0,0,.12-1.635L135.8,41.743a1.018,1.018,0,0,0-.907-.069l-5.947,2.44a1.149,1.149,0,0,1-.329.081,1.474,1.474,0,0,1-.36-.014,2.56,2.56,0,0,1-.433-.117,4.917,4.917,0,0,1-.508-.215L92.134,26.916l4.66-1.81a.918.918,0,0,0,.6-.864.935.935,0,0,0-.624-.86l-10.24-3.835a.378.378,0,0,0-.263,0l-8.917,3.411A3.447,3.447,0,0,0,75.8,23.993a1.55,1.55,0,0,0-.237,1.487,3.707,3.707,0,0,0,1.216,1.563m55.9,26.16c-.323,0-.649-.011-.98-.032q-.534-.036-1.081-.109A21.9,21.9,0,0,1,126.308,52a42.9,42.9,0,0,1-4.859-2.068L79.126,29.142a13.727,13.727,0,0,1-2.7-1.673,4.235,4.235,0,0,1-1.387-1.812,2.082,2.082,0,0,1,.321-2,3.958,3.958,0,0,1,1.8-1.218L86.07,19.03a.926.926,0,0,1,.656,0l10.24,3.835a1.488,1.488,0,0,1,.985,1.374A1.468,1.468,0,0,1,97,25.623L93.527,26.97l34.03,16.378a4.151,4.151,0,0,0,.451.193,2.114,2.114,0,0,0,.338.092.923.923,0,0,0,.22.009.579.579,0,0,0,.171-.042l5.945-2.439a1.577,1.577,0,0,1,1.4.106l9.017,5.409a1.462,1.462,0,0,1-.192,2.623l-6.526,2.724a15.063,15.063,0,0,1-3.786,1.05,14.091,14.091,0,0,1-1.916.13" fill="#161615"/>
          <path id="Path_15618" data-name="Path 15618" d="M76.672,27.171A13.289,13.289,0,0,0,79.3,28.794L121.62,49.585a42.553,42.553,0,0,0,4.815,2.049,21.575,21.575,0,0,0,4.238,1.044c.356.047.711.083,1.055.1a13.9,13.9,0,0,0,2.818-.094,14.7,14.7,0,0,0,3.689-1.024l6.527-2.724a1.074,1.074,0,0,0,.142-1.932L135.886,41.6a1.185,1.185,0,0,0-1.056-.08l-5.946,2.439a.971.971,0,0,1-.283.07,1.336,1.336,0,0,1-.318-.013,2.456,2.456,0,0,1-.4-.109,4.678,4.678,0,0,1-.49-.209L92.552,26.933l4.3-1.671a1.082,1.082,0,0,0,.708-1.021,1.1,1.1,0,0,0-.732-1.014L86.59,19.392a.535.535,0,0,0-.38,0l-8.918,3.412a3.592,3.592,0,0,0-1.625,1.088,1.709,1.709,0,0,0-.262,1.641,3.866,3.866,0,0,0,1.267,1.637m56.011,25.866c-.32,0-.642-.011-.969-.032-.349-.023-.709-.059-1.07-.107a21.8,21.8,0,0,1-4.282-1.054,42.737,42.737,0,0,1-4.839-2.06L79.2,28.994a13.581,13.581,0,0,1-2.669-1.652A4.081,4.081,0,0,1,75.194,25.6a1.923,1.923,0,0,1,.3-1.844A3.8,3.8,0,0,1,77.213,22.6l8.917-3.411a.756.756,0,0,1,.538,0l10.24,3.835a1.319,1.319,0,0,1,.876,1.219,1.3,1.3,0,0,1-.849,1.231l-3.826,1.486L127.485,43.5a4.538,4.538,0,0,0,.468.2,2.014,2.014,0,0,0,.365.1,1.089,1.089,0,0,0,.263.012.8.8,0,0,0,.219-.054l5.945-2.44a1.413,1.413,0,0,1,1.255.1l9.018,5.409a1.3,1.3,0,0,1-.171,2.327l-6.526,2.724a14.918,14.918,0,0,1-3.745,1.039,14.076,14.076,0,0,1-1.893.128" fill="#191717"/>
          <path id="Path_15619" data-name="Path 15619" d="M92.832,18.029l7.984,5.287a1.293,1.293,0,0,0,1.194.135l4.685-1.82,45.506,24.2a1.317,1.317,0,0,0,.463.117,1.268,1.268,0,0,0,.582-.1l9.881-4.343a1.186,1.186,0,0,0,.751-1.085,1.2,1.2,0,0,0-.722-1.112L116.229,17.928l2.279-.886a1.186,1.186,0,0,0,.778-1.154,1.2,1.2,0,0,0-.838-1.1l-10.622-3.856a3.608,3.608,0,0,0-2.394.062l-.008,0L93.078,15.92a1.185,1.185,0,0,0-.246,2.109" fill="#161615"/>
          <path id="Path_15620" data-name="Path 15620" d="M106.712,21.327l45.619,24.259a1.04,1.04,0,0,0,.35.086,1.018,1.018,0,0,0,.457-.076l9.877-4.341a.916.916,0,0,0,.585-.835.926.926,0,0,0-.56-.855L115.514,17.908l2.892-1.124a.913.913,0,0,0-.044-1.731l-10.632-3.86a3.32,3.32,0,0,0-2.182.055L93.18,16.178a.907.907,0,0,0-.194,1.621l7.982,5.285a1.015,1.015,0,0,0,.94.109Zm46.037,24.9c-.035,0-.071,0-.1,0a1.57,1.57,0,0,1-.559-.143L106.676,21.936l-4.567,1.774a1.568,1.568,0,0,1-1.45-.165l-7.984-5.286a1.462,1.462,0,0,1,.3-2.6l12.373-4.932a3.863,3.863,0,0,1,2.559-.061l10.632,3.859a1.487,1.487,0,0,1,1.021,1.351,1.462,1.462,0,0,1-.956,1.423l-1.665.648L163.27,39.06a1.474,1.474,0,0,1,.885,1.368,1.458,1.458,0,0,1-.922,1.337l-9.876,4.341a1.562,1.562,0,0,1-.608.123" fill="#161615"/>
          <path id="Path_15621" data-name="Path 15621" d="M106.7,21.509l.045.024,45.507,24.2a1.2,1.2,0,0,0,.418.1,1.161,1.161,0,0,0,.532-.088l9.879-4.343a1.075,1.075,0,0,0,.684-.984,1.088,1.088,0,0,0-.657-1.009L115.942,17.92l2.525-.981a1.076,1.076,0,0,0,.707-1.046,1.1,1.1,0,0,0-.761-1l-10.626-3.857a3.487,3.487,0,0,0-2.316.062L93.118,16.024a1.073,1.073,0,0,0-.225,1.913l7.983,5.286a1.176,1.176,0,0,0,1.093.125ZM152.75,46.063c-.031,0-.063,0-.094,0a1.436,1.436,0,0,1-.5-.128L106.687,21.753l-4.638,1.8a1.4,1.4,0,0,1-1.3-.147l-7.984-5.287a1.294,1.294,0,0,1,.269-2.3L105.382,10.9a3.716,3.716,0,0,1,2.477-.069l10.626,3.857a1.317,1.317,0,0,1,.911,1.2,1.3,1.3,0,0,1-.849,1.262l-2.033.791L163.2,39.212a1.308,1.308,0,0,1,.786,1.214,1.291,1.291,0,0,1-.819,1.185l-9.879,4.343a1.4,1.4,0,0,1-.54.109" fill="#191717"/>
          <path id="Path_15622" data-name="Path 15622" d="M109.836,68.564a1.674,1.674,0,0,0-1.517-.116L99.3,72.234a1.538,1.538,0,0,0-.964,1.477l.828,21.894a.322.322,0,0,1-.316.356.332.332,0,0,1-.4-.275L94.283,76.393a1.573,1.573,0,0,0-.845-1.071,1.661,1.661,0,0,0-1.392-.046L83.4,78.9a1.554,1.554,0,0,0-.965,1.494l3.912,78.627a2.093,2.093,0,0,0,1.075,1.717,2.251,2.251,0,0,0,2.079.079l6.756-3.2a1.543,1.543,0,0,0,.9-1.452l-.9-21.276a.32.32,0,0,1,.313-.356.331.331,0,0,1,.4.271l4.155,18.342a1.566,1.566,0,0,0,.881,1.075,1.663,1.663,0,0,0,1.421,0l8.607-4.082a1.546,1.546,0,0,0,.9-1.434l-2.336-78.866a1.55,1.55,0,0,0-.752-1.275" fill="#161615"/>
          <path id="Path_15623" data-name="Path 15623" d="M92.69,75.254a1.557,1.557,0,0,0-.6.122L83.438,79a1.445,1.445,0,0,0-.9,1.387l3.912,78.627a1.982,1.982,0,0,0,1.02,1.625,2.138,2.138,0,0,0,1.975.076l.024-.01,6.733-3.193a1.433,1.433,0,0,0,.833-1.348l-.9-21.275a.427.427,0,0,1,.412-.471.44.44,0,0,1,.518.356l4.156,18.343a1.462,1.462,0,0,0,.819,1,1.553,1.553,0,0,0,1.327,0l8.606-4.081a1.433,1.433,0,0,0,.833-1.33L110.478,69.84a1.44,1.44,0,0,0-.7-1.183,1.564,1.564,0,0,0-1.417-.109l-9.02,3.787a1.427,1.427,0,0,0-.9,1.37L99.271,95.6a.43.43,0,0,1-.415.47.434.434,0,0,1-.516-.362L94.174,76.415a1.461,1.461,0,0,0-.786-1,1.573,1.573,0,0,0-.7-.165m-4.155,85.894c-.052,0-.1,0-.155,0a2.367,2.367,0,0,1-1.017-.306,2.2,2.2,0,0,1-1.132-1.807L82.32,80.4a1.663,1.663,0,0,1,1.032-1.6L92,75.171a1.78,1.78,0,0,1,1.485.05,1.676,1.676,0,0,1,.9,1.147L98.556,95.66a.222.222,0,0,0,.275.188c.2-.023.22-.148.218-.24l-.828-21.9a1.648,1.648,0,0,1,1.031-1.583l9.023-3.787a1.787,1.787,0,0,1,1.618.124,1.663,1.663,0,0,1,.807,1.367l2.335,78.866a1.659,1.659,0,0,1-.96,1.537l-8.607,4.082a1.774,1.774,0,0,1-1.515,0,1.679,1.679,0,0,1-.943-1.151l-4.155-18.343a.218.218,0,0,0-.277-.185c-.224.026-.218.182-.215.242l.9,21.275a1.655,1.655,0,0,1-.959,1.558l-6.78,3.214a2.363,2.363,0,0,1-.985.216" fill="#191717"/>
          <path id="Path_15624" data-name="Path 15624" d="M136.035,97.774a.253.253,0,0,1,0-.091l6.257-40.809a1.472,1.472,0,0,0-.594-1.4,1.6,1.6,0,0,0-1.559-.184l-8.094,3.4a1.494,1.494,0,0,0-.913,1.2l-2.683,23.816a.262.262,0,0,1-.281.246.266.266,0,0,1-.29-.237l-3.127-19.909a1.486,1.486,0,0,0-.783-1.085,1.586,1.586,0,0,0-1.368-.064l-8.64,3.624a1.473,1.473,0,0,0-.889,1.663l7.865,35.944a.291.291,0,0,1,0,.093h0l-5.875,42.338a1.468,1.468,0,0,0,.632,1.409,1.588,1.588,0,0,0,1.588.129l8-3.794a1.476,1.476,0,0,0,.847-1.168l2.464-21.916a.261.261,0,0,1,.278-.247.264.264,0,0,1,.292.235l2.932,17.706a1.488,1.488,0,0,0,.82,1.092,1.586,1.586,0,0,0,1.4.016l8.032-3.808a1.47,1.47,0,0,0,.83-1.6Z" fill="#161615"/>
          <path id="Path_15625" data-name="Path 15625" d="M123.214,62.631a1.494,1.494,0,0,0-.574.116L114,66.371a1.363,1.363,0,0,0-.824,1.537l7.865,35.945a.393.393,0,0,1,.006.131l-5.875,42.339a1.356,1.356,0,0,0,.585,1.3,1.489,1.489,0,0,0,.747.26,1.533,1.533,0,0,0,.73-.14l8-3.794a1.367,1.367,0,0,0,.784-1.08l2.464-21.917a.367.367,0,0,1,.386-.345.374.374,0,0,1,.4.328l2.932,17.706a1.379,1.379,0,0,0,.76,1.011,1.476,1.476,0,0,0,1.3.014l8.032-3.808a1.357,1.357,0,0,0,.769-1.481L135.926,97.8a.341.341,0,0,1,0-.131l6.256-40.807a1.358,1.358,0,0,0-.55-1.3,1.487,1.487,0,0,0-1.451-.172l-8.093,3.4a1.382,1.382,0,0,0-.847,1.106l-2.682,23.816a.4.4,0,0,1-.79.014l-3.128-19.91a1.373,1.373,0,0,0-.725-1,1.484,1.484,0,0,0-.7-.176m-6.616,85.48c-.036,0-.072,0-.108,0a1.707,1.707,0,0,1-.859-.3,1.578,1.578,0,0,1-.678-1.516l5.875-42.337a.188.188,0,0,0,0-.057L112.96,67.956a1.586,1.586,0,0,1,.955-1.79l8.64-3.623a1.7,1.7,0,0,1,1.463.068,1.591,1.591,0,0,1,.84,1.166l3.127,19.909c.012.07.042.143.181.143s.162-.08.17-.147l2.683-23.816A1.6,1.6,0,0,1,132,58.58l8.094-3.4a1.713,1.713,0,0,1,1.667.2,1.579,1.579,0,0,1,.638,1.509L136.142,97.7a.159.159,0,0,0,0,.053l7.142,36.584a1.581,1.581,0,0,1-.891,1.724l-8.033,3.808a1.693,1.693,0,0,1-1.492-.017,1.6,1.6,0,0,1-.88-1.172l-2.932-17.707a.155.155,0,0,0-.176-.142c-.141,0-.167.08-.175.148L126.244,142.9a1.583,1.583,0,0,1-.91,1.255l-8,3.8a1.729,1.729,0,0,1-.733.164" fill="#191717"/>
          <path id="Path_15626" data-name="Path 15626" d="M165.338,46.117a1.211,1.211,0,0,0-.636-.881,1.292,1.292,0,0,0-1.111-.051l-17.392,7.3a1.2,1.2,0,0,0-.734.925l-2.352,15.33a1.189,1.189,0,0,0,.486,1.142,1.3,1.3,0,0,0,1.272.142l4.751-2.048.041,62.306a1.2,1.2,0,0,0,.6,1.029,1.294,1.294,0,0,0,1.219.059l8.362-3.964a1.192,1.192,0,0,0,.695-1.07l.422-63.231,5.734-2.466a1.2,1.2,0,0,0,.724-1.277Z" fill="#161615"/>
          <path id="Path_15627" data-name="Path 15627" d="M149.733,67.8v.169l.041,62.305a1.091,1.091,0,0,0,.542.934,1.178,1.178,0,0,0,1.114.054l8.361-3.964a1.08,1.08,0,0,0,.631-.971l.423-63.3,5.8-2.495a1.088,1.088,0,0,0,.659-1.158l-2.077-13.241a1.1,1.1,0,0,0-.578-.8,1.183,1.183,0,0,0-1.016-.047l-17.393,7.3a1.092,1.092,0,0,0-.667.84l-2.351,15.33a1.079,1.079,0,0,0,.441,1.036,1.186,1.186,0,0,0,1.163.13Zm1.19,63.8c-.03,0-.061,0-.091,0a1.4,1.4,0,0,1-.631-.2,1.312,1.312,0,0,1-.649-1.124l-.041-62.138-4.6,1.982a1.41,1.41,0,0,1-1.382-.155A1.3,1.3,0,0,1,143,68.72l2.351-15.331a1.311,1.311,0,0,1,.8-1.011l17.392-7.3a1.4,1.4,0,0,1,1.206.057,1.315,1.315,0,0,1,.693.961l2.076,13.241a1.307,1.307,0,0,1-.79,1.4l-5.667,2.437-.421,63.159a1.3,1.3,0,0,1-.759,1.169l-8.361,3.965a1.4,1.4,0,0,1-.6.135" fill="#191717"/>
          <path id="Path_15628" data-name="Path 15628" d="M111.34,67.964a1.67,1.67,0,0,0-1.515-.116l-9.008,3.78a1.536,1.536,0,0,0-.963,1.475l.827,21.86a.322.322,0,0,1-.316.355.332.332,0,0,1-.395-.275L95.811,75.781a1.565,1.565,0,0,0-.843-1.069,1.662,1.662,0,0,0-1.391-.047l-8.636,3.623a1.55,1.55,0,0,0-.962,1.493l3.9,78.5A2.093,2.093,0,0,0,88.958,160a2.251,2.251,0,0,0,2.075.079l6.745-3.2a1.54,1.54,0,0,0,.895-1.45l-.895-21.243a.32.32,0,0,1,.313-.355.331.331,0,0,1,.4.27l4.149,18.314a1.568,1.568,0,0,0,.88,1.074,1.66,1.66,0,0,0,1.418,0l8.593-4.075a1.54,1.54,0,0,0,.895-1.431l-2.332-78.742a1.547,1.547,0,0,0-.751-1.273" fill="#161615"/>
          <path id="Path_15629" data-name="Path 15629" d="M94.221,74.813a1.387,1.387,0,0,0-.536.108l-8.636,3.624a1.272,1.272,0,0,0-.793,1.222l3.905,78.5a1.814,1.814,0,0,0,.934,1.486,1.966,1.966,0,0,0,1.819.069l6.745-3.2a1.264,1.264,0,0,0,.737-1.188L97.5,134.2a.593.593,0,0,1,.558-.643.605.605,0,0,1,.7.485l4.148,18.314a1.3,1.3,0,0,0,.727.884,1.385,1.385,0,0,0,1.182,0l8.594-4.075a1.267,1.267,0,0,0,.736-1.173l-2.332-78.742a1.274,1.274,0,0,0-.619-1.044,1.393,1.393,0,0,0-1.263-.1l-9.008,3.781a1.261,1.261,0,0,0-.793,1.207l.827,21.861a.6.6,0,0,1-.561.641.606.606,0,0,1-.7-.492L95.54,75.84a1.293,1.293,0,0,0-.7-.88,1.394,1.394,0,0,0-.623-.147m-4.149,85.758q-.083,0-.165-.006a2.543,2.543,0,0,1-1.087-.326,2.364,2.364,0,0,1-1.214-1.942L83.7,79.795a1.83,1.83,0,0,1,1.133-1.762l8.636-3.624a1.944,1.944,0,0,1,1.622.054,1.841,1.841,0,0,1,.99,1.26l4.159,19.262c.011.052.014.066.1.057a.132.132,0,0,0,.063-.02l-.822-21.909a1.81,1.81,0,0,1,1.132-1.74l9.008-3.78a1.95,1.95,0,0,1,1.768.134h0a1.826,1.826,0,0,1,.884,1.5l2.332,78.742a1.818,1.818,0,0,1-1.054,1.69l-8.594,4.076a1.936,1.936,0,0,1-1.653,0,1.846,1.846,0,0,1-1.034-1.264l-4.149-18.314c-.012-.053-.016-.065-.1-.056a.12.12,0,0,0-.062.019l.89,21.291A1.817,1.817,0,0,1,97.9,157.13l-6.745,3.2a2.528,2.528,0,0,1-1.08.243" fill="#161615"/>
          <path id="Path_15630" data-name="Path 15630" d="M94.222,74.645a1.551,1.551,0,0,0-.6.121L84.985,78.39a1.44,1.44,0,0,0-.9,1.384L88,158.277a1.983,1.983,0,0,0,1.018,1.623,2.138,2.138,0,0,0,1.973.075l6.745-3.2a1.43,1.43,0,0,0,.832-1.345l-.9-21.242a.426.426,0,0,1,.411-.471.44.44,0,0,1,.518.357l4.149,18.313a1.458,1.458,0,0,0,.819,1,1.545,1.545,0,0,0,1.322,0l8.594-4.075a1.431,1.431,0,0,0,.832-1.328l-2.332-78.742a1.439,1.439,0,0,0-.7-1.182,1.566,1.566,0,0,0-1.415-.108L100.86,71.73a1.422,1.422,0,0,0-.894,1.367l.826,21.86a.426.426,0,0,1-.414.469.436.436,0,0,1-.516-.361L95.7,75.8a1.457,1.457,0,0,0-.784-.994,1.565,1.565,0,0,0-.7-.164M90.073,160.4c-.051,0-.1,0-.154-.005a2.376,2.376,0,0,1-1.016-.3,2.2,2.2,0,0,1-1.13-1.805l-3.905-78.5a1.664,1.664,0,0,1,1.031-1.6l8.636-3.624a1.776,1.776,0,0,1,1.483.05,1.677,1.677,0,0,1,.9,1.146l4.159,19.261a.221.221,0,0,0,.275.187c.2-.023.22-.147.216-.239l-.826-21.861a1.643,1.643,0,0,1,1.031-1.58l9.007-3.781a1.791,1.791,0,0,1,1.617.124,1.66,1.66,0,0,1,.8,1.364l2.332,78.742a1.654,1.654,0,0,1-.958,1.535l-8.594,4.075a1.776,1.776,0,0,1-1.513.005,1.683,1.683,0,0,1-.941-1.151L98.38,134.124a.214.214,0,0,0-.276-.184c-.223.026-.217.182-.214.24l.9,21.242a1.652,1.652,0,0,1-.959,1.556l-6.768,3.209a2.363,2.363,0,0,1-.985.216" fill="#191717"/>
          <path id="Path_15631" data-name="Path 15631" d="M118.054,146.984a1.3,1.3,0,0,1-.66-.23,1.19,1.19,0,0,1-.515-1.141l5.866-42.276a.53.53,0,0,0-.006-.185l-7.855-35.9a1.2,1.2,0,0,1,.724-1.346l8.628-3.619a1.306,1.306,0,0,1,.508-.1,1.323,1.323,0,0,1,.62.156,1.206,1.206,0,0,1,.638.881l3.122,19.88a.567.567,0,0,0,1.12-.021l2.68-23.781a1.209,1.209,0,0,1,.743-.969l8.081-3.391a1.322,1.322,0,0,1,1.286.153,1.193,1.193,0,0,1,.483,1.135L137.27,96.98a.493.493,0,0,0,0,.187L144.4,133.7a1.19,1.19,0,0,1-.675,1.3l-8.021,3.8a1.3,1.3,0,0,1-1.149-.014,1.209,1.209,0,0,1-.67-.887l-2.928-17.68a.535.535,0,0,0-.547-.467.542.542,0,0,0-.572.495l-2.46,21.883a1.2,1.2,0,0,1-.689.946L118.7,146.86a1.318,1.318,0,0,1-.564.127Z" fill="#161615"/>
          <path id="Path_15632" data-name="Path 15632" d="M142.255,54.565a1.58,1.58,0,0,0-.614.123l-8.082,3.391a1.488,1.488,0,0,0-.912,1.194l-2.679,23.781a.261.261,0,0,1-.28.245.264.264,0,0,1-.289-.236l-3.123-19.88a1.481,1.481,0,0,0-.782-1.083,1.582,1.582,0,0,0-1.366-.064L115.5,65.654a1.47,1.47,0,0,0-.888,1.661l7.853,35.891a.265.265,0,0,1,0,.093h0L116.6,145.575a1.467,1.467,0,0,0,.631,1.408,1.6,1.6,0,0,0,.8.279q.051,0,.1,0a1.585,1.585,0,0,0,.682-.153l7.992-3.789a1.469,1.469,0,0,0,.845-1.166l2.461-21.884a.261.261,0,0,1,.278-.246h.019a.259.259,0,0,1,.272.234l2.929,17.68a1.481,1.481,0,0,0,.817,1.09,1.581,1.581,0,0,0,1.394.016l8.02-3.8a1.469,1.469,0,0,0,.829-1.6l-7.131-36.531a.214.214,0,0,1,0-.091l6.247-40.749a1.466,1.466,0,0,0-.593-1.4,1.592,1.592,0,0,0-.943-.308m0,.555a1.047,1.047,0,0,1,.614.2.917.917,0,0,1,.373.871L137,96.926a.77.77,0,0,0,0,.295l7.131,36.531a.911.911,0,0,1-.522.991l-8.02,3.8a1.022,1.022,0,0,1-.908-.011.932.932,0,0,1-.518-.684l-2.928-17.68a.812.812,0,0,0-.82-.7h-.03a.809.809,0,0,0-.819.739l-2.46,21.885a.924.924,0,0,1-.532.726l-7.992,3.789a1.04,1.04,0,0,1-.444.1l-.066,0a1.03,1.03,0,0,1-.521-.181.912.912,0,0,1-.4-.875l5.866-42.276.005-.038v-.011a.852.852,0,0,0-.016-.239L115.155,67.2a.918.918,0,0,1,.56-1.03l8.628-3.619a1.026,1.026,0,0,1,.4-.081,1.049,1.049,0,0,1,.489.123.937.937,0,0,1,.495.68L128.85,83.15a.823.823,0,0,0,.848.7h0a.809.809,0,0,0,.821-.738l2.679-23.78a.931.931,0,0,1,.575-.745l8.082-3.391a1.023,1.023,0,0,1,.4-.08" fill="#161615"/>
          <path id="Path_15633" data-name="Path 15633" d="M124.743,62.022a1.471,1.471,0,0,0-.573.116l-8.627,3.618a1.362,1.362,0,0,0-.823,1.535l7.854,35.891a.384.384,0,0,1,.005.134l-5.866,42.275a1.353,1.353,0,0,0,.585,1.3,1.463,1.463,0,0,0,.745.26,1.531,1.531,0,0,0,.729-.139l7.992-3.789a1.361,1.361,0,0,0,.783-1.078l2.461-21.885a.4.4,0,0,1,.789-.017l2.928,17.68a1.376,1.376,0,0,0,.758,1.009,1.474,1.474,0,0,0,1.3.015l8.02-3.8a1.355,1.355,0,0,0,.767-1.478l-7.132-36.531a.391.391,0,0,1,0-.132l6.248-40.746a1.359,1.359,0,0,0-.55-1.295,1.486,1.486,0,0,0-1.448-.172L133.6,58.181a1.376,1.376,0,0,0-.845,1.1l-2.679,23.781a.4.4,0,0,1-.79.014L126.166,63.2a1.377,1.377,0,0,0-.724-1,1.493,1.493,0,0,0-.7-.175m-6.606,85.354c-.036,0-.072,0-.108,0a1.7,1.7,0,0,1-.858-.3,1.575,1.575,0,0,1-.678-1.513l5.866-42.275a.163.163,0,0,0,0-.058L114.5,67.338a1.584,1.584,0,0,1,.953-1.787l8.628-3.618a1.7,1.7,0,0,1,1.461.069,1.593,1.593,0,0,1,.839,1.163l3.122,19.88c.012.071.042.143.18.143s.163-.08.17-.146l2.679-23.782a1.6,1.6,0,0,1,.98-1.284l8.082-3.391a1.7,1.7,0,0,1,1.665.2,1.578,1.578,0,0,1,.636,1.507l-6.247,40.75a.189.189,0,0,0,0,.053l7.132,36.53a1.578,1.578,0,0,1-.89,1.722l-8.02,3.8a1.687,1.687,0,0,1-1.491-.017,1.6,1.6,0,0,1-.878-1.171l-2.928-17.68a.156.156,0,0,0-.175-.142c-.141,0-.167.081-.174.148l-2.461,21.884a1.582,1.582,0,0,1-.908,1.254l-7.992,3.789a1.705,1.705,0,0,1-.731.164" fill="#191717"/>
          <path id="Path_15634" data-name="Path 15634" d="M152.341,130.535a1.011,1.011,0,0,1-.456-.141.927.927,0,0,1-.46-.791l-.041-62.656-5.133,2.212a.994.994,0,0,1-.4.082,1.018,1.018,0,0,1-.6-.193.915.915,0,0,1-.374-.874l2.349-15.315a.929.929,0,0,1,.567-.71l17.372-7.287a1.007,1.007,0,0,1,.393-.079,1.023,1.023,0,0,1,.478.119.936.936,0,0,1,.492.678L168.6,58.807a.92.92,0,0,1-.559.977l-5.894,2.534-.423,63.342a.914.914,0,0,1-.535.82l-8.352,3.959a.982.982,0,0,1-.432.1Z" fill="#161615"/>
          <path id="Path_15635" data-name="Path 15635" d="M165.561,44.505a1.285,1.285,0,0,0-.5.1l-17.372,7.288a1.2,1.2,0,0,0-.734.924L144.6,68.131a1.192,1.192,0,0,0,.485,1.141,1.294,1.294,0,0,0,1.271.142l4.746-2.046.041,62.235a1.2,1.2,0,0,0,.6,1.028,1.264,1.264,0,0,0,.58.181c.028,0,.057,0,.085,0a1.272,1.272,0,0,0,.552-.125l8.352-3.959a1.19,1.19,0,0,0,.694-1.069l.422-63.159,5.728-2.464a1.194,1.194,0,0,0,.722-1.276L166.8,45.538a1.206,1.206,0,0,0-.635-.88,1.288,1.288,0,0,0-.609-.153m0,.555a.741.741,0,0,1,.347.087.661.661,0,0,1,.349.477l2.073,13.225a.642.642,0,0,1-.394.68l-5.727,2.464-.334.143,0,.363-.422,63.16a.638.638,0,0,1-.377.57l-8.353,3.96a.717.717,0,0,1-.313.071l-.051,0a.718.718,0,0,1-.328-.1.646.646,0,0,1-.326-.552l-.041-62.235v-.843l-.775.333L146.142,68.9a.717.717,0,0,1-.29.06.739.739,0,0,1-.434-.14.638.638,0,0,1-.264-.608L147.5,52.9a.645.645,0,0,1,.4-.5l17.373-7.288a.742.742,0,0,1,.286-.058" fill="#161615"/>
          <path id="Path_15636" data-name="Path 15636" d="M151.218,67.2v.169l.04,62.235a1.094,1.094,0,0,0,.541.933,1.186,1.186,0,0,0,1.112.053l8.353-3.959a1.079,1.079,0,0,0,.631-.969l.422-63.232,5.794-2.493a1.087,1.087,0,0,0,.658-1.156L166.7,45.555a1.1,1.1,0,0,0-.579-.8,1.175,1.175,0,0,0-1.014-.047L147.73,52a1.089,1.089,0,0,0-.667.838l-2.348,15.313a1.077,1.077,0,0,0,.44,1.035,1.184,1.184,0,0,0,1.162.129Zm1.19,63.726-.094,0a1.4,1.4,0,0,1-.63-.2,1.311,1.311,0,0,1-.648-1.122l-.041-62.068-4.59,1.979a1.408,1.408,0,0,1-1.381-.154,1.3,1.3,0,0,1-.528-1.247L146.844,52.8a1.31,1.31,0,0,1,.8-1.01L165.017,44.5a1.4,1.4,0,0,1,1.2.056,1.317,1.317,0,0,1,.693.96h0l2.074,13.225a1.308,1.308,0,0,1-.789,1.4l-5.661,2.435-.421,63.087a1.3,1.3,0,0,1-.758,1.168l-8.352,3.96a1.388,1.388,0,0,1-.6.135" fill="#191717"/>
          <path id="Path_15637" data-name="Path 15637" d="M59.771,133.573l-18.54-12.1-.307-3.68,17.769,11.467c.177.114.325.216.45.315a1.382,1.382,0,0,1,.237.234.663.663,0,0,1,.111.208,1.438,1.438,0,0,1,.06.341Zm23.584,15.391L69.8,140.122l-.463-7.437A12.546,12.546,0,0,0,68.558,129a12.825,12.825,0,0,0-1.716-3.1,16.435,16.435,0,0,0-2.419-2.567,24,24,0,0,0-2.895-2.127l-24.361-15.43a12.192,12.192,0,0,0-2.549-1.278,3.925,3.925,0,0,0-2.133-.205,2.1,2.1,0,0,0-1.466,1.227,4.667,4.667,0,0,0-.264,2.3l1.5,16.774a1.2,1.2,0,0,0,.54.894l49.936,33.187a1.291,1.291,0,0,0,1.32.063,1.183,1.183,0,0,0,.64-1.109l-.359-7a2.134,2.134,0,0,0-.974-1.666" fill="#161615"/>
          <path id="Path_15638" data-name="Path 15638" d="M41.338,121.412l18.307,11.947-.205-2.992a1.268,1.268,0,0,0-.054-.312.547.547,0,0,0-.093-.177,1.289,1.289,0,0,0-.22-.215c-.11-.087-.246-.183-.44-.308L41.054,118.011ZM59.9,133.788l-.186-.122L41.125,121.538l-.329-3.959.189.123,17.769,11.466c.2.13.341.229.458.322a1.479,1.479,0,0,1,.258.254.765.765,0,0,1,.127.241,1.459,1.459,0,0,1,.065.367ZM33.123,104.333a2.663,2.663,0,0,0-.612.068,1.986,1.986,0,0,0-1.39,1.165,4.567,4.567,0,0,0-.255,2.247l1.5,16.773a1.092,1.092,0,0,0,.491.811L82.79,158.584a1.174,1.174,0,0,0,1.207.058,1.074,1.074,0,0,0,.581-1.005l-.359-7a2.028,2.028,0,0,0-.924-1.578l-13.6-8.873-.466-7.493a12.4,12.4,0,0,0-.776-3.65,12.619,12.619,0,0,0-1.7-3.073,16.22,16.22,0,0,0-2.4-2.55,24,24,0,0,0-2.882-2.118L37.107,105.871a12.09,12.09,0,0,0-2.524-1.267,4.636,4.636,0,0,0-1.46-.271M83.441,159q-.045,0-.09,0a1.407,1.407,0,0,1-.684-.231L32.731,125.582a1.311,1.311,0,0,1-.589-.976l-1.5-16.774a4.779,4.779,0,0,1,.273-2.357,2.206,2.206,0,0,1,1.542-1.29,4.029,4.029,0,0,1,2.194.209,12.263,12.263,0,0,1,2.572,1.289l24.361,15.43A24.153,24.153,0,0,1,64.5,123.25a16.484,16.484,0,0,1,2.435,2.585,12.891,12.891,0,0,1,1.731,3.127,12.677,12.677,0,0,1,.79,3.715l.459,7.383,13.5,8.811a2.243,2.243,0,0,1,1.024,1.753l.36,7a1.3,1.3,0,0,1-.7,1.213,1.416,1.416,0,0,1-.66.165" fill="#191717"/>
          <path id="Path_15639" data-name="Path 15639" d="M38.712,90.74l15.569,9.471a4.265,4.265,0,0,1,.443.3,1.4,1.4,0,0,1,.241.242.734.734,0,0,1,.118.223,1.266,1.266,0,0,1,.06.325l.237,3.364L39.033,94.6Zm43.259,40.684a1.284,1.284,0,0,0,.7-.156,1.184,1.184,0,0,0,.626-1.1l-.407-7.949a1.206,1.206,0,0,0-.581-.961L65.274,110.768l15.575,5.559a1.293,1.293,0,0,0,1.173-.156,1.181,1.181,0,0,0,.509-1.028l-.446-8.674a1.227,1.227,0,0,0-.862-1.09l-16.65-5.33a7.243,7.243,0,0,0-.531-1.836A10.464,10.464,0,0,0,62.8,96.1a13.155,13.155,0,0,0-1.659-1.82,11.808,11.808,0,0,0-1.865-1.392l-24-14.3a12.269,12.269,0,0,0-2.781-1.283,3.834,3.834,0,0,0-2.316-.067,2.425,2.425,0,0,0-1.492,1.528,6.361,6.361,0,0,0-.237,2.763l1.5,16.822a1.2,1.2,0,0,0,.567.912l50.852,31.959a1.3,1.3,0,0,0,.6.195" fill="#161615"/>
          <path id="Path_15640" data-name="Path 15640" d="M39.139,94.538l16.115,9.922-.222-3.148a1.144,1.144,0,0,0-.054-.3.621.621,0,0,0-.1-.191,1.347,1.347,0,0,0-.224-.224,4.239,4.239,0,0,0-.431-.294L38.841,90.948Zm16.367,10.338-.184-.114-16.4-10.094-.344-4.136,15.756,9.584a4.647,4.647,0,0,1,.455.312,1.482,1.482,0,0,1,.26.261.853.853,0,0,1,.135.255,1.382,1.382,0,0,1,.065.352ZM31.127,77.208a2.785,2.785,0,0,0-.913.142,2.316,2.316,0,0,0-1.425,1.461,6.257,6.257,0,0,0-.23,2.715l1.5,16.823a1.087,1.087,0,0,0,.515.827l50.852,31.959a1.178,1.178,0,0,0,1.195.036,1.073,1.073,0,0,0,.568-1l-.407-7.95a1.1,1.1,0,0,0-.527-.873L64.315,110.308l16.571,5.914a1.177,1.177,0,0,0,1.072-.142,1.07,1.07,0,0,0,.462-.932l-.445-8.673a1.115,1.115,0,0,0-.785-.99l-16.717-5.351-.01-.069a7.11,7.11,0,0,0-.523-1.808,10.347,10.347,0,0,0-1.228-2.087,13.007,13.007,0,0,0-1.646-1.805,11.741,11.741,0,0,0-1.847-1.379l-24-14.295a12.121,12.121,0,0,0-2.754-1.272,4.813,4.813,0,0,0-1.336-.211m50.931,54.33c-.031,0-.063,0-.094,0a1.412,1.412,0,0,1-.655-.211L30.457,99.364a1.306,1.306,0,0,1-.618-1l-1.5-16.822a6.462,6.462,0,0,1,.243-2.812,2.53,2.53,0,0,1,1.561-1.594,3.945,3.945,0,0,1,2.382.065A12.408,12.408,0,0,1,35.331,78.5l24,14.295a12.014,12.014,0,0,1,1.882,1.4,13.263,13.263,0,0,1,1.674,1.836,10.633,10.633,0,0,1,1.255,2.133,7.429,7.429,0,0,1,.529,1.8l16.585,5.309a1.337,1.337,0,0,1,.938,1.19l.446,8.673a1.29,1.29,0,0,1-.556,1.125,1.4,1.4,0,0,1-1.274.17l-14.577-5.2,16.137,9.932A1.316,1.316,0,0,1,83,122.213l.407,7.948a1.293,1.293,0,0,1-.683,1.2,1.386,1.386,0,0,1-.671.173" fill="#191717"/>
          <path id="Path_15641" data-name="Path 15641" d="M36.376,62.639l32.6,18.548a5.006,5.006,0,0,1,.483.3,1.293,1.293,0,0,1,.249.229.683.683,0,0,1,.115.215,1.563,1.563,0,0,1,.063.384l.207,3.561-.144-.081L37.41,67.033a2.753,2.753,0,0,1-.345-.229,1.348,1.348,0,0,1-.218-.215.9.9,0,0,1-.123-.217,1.041,1.041,0,0,1-.061-.284Zm-4.891,10.99a18.334,18.334,0,0,0,2.8,2.013l38.6,22.778a18.583,18.583,0,0,0,3.145,1.525,7.36,7.36,0,0,0,1.96.44,4.071,4.071,0,0,0,.855-.027,2.781,2.781,0,0,0,2.122-1.428,6.209,6.209,0,0,0,.559-3.36l-.592-11.552a12.55,12.55,0,0,0-.893-4.072,13.418,13.418,0,0,0-2-3.387,17.392,17.392,0,0,0-2.773-2.722,23.826,23.826,0,0,0-3.207-2.119L32.83,49.939a11.732,11.732,0,0,0-2.839-1.185,3.815,3.815,0,0,0-2.353.065,2.611,2.611,0,0,0-1.475,1.647,6.929,6.929,0,0,0-.23,2.884l1.046,11.727a12.258,12.258,0,0,0,.744,3.257,12.411,12.411,0,0,0,1.54,2.856,14.568,14.568,0,0,0,2.222,2.439" fill="#161615"/>
          <path id="Path_15642" data-name="Path 15642" d="M36.5,62.839l.269,3.24a1,1,0,0,0,.055.254.761.761,0,0,0,.107.188,1.2,1.2,0,0,0,.2.2,2.659,2.659,0,0,0,.33.219l32.5,18.744-.2-3.357a1.439,1.439,0,0,0-.058-.356.536.536,0,0,0-.1-.18,1.17,1.17,0,0,0-.228-.209,5.023,5.023,0,0,0-.472-.3Zm33.71,23.233-.322-.179L37.354,67.129A3,3,0,0,1,37,66.891a1.449,1.449,0,0,1-.236-.233.963.963,0,0,1-.139-.246,1.156,1.156,0,0,1-.069-.315l-.3-3.659.184.1,32.6,18.548a5.115,5.115,0,0,1,.493.309,1.35,1.35,0,0,1,.271.25.787.787,0,0,1,.133.248A1.708,1.708,0,0,1,70,82.31ZM31.559,73.545a18.185,18.185,0,0,0,2.78,2l38.6,22.777a18.421,18.421,0,0,0,3.126,1.516,7.276,7.276,0,0,0,1.931.435,4.074,4.074,0,0,0,.832-.027,2.674,2.674,0,0,0,2.04-1.373,6.1,6.1,0,0,0,.545-3.3l-.592-11.552a12.464,12.464,0,0,0-.884-4.037,13.313,13.313,0,0,0-1.989-3.359,17.3,17.3,0,0,0-2.756-2.7A23.762,23.762,0,0,0,72,71.815L32.776,50.036a11.546,11.546,0,0,0-2.811-1.174,3.7,3.7,0,0,0-2.284.059A2.507,2.507,0,0,0,26.268,50.5a6.828,6.828,0,0,0-.225,2.838L27.09,65.067a12.144,12.144,0,0,0,.737,3.228,12.36,12.36,0,0,0,1.526,2.83,14.44,14.44,0,0,0,2.206,2.42m46.734,26.961c-.1,0-.205,0-.309-.01A7.464,7.464,0,0,1,76,100.049a18.571,18.571,0,0,1-3.165-1.534l-38.6-22.777a18.571,18.571,0,0,1-2.815-2.026,14.784,14.784,0,0,1-2.238-2.457,12.655,12.655,0,0,1-1.554-2.882,12.365,12.365,0,0,1-.75-3.287L25.822,53.359a7.015,7.015,0,0,1,.237-2.931A2.716,2.716,0,0,1,27.6,48.716a3.918,3.918,0,0,1,2.421-.07,11.782,11.782,0,0,1,2.867,1.2L72.111,71.621a23.8,23.8,0,0,1,3.222,2.129,17.481,17.481,0,0,1,2.79,2.739A13.528,13.528,0,0,1,80.146,79.9a12.686,12.686,0,0,1,.9,4.108l.592,11.552a6.31,6.31,0,0,1-.573,3.419,2.887,2.887,0,0,1-2.2,1.485,4.19,4.19,0,0,1-.568.038" fill="#191717"/>
          <path id="Path_15643" data-name="Path 15643" d="M58.271,134.173l-18.54-12.1-.306-3.681,17.769,11.467c.176.115.325.216.449.316a1.392,1.392,0,0,1,.238.233.683.683,0,0,1,.11.208,1.38,1.38,0,0,1,.06.341Zm23.584,15.39L68.3,140.72l-.462-7.436a12.586,12.586,0,0,0-.783-3.683,12.772,12.772,0,0,0-1.716-3.1,16.391,16.391,0,0,0-2.419-2.568,24.105,24.105,0,0,0-2.9-2.126l-24.361-15.43a12.251,12.251,0,0,0-2.548-1.277,3.929,3.929,0,0,0-2.134-.205,2.091,2.091,0,0,0-1.466,1.226,4.681,4.681,0,0,0-.264,2.3l1.5,16.773a1.2,1.2,0,0,0,.54.894l49.936,33.187a1.293,1.293,0,0,0,1.321.063,1.185,1.185,0,0,0,.64-1.109l-.36-7a2.133,2.133,0,0,0-.974-1.666" fill="#161615"/>
          <path id="Path_15644" data-name="Path 15644" d="M40,121.917l17.96,11.719-.182-2.658a1.179,1.179,0,0,0-.046-.271.392.392,0,0,0-.067-.126,1.085,1.085,0,0,0-.193-.187,5.176,5.176,0,0,0-.425-.3L39.749,118.933Zm18.59,12.793-19.12-12.477-.365-4.377,18.243,11.773c.185.119.341.227.472.331a1.574,1.574,0,0,1,.287.286.928.928,0,0,1,.152.287,1.681,1.681,0,0,1,.073.406ZM31.625,105.1a2.5,2.5,0,0,0-.575.063,1.827,1.827,0,0,0-1.277,1.071,4.414,4.414,0,0,0-.241,2.163l1.5,16.774a.928.928,0,0,0,.417.688l49.936,33.187a1.025,1.025,0,0,0,.494.166.984.984,0,0,0,.543-.117.907.907,0,0,0,.493-.85l-.359-7A1.857,1.857,0,0,0,81.7,149.8l-13.668-8.919-.472-7.575a12.284,12.284,0,0,0-.765-3.6,12.51,12.51,0,0,0-1.679-3.032,16.118,16.118,0,0,0-2.378-2.524,23.609,23.609,0,0,0-2.862-2.1L35.519,106.611a11.942,11.942,0,0,0-2.488-1.249,4.482,4.482,0,0,0-1.406-.262m50.317,54.669c-.034,0-.067,0-.1,0a1.6,1.6,0,0,1-.765-.257L31.139,126.32a1.48,1.48,0,0,1-.663-1.1l-1.5-16.774a4.93,4.93,0,0,1,.287-2.44,2.362,2.362,0,0,1,1.655-1.384,4.177,4.177,0,0,1,2.286.213,12.5,12.5,0,0,1,2.608,1.306l24.361,15.43a24.361,24.361,0,0,1,2.928,2.151,16.64,16.64,0,0,1,2.46,2.612,13.046,13.046,0,0,1,1.753,3.167,12.855,12.855,0,0,1,.8,3.766l.454,7.3,13.436,8.766a2.414,2.414,0,0,1,1.1,1.884l.36,7a1.462,1.462,0,0,1-.787,1.368,1.576,1.576,0,0,1-.738.184" fill="#161615"/>
          <path id="Path_15645" data-name="Path 15645" d="M39.838,122.011l18.308,11.947-.2-2.991a1.246,1.246,0,0,0-.055-.313.534.534,0,0,0-.092-.175,1.219,1.219,0,0,0-.22-.215c-.11-.088-.25-.186-.44-.309L39.554,118.61ZM58.4,134.387l-.187-.121L39.626,122.138l-.33-3.96.189.123,17.769,11.467c.2.129.341.228.459.322a1.4,1.4,0,0,1,.257.255.738.738,0,0,1,.127.24,1.513,1.513,0,0,1,.066.366ZM31.624,104.933a2.657,2.657,0,0,0-.612.068,1.987,1.987,0,0,0-1.391,1.165,4.554,4.554,0,0,0-.254,2.246l1.5,16.773a1.1,1.1,0,0,0,.491.812L81.29,159.184a1.181,1.181,0,0,0,1.207.058,1.077,1.077,0,0,0,.582-1.006l-.36-7a2.024,2.024,0,0,0-.924-1.579l-13.6-8.873-.466-7.492a12.448,12.448,0,0,0-.775-3.651,12.686,12.686,0,0,0-1.7-3.073,16.271,16.271,0,0,0-2.4-2.55,23.864,23.864,0,0,0-2.882-2.117L35.608,106.47a12.13,12.13,0,0,0-2.524-1.266,4.64,4.64,0,0,0-1.46-.271M81.942,159.6c-.03,0-.061,0-.09,0a1.413,1.413,0,0,1-.685-.23L31.231,126.182a1.317,1.317,0,0,1-.589-.977l-1.5-16.773a4.777,4.777,0,0,1,.274-2.357,2.2,2.2,0,0,1,1.541-1.29,4.024,4.024,0,0,1,2.195.209,12.327,12.327,0,0,1,2.572,1.288l24.361,15.431A24.2,24.2,0,0,1,63,123.849a16.528,16.528,0,0,1,2.435,2.585,12.924,12.924,0,0,1,1.731,3.127,12.715,12.715,0,0,1,.789,3.716l.459,7.381,13.506,8.812a2.251,2.251,0,0,1,1.024,1.753l.359,7a1.294,1.294,0,0,1-.7,1.213,1.4,1.4,0,0,1-.659.164" fill="#191717"/>
          <path id="Path_15646" data-name="Path 15646" d="M37.213,91.339l15.569,9.471a4.352,4.352,0,0,1,.442.3,1.378,1.378,0,0,1,.242.242.757.757,0,0,1,.118.223,1.235,1.235,0,0,1,.059.325l.237,3.364L37.533,95.2Zm43.259,40.684a1.284,1.284,0,0,0,.7-.156,1.184,1.184,0,0,0,.626-1.1l-.408-7.948a1.2,1.2,0,0,0-.58-.962L63.775,111.367l15.575,5.559a1.293,1.293,0,0,0,1.173-.156,1.183,1.183,0,0,0,.509-1.028l-.446-8.674a1.228,1.228,0,0,0-.862-1.09l-16.65-5.33a7.242,7.242,0,0,0-.531-1.836A10.5,10.5,0,0,0,61.3,96.7a13.227,13.227,0,0,0-1.661-1.82,11.817,11.817,0,0,0-1.864-1.392l-24-14.3a12.284,12.284,0,0,0-2.78-1.283,3.834,3.834,0,0,0-2.316-.067,2.425,2.425,0,0,0-1.492,1.528,6.345,6.345,0,0,0-.237,2.763l1.5,16.822a1.2,1.2,0,0,0,.567.912l50.852,31.959a1.3,1.3,0,0,0,.6.195" fill="#161615"/>
          <path id="Path_15647" data-name="Path 15647" d="M37.8,95.039l15.767,9.708-.2-2.824a.972.972,0,0,0-.046-.255.464.464,0,0,0-.075-.145,1.16,1.16,0,0,0-.2-.194,3.862,3.862,0,0,0-.413-.281l-15.1-9.188Zm16.4,10.748L37.269,95.365l-.378-4.546,16.035,9.755a4.379,4.379,0,0,1,.473.323,1.716,1.716,0,0,1,.289.291,1.045,1.045,0,0,1,.159.3,1.552,1.552,0,0,1,.074.4Zm26.294,25.96a1.02,1.02,0,0,0,.553-.122.914.914,0,0,0,.482-.845l-.408-7.949a.922.922,0,0,0-.448-.739L61.376,110.216l18.067,6.449a1.006,1.006,0,0,0,.92-.122.907.907,0,0,0,.392-.787l-.446-8.673a.948.948,0,0,0-.669-.84l-16.816-5.384-.025-.172a6.938,6.938,0,0,0-.511-1.765,10.206,10.206,0,0,0-1.208-2.053,12.81,12.81,0,0,0-1.625-1.781,11.536,11.536,0,0,0-1.82-1.359l-24-14.3a11.984,11.984,0,0,0-2.716-1.255,3.59,3.59,0,0,0-2.148-.072,2.161,2.161,0,0,0-1.323,1.363,6.108,6.108,0,0,0-.221,2.641l1.5,16.822a.919.919,0,0,0,.439.7l50.852,31.959a1.026,1.026,0,0,0,.473.154m.067.557c-.034,0-.069,0-.1,0h0a1.6,1.6,0,0,1-.732-.238L28.869,100.1a1.475,1.475,0,0,1-.7-1.122l-1.5-16.822a6.617,6.617,0,0,1,.254-2.885,2.7,2.7,0,0,1,1.662-1.694,4.116,4.116,0,0,1,2.483.064,12.542,12.542,0,0,1,2.846,1.311l24,14.3a12.159,12.159,0,0,1,1.909,1.424,13.518,13.518,0,0,1,1.7,1.86A10.762,10.762,0,0,1,62.8,98.7a7.651,7.651,0,0,1,.524,1.734l16.487,5.278a1.505,1.505,0,0,1,1.054,1.341l.446,8.673A1.459,1.459,0,0,1,80.683,117a1.566,1.566,0,0,1-1.426.19l-13.082-4.668,14.785,9.1a1.482,1.482,0,0,1,.712,1.184l.407,7.949a1.455,1.455,0,0,1-.769,1.358,1.549,1.549,0,0,1-.753.194" fill="#161615"/>
          <path id="Path_15648" data-name="Path 15648" d="M37.64,95.136l16.115,9.923-.222-3.149a1.161,1.161,0,0,0-.054-.3.6.6,0,0,0-.1-.191,1.265,1.265,0,0,0-.223-.223,4.2,4.2,0,0,0-.431-.294L37.342,91.548Zm16.367,10.34-.185-.116L37.428,95.267l-.344-4.136,15.755,9.584a4.625,4.625,0,0,1,.456.312,1.518,1.518,0,0,1,.26.261.875.875,0,0,1,.134.255,1.4,1.4,0,0,1,.066.353Zm26.472,26.436a1.174,1.174,0,0,0,.644-.141,1.077,1.077,0,0,0,.568-1l-.407-7.949a1.093,1.093,0,0,0-.528-.873l-17.94-11.042,16.572,5.914a1.176,1.176,0,0,0,1.071-.142,1.07,1.07,0,0,0,.462-.932l-.446-8.673a1.113,1.113,0,0,0-.785-.99l-16.716-5.352-.01-.069a7.122,7.122,0,0,0-.523-1.808,10.294,10.294,0,0,0-1.228-2.086,13.035,13.035,0,0,0-1.646-1.805,11.593,11.593,0,0,0-1.847-1.378l-24-14.3a12.142,12.142,0,0,0-2.755-1.271,3.735,3.735,0,0,0-2.249-.069A2.317,2.317,0,0,0,27.29,79.41a6.241,6.241,0,0,0-.23,2.714l1.5,16.824a1.083,1.083,0,0,0,.515.827l50.852,31.959a1.208,1.208,0,0,0,.551.178m.078.225-.092,0h0a1.422,1.422,0,0,1-.654-.213L28.958,99.963a1.309,1.309,0,0,1-.619-1l-1.5-16.822a6.459,6.459,0,0,1,.244-2.812,2.528,2.528,0,0,1,1.56-1.594,3.948,3.948,0,0,1,2.383.065,12.348,12.348,0,0,1,2.807,1.3l24,14.295a11.864,11.864,0,0,1,1.882,1.4,13.3,13.3,0,0,1,1.675,1.836,10.553,10.553,0,0,1,1.254,2.133,7.422,7.422,0,0,1,.529,1.8l16.584,5.309a1.339,1.339,0,0,1,.939,1.191l.446,8.673a1.294,1.294,0,0,1-.556,1.124,1.4,1.4,0,0,1-1.274.17l-14.577-5.2,16.137,9.933a1.313,1.313,0,0,1,.632,1.051l.408,7.948a1.3,1.3,0,0,1-.683,1.206,1.4,1.4,0,0,1-.673.172" fill="#191717"/>
          <path id="Path_15649" data-name="Path 15649" d="M34.876,63.238l32.6,18.547a5.25,5.25,0,0,1,.482.3,1.245,1.245,0,0,1,.25.229.683.683,0,0,1,.115.215,1.563,1.563,0,0,1,.063.384l.207,3.561-.144-.081L35.91,67.632a2.775,2.775,0,0,1-.344-.229,1.318,1.318,0,0,1-.219-.215.9.9,0,0,1-.123-.217,1,1,0,0,1-.061-.284Zm-4.891,10.99a18.333,18.333,0,0,0,2.8,2.013l38.6,22.778a18.582,18.582,0,0,0,3.145,1.525,7.358,7.358,0,0,0,1.961.44,4.063,4.063,0,0,0,.854-.027,2.784,2.784,0,0,0,2.122-1.428,6.209,6.209,0,0,0,.559-3.36l-.592-11.552a12.55,12.55,0,0,0-.893-4.072,13.419,13.419,0,0,0-2-3.387,17.35,17.35,0,0,0-2.773-2.722,23.826,23.826,0,0,0-3.207-2.119L31.33,50.538a11.716,11.716,0,0,0-2.839-1.185,3.815,3.815,0,0,0-2.353.065,2.607,2.607,0,0,0-1.474,1.647,6.91,6.91,0,0,0-.231,2.884l1.046,11.727a12.3,12.3,0,0,0,.743,3.257,12.474,12.474,0,0,0,1.541,2.856,14.568,14.568,0,0,0,2.222,2.439" fill="#161615"/>
          <path id="Path_15650" data-name="Path 15650" d="M35.2,63.739l.243,2.925a.749.749,0,0,0,.045.209.563.563,0,0,0,.082.145,1.061,1.061,0,0,0,.172.168,2.51,2.51,0,0,0,.309.205L68.285,85.982l-.178-3.05a1.3,1.3,0,0,0-.05-.313.4.4,0,0,0-.068-.128.967.967,0,0,0-.2-.179,4.913,4.913,0,0,0-.457-.286ZM68.9,86.964l-.589-.328L35.771,67.872a3.122,3.122,0,0,1-.377-.251,1.637,1.637,0,0,1-.265-.26,1.169,1.169,0,0,1-.164-.289,1.31,1.31,0,0,1-.079-.362l-.33-3.974L67.611,81.544a5.732,5.732,0,0,1,.509.32,1.509,1.509,0,0,1,.3.282.914.914,0,0,1,.159.3,1.836,1.836,0,0,1,.078.455ZM30.168,74.02A18.085,18.085,0,0,0,32.923,76l38.6,22.778a18.272,18.272,0,0,0,3.1,1.5,7.052,7.052,0,0,0,1.885.425,3.9,3.9,0,0,0,.8-.024,2.515,2.515,0,0,0,1.917-1.29,5.945,5.945,0,0,0,.525-3.21l-.593-11.551a12.264,12.264,0,0,0-.872-3.983,13.2,13.2,0,0,0-1.964-3.317,17.13,17.13,0,0,0-2.729-2.678,23.5,23.5,0,0,0-3.17-2.094L31.195,50.781a11.4,11.4,0,0,0-2.769-1.158,3.542,3.542,0,0,0-2.182.052,2.341,2.341,0,0,0-1.319,1.482,6.638,6.638,0,0,0-.216,2.768l1.047,11.726a12.015,12.015,0,0,0,.725,3.184,12.225,12.225,0,0,0,1.507,2.792,14.394,14.394,0,0,0,2.18,2.393M76.8,101.272c-.107,0-.215,0-.324-.011a7.639,7.639,0,0,1-2.033-.455,18.877,18.877,0,0,1-3.194-1.548L32.641,76.48a18.638,18.638,0,0,1-2.84-2.043h0a14.918,14.918,0,0,1-2.264-2.485,12.8,12.8,0,0,1-1.575-2.919A12.6,12.6,0,0,1,25.2,65.7L24.156,53.974a7.176,7.176,0,0,1,.246-3,2.873,2.873,0,0,1,1.63-1.811,4.065,4.065,0,0,1,2.524-.078,11.953,11.953,0,0,1,2.908,1.211L70.692,72.074a24.126,24.126,0,0,1,3.244,2.145,17.6,17.6,0,0,1,2.817,2.765A13.708,13.708,0,0,1,78.8,80.441a12.849,12.849,0,0,1,.912,4.162L80.3,96.155a6.46,6.46,0,0,1-.594,3.509,3.05,3.05,0,0,1-2.325,1.568,4.191,4.191,0,0,1-.589.04" fill="#161615"/>
          <path id="Path_15651" data-name="Path 15651" d="M35,63.439l.27,3.239a.936.936,0,0,0,.055.255.762.762,0,0,0,.106.188,1.2,1.2,0,0,0,.2.195,2.779,2.779,0,0,0,.33.22l32.5,18.744-.195-3.357a1.53,1.53,0,0,0-.058-.356.563.563,0,0,0-.1-.18,1.177,1.177,0,0,0-.229-.209,5.3,5.3,0,0,0-.472-.3ZM68.715,86.672l-.322-.18L35.855,67.729a3.175,3.175,0,0,1-.358-.238,1.449,1.449,0,0,1-.236-.233.971.971,0,0,1-.14-.246,1.116,1.116,0,0,1-.068-.315l-.305-3.659.183.1,32.6,18.547a5.38,5.38,0,0,1,.493.31,1.319,1.319,0,0,1,.271.25.788.788,0,0,1,.134.248,1.7,1.7,0,0,1,.068.413ZM30.059,74.145a18.231,18.231,0,0,0,2.78,2l38.6,22.778a18.5,18.5,0,0,0,3.126,1.516,7.267,7.267,0,0,0,1.93.434,4.076,4.076,0,0,0,.832-.026,2.679,2.679,0,0,0,2.041-1.373,6.1,6.1,0,0,0,.545-3.3l-.593-11.552a12.438,12.438,0,0,0-.884-4.036,13.336,13.336,0,0,0-1.989-3.359,17.247,17.247,0,0,0-2.755-2.7,23.669,23.669,0,0,0-3.192-2.11L31.277,50.635a11.594,11.594,0,0,0-2.811-1.173,3.712,3.712,0,0,0-2.285.059A2.5,2.5,0,0,0,24.769,51.1a6.8,6.8,0,0,0-.225,2.838L25.59,65.666a12.182,12.182,0,0,0,.736,3.228,12.407,12.407,0,0,0,1.528,2.831,14.468,14.468,0,0,0,2.2,2.42M76.8,101.106c-.1,0-.207,0-.313-.011a7.47,7.47,0,0,1-1.989-.446,18.66,18.66,0,0,1-3.165-1.535l-38.6-22.776a18.511,18.511,0,0,1-2.814-2.026,14.757,14.757,0,0,1-2.239-2.458,12.664,12.664,0,0,1-1.555-2.881,12.46,12.46,0,0,1-.749-3.287L24.323,53.959a7,7,0,0,1,.237-2.931A2.717,2.717,0,0,1,26.1,49.316a3.914,3.914,0,0,1,2.422-.07,11.831,11.831,0,0,1,2.867,1.2L70.611,72.22a23.969,23.969,0,0,1,3.223,2.13,17.436,17.436,0,0,1,2.79,2.739A13.53,13.53,0,0,1,78.646,80.5a12.68,12.68,0,0,1,.9,4.108l.593,11.552a6.309,6.309,0,0,1-.574,3.419,2.889,2.889,0,0,1-2.2,1.485,4.155,4.155,0,0,1-.565.038" fill="#191717"/>
          <rect id="Rectangle_17879" data-name="Rectangle 17879" width="1.185" height="49.339" transform="translate(181.378 60.467)" fill="#151614"/>
          <rect id="Rectangle_17880" data-name="Rectangle 17880" width="1.185" height="49.339" transform="translate(181.378 60.467)" fill="none" stroke="#161615" stroke-width="0.5"/>
        </g>
      </g>
    </g>
  </g>
</svg>
