<svg id="Group_42131" data-name="Group 42131" xmlns="http://www.w3.org/2000/svg" xmlns:xlink="http://www.w3.org/1999/xlink" width="379.738" height="169.933" viewBox="0 0 379.738 169.933">
  <defs>
    <clipPath id="clip-path">
      <rect id="Rectangle_17897" data-name="Rectangle 17897" width="379.738" height="169.933" fill="none"/>
    </clipPath>
  </defs>
  <g id="Group_42130" data-name="Group 42130">
    <g id="Group_42129" data-name="Group 42129" clip-path="url(#clip-path)">
      <g id="Group_42128" data-name="Group 42128">
        <g id="Group_42127" data-name="Group 42127" clip-path="url(#clip-path)">
          <path id="Path_16093" data-name="Path 16093" d="M170.132,39.725a2.4,2.4,0,0,0-2.075,1.184,2.367,2.367,0,0,0,.873,3.243,2.415,2.415,0,0,0,1.82.238,2.369,2.369,0,0,0,.575-4.349,2.414,2.414,0,0,0-1.193-.316m-.008,5.267a2.943,2.943,0,0,1-1.455-.387,2.888,2.888,0,0,1,.7-5.305,2.921,2.921,0,0,1,2.216.288,2.888,2.888,0,0,1,1.068,3.957,2.926,2.926,0,0,1-2.533,1.447" fill="#161615"/>
          <path id="Path_16094" data-name="Path 16094" d="M169.491,42.247V41.2h.566a.79.79,0,0,1,.507.139.456.456,0,0,1,.162.383.464.464,0,0,1-.162.384.8.8,0,0,1-.507.139Zm1.12.248a.85.85,0,0,0,.34-.259.826.826,0,0,0,.162-.512.794.794,0,0,0-.288-.65,1.188,1.188,0,0,0-.761-.228h-.958v2.5h.385v-.751h.573c.058,0,.112-.005.167-.01l.556.761h.45Z" fill="#161615"/>
          <path id="Path_16095" data-name="Path 16095" d="M28.04,46.088l8.154,4.13a1.3,1.3,0,0,0,1.181.031l10.991-4.231c.023-.009.042-.019.063-.029L83.1,64.273c.042.022.079.045.119.063l-2.753,1.121a.8.8,0,0,1-.268.065.968.968,0,0,1-.281-.013,1.951,1.951,0,0,1-.37-.107,4.417,4.417,0,0,1-.456-.216L56.374,52.814a1.3,1.3,0,0,0-1.149-.047l-6.386,2.875a1.165,1.165,0,0,0-.088,2.1l25.465,14.2a22.483,22.483,0,0,0,3.738,1.62,21.016,21.016,0,0,0,3.766.872c.4.054.8.09,1.187.117a15.246,15.246,0,0,0,2.367-.024,10.662,10.662,0,0,0,3.1-.725l10.313-4.265a3.864,3.864,0,0,0,2.1-1.688,2.435,2.435,0,0,0-.091-2.258,6.81,6.81,0,0,0-1.853-2.112,18.714,18.714,0,0,0-3.12-1.976L48.588,37.091a2.507,2.507,0,0,0-2.224-.055L28.1,43.971a.523.523,0,0,0-.068.031,1.176,1.176,0,0,0-.646,1.032,1.2,1.2,0,0,0,.649,1.054" fill="#181617"/>
          <path id="Path_16096" data-name="Path 16096" d="M55.753,52.764a1.2,1.2,0,0,0-.485.1l-6.384,2.874a1.054,1.054,0,0,0-.081,1.9l25.466,14.2a22.555,22.555,0,0,0,3.718,1.612,20.872,20.872,0,0,0,3.745.867c.39.052.787.091,1.183.117a14.993,14.993,0,0,0,2.348-.024,10.572,10.572,0,0,0,3.069-.716l10.314-4.268a3.769,3.769,0,0,0,2.043-1.634,2.341,2.341,0,0,0-.091-2.161,6.749,6.749,0,0,0-1.825-2.073,18.276,18.276,0,0,0-3.1-1.965L48.538,37.188a2.412,2.412,0,0,0-2.127-.053L28.144,44.073l-.054.023a1.071,1.071,0,0,0-.589.937,1.084,1.084,0,0,0,.59.958l8.153,4.127a1.19,1.19,0,0,0,1.083.032l11-4.237a.331.331,0,0,0,.047-.022l.052-.028.052.026,35,18.46L80.5,65.559a.974.974,0,0,1-.3.073,1.047,1.047,0,0,1-.31-.016A2.2,2.2,0,0,1,79.5,65.5a4.249,4.249,0,0,1-.466-.22L56.322,52.908a1.211,1.211,0,0,0-.569-.144M83.967,74.7c-.348,0-.706-.01-1.065-.034-.4-.026-.8-.068-1.2-.118a20.877,20.877,0,0,1-3.787-.877,23.013,23.013,0,0,1-3.755-1.627L48.7,57.842a1.277,1.277,0,0,1,.1-2.3l6.383-2.873a1.431,1.431,0,0,1,1.251.047L79.144,65.091a4,4,0,0,0,.439.206,2.15,2.15,0,0,0,.348.105.958.958,0,0,0,.251.012.8.8,0,0,0,.241-.059l2.534-1.032L48.425,46.112a.061.061,0,0,0-.018.008L37.414,50.354a1.418,1.418,0,0,1-1.273-.04l-8.154-4.129a1.275,1.275,0,0,1,0-2.283.587.587,0,0,1,.079-.033l18.258-6.935a2.623,2.623,0,0,1,2.316.06L95.772,61.4a18.746,18.746,0,0,1,3.141,1.99,6.943,6.943,0,0,1,1.881,2.148,2.542,2.542,0,0,1,.092,2.358,3.978,3.978,0,0,1-2.156,1.738L88.416,73.907a10.783,10.783,0,0,1-3.135.733c-.424.039-.864.057-1.314.057" fill="#181617"/>
          <path id="Path_16097" data-name="Path 16097" d="M51.51,35.88l56.16,28.756a1.28,1.28,0,0,0,1.086.045l14.727-6.093a1.192,1.192,0,0,0,.74-.992,1.176,1.176,0,0,0-.568-1.1L114.768,51a1.292,1.292,0,0,0-1.168-.1l-8.141,3.31L93.859,48.4l4.383-1.748a1.167,1.167,0,0,0,.081-2.153l-8.6-4.24a1.3,1.3,0,0,0-1.047-.045l-6.244,2.455L70.563,36.723l6.164-2.375a1.171,1.171,0,0,0,.774-1.1,1.194,1.194,0,0,0-.781-1.1l-9.9-3.825a1.291,1.291,0,0,0-.928,0L51.63,33.726a1.168,1.168,0,0,0-.12,2.154" fill="#181617"/>
          <path id="Path_16098" data-name="Path 16098" d="M51.56,35.782l56.161,28.756a1.13,1.13,0,0,0,.463.129,1.18,1.18,0,0,0,.531-.09l14.724-6.089a1.057,1.057,0,0,0,.159-1.9l-8.888-5.5A1.184,1.184,0,0,0,113.643,51l-8.188,3.332-.045-.024L93.589,48.389,98.2,46.551a1.06,1.06,0,0,0,.076-1.955l-8.6-4.239a1.188,1.188,0,0,0-.958-.039l-6.288,2.47-.045-.021L70.292,36.712l6.4-2.463a1.074,1.074,0,0,0,.7-1,1.089,1.089,0,0,0-.714-1l-9.894-3.823a1.168,1.168,0,0,0-.849,0l-.021.005-14.247,5.4a1.059,1.059,0,0,0-.107,1.953m56.7,29.106c-.029,0-.057,0-.087,0a1.366,1.366,0,0,1-.549-.152L51.458,35.979a1.279,1.279,0,0,1,.13-2.353l14.286-5.42a1.4,1.4,0,0,1,.987.013l9.895,3.823a1.311,1.311,0,0,1,.856,1.207,1.29,1.29,0,0,1-.845,1.2l-5.93,2.28,11.6,5.814,6.2-2.434a1.4,1.4,0,0,1,1.139.047l8.6,4.239a1.278,1.278,0,0,1-.086,2.356l-4.159,1.656,11.34,5.678,8.093-3.291a1.4,1.4,0,0,1,1.267.108l8.888,5.5a1.285,1.285,0,0,1,.62,1.2,1.3,1.3,0,0,1-.81,1.086L108.8,64.782a1.457,1.457,0,0,1-.542.106" fill="#181617"/>
          <path id="Path_16099" data-name="Path 16099" d="M75.144,28.953a13.512,13.512,0,0,0,2.633,1.615l42.108,20.507a42.958,42.958,0,0,0,4.8,2.025,21.7,21.7,0,0,0,4.24,1.036c.355.045.708.082,1.054.1a14.4,14.4,0,0,0,2.825-.1,14.855,14.855,0,0,0,3.7-1.017l6.492-2.688a1.165,1.165,0,0,0,.158-2.1l-8.971-5.336a1.316,1.316,0,0,0-1.152-.086l-5.915,2.408a.857.857,0,0,1-.247.06,1.162,1.162,0,0,1-.291-.013,2.344,2.344,0,0,1-.383-.1,5.118,5.118,0,0,1-.475-.2L91.29,28.645l4.041-1.558a1.18,1.18,0,0,0,.778-1.11,1.2,1.2,0,0,0-.8-1.1L85.12,21.095a.656.656,0,0,0-.458,0L75.793,24.46a3.661,3.661,0,0,0-1.666,1.109,1.786,1.786,0,0,0-.279,1.72,3.929,3.929,0,0,0,1.3,1.664" fill="#181617"/>
          <path id="Path_16100" data-name="Path 16100" d="M84.892,21.163a.517.517,0,0,0-.188.035l-8.871,3.365a3.59,3.59,0,0,0-1.619,1.073,1.676,1.676,0,0,0-.261,1.617,3.841,3.841,0,0,0,1.261,1.615,13.363,13.363,0,0,0,2.613,1.6l42.1,20.507A42.607,42.607,0,0,0,124.72,53a21.77,21.77,0,0,0,4.216,1.032c.358.045.714.081,1.05.1a14.235,14.235,0,0,0,2.805-.092,14.677,14.677,0,0,0,3.669-1.01l6.495-2.688a1.056,1.056,0,0,0,.138-1.9l-8.97-5.333a1.17,1.17,0,0,0-1.052-.078l-5.915,2.4a.982.982,0,0,1-.279.068,1.236,1.236,0,0,1-.318-.013,2.282,2.282,0,0,1-.4-.107,4.6,4.6,0,0,1-.488-.2L91.011,28.633l4.283-1.649a1.07,1.07,0,0,0,.705-1,1.088,1.088,0,0,0-.731-1L85.083,21.2a.525.525,0,0,0-.191-.035m46.046,33.218c-.319,0-.639-.01-.965-.032-.341-.023-.7-.057-1.066-.1a21.817,21.817,0,0,1-4.258-1.042,42.265,42.265,0,0,1-4.815-2.03L77.73,30.666a13.578,13.578,0,0,1-2.654-1.627,4.03,4.03,0,0,1-1.33-1.715A1.887,1.887,0,0,1,74.04,25.5a3.794,3.794,0,0,1,1.714-1.145l8.872-3.363a.727.727,0,0,1,.533,0l10.187,3.781a1.309,1.309,0,0,1,.873,1.2,1.292,1.292,0,0,1-.849,1.215l-3.8,1.465,34.195,16.318a5.034,5.034,0,0,0,.466.2,2.317,2.317,0,0,0,.364.1,1.132,1.132,0,0,0,.261.012.814.814,0,0,0,.22-.054l5.915-2.4a1.4,1.4,0,0,1,1.245.093l8.971,5.333a1.276,1.276,0,0,1-.168,2.3l-6.492,2.686a14.937,14.937,0,0,1-3.726,1.025,14.087,14.087,0,0,1-1.882.126" fill="#181617"/>
          <path id="Path_16101" data-name="Path 16101" d="M91.291,19.852l7.942,5.212a1.278,1.278,0,0,0,1.189.134l4.66-1.8,45.271,23.87a1.3,1.3,0,0,0,.462.117,1.27,1.27,0,0,0,.577-.1l9.833-4.283a1.17,1.17,0,0,0,.746-1.071,1.191,1.191,0,0,0-.717-1.1L114.566,19.753l2.269-.874a1.172,1.172,0,0,0,.773-1.139,1.19,1.19,0,0,0-.833-1.086l-10.567-3.8a3.623,3.623,0,0,0-2.382.062l-.007,0L91.537,17.771a1.193,1.193,0,0,0-.775.964,1.175,1.175,0,0,0,.529,1.117" fill="#181617"/>
          <path id="Path_16102" data-name="Path 16102" d="M105.091,23.285l.042.024,45.273,23.867a1.159,1.159,0,0,0,.416.1,1.187,1.187,0,0,0,.529-.086l9.83-4.285a1.057,1.057,0,0,0,.025-1.965l-46.924-21.2,2.514-.969a1.055,1.055,0,0,0,.7-1.031,1.075,1.075,0,0,0-.756-.983l-10.57-3.806a3.513,3.513,0,0,0-2.295.058l-.019.008L91.576,17.874a1.088,1.088,0,0,0-.7.873,1.064,1.064,0,0,0,.479,1.014l7.942,5.215a1.193,1.193,0,0,0,1.089.122ZM150.9,47.5c-.032,0-.063,0-.094,0a1.446,1.446,0,0,1-.5-.127L105.075,23.526,100.461,25.3a1.413,1.413,0,0,1-1.291-.144l-7.942-5.216A1.274,1.274,0,0,1,91.5,17.67l12.3-4.861a3.7,3.7,0,0,1,2.442-.06l10.571,3.8a1.306,1.306,0,0,1,.9,1.186,1.282,1.282,0,0,1-.843,1.246l-2.023.781L161.3,40.746a1.277,1.277,0,0,1-.031,2.368l-9.83,4.282a1.412,1.412,0,0,1-.536.107" fill="#181617"/>
          <path id="Path_16103" data-name="Path 16103" d="M84.087,73.074c-.345,0-.7-.01-1.052-.034-.388-.026-.786-.065-1.183-.118a20.808,20.808,0,0,1-3.751-.865,22.837,22.837,0,0,1-3.72-1.616l-25.463-14.2A1.072,1.072,0,0,1,49,54.305l6.385-2.873a1.23,1.23,0,0,1,1.068.042L79.167,63.849a4.453,4.453,0,0,0,.463.22,2.645,2.645,0,0,0,.388.112,1.236,1.236,0,0,0,.214.018c.031,0,.06,0,.092,0a1.115,1.115,0,0,0,.3-.073l2.936-1.2L48.545,44.462l-.041.024L37.461,48.744a1.246,1.246,0,0,1-.525.117,1.227,1.227,0,0,1-.578-.146L28.2,44.586a1.1,1.1,0,0,1-.6-.972,1.082,1.082,0,0,1,.594-.949L46.518,35.7a2.3,2.3,0,0,1,1.007-.228,2.472,2.472,0,0,1,1.141.278L95.8,60.167A18.48,18.48,0,0,1,98.9,62.132a6.835,6.835,0,0,1,1.828,2.081,2.356,2.356,0,0,1,.092,2.177,3.794,3.794,0,0,1-2.054,1.641L88.457,72.3a10.544,10.544,0,0,1-3.072.718c-.419.039-.856.057-1.3.057" fill="#fff"/>
          <path id="Path_16104" data-name="Path 16104" d="M47.525,35.384a2.391,2.391,0,0,0-1.042.233L28.225,42.552a.528.528,0,0,0-.069.029,1.182,1.182,0,0,0-.646,1.031,1.2,1.2,0,0,0,.649,1.055l8.158,4.13a1.291,1.291,0,0,0,1.177.033L48.488,44.6a.275.275,0,0,0,.06-.029L83.219,62.855q.062.031.117.063l-2.75,1.12a.887.887,0,0,1-.271.065c-.028,0-.055.005-.086.005a1.427,1.427,0,0,1-.2-.018,2.055,2.055,0,0,1-.367-.11,3.678,3.678,0,0,1-.455-.212L56.494,51.393a1.29,1.29,0,0,0-.621-.157,1.275,1.275,0,0,0-.528.112L48.96,54.221a1.165,1.165,0,0,0-.087,2.1l25.463,14.2a22.885,22.885,0,0,0,3.737,1.62,21.009,21.009,0,0,0,3.766.872q.6.078,1.191.115c.358.023.712.037,1.059.037.445,0,.88-.022,1.3-.058a10.694,10.694,0,0,0,3.1-.728l10.314-4.265a3.868,3.868,0,0,0,2.1-1.686,2.438,2.438,0,0,0-.094-2.258,6.813,6.813,0,0,0-1.85-2.112,18.477,18.477,0,0,0-3.123-1.978L48.711,35.672a2.575,2.575,0,0,0-1.186-.288m0,.186a2.388,2.388,0,0,1,1.1.267L95.756,60.251a18.181,18.181,0,0,1,3.09,1.955,6.653,6.653,0,0,1,1.8,2.051,2.26,2.26,0,0,1,.091,2.091,3.68,3.68,0,0,1-2,1.6L88.424,72.213a10.6,10.6,0,0,1-3.049.712c-.415.037-.846.057-1.286.057-.342,0-.693-.013-1.049-.037-.39-.023-.786-.062-1.174-.115a20.472,20.472,0,0,1-3.735-.863,22.335,22.335,0,0,1-3.7-1.608L48.962,56.16a.977.977,0,0,1,.073-1.769l6.385-2.873a1.128,1.128,0,0,1,.453-.1,1.093,1.093,0,0,1,.532.136L79.123,63.933a4.487,4.487,0,0,0,.476.222,2.407,2.407,0,0,0,.4.119,1.456,1.456,0,0,0,.228.02c.036,0,.071,0,.1,0a1.084,1.084,0,0,0,.322-.079l2.753-1.12.37-.151-.351-.186-.047-.026L83.3,62.69,48.634,44.4l-.086-.045-.086.045c-.017.007-.029.015-.042.02l-11.007,4.24a1.1,1.1,0,0,1-.477.107,1.11,1.11,0,0,1-.536-.139l-8.152-4.126a.979.979,0,0,1,0-1.759c.015-.009.032-.014.044-.022l18.275-6.94a2.193,2.193,0,0,1,.96-.214" fill="#181617"/>
          <path id="Path_16105" data-name="Path 16105" d="M55.874,51.344a1.219,1.219,0,0,0-.487.1l-6.382,2.874a1.054,1.054,0,0,0-.081,1.9l25.466,14.2a22.41,22.41,0,0,0,3.718,1.612,20.8,20.8,0,0,0,3.745.867c.392.052.793.091,1.183.117A14.994,14.994,0,0,0,85.384,73a10.546,10.546,0,0,0,3.069-.716l10.311-4.268a3.778,3.778,0,0,0,2.046-1.631,2.34,2.34,0,0,0-.091-2.161,6.71,6.71,0,0,0-1.825-2.076,18.276,18.276,0,0,0-3.1-1.965L48.659,35.77a2.4,2.4,0,0,0-2.127-.055l-18.27,6.941a.259.259,0,0,0-.052.023,1.062,1.062,0,0,0-.588.934,1.08,1.08,0,0,0,.588.958L36.365,48.7a1.184,1.184,0,0,0,1.08.032l11-4.237a.425.425,0,0,0,.05-.022l.05-.028.052.026,35,18.46-2.97,1.21a.973.973,0,0,1-.3.073,1.15,1.15,0,0,1-.31-.016,1.972,1.972,0,0,1-.389-.112,4.545,4.545,0,0,1-.469-.22L56.443,51.488a1.211,1.211,0,0,0-.569-.144M84.088,73.277c-.348,0-.706-.01-1.067-.034-.4-.026-.8-.065-1.2-.118a20.887,20.887,0,0,1-3.788-.877,22.869,22.869,0,0,1-3.752-1.627l-25.466-14.2a1.277,1.277,0,0,1,.094-2.3L55.3,51.247a1.425,1.425,0,0,1,1.248.047L79.262,63.671a4.287,4.287,0,0,0,.442.206,1.973,1.973,0,0,0,.348.1.854.854,0,0,0,.251.015.775.775,0,0,0,.239-.059L83.078,62.9,48.546,44.692l-.018.008L37.535,48.934a1.417,1.417,0,0,1-1.273-.04l-8.154-4.129a1.306,1.306,0,0,1-.707-1.154,1.291,1.291,0,0,1,.707-1.129.587.587,0,0,1,.079-.033l18.258-6.935a2.63,2.63,0,0,1,2.316.06L95.893,59.985a18.692,18.692,0,0,1,3.14,1.99,6.921,6.921,0,0,1,1.882,2.148,2.551,2.551,0,0,1,.092,2.358,3.974,3.974,0,0,1-2.16,1.738l-10.31,4.268a10.814,10.814,0,0,1-3.135.733c-.424.039-.864.057-1.314.057" fill="#181617"/>
          <path id="Path_16106" data-name="Path 16106" d="M108.3,63.264a1.164,1.164,0,0,1-.468-.131L51.674,34.378a1.075,1.075,0,0,1,.107-1.984l14.268-5.409a1.182,1.182,0,0,1,.425-.079,1.235,1.235,0,0,1,.436.082L76.8,30.813a1.1,1.1,0,0,1,.726,1.018,1.09,1.09,0,0,1-.717,1.014l-6.36,2.449,12.1,6.057,6.281-2.47a1.233,1.233,0,0,1,.44-.081,1.215,1.215,0,0,1,.534.123l8.6,4.24a1.074,1.074,0,0,1-.076,1.983l-4.576,1.825L105.576,52.9l8.18-3.325a1.175,1.175,0,0,1,.454-.09,1.2,1.2,0,0,1,.63.179l8.888,5.5a1.071,1.071,0,0,1-.162,1.923l-14.727,6.093a1.2,1.2,0,0,1-.46.092Z" fill="#fff"/>
          <path id="Path_16107" data-name="Path 16107" d="M66.473,26.814a1.316,1.316,0,0,0-.458.084L51.75,32.309a1.165,1.165,0,0,0-.12,2.151l56.16,28.757a1.336,1.336,0,0,0,.5.141c.03,0,.055,0,.085,0a1.324,1.324,0,0,0,.5-.1L123.6,57.168a1.163,1.163,0,0,0,.172-2.088l-8.885-5.5a1.306,1.306,0,0,0-1.169-.1l-8.141,3.309-11.6-5.811,4.383-1.748a1.165,1.165,0,0,0,.081-2.154l-8.6-4.24a1.293,1.293,0,0,0-1.047-.044l-6.244,2.454L70.684,35.3l6.163-2.371a1.17,1.17,0,0,0-.011-2.206L66.941,26.9a1.306,1.306,0,0,0-.468-.087m0,.186a1.139,1.139,0,0,1,.4.076l9.9,3.824a1.013,1.013,0,0,1,.664.931,1,1,0,0,1-.657.926l-6.162,2.374-.393.152.378.189L82.47,41.417l.074.036.075-.031,6.245-2.452a1.093,1.093,0,0,1,.4-.079,1.143,1.143,0,0,1,.492.115l8.6,4.24a1,1,0,0,1,.573.932.982.982,0,0,1-.641.882l-4.384,1.749-.386.154.371.185,11.6,5.813.076.036.078-.031,8.142-3.31a1.061,1.061,0,0,1,.416-.082,1.112,1.112,0,0,1,.583.165l8.885,5.5A.977.977,0,0,1,123.528,57l-14.722,6.093a1.1,1.1,0,0,1-.427.083.546.546,0,0,1-.071,0,1.035,1.035,0,0,1-.432-.117L51.716,34.3a.979.979,0,0,1,.1-1.813l14.264-5.41.022-.008A1.062,1.062,0,0,1,66.473,27" fill="#181617"/>
          <path id="Path_16108" data-name="Path 16108" d="M51.68,34.362l56.161,28.757a1.14,1.14,0,0,0,.463.128,1.159,1.159,0,0,0,.531-.089l14.724-6.09a1.082,1.082,0,0,0,.674-.9,1.068,1.068,0,0,0-.517-.995l-8.885-5.5a1.187,1.187,0,0,0-1.068-.09l-8.191,3.332-.042-.024L93.709,46.97l4.612-1.838a1.059,1.059,0,0,0,.073-1.955l-8.6-4.24a1.177,1.177,0,0,0-.958-.039l-6.288,2.471-.044-.022L70.413,35.292l6.393-2.462a1.076,1.076,0,0,0,.706-1,1.087,1.087,0,0,0-.714-1L66.9,27a1.175,1.175,0,0,0-.836-.01L66.053,27,51.788,32.41a1.056,1.056,0,0,0-.108,1.952m56.7,29.107c-.029,0-.06,0-.092,0a1.424,1.424,0,0,1-.546-.152L51.578,34.559a1.279,1.279,0,0,1,.131-2.355L65.977,26.8a1.388,1.388,0,0,1,1.005,0l9.894,3.825a1.31,1.31,0,0,1,.856,1.207,1.286,1.286,0,0,1-.848,1.2l-5.929,2.281,11.6,5.813,6.2-2.434a1.413,1.413,0,0,1,1.139.047l8.6,4.24a1.277,1.277,0,0,1-.09,2.355l-4.155,1.657,11.339,5.681,8.094-3.295a1.408,1.408,0,0,1,1.267.108l8.887,5.5a1.274,1.274,0,0,1-.19,2.285l-14.724,6.09a1.439,1.439,0,0,1-.539.107" fill="#181617"/>
          <path id="Path_16109" data-name="Path 16109" d="M131.053,52.758c-.311,0-.628-.01-.947-.032-.346-.023-.7-.057-1.05-.1a21.752,21.752,0,0,1-4.222-1.03,42.633,42.633,0,0,1-4.788-2.023L77.939,29.064a13.313,13.313,0,0,1-2.615-1.6,3.84,3.84,0,0,1-1.266-1.624,1.692,1.692,0,0,1,.264-1.633,3.623,3.623,0,0,1,1.626-1.08l8.868-3.363a.588.588,0,0,1,.2-.036.642.642,0,0,1,.194.033L95.4,23.544a1.1,1.1,0,0,1,.739,1.016,1.085,1.085,0,0,1-.715,1.021l-4.244,1.636L125.8,43.737a4.342,4.342,0,0,0,.486.2,2.37,2.37,0,0,0,.4.108,1.6,1.6,0,0,0,.214.015c.034,0,.065,0,.1,0a1.019,1.019,0,0,0,.274-.068l5.918-2.408a1.222,1.222,0,0,1,1.067.081L143.225,47a1.071,1.071,0,0,1-.144,1.933l-6.493,2.686a14.8,14.8,0,0,1-3.674,1.014,14.444,14.444,0,0,1-1.861.122" fill="#fff"/>
          <path id="Path_16110" data-name="Path 16110" d="M85.014,19.634a.651.651,0,0,0-.231.042l-8.871,3.365a3.683,3.683,0,0,0-1.665,1.111,1.779,1.779,0,0,0-.277,1.719,3.916,3.916,0,0,0,1.3,1.663A13.372,13.372,0,0,0,77.9,29.15l42.1,20.5a42.546,42.546,0,0,0,4.8,2.029,21.9,21.9,0,0,0,4.235,1.034c.36.047.714.08,1.059.1.321.02.637.03.955.03a14.022,14.022,0,0,0,1.871-.125,14.771,14.771,0,0,0,3.7-1.016l6.492-2.686a1.165,1.165,0,0,0,.155-2.1L134.3,41.588a1.281,1.281,0,0,0-.663-.181,1.3,1.3,0,0,0-.486.095l-5.915,2.405a.862.862,0,0,1-.249.06.454.454,0,0,1-.092.006,1.363,1.363,0,0,1-.2-.016,2.3,2.3,0,0,1-.383-.1,4.425,4.425,0,0,1-.476-.2L91.41,27.226l4.043-1.557a1.18,1.18,0,0,0,.775-1.11,1.194,1.194,0,0,0-.8-1.1L85.242,19.673a.719.719,0,0,0-.228-.039m0,.186a.473.473,0,0,1,.162.029L95.364,23.63a1.012,1.012,0,0,1,.678.929.987.987,0,0,1-.656.935l-4.041,1.557-.4.157.391.186L125.758,43.82a4.37,4.37,0,0,0,.495.21,2.38,2.38,0,0,0,.415.11,1.4,1.4,0,0,0,.227.018.781.781,0,0,0,.109-.005.928.928,0,0,0,.3-.073l5.916-2.405a1.067,1.067,0,0,1,.416-.081,1.1,1.1,0,0,1,.569.154l8.97,5.336a.977.977,0,0,1-.13,1.766l-6.493,2.688a14.72,14.72,0,0,1-3.653,1,13.845,13.845,0,0,1-1.845.124c-.309,0-.629-.011-.942-.032-.338-.02-.689-.057-1.045-.1a21.642,21.642,0,0,1-4.2-1.028,41.938,41.938,0,0,1-4.782-2.018L77.979,28.979a13.2,13.2,0,0,1-2.595-1.588,3.765,3.765,0,0,1-1.239-1.58,1.6,1.6,0,0,1,.251-1.547,3.507,3.507,0,0,1,1.584-1.05l8.872-3.362a.4.4,0,0,1,.162-.032" fill="#181617"/>
          <path id="Path_16111" data-name="Path 16111" d="M85.013,19.744a.529.529,0,0,0-.191.035l-8.869,3.365a3.586,3.586,0,0,0-1.618,1.073,1.674,1.674,0,0,0-.261,1.617,3.809,3.809,0,0,0,1.261,1.615,13.238,13.238,0,0,0,2.612,1.6l42.105,20.507a42.236,42.236,0,0,0,4.789,2.02,21.762,21.762,0,0,0,4.215,1.032c.359.045.712.081,1.05.1a14.066,14.066,0,0,0,2.8-.092,14.8,14.8,0,0,0,3.67-1.01l6.492-2.688a1.053,1.053,0,0,0,.141-1.9l-8.971-5.336a1.185,1.185,0,0,0-1.051-.078l-5.916,2.4a.958.958,0,0,1-.279.068,1.228,1.228,0,0,1-.317-.013,2.669,2.669,0,0,1-.4-.1c-.14-.052-.3-.119-.486-.207L91.131,27.217l4.281-1.653a1.068,1.068,0,0,0,.708-1,1.09,1.09,0,0,0-.731-1L85.2,19.779a.525.525,0,0,0-.191-.035m46.043,33.218c-.319,0-.639-.01-.963-.032-.343-.023-.7-.057-1.066-.1a21.888,21.888,0,0,1-4.257-1.04,42.954,42.954,0,0,1-4.815-2.032l-42.1-20.507a13.7,13.7,0,0,1-2.657-1.627,4.017,4.017,0,0,1-1.327-1.715,1.884,1.884,0,0,1,.293-1.822,3.8,3.8,0,0,1,1.714-1.145l8.87-3.363a.75.75,0,0,1,.536,0l10.187,3.781a1.307,1.307,0,0,1,.872,1.2,1.291,1.291,0,0,1-.848,1.215l-3.8,1.465,34.2,16.318a4.52,4.52,0,0,0,.466.2,2.252,2.252,0,0,0,.363.1,1.136,1.136,0,0,0,.262.012.776.776,0,0,0,.217-.054l5.917-2.4a1.4,1.4,0,0,1,1.246.093l8.971,5.333a1.273,1.273,0,0,1-.168,2.3l-6.495,2.689a14.823,14.823,0,0,1-3.723,1.025,14.1,14.1,0,0,1-1.885.126" fill="#181617"/>
          <path id="Path_16112" data-name="Path 16112" d="M150.941,45.878a1.271,1.271,0,0,1-.429-.107l-45.3-23.888-4.7,1.811a1.164,1.164,0,0,1-.431.08,1.187,1.187,0,0,1-.671-.2l-7.945-5.215a1.071,1.071,0,0,1,.228-1.915l12.284-4.855a3.461,3.461,0,0,1,1.251-.23,3.5,3.5,0,0,1,1.075.167l10.563,3.8a1.094,1.094,0,0,1,.771,1,1.074,1.074,0,0,1-.714,1.049l-2.473.953,46.889,21.185A1.088,1.088,0,0,1,162,40.522a1.074,1.074,0,0,1-.691.983l-9.83,4.286a1.218,1.218,0,0,1-.455.09Z" fill="#fff"/>
          <path id="Path_16113" data-name="Path 16113" d="M105.225,11.261a3.655,3.655,0,0,0-1.28.233l-.008,0L91.656,16.351a1.194,1.194,0,0,0-.772.963,1.176,1.176,0,0,0,.528,1.118l7.942,5.215a1.3,1.3,0,0,0,1.189.134l4.661-1.8,45.272,23.869a1.331,1.331,0,0,0,.46.115.824.824,0,0,0,.086,0,1.273,1.273,0,0,0,.492-.1l9.829-4.281a1.167,1.167,0,0,0,.03-2.167L114.687,18.332l2.267-.871a1.171,1.171,0,0,0-.06-2.224l-10.565-3.8a3.591,3.591,0,0,0-1.1-.173m0,.186a3.38,3.38,0,0,1,1.039.162l10.576,3.8a1,1,0,0,1,.7.914.988.988,0,0,1-.655.958l-2.268.873-.416.161.408.182L161.3,39.6a1,1,0,0,1,.607.924.984.984,0,0,1-.633.9L151.443,45.7a1.132,1.132,0,0,1-.421.083c-.026,0-.049,0-.076,0a1.154,1.154,0,0,1-.384-.1L105.29,21.821l-.075-.039-.079.028-4.661,1.8a1.091,1.091,0,0,1-1.017-.115l-7.94-5.212a.976.976,0,0,1,.206-1.751l12.289-4.858a3.355,3.355,0,0,1,1.212-.222" fill="#181617"/>
          <path id="Path_16114" data-name="Path 16114" d="M105.209,21.862l.047.027,45.268,23.867a1.262,1.262,0,0,0,.416.1,1.2,1.2,0,0,0,.531-.086l9.83-4.285a1.057,1.057,0,0,0,.68-.97,1.072,1.072,0,0,0-.654-.995L114.4,18.325l2.512-.969a1.058,1.058,0,0,0,.7-1.031,1.077,1.077,0,0,0-.756-.983l-10.573-3.806a3.5,3.5,0,0,0-2.3.061L91.7,16.454a1.056,1.056,0,0,0-.225,1.887l7.942,5.215a1.187,1.187,0,0,0,1.09.122Zm45.81,24.221c-.029,0-.06,0-.092,0a1.452,1.452,0,0,1-.5-.127L105.2,22.106l-4.614,1.777a1.4,1.4,0,0,1-1.288-.144l-7.945-5.216a1.273,1.273,0,0,1,.27-2.273L103.9,11.4a3.743,3.743,0,0,1,2.465-.067l10.57,3.8a1.306,1.306,0,0,1,.9,1.186,1.282,1.282,0,0,1-.845,1.246l-2.021.781,46.447,20.98a1.293,1.293,0,0,1,.783,1.2,1.279,1.279,0,0,1-.814,1.17l-9.83,4.284a1.431,1.431,0,0,1-.539.107" fill="#181617"/>
          <path id="Path_16115" data-name="Path 16115" d="M111.4,147.316a1.471,1.471,0,0,1-.382,1.037,1.643,1.643,0,0,1-.309.266l-.007.008a1.672,1.672,0,0,1-.194.107l-7.558,3.56a.011.011,0,0,0-.017,0l-.985.468a1.666,1.666,0,0,1-1.411,0,1.55,1.55,0,0,1-.879-1.06l-2.969-13-.138-.583-.136-.612-.892-3.9a.342.342,0,0,0-.4-.275.315.315,0,0,0-.309.353l.893,20.988a1.5,1.5,0,0,1-.388,1.058,1.806,1.806,0,0,1-.311.267l-.021.012a1.108,1.108,0,0,1-.173.1l-5.779,2.716a2.018,2.018,0,0,1-.316.029l.28-.136,5.763-2.709a.773.773,0,0,0,.152-.086l-5.315,2.5-.022.014a2.244,2.244,0,0,1-1.054.2,2.167,2.167,0,0,1-.913-.275,1.973,1.973,0,0,1-1.016-1.6L82.714,79.337a1.429,1.429,0,0,1,.893-1.368l7.355-3.063a1.385,1.385,0,0,0-.288.094l-7.529,3.126-.267.107a1.526,1.526,0,0,1,.21-.207L90.63,74.9a2.327,2.327,0,0,1,.29-.094l.03-.008a1.988,1.988,0,0,1,.344-.028,1.6,1.6,0,0,1,.72.172A1.558,1.558,0,0,1,92.857,76L97,95.026a.325.325,0,0,0,.395.266.311.311,0,0,0,.312-.344l-.174-4.538.129.6.743,3.4a.441.441,0,0,0,.51.358.432.432,0,0,0,.419-.468l-.827-21.555A1.408,1.408,0,0,1,99.4,71.4l7.771-3.228a1.479,1.479,0,0,0-.308.092l-7.932,3.3-.259.111a.926.926,0,0,1,.194-.2l7.952-3.309a1.444,1.444,0,0,1,.288-.086,1.405,1.405,0,0,1,.383-.044,1.67,1.67,0,0,1,.843.246,1.509,1.509,0,0,1,.742,1.254Z" fill="#181617"/>
          <path id="Path_16116" data-name="Path 16116" d="M109.19,69.531a1.654,1.654,0,0,0-.808-1.347,1.741,1.741,0,0,0-.671-.246c-.078-.006-.165-.013-.244-.013h-.008a1.466,1.466,0,0,0-.4.05l-7.748,3.22a1.806,1.806,0,0,0-.448.273.974.974,0,0,0-.194.2l.259-.108,7.93-3.3a1.545,1.545,0,0,1,.311-.09,1.17,1.17,0,0,1,.287-.032,1.567,1.567,0,0,1,.815.233,1.405,1.405,0,0,1,.69,1.167l2.33,77.785a1.416,1.416,0,0,1-.636,1.2l-.013.009a1.369,1.369,0,0,1-.181.1l-7.558,3.552-.238.114-.769.359a1.555,1.555,0,0,1-1.32,0,1.439,1.439,0,0,1-.813-.987L96.66,138.086l-.137-.581-.136-.616-.756-3.3a.444.444,0,0,0-.52-.354.426.426,0,0,0-.4.469l.887,20.986a1.384,1.384,0,0,1-.649,1.224l-.029.016a.73.73,0,0,1-.152.083L89,158.721l-.281.136a2.707,2.707,0,0,0,.316-.028,2.492,2.492,0,0,0,.6-.181l5.426-2.549.007-.008a1.616,1.616,0,0,0,.293-.252,1.109,1.109,0,0,0,.167-.2,1.588,1.588,0,0,0,.281-.966l-.892-20.988c0-.057-.008-.207.217-.23.207-.021.251.1.272.18l1.023,4.481.144.614.131.581,2.837,12.415a1.671,1.671,0,0,0,.937,1.138,1.752,1.752,0,0,0,1.5-.007l8.568-4.028c.049-.021.1-.05.151-.078l.058-.037a1.823,1.823,0,0,0,.309-.267,1.389,1.389,0,0,0,.152-.186,1.577,1.577,0,0,0,.279-.944ZM97.662,91.014l-.131-.6-.128-.6.194,5.138a.206.206,0,0,1-.215.238A.212.212,0,0,1,97.108,95L92.965,75.971a1.676,1.676,0,0,0-.9-1.13,1.632,1.632,0,0,0-.547-.167,1.331,1.331,0,0,0-.231-.022,2.209,2.209,0,0,0-.36.037l-.013.008L83.52,77.764a1.687,1.687,0,0,0-.432.259,1.586,1.586,0,0,0-.209.209l.266-.107L90.675,75a1.42,1.42,0,0,1,.288-.091h.007a1.29,1.29,0,0,1,.3-.032,1.468,1.468,0,0,1,.691.167,1.432,1.432,0,0,1,.788.979L96.891,95.05a.433.433,0,0,0,.512.358.426.426,0,0,0,.411-.468Z" fill="#181617"/>
          <path id="Path_16117" data-name="Path 16117" d="M98.5,72.751l.83,21.556a.432.432,0,0,1-.42.466.442.442,0,0,1-.512-.358l-.741-3.4-.13-.606-.129-.6-3.135-14.4a1.432,1.432,0,0,0-.777-.978,1.616,1.616,0,0,0-.7-.166,1.523,1.523,0,0,0-.6.124l-.678.28a1.24,1.24,0,0,0-.231-.021,2.119,2.119,0,0,0-.361.034l1.188-.5a1.752,1.752,0,0,1,1.472.052,1.656,1.656,0,0,1,.9,1.131l2.868,13.183-.579-15.2A1.625,1.625,0,0,1,97.8,71.794l8.976-3.733a1.078,1.078,0,0,1,.287-.086l-7.751,3.219a1.891,1.891,0,0,0-.445.274,1.072,1.072,0,0,0-.2.2l.263-.107,7.929-3.3a1.634,1.634,0,0,1,.312-.1L99.4,71.395a1.422,1.422,0,0,0-.892,1.356" fill="#181617"/>
          <path id="Path_16118" data-name="Path 16118" d="M95.069,156.1a1.617,1.617,0,0,1-.209.115l-6.744,3.169a2.353,2.353,0,0,1-.979.21h-.152a2.53,2.53,0,0,1-1.015-.3,2.2,2.2,0,0,1-1.123-1.788L80.955,79.957a1.651,1.651,0,0,1,1.031-1.586l8.6-3.581a1.511,1.511,0,0,1,.323-.094l-7.39,3.071a1.7,1.7,0,0,0-.642.465l.267-.107L90.675,75a1.232,1.232,0,0,1,.288-.1l-7.356,3.063a1.428,1.428,0,0,0-.892,1.368L86.6,156.76a1.96,1.96,0,0,0,1.019,1.6,2.144,2.144,0,0,0,.912.275,2.214,2.214,0,0,0,1.053-.194l.024-.015,5.314-2.5a.652.652,0,0,1-.151.085L89,158.72l-.28.136a2.509,2.509,0,0,0,.316-.026,2.463,2.463,0,0,0,.6-.181Z" fill="#181617"/>
          <path id="Path_16119" data-name="Path 16119" d="M141.126,134.413a1.284,1.284,0,0,1-.4.309.136.136,0,0,1-.049.029l-7.025,3.3-.966.455a1.594,1.594,0,0,1-1.391-.015,1.473,1.473,0,0,1-.815-1.074l-2.334-13.977-.065-.387-.064-.4-.455-2.7a.269.269,0,0,0-.287-.239.265.265,0,0,0-.28.247l-2.45,21.617a1.479,1.479,0,0,1-.361.8,1.566,1.566,0,0,1-.482.345l-.008.006L116.733,146a1.006,1.006,0,0,1-.144.007c-.037,0-.074-.007-.11-.007l.23-.115.513-.236a1.634,1.634,0,0,1-.727.136,1.507,1.507,0,0,1-.743-.258,1.337,1.337,0,0,1-.584-1.283l5.836-41.7a.392.392,0,0,0,0-.128l-7.816-35.4a1.345,1.345,0,0,1,.821-1.513l7.311-3.041a1.314,1.314,0,0,0-.251.071l-7.521,3.136-.258.107a1.2,1.2,0,0,1,.185-.2l7.553-3.141a1.493,1.493,0,0,1,.3-.094h.007a1.916,1.916,0,0,1,.346-.028,1.627,1.627,0,0,1,.707.187,1.479,1.479,0,0,1,.776,1.074l3.112,19.63a.267.267,0,0,0,.291.239.254.254,0,0,0,.272-.244l.39-3.452.05-.4.042-.41,2.189-19.222a1.478,1.478,0,0,1,.909-1.18l1.039-.432,7.016-2.918a.944.944,0,0,1,.288-.086l.013-.008a1.62,1.62,0,0,1,1.248.272,1.454,1.454,0,0,1,.592,1.385L134.39,96.993a.191.191,0,0,0,0,.1l7.11,36.087a1.4,1.4,0,0,1-.374,1.238" fill="#181617"/>
          <path id="Path_16120" data-name="Path 16120" d="M141.608,133.152,134.5,97.067v-.054l6.223-40.248a1.544,1.544,0,0,0-.633-1.491,1.59,1.59,0,0,0-.749-.3,1.228,1.228,0,0,0-.246-.024,1.741,1.741,0,0,0-.382.044,2.134,2.134,0,0,0-.28.087l-8.055,3.349A1.58,1.58,0,0,0,129.4,59.7L127.257,78.53l-.042.409-.045.4-.44,3.842c-.005.07-.028.143-.165.151s-.173-.074-.181-.144l-3.111-19.64a1.568,1.568,0,0,0-.834-1.146,1.751,1.751,0,0,0-.551-.178,1.058,1.058,0,0,0-.229-.024,1.934,1.934,0,0,0-.353.029l-7.383,3.07a1.852,1.852,0,0,0-.447.274,1.018,1.018,0,0,0-.189.2l.259-.107,7.524-3.135a1.367,1.367,0,0,1,.251-.07l.028-.008a1.328,1.328,0,0,1,.288-.029,1.5,1.5,0,0,1,.7.173,1.349,1.349,0,0,1,.721.986l3.113,19.638a.357.357,0,0,0,.4.325.373.373,0,0,0,.391-.338l.346-3.041.041-.4.052-.411L129.62,59.72a1.378,1.378,0,0,1,.842-1.09l.793-.332.26-.107,7-2.91a1.333,1.333,0,0,1,.214-.065,1.464,1.464,0,0,1,1.224.237,1.329,1.329,0,0,1,.55,1.275L134.28,96.98a.546.546,0,0,0,0,.128l7.114,36.089a1.337,1.337,0,0,1-.715,1.426.266.266,0,0,1-.05.029l-7,3.284-.239.115-.756.353a1.449,1.449,0,0,1-1.29-.016,1.345,1.345,0,0,1-.756-.994l-2.4-14.348-.065-.4-.063-.387-.39-2.329a.364.364,0,0,0-.4-.324.371.371,0,0,0-.383.34l-2.45,21.619a1.332,1.332,0,0,1-.619.981l-.042.021a1.161,1.161,0,0,1-.115.065l-6.436,3.017-.51.239-.23.115c.037,0,.07.008.107.008a.858.858,0,0,0,.144-.008,1.577,1.577,0,0,0,.584-.16l6.526-3.067a1.616,1.616,0,0,0,.4-.3,1.4,1.4,0,0,0,.157-.2,1.5,1.5,0,0,0,.254-.683l2.45-21.615a.15.15,0,0,1,.172-.144.152.152,0,0,1,.181.136l.51,3.084.073.39.063.394,2.269,13.6a1.6,1.6,0,0,0,.873,1.161,1.711,1.711,0,0,0,1.485.013l7.99-3.752.029-.015a1.488,1.488,0,0,0,.452-.338,1.148,1.148,0,0,0,.173-.2,1.523,1.523,0,0,0,.238-1.146" fill="#181617"/>
          <path id="Path_16121" data-name="Path 16121" d="M163.544,46.136a1.2,1.2,0,0,0-.633-.868,1.286,1.286,0,0,0-1.1-.05l-17.3,7.194a1.19,1.19,0,0,0-.731.913l-2.34,15.121a1.17,1.17,0,0,0,.485,1.125,1.292,1.292,0,0,0,1.264.141l4.729-2.019.039,61.451a1.183,1.183,0,0,0,.594,1.016,1.295,1.295,0,0,0,1.212.057l8.317-3.91a1.168,1.168,0,0,0,.693-1.054l.419-62.366,5.705-2.431a1.177,1.177,0,0,0,.719-1.261Z" fill="#181617"/>
          <path id="Path_16122" data-name="Path 16122" d="M148.018,67.525v.168l.042,61.452a1.077,1.077,0,0,0,.537.921,1.187,1.187,0,0,0,1.109.053l8.32-3.91a1.067,1.067,0,0,0,.628-.958l.419-62.436,5.773-2.462a1.07,1.07,0,0,0,.654-1.138l-2.065-13.063a1.086,1.086,0,0,0-.576-.786,1.174,1.174,0,0,0-1.012-.047l-17.3,7.2a1.083,1.083,0,0,0-.665.826l-2.339,15.122a1.054,1.054,0,0,0,.439,1.019,1.192,1.192,0,0,0,1.159.129Zm1.186,62.926c-.032,0-.06,0-.092,0a1.411,1.411,0,0,1-.627-.194,1.288,1.288,0,0,1-.644-1.11L147.8,67.858l-4.574,1.955a1.4,1.4,0,0,1-1.371-.152,1.278,1.278,0,0,1-.529-1.233l2.34-15.12a1.3,1.3,0,0,1,.795-1l17.3-7.2a1.407,1.407,0,0,1,1.2.056,1.31,1.31,0,0,1,.691.95l2.065,13.059a1.29,1.29,0,0,1-.787,1.379l-5.638,2.4-.418,62.293a1.285,1.285,0,0,1-.753,1.154l-8.321,3.909a1.41,1.41,0,0,1-.6.134" fill="#181617"/>
          <path id="Path_16123" data-name="Path 16123" d="M88.533,158.541a2.075,2.075,0,0,1-.873-.261,1.878,1.878,0,0,1-.972-1.524L82.807,79.332a1.341,1.341,0,0,1,.835-1.278L91,74.99l-.034-.1.359-.147c.036.008.109.014.174.027l.731-.285a1.515,1.515,0,0,1,.563-.115,1.48,1.48,0,0,1,.659.157,1.351,1.351,0,0,1,.728.915l4.135,19a.522.522,0,0,0,.547.433c.39-.044.575-.253.568-.564L98.6,72.748a1.327,1.327,0,0,1,.838-1.264l7.773-3.23-.035-.1.323-.138.859-.354a1.542,1.542,0,0,1,.6-.123,1.516,1.516,0,0,1,.813.233,1.418,1.418,0,0,1,.707,1.175L112.8,146.6a1.416,1.416,0,0,1-.838,1.327l-8.544,4.019a1.591,1.591,0,0,1-.521.144c-.047,0-.1.005-.149.005a1.622,1.622,0,0,1-.665-.144,1.471,1.471,0,0,1-.826-1l-4.12-18.06a.412.412,0,0,0-.426-.343c-.333.034-.48.2-.467.456l.189,4.5.057,1.223.642,15.224A1.424,1.424,0,0,1,96.3,155.3l-1.363.636-.055-.1-5.317,2.5a2.087,2.087,0,0,1-.9.2c-.044,0-.086,0-.131-.005" fill="#fff"/>
          <path id="Path_16124" data-name="Path 16124" d="M108.959,67.441a1.606,1.606,0,0,0-.641.131l-.851.353h-.005l-.356.149L99.358,71.3a1.4,1.4,0,0,0-.427.268l7.932-3.3a1.483,1.483,0,0,1,.308-.094L99.4,71.4a1.414,1.414,0,0,0-.9,1.353l.83,21.556a.435.435,0,0,1-.416.469c-.021,0-.04,0-.058,0a.436.436,0,0,1-.455-.364l-.743-3.4-.129-.607-.13-.6L94.27,75.418a1.441,1.441,0,0,0-.778-.982,1.626,1.626,0,0,0-.7-.164,1.607,1.607,0,0,0-.6.122l-.678.28a1.429,1.429,0,0,0-.231-.02l-.338.144-.028.008-7.356,3.061a1.487,1.487,0,0,0-.419.259L90.674,75a1.366,1.366,0,0,1,.288-.094l-7.354,3.062a1.43,1.43,0,0,0-.894,1.368L86.6,156.762a1.976,1.976,0,0,0,1.017,1.6,2.182,2.182,0,0,0,.915.272c.045,0,.089.005.134.005a2.184,2.184,0,0,0,.918-.2l.021-.013,5.318-2.5a.73.73,0,0,1-.152.085L89,158.719a1.94,1.94,0,0,0,.617-.186l5.367-2.514.022-.014.361-.167.965-.453a1.516,1.516,0,0,0,.887-1.434l-.641-15.224-.028-.6-.029-.619-.189-4.5a.314.314,0,0,1,.309-.351.445.445,0,0,1,.063-.005.321.321,0,0,1,.335.272l4.119,18.06a1.571,1.571,0,0,0,.88,1.065,1.7,1.7,0,0,0,.7.154c.055,0,.107,0,.162-.008a1.692,1.692,0,0,0,.548-.152l7.246-3.406.008-.008.366-.174.924-.432a1.506,1.506,0,0,0,.893-1.412l-2.319-77.662a1.517,1.517,0,0,0-.752-1.254,1.631,1.631,0,0,0-.863-.246m0,.186h0a1.473,1.473,0,0,1,.769.219,1.331,1.331,0,0,1,.658,1.1l2.321,77.664a1.321,1.321,0,0,1-.786,1.235l-.923.432-.367.175-.038.022-7.221,3.394a1.448,1.448,0,0,1-.483.133,1.332,1.332,0,0,1-.143,0,1.573,1.573,0,0,1-.625-.133,1.375,1.375,0,0,1-.774-.939l-4.123-18.063a.5.5,0,0,0-.515-.413.761.761,0,0,0-.084.005.494.494,0,0,0-.473.545l.185,4.5.029.621.028.6.642,15.223a1.331,1.331,0,0,1-.777,1.259l-.966.453-.382.18-.013.005-.06-.1L89.5,158.27a2.033,2.033,0,0,1-.839.182c-.04,0-.082,0-.121,0a1.965,1.965,0,0,1-.837-.249,1.789,1.789,0,0,1-.922-1.447L82.9,79.327a1.253,1.253,0,0,1,.78-1.188l7.356-3.062-.031-.1h.005l.013-.007.3-.129a.938.938,0,0,1,.157.019l.057.01.052-.02.677-.281a1.376,1.376,0,0,1,.528-.109,1.408,1.408,0,0,1,.615.146,1.235,1.235,0,0,1,.677.853l3.136,14.394.129.6.13.607.74,3.4a.622.622,0,0,0,.639.507c.023,0,.048,0,.081,0a.617.617,0,0,0,.579-.659l-.828-21.555a1.237,1.237,0,0,1,.778-1.176l7.775-3.228-.034-.107.288-.123h0l.034-.016.854-.353a1.451,1.451,0,0,1,.567-.115" fill="#181617"/>
          <path id="Path_16125" data-name="Path 16125" d="M110.68,68.932a1.6,1.6,0,0,0-.8-1.339,1.785,1.785,0,0,0-1.606-.124l-1.209.5L99.313,71.2a1.8,1.8,0,0,0-.448.272,1.087,1.087,0,0,0-.194.2l.259-.107,7.933-3.3a1.772,1.772,0,0,1,.308-.094l.316-.137.223-.093.649-.267a1.629,1.629,0,0,1,.6-.12,1.542,1.542,0,0,1,.805.229,1.4,1.4,0,0,1,.7,1.161l2.321,77.669a1.413,1.413,0,0,1-.829,1.3l-.728.345-.209.1-.361.172-.013.008-7.241,3.4a1.517,1.517,0,0,1-1.317.007,1.454,1.454,0,0,1-.816-.986l-4.127-18.062a.427.427,0,0,0-.511-.351.421.421,0,0,0-.41.466l.164,3.883.029.62.021.606.678,15.843a1.42,1.42,0,0,1-.827,1.326l-.751.351-.214.1-.375.173-.031.015a.993.993,0,0,1-.149.087L89,158.721l-.279.137a2.335,2.335,0,0,0,.316-.03,2.44,2.44,0,0,0,.6-.18l5.426-2.551.008-.006,1.3-.612a1.627,1.627,0,0,0,.954-1.534l-.621-14.635-.021-.6-.029-.62-.218-5.092c-.007-.058-.007-.21.21-.239.218-.013.26.1.28.189l4.13,18.06a1.647,1.647,0,0,0,.929,1.133,2.171,2.171,0,0,0,.678.165,1.644,1.644,0,0,0,.264-.009.012.012,0,0,1,.016,0,2.091,2.091,0,0,0,.546-.156l7.214-3.387.057-.036,1.282-.6A1.633,1.633,0,0,0,113,146.6ZM91.286,74.653a1.851,1.851,0,0,0-.361.037l-.014.008-7.393,3.066a1.728,1.728,0,0,0-.431.259,1.483,1.483,0,0,0-.209.211l.266-.108L90.674,75a1.555,1.555,0,0,1,.287-.094h.009l.324-.136.223-.094a1.341,1.341,0,0,0-.231-.021" fill="#181617"/>
          <path id="Path_16126" data-name="Path 16126" d="M116.5,145.7a1.394,1.394,0,0,1-.693-.243,1.245,1.245,0,0,1-.545-1.194l5.836-41.7a.438.438,0,0,0,0-.157L113.279,67a1.256,1.256,0,0,1,.766-1.407l8.055-3.348-.473.077.955-.4a1.413,1.413,0,0,1,.57-.115,1.513,1.513,0,0,1,.711.177,1.374,1.374,0,0,1,.731,1l3.1,19.609a.382.382,0,0,0,.753-.017l2.668-23.452a1.319,1.319,0,0,1,.458-.858,1.363,1.363,0,0,1,.387-.247l6.835-2.839.333-.144.868-.359a1.459,1.459,0,0,1,.579-.118,1.5,1.5,0,0,1,.882.286,1.335,1.335,0,0,1,.552,1.293L135.8,96.331a.3.3,0,0,0,0,.122l7.1,36.032a1.36,1.36,0,0,1-.778,1.476l-7.974,3.747a1.427,1.427,0,0,1-.528.134,1,1,0,0,1-.122.005,1.483,1.483,0,0,1-.659-.152,1.369,1.369,0,0,1-.763-1.007l-2.91-17.44a.364.364,0,0,0-.383-.31.358.358,0,0,0-.372.325l-.468,4.166-1.975,17.422a1.376,1.376,0,0,1-.791,1.078l-7.95,3.729-.042-.092a1.574,1.574,0,0,1-.607.132Z" fill="#fff"/>
          <path id="Path_16127" data-name="Path 16127" d="M140.58,54.466a1.546,1.546,0,0,0-.614.124l-.873.36-.316.137-.013.007-6.838,2.837a1.556,1.556,0,0,0-.411.26,1.431,1.431,0,0,0-.489.923l-2.667,23.448a.289.289,0,0,1-.568.016l-.448-2.808-.065-.427-.064-.4-2.529-15.97a1.471,1.471,0,0,0-.778-1.069,1.636,1.636,0,0,0-.754-.189,1.525,1.525,0,0,0-.607.126l-.887.366-.324.137h0L113.965,65.4a1.482,1.482,0,0,0-.416.267l7.521-3.133a1.207,1.207,0,0,1,.251-.074L114.009,65.5a1.345,1.345,0,0,0-.821,1.513L121,102.42a.344.344,0,0,1,0,.128l-5.835,41.7a1.333,1.333,0,0,0,.584,1.282,1.48,1.48,0,0,0,.743.26.694.694,0,0,0,.08,0,1.636,1.636,0,0,0,.647-.139l-.513.235a1.327,1.327,0,0,0,.555-.144l6.425-3.009.008-.008.542-.254.978-.461a1.466,1.466,0,0,0,.843-1.151l1.976-17.422.042-.387.042-.4.382-3.373a.29.29,0,0,1,.571-.013l2.909,17.442a1.466,1.466,0,0,0,.814,1.073,1.578,1.578,0,0,0,.7.162,1.061,1.061,0,0,0,.126-.005,1.531,1.531,0,0,0,.562-.144l6.532-3.067.476-.225.967-.452a1.452,1.452,0,0,0,.826-1.579l-7.1-36.036a.179.179,0,0,1,0-.086l6.211-40.194a1.429,1.429,0,0,0-.592-1.383,1.586,1.586,0,0,0-.934-.3m0,.186h0a1.384,1.384,0,0,1,.823.267,1.247,1.247,0,0,1,.52,1.206L135.716,96.3a.307.307,0,0,0,0,.167l7.1,36.034a1.268,1.268,0,0,1-.725,1.374l-.966.455-.477.223-6.534,3.069a1.358,1.358,0,0,1-.5.127c-.035,0-.072.005-.109.005a1.385,1.385,0,0,1-.62-.145,1.284,1.284,0,0,1-.715-.936l-2.91-17.445a.455.455,0,0,0-.483-.383h0a.444.444,0,0,0-.45.408l-.383,3.375-.044.4-.042.388-1.975,17.422a1.285,1.285,0,0,1-.736,1l-.979.46-.542.252-.036.021v0l-6.393,2.994-.042-.1a1.433,1.433,0,0,1-.572.127c-.023,0-.046,0-.067,0a1.316,1.316,0,0,1-.652-.228,1.159,1.159,0,0,1-.505-1.1l5.836-41.693a.567.567,0,0,0,0-.2l-7.818-35.4a1.165,1.165,0,0,1,.712-1.3l7.313-3.038,1.5-.624-.472.079.2-.084a1.33,1.33,0,0,1,.534-.107,1.456,1.456,0,0,1,.665.164A1.29,1.29,0,0,1,124.5,63l2.528,15.972.066.4.065.426L127.6,82.6a.477.477,0,0,0,.941-.021l2.666-23.448a1.23,1.23,0,0,1,.427-.8A1.4,1.4,0,0,1,132,58.1l6.852-2.845.314-.139.874-.358a1.371,1.371,0,0,1,.542-.11" fill="#181617"/>
          <path id="Path_16128" data-name="Path 16128" d="M143.1,132.446,136,96.41a.059.059,0,0,1,0-.049l6.216-40.195a1.55,1.55,0,0,0-.641-1.484,1.7,1.7,0,0,0-1.648-.193l-1.218.5-6.822,2.837a1.646,1.646,0,0,0-.435.268,1.363,1.363,0,0,0-.2.2,1.573,1.573,0,0,0-.346.8l-2.664,23.455c0,.045-.016.137-.168.145-.135,0-.172-.071-.178-.145l-.5-3.2-.074-.426-.065-.4-2.462-15.573a1.576,1.576,0,0,0-.838-1.154,1.709,1.709,0,0,0-1.452-.066l-1.2.5-7.383,3.07a1.779,1.779,0,0,0-.447.272,1.1,1.1,0,0,0-.186.2l.259-.109,7.518-3.134a1.844,1.844,0,0,1,.254-.073l.03-.005.332-.144.206-.089.7-.288a1.444,1.444,0,0,1,.57-.115,1.514,1.514,0,0,1,.7.174,1.373,1.373,0,0,1,.719.988l2.593,16.36.058.4.073.423.382,2.421a.363.363,0,0,0,.395.324.37.37,0,0,0,.391-.336l2.663-23.459a1.368,1.368,0,0,1,.838-1.09l6.765-2.815.381-.159.223-.087.671-.28a1.488,1.488,0,0,1,1.438.173,1.311,1.311,0,0,1,.55,1.274l-6.209,40.187a.3.3,0,0,0,0,.127l7.1,36.04a1.343,1.343,0,0,1-.765,1.452l-.751.356-.244.115-.446.207-6.543,3.069a1.423,1.423,0,0,1-1.288-.013,1.348,1.348,0,0,1-.756-.994l-2.91-17.434a.369.369,0,0,0-.406-.325.362.362,0,0,0-.381.337l-.339,3-.044.395-.05.4-2.009,17.8a1.366,1.366,0,0,1-.786,1.065l-.771.361-.215.107-.369.167-.042.022-6.547,3.082-.514.239-.23.114c.036,0,.072.009.107.009a.763.763,0,0,0,.144-.009,1.589,1.589,0,0,0,.584-.159l6.53-3.067,1.418-.671a1.582,1.582,0,0,0,.908-1.231l1.931-17.04.042-.395.041-.4.428-3.755c.007-.066.037-.144.181-.144a.148.148,0,0,1,.172.135l2.909,17.436a1.6,1.6,0,0,0,.872,1.161,1.8,1.8,0,0,0,.642.172,2.236,2.236,0,0,0,.259,0,1.682,1.682,0,0,0,.582-.159l6.486-3.041.029-.013,1.468-.691a1.562,1.562,0,0,0,.887-1.7" fill="#181617"/>
          <path id="Path_16129" data-name="Path 16129" d="M123.842,142.777a.351.351,0,0,1-.094.05l-7.966,3.748a1.709,1.709,0,0,1-.731.159h-.107a1.738,1.738,0,0,1-.85-.3,1.561,1.561,0,0,1-.676-1.5l5.841-41.756a.071.071,0,0,0,0-.057L111.435,67.68a1.572,1.572,0,0,1,.953-1.772l8.594-3.575a2.959,2.959,0,0,1,.324-.1l-7.385,3.07a1.813,1.813,0,0,0-.446.271,1.337,1.337,0,0,0-.187.2l.259-.107,7.521-3.134a1.285,1.285,0,0,1,.254-.072L114.008,65.5a1.346,1.346,0,0,0-.822,1.512l7.817,35.4a.411.411,0,0,1,0,.131l-5.837,41.7a1.341,1.341,0,0,0,.584,1.282,1.532,1.532,0,0,0,.744.259,1.614,1.614,0,0,0,.726-.136l-.509.235-.23.116c.033,0,.07.008.107.008a.87.87,0,0,0,.144-.008,1.66,1.66,0,0,0,.583-.158Z" fill="#181617"/>
          <path id="Path_16130" data-name="Path 16130" d="M150.6,129.579a1.179,1.179,0,0,1-.536-.164,1.087,1.087,0,0,1-.545-.935l-.041-61.526-4.853,2.076a1.21,1.21,0,0,1-1.172-.132,1.079,1.079,0,0,1-.445-1.036l2.338-15.1a1.091,1.091,0,0,1,.671-.84L163.3,44.731a1.234,1.234,0,0,1,.464-.092,1.2,1.2,0,0,1,.562.139,1.11,1.11,0,0,1,.583.8l2.063,13.045a1.083,1.083,0,0,1-.665,1.157l-5.753,2.455-.42,62.355a1.079,1.079,0,0,1-.636.971l-8.309,3.9a1.2,1.2,0,0,1-.51.115Z" fill="#fff"/>
          <path id="Path_16131" data-name="Path 16131" d="M163.765,44.547a1.311,1.311,0,0,0-.5.1l-17.283,7.187a1.182,1.182,0,0,0-.73.913l-2.336,15.1a1.166,1.166,0,0,0,.48,1.125,1.3,1.3,0,0,0,1.265.142l4.721-2.018.042,61.384a1.18,1.18,0,0,0,.591,1.012,1.312,1.312,0,0,0,.575.179c.029,0,.058,0,.087,0a1.271,1.271,0,0,0,.55-.123l8.308-3.9a1.173,1.173,0,0,0,.691-1.055l.42-62.294,5.7-2.432a1.172,1.172,0,0,0,.719-1.256L165,45.565a1.18,1.18,0,0,0-.634-.866,1.262,1.262,0,0,0-.6-.152m0,.186a1.113,1.113,0,0,1,.518.129,1.007,1.007,0,0,1,.536.732l2.062,13.045a.994.994,0,0,1-.609,1.059l-5.7,2.428-.112.049V62.3l-.423,62.3a.982.982,0,0,1-.582.885l-8.31,3.907a1.122,1.122,0,0,1-.468.1c-.023,0-.05,0-.073,0a1.086,1.086,0,0,1-.492-.152,1,1,0,0,1-.5-.855l-.04-61.382,0-.283-.259.11-4.722,2.018a1.1,1.1,0,0,1-.432.089,1.119,1.119,0,0,1-.649-.207.99.99,0,0,1-.408-.948l2.337-15.1a1,1,0,0,1,.617-.769l17.283-7.186a1.083,1.083,0,0,1,.427-.087" fill="#181617"/>
          <path id="Path_16132" data-name="Path 16132" d="M149.5,66.93V67.1l.039,61.384a1.075,1.075,0,0,0,.54.918,1.213,1.213,0,0,0,.525.163,1.167,1.167,0,0,0,.581-.11l8.309-3.905a1.067,1.067,0,0,0,.628-.955l.418-62.369,5.767-2.459a1.072,1.072,0,0,0,.654-1.139L164.9,45.583a1.09,1.09,0,0,0-.576-.787,1.177,1.177,0,0,0-1.01-.047l-17.283,7.186a1.084,1.084,0,0,0-.664.827l-2.335,15.1a1.06,1.06,0,0,0,.438,1.018,1.185,1.185,0,0,0,1.156.128Zm1.183,62.855c-.032,0-.06,0-.092,0a1.388,1.388,0,0,1-.624-.194,1.3,1.3,0,0,1-.648-1.107l-.039-61.22-4.57,1.952a1.394,1.394,0,0,1-1.37-.152,1.273,1.273,0,0,1-.527-1.228l2.338-15.107a1.3,1.3,0,0,1,.795-.994l17.283-7.189a1.405,1.405,0,0,1,1.2.056,1.309,1.309,0,0,1,.688.947l2.062,13.046a1.287,1.287,0,0,1-.785,1.375l-5.631,2.4-.419,62.222a1.285,1.285,0,0,1-.754,1.154l-8.309,3.9a1.41,1.41,0,0,1-.6.134" fill="#181617"/>
          <path id="Path_16133" data-name="Path 16133" d="M58.523,132.394l-18.445-11.93-.306-3.629L57.45,128.142c.174.115.324.215.447.312a1.432,1.432,0,0,1,.235.23.57.57,0,0,1,.111.207,1.327,1.327,0,0,1,.06.335Zm23.461,15.182L68.5,138.853l-.46-7.334a12.275,12.275,0,0,0-.778-3.633,12.52,12.52,0,0,0-1.706-3.056A16.31,16.31,0,0,0,63.15,122.3a24.2,24.2,0,0,0-2.882-2.1L36.035,104.979a12.115,12.115,0,0,0-2.536-1.258,3.933,3.933,0,0,0-2.122-.2,2.075,2.075,0,0,0-1.458,1.211A4.567,4.567,0,0,0,29.654,107l1.49,16.545a1.186,1.186,0,0,0,.539.881l49.679,32.734a1.293,1.293,0,0,0,1.313.062,1.173,1.173,0,0,0,.636-1.093l-.359-6.906a2.1,2.1,0,0,0-.968-1.644" fill="#181617"/>
          <path id="Path_16134" data-name="Path 16134" d="M40.184,120.4,58.4,132.185l-.2-2.949a1.369,1.369,0,0,0-.055-.31.545.545,0,0,0-.092-.175,1.358,1.358,0,0,0-.219-.212c-.111-.086-.249-.183-.437-.3L39.9,117.046Zm18.463,12.205L39.972,120.529l-.327-3.908L57.508,128.05c.2.125.34.227.455.316a1.554,1.554,0,0,1,.258.251.889.889,0,0,1,.128.239,1.521,1.521,0,0,1,.062.364ZM32.011,103.557a2.476,2.476,0,0,0-.609.069,1.956,1.956,0,0,0-1.382,1.149,4.435,4.435,0,0,0-.254,2.213l1.49,16.542a1.073,1.073,0,0,0,.485.8l49.682,32.734a1.182,1.182,0,0,0,1.2.057,1.058,1.058,0,0,0,.579-.992l-.359-6.906a1.993,1.993,0,0,0-.918-1.556l-13.53-8.75-.463-7.39a12.124,12.124,0,0,0-.773-3.6,12.535,12.535,0,0,0-1.689-3.032,16.362,16.362,0,0,0-2.389-2.516,23.852,23.852,0,0,0-2.87-2.085L35.976,105.073a12.148,12.148,0,0,0-2.512-1.248,4.618,4.618,0,0,0-1.453-.268m50.058,53.921c-.029,0-.06,0-.089,0a1.439,1.439,0,0,1-.68-.226L31.621,124.517a1.306,1.306,0,0,1-.586-.965l-1.489-16.545a4.672,4.672,0,0,1,.272-2.324,2.189,2.189,0,0,1,1.534-1.272,4.04,4.04,0,0,1,2.182.2,12.516,12.516,0,0,1,2.56,1.272l24.233,15.221a23.665,23.665,0,0,1,2.9,2.106,16.388,16.388,0,0,1,2.423,2.549,12.71,12.71,0,0,1,1.722,3.086,12.537,12.537,0,0,1,.785,3.663l.458,7.281,13.436,8.691a2.222,2.222,0,0,1,1.017,1.73l.357,6.906a1.273,1.273,0,0,1-.695,1.2,1.391,1.391,0,0,1-.656.162" fill="#181617"/>
          <path id="Path_16135" data-name="Path 16135" d="M37.571,90.147l15.49,9.343a4.62,4.62,0,0,1,.44.3,1.365,1.365,0,0,1,.241.24.65.65,0,0,1,.114.218,1.084,1.084,0,0,1,.061.321l.235,3.318L37.891,93.958Zm43.037,40.129a1.306,1.306,0,0,0,.7-.154,1.172,1.172,0,0,0,.624-1.087l-.407-7.84a1.185,1.185,0,0,0-.578-.947L64,109.9l15.5,5.482a1.283,1.283,0,0,0,1.164-.154,1.163,1.163,0,0,0,.507-1.012l-.445-8.556a1.207,1.207,0,0,0-.855-1.075L63.3,99.329a7.161,7.161,0,0,0-.528-1.81,10.233,10.233,0,0,0-1.235-2.08,12.923,12.923,0,0,0-1.652-1.8,11.715,11.715,0,0,0-1.855-1.375l-23.877-14.1a12.146,12.146,0,0,0-2.767-1.263,3.836,3.836,0,0,0-2.3-.069A2.4,2.4,0,0,0,27.6,78.344a6.21,6.21,0,0,0-.239,2.727l1.494,16.592a1.185,1.185,0,0,0,.563.9l50.592,31.521a1.278,1.278,0,0,0,.6.194" fill="#181617"/>
          <path id="Path_16136" data-name="Path 16136" d="M38,93.894l16.031,9.787-.219-3.106a1.207,1.207,0,0,0-.052-.293.685.685,0,0,0-.1-.187,1.314,1.314,0,0,0-.225-.221A4.1,4.1,0,0,0,53,99.583l-15.3-9.23Zm16.283,10.195L37.787,94.022l0-.054-.338-4.026,15.673,9.453a4.211,4.211,0,0,1,.453.309,1.464,1.464,0,0,1,.259.257.786.786,0,0,1,.133.251,1.333,1.333,0,0,1,.065.348ZM30.026,76.8a2.862,2.862,0,0,0-.91.139A2.3,2.3,0,0,0,27.7,78.383a6.086,6.086,0,0,0-.23,2.677l1.493,16.593a1.071,1.071,0,0,0,.514.816L80.066,129.99a1.213,1.213,0,0,0,.55.176,1.175,1.175,0,0,0,.641-.141,1.055,1.055,0,0,0,.564-.985l-.406-7.84a1.074,1.074,0,0,0-.524-.858l-17.85-10.9,16.486,5.833a1.18,1.18,0,0,0,1.068-.139,1.054,1.054,0,0,0,.46-.918l-.445-8.555a1.1,1.1,0,0,0-.779-.975L63.2,99.413l-.01-.069a6.944,6.944,0,0,0-.518-1.78A10.244,10.244,0,0,0,61.45,95.5a13.2,13.2,0,0,0-1.638-1.78,11.708,11.708,0,0,0-1.838-1.361L34.1,78.265a12.177,12.177,0,0,0-2.743-1.256,4.84,4.84,0,0,0-1.328-.207m50.669,53.586c-.033,0-.063,0-.094,0a1.414,1.414,0,0,1-.652-.21L29.36,98.655a1.292,1.292,0,0,1-.615-.984L27.251,81.079a6.308,6.308,0,0,1,.244-2.772,2.5,2.5,0,0,1,1.551-1.572,3.942,3.942,0,0,1,2.37.062,12.473,12.473,0,0,1,2.791,1.278l23.879,14.1a11.8,11.8,0,0,1,1.872,1.387,12.971,12.971,0,0,1,1.665,1.811,10.392,10.392,0,0,1,1.25,2.1,7.293,7.293,0,0,1,.526,1.772l16.5,5.236a1.32,1.32,0,0,1,.934,1.176l.445,8.554a1.271,1.271,0,0,1-.554,1.109,1.384,1.384,0,0,1-1.268.166l-14.5-5.13,16.053,9.8a1.3,1.3,0,0,1,.63,1.037l.4,7.84a1.269,1.269,0,0,1-.677,1.188,1.387,1.387,0,0,1-.667.17" fill="#181617"/>
          <path id="Path_16137" data-name="Path 16137" d="M35.246,62.432,67.677,80.725c.188.107.348.2.481.3a1.183,1.183,0,0,1,.246.229.584.584,0,0,1,.116.209,1.476,1.476,0,0,1,.063.379l.206,3.512-.144-.079L36.276,66.766a2.844,2.844,0,0,1-.344-.225,1.386,1.386,0,0,1-.214-.212.8.8,0,0,1-.124-.214,1.163,1.163,0,0,1-.062-.28ZM30.382,73.271a18.144,18.144,0,0,0,2.782,1.988l38.4,22.464a18.384,18.384,0,0,0,3.13,1.5,7.329,7.329,0,0,0,1.949.434,4.035,4.035,0,0,0,.851-.025,2.787,2.787,0,0,0,2.113-1.408,6.118,6.118,0,0,0,.557-3.317L79.576,83.52a12.211,12.211,0,0,0-.887-4.016,13.254,13.254,0,0,0-2-3.344,17.136,17.136,0,0,0-2.76-2.681,23.714,23.714,0,0,0-3.19-2.092L31.72,49.908a11.563,11.563,0,0,0-2.825-1.17,3.819,3.819,0,0,0-2.34.065,2.586,2.586,0,0,0-1.467,1.622,6.829,6.829,0,0,0-.231,2.846L25.9,64.837a12.117,12.117,0,0,0,.74,3.214,12.415,12.415,0,0,0,1.532,2.816,14.46,14.46,0,0,0,2.211,2.4" fill="#181617"/>
          <path id="Path_16138" data-name="Path 16138" d="M35.375,62.629l.269,3.195a.866.866,0,0,0,.052.251.7.7,0,0,0,.107.186,1.318,1.318,0,0,0,.2.194,2.671,2.671,0,0,0,.33.214L68.667,85.158l-.194-3.31a1.333,1.333,0,0,0-.06-.351.49.49,0,0,0-.094-.178,1.133,1.133,0,0,0-.227-.207,5.477,5.477,0,0,0-.469-.29ZM68.91,85.546l-.319-.178L36.222,66.861a2.835,2.835,0,0,1-.357-.234,1.5,1.5,0,0,1-.234-.23.963.963,0,0,1-.139-.243,1.107,1.107,0,0,1-.068-.311l-.3-3.61.18.1,32.429,18.3a5.714,5.714,0,0,1,.492.3,1.308,1.308,0,0,1,.27.249.745.745,0,0,1,.13.243,1.666,1.666,0,0,1,.071.408ZM30.454,73.188a17.912,17.912,0,0,0,2.767,1.973l38.4,22.467a18.419,18.419,0,0,0,3.112,1.5,7.1,7.1,0,0,0,1.918.428,3.862,3.862,0,0,0,.83-.025,2.669,2.669,0,0,0,2.03-1.353,6,6,0,0,0,.542-3.255l-.589-11.392a12.233,12.233,0,0,0-.881-3.984,13.1,13.1,0,0,0-1.979-3.309,17.016,17.016,0,0,0-2.74-2.671,23.828,23.828,0,0,0-3.177-2.08L31.665,50a11.463,11.463,0,0,0-2.8-1.156A3.7,3.7,0,0,0,26.6,48.9a2.478,2.478,0,0,0-1.406,1.559,6.612,6.612,0,0,0-.223,2.8l1.04,11.567a11.858,11.858,0,0,0,.733,3.182,12.041,12.041,0,0,0,1.52,2.793,14.242,14.242,0,0,0,2.193,2.386m46.5,26.594c-.1,0-.2,0-.309-.01a7.663,7.663,0,0,1-1.978-.44,18.76,18.76,0,0,1-3.151-1.513l-38.4-22.467a18.577,18.577,0,0,1-2.8-2v0a14.36,14.36,0,0,1-2.227-2.424,12.209,12.209,0,0,1-1.546-2.842,12.012,12.012,0,0,1-.746-3.241L24.749,53.281a6.846,6.846,0,0,1,.236-2.892A2.678,2.678,0,0,1,26.513,48.7a3.9,3.9,0,0,1,2.407-.07,11.856,11.856,0,0,1,2.853,1.178L70.8,71.291A24.043,24.043,0,0,1,74,73.39a17.54,17.54,0,0,1,2.776,2.7,13.306,13.306,0,0,1,2.01,3.367,12.374,12.374,0,0,1,.9,4.051l.589,11.394a6.189,6.189,0,0,1-.571,3.374,2.869,2.869,0,0,1-2.193,1.463,3.936,3.936,0,0,1-.562.039" fill="#181617"/>
          <path id="Path_16139" data-name="Path 16139" d="M38.5,121.107l18.641,12.06-.233-3.356a1.53,1.53,0,0,0-.063-.361.781.781,0,0,0-.125-.232,1.445,1.445,0,0,0-.252-.246c-.126-.1-.278-.2-.455-.318L38.171,117.242ZM80.5,157.863a1.2,1.2,0,0,1-.581-.194L30.242,124.936a1.1,1.1,0,0,1-.5-.813L28.258,107.58a4.469,4.469,0,0,1,.254-2.224,1.988,1.988,0,0,1,1.4-1.157,2.7,2.7,0,0,1,.612-.068,4.593,4.593,0,0,1,1.459.27,12.173,12.173,0,0,1,2.517,1.248l24.232,15.22a23.675,23.675,0,0,1,2.872,2.089,16.2,16.2,0,0,1,2.391,2.518,12.5,12.5,0,0,1,1.693,3.035,12.2,12.2,0,0,1,.776,3.607l.462,7.379,13.52,8.746a2.005,2.005,0,0,1,.926,1.573l.359,6.9a1.077,1.077,0,0,1-.587,1.008,1.208,1.208,0,0,1-.562.139Z" fill="#fff"/>
          <path id="Path_16140" data-name="Path 16140" d="M57.03,132.988,38.584,121.054l-.3-3.63,17.676,11.311a4.8,4.8,0,0,1,.447.311,1.363,1.363,0,0,1,.239.228.686.686,0,0,1,.11.207,1.486,1.486,0,0,1,.06.337Zm-26.511-28.95a2.723,2.723,0,0,0-.633.069,2.082,2.082,0,0,0-1.461,1.211,4.568,4.568,0,0,0-.261,2.268l1.489,16.546a1.182,1.182,0,0,0,.536.881l49.679,32.734a1.33,1.33,0,0,0,.628.21l.081,0a1.3,1.3,0,0,0,.6-.149,1.175,1.175,0,0,0,.639-1.094l-.359-6.906a2.1,2.1,0,0,0-.967-1.644l-13.483-8.723-.461-7.333a12.234,12.234,0,0,0-.777-3.631,12.677,12.677,0,0,0-1.709-3.061,16.421,16.421,0,0,0-2.406-2.532,23.875,23.875,0,0,0-2.881-2.1L34.542,105.569a12.066,12.066,0,0,0-2.536-1.258,4.758,4.758,0,0,0-1.487-.273m26.722,29.308-.026-.371L57,129.8a1.734,1.734,0,0,0-.068-.381.845.845,0,0,0-.139-.26,1.568,1.568,0,0,0-.272-.264,5.228,5.228,0,0,0-.461-.322L38.38,117.267l-.317-.2.032.377.306,3.629.006.092.078.05L56.93,133.145ZM30.519,104.224a4.578,4.578,0,0,1,1.43.264,11.944,11.944,0,0,1,2.494,1.241l24.235,15.217a23.72,23.72,0,0,1,2.858,2.08,16.26,16.26,0,0,1,2.379,2.506,12.369,12.369,0,0,1,1.682,3.012,12.13,12.13,0,0,1,.768,3.577l.46,7.335.005.1.079.049,13.482,8.723a1.92,1.92,0,0,1,.884,1.5l.356,6.9a.98.98,0,0,1-.536.922,1.128,1.128,0,0,1-.518.128c-.024,0-.048,0-.071,0a1.153,1.153,0,0,1-.536-.178L30.291,124.859a1,1,0,0,1-.452-.743L28.35,107.571a4.4,4.4,0,0,1,.245-2.178,1.9,1.9,0,0,1,1.333-1.1,2.537,2.537,0,0,1,.591-.065" fill="#181617"/>
          <path id="Path_16141" data-name="Path 16141" d="M38.692,120.991,56.9,132.775l-.2-2.949a1.49,1.49,0,0,0-.055-.31.534.534,0,0,0-.095-.175,1.123,1.123,0,0,0-.217-.209,5.118,5.118,0,0,0-.437-.306L38.41,117.636ZM57.156,133.2,38.48,121.119l-.327-3.908L56.016,128.64a5.106,5.106,0,0,1,.456.319,1.356,1.356,0,0,1,.256.248.741.741,0,0,1,.129.241,1.53,1.53,0,0,1,.063.362ZM30.52,104.147a2.623,2.623,0,0,0-.609.069,1.957,1.957,0,0,0-1.383,1.149,4.44,4.44,0,0,0-.254,2.213l1.49,16.542a1.071,1.071,0,0,0,.488.8l49.677,32.734a1.188,1.188,0,0,0,1.2.057,1.064,1.064,0,0,0,.579-.992l-.36-6.9a1.987,1.987,0,0,0-.918-1.557L66.9,139.506l-.462-7.388a12.156,12.156,0,0,0-.773-3.6,12.439,12.439,0,0,0-1.69-3.032,16.226,16.226,0,0,0-2.391-2.516,23.563,23.563,0,0,0-2.867-2.085L34.484,105.663a12.172,12.172,0,0,0-2.511-1.248,4.618,4.618,0,0,0-1.453-.268m50.06,53.921c-.032,0-.06,0-.092,0a1.4,1.4,0,0,1-.679-.226L30.13,125.107a1.3,1.3,0,0,1-.586-.965L28.054,107.6a4.66,4.66,0,0,1,.273-2.324A2.179,2.179,0,0,1,29.861,104a4.011,4.011,0,0,1,2.182.207,12.238,12.238,0,0,1,2.56,1.269L58.836,120.7A23.719,23.719,0,0,1,61.73,122.8a16.342,16.342,0,0,1,2.423,2.549,12.8,12.8,0,0,1,1.723,3.086,12.49,12.49,0,0,1,.784,3.663l.458,7.281,13.435,8.691a2.213,2.213,0,0,1,1.019,1.73l.359,6.906a1.278,1.278,0,0,1-.7,1.2,1.4,1.4,0,0,1-.654.162" fill="#181617"/>
          <path id="Path_16142" data-name="Path 16142" d="M36.311,94.605l16.455,10.046-.249-3.5a1.235,1.235,0,0,0-.063-.345.773.773,0,0,0-.133-.246,1.482,1.482,0,0,0-.254-.254,4.461,4.461,0,0,0-.45-.306L35.97,90.566Zm42.811,36.169a1.2,1.2,0,0,1-.557-.181L27.976,99.074a1.086,1.086,0,0,1-.521-.829L25.964,81.653a6.144,6.144,0,0,1,.227-2.685,2.317,2.317,0,0,1,1.429-1.452,2.867,2.867,0,0,1,.913-.139,4.842,4.842,0,0,1,1.334.207,12.269,12.269,0,0,1,2.746,1.258L56.49,92.94A11.65,11.65,0,0,1,58.33,94.3a12.828,12.828,0,0,1,1.641,1.783,10.172,10.172,0,0,1,1.222,2.062,6.891,6.891,0,0,1,.52,1.787l.011.055,16.621,5.275a1.117,1.117,0,0,1,.79.992l.445,8.555a1.071,1.071,0,0,1-.466.931,1.18,1.18,0,0,1-.68.212,1.227,1.227,0,0,1-.4-.068l-16.339-5.78,17.715,10.811a1.087,1.087,0,0,1,.533.871l.407,7.84a1.071,1.071,0,0,1-.576,1,1.166,1.166,0,0,1-.57.147Z" fill="#fff"/>
          <path id="Path_16143" data-name="Path 16143" d="M52.663,104.477,36.4,94.55l-.319-3.81,15.49,9.343a3.589,3.589,0,0,1,.44.3,1.181,1.181,0,0,1,.241.237.77.77,0,0,1,.118.221,1.2,1.2,0,0,1,.057.318ZM28.534,77.283a2.851,2.851,0,0,0-.945.147A2.4,2.4,0,0,0,26.1,78.937a6.21,6.21,0,0,0-.235,2.725l1.492,16.591a1.183,1.183,0,0,0,.565.9l50.589,31.521a1.3,1.3,0,0,0,.6.192c.028,0,.058,0,.086,0a1.314,1.314,0,0,0,.616-.154,1.169,1.169,0,0,0,.622-1.088l-.405-7.841a1.193,1.193,0,0,0-.576-.948L62.505,110.493,78,115.976a1.331,1.331,0,0,0,.435.075,1.28,1.28,0,0,0,.733-.23,1.159,1.159,0,0,0,.5-1.013l-.443-8.555a1.215,1.215,0,0,0-.858-1.075L61.807,99.92a6.98,6.98,0,0,0-.527-1.811,10.4,10.4,0,0,0-1.235-2.08,13.217,13.217,0,0,0-1.651-1.8,11.924,11.924,0,0,0-1.856-1.373l-23.876-14.1a12.308,12.308,0,0,0-2.77-1.266,4.928,4.928,0,0,0-1.358-.213m24.341,27.542-.026-.362-.236-3.318a1.384,1.384,0,0,0-.07-.366.9.9,0,0,0-.145-.273,1.461,1.461,0,0,0-.273-.272,4.833,4.833,0,0,0-.46-.314l-15.49-9.34-.311-.188.028.364.32,3.81.01.094.078.05,16.266,9.926ZM28.534,77.469a4.8,4.8,0,0,1,1.309.2,12.158,12.158,0,0,1,2.722,1.249l23.879,14.1a11.387,11.387,0,0,1,1.824,1.35A13.029,13.029,0,0,1,59.9,96.141a10.074,10.074,0,0,1,1.211,2.044,6.834,6.834,0,0,1,.516,1.762l.019.117.11.034,16.565,5.257a1.031,1.031,0,0,1,.727.91l.442,8.554a.978.978,0,0,1-.426.851,1.088,1.088,0,0,1-1,.13l-15.5-5.482-1.685-.6,1.525.931L79.359,121a1,1,0,0,1,.489.8l.4,7.841a.983.983,0,0,1-.525.913,1.088,1.088,0,0,1-.527.133c-.023,0-.05,0-.073,0a1.087,1.087,0,0,1-.512-.165L28.027,98.994a1,1,0,0,1-.48-.756L26.055,81.646A5.973,5.973,0,0,1,26.281,79a2.217,2.217,0,0,1,1.368-1.4,2.785,2.785,0,0,1,.885-.136" fill="#181617"/>
          <path id="Path_16144" data-name="Path 16144" d="M36.5,94.485l16.032,9.787-.219-3.106a1.2,1.2,0,0,0-.053-.293.665.665,0,0,0-.1-.187,1.233,1.233,0,0,0-.22-.221,4.347,4.347,0,0,0-.428-.291l-15.305-9.23ZM52.786,104.68,36.294,94.613l0-.054-.338-4.026,15.674,9.453a4.508,4.508,0,0,1,.452.309,1.37,1.37,0,0,1,.259.257.808.808,0,0,1,.134.251,1.332,1.332,0,0,1,.065.348Zm26.335,26.077a1.18,1.18,0,0,0,.641-.141,1.052,1.052,0,0,0,.566-.985l-.407-7.84a1.074,1.074,0,0,0-.522-.861l-17.85-10.892,16.487,5.833a1.177,1.177,0,0,0,1.067-.139,1.054,1.054,0,0,0,.46-.918l-.444-8.555a1.1,1.1,0,0,0-.779-.975L61.708,100l-.01-.069a7,7,0,0,0-.521-1.78,10.157,10.157,0,0,0-1.219-2.06,13.025,13.025,0,0,0-1.639-1.78,11.654,11.654,0,0,0-1.837-1.361L32.6,78.856A12.158,12.158,0,0,0,29.861,77.6a3.726,3.726,0,0,0-2.237-.068,2.287,2.287,0,0,0-1.415,1.442,6.084,6.084,0,0,0-.231,2.677l1.494,16.593a1.071,1.071,0,0,0,.511.816l50.589,31.521a1.217,1.217,0,0,0,.549.176m.079.222c-.029,0-.06,0-.092,0a1.442,1.442,0,0,1-.651-.21L27.867,99.246a1.279,1.279,0,0,1-.614-.984l-1.5-16.592A6.38,6.38,0,0,1,26,78.895a2.51,2.51,0,0,1,1.551-1.569,3.935,3.935,0,0,1,2.368.062,12.423,12.423,0,0,1,2.793,1.278l23.88,14.1a12.006,12.006,0,0,1,1.872,1.385,13.124,13.124,0,0,1,1.667,1.813,10.291,10.291,0,0,1,1.247,2.1,7.387,7.387,0,0,1,.527,1.772l16.5,5.236a1.322,1.322,0,0,1,.934,1.173l.442,8.557a1.267,1.267,0,0,1-.552,1.109,1.391,1.391,0,0,1-1.267.166l-14.5-5.13,16.053,9.8a1.3,1.3,0,0,1,.628,1.037l.406,7.84a1.27,1.27,0,0,1-.681,1.188,1.367,1.367,0,0,1-.667.17" fill="#181617"/>
          <path id="Path_16145" data-name="Path 16145" d="M33.949,66.434a1.085,1.085,0,0,0,.067.3,1.008,1.008,0,0,0,.134.238,1.367,1.367,0,0,0,.233.228,2.893,2.893,0,0,0,.356.236L67.252,86.025l.15.08-.219-3.679a1.658,1.658,0,0,0-.067-.4.756.756,0,0,0-.131-.241,1.3,1.3,0,0,0-.267-.243,5.052,5.052,0,0,0-.487-.3L33.648,62.854Zm41.51,33.735c-.1,0-.2,0-.3-.01a7.325,7.325,0,0,1-1.923-.43,18.268,18.268,0,0,1-3.115-1.5l-38.4-22.463a18.464,18.464,0,0,1-2.769-1.977,14.39,14.39,0,0,1-2.2-2.389,12.171,12.171,0,0,1-1.522-2.8,11.87,11.87,0,0,1-.731-3.187L23.459,53.854a6.709,6.709,0,0,1,.225-2.808A2.492,2.492,0,0,1,25.1,49.478a2.986,2.986,0,0,1,1.135-.206,5.009,5.009,0,0,1,1.149.146,11.589,11.589,0,0,1,2.8,1.159L69.207,72.058a23.268,23.268,0,0,1,3.177,2.083,17.129,17.129,0,0,1,2.745,2.669,13.124,13.124,0,0,1,1.982,3.318,12.217,12.217,0,0,1,.879,3.986l.59,11.4a6,6,0,0,1-.543,3.262,2.678,2.678,0,0,1-2.044,1.361,3.828,3.828,0,0,1-.534.037" fill="#fff"/>
          <path id="Path_16146" data-name="Path 16146" d="M67.295,85.942c-.047-.025-.1-.054-.141-.08l-32.37-18.5a2.957,2.957,0,0,1-.343-.227,1.369,1.369,0,0,1-.217-.21.868.868,0,0,1-.122-.215.944.944,0,0,1-.061-.279l-.285-3.4,32.43,18.293a5.189,5.189,0,0,1,.478.3,1.362,1.362,0,0,1,.249.225.719.719,0,0,1,.113.212,1.534,1.534,0,0,1,.065.38ZM26.232,49.179a3.052,3.052,0,0,0-1.169.213,2.579,2.579,0,0,0-1.469,1.625,6.762,6.762,0,0,0-.227,2.844l1.04,11.565a11.975,11.975,0,0,0,.739,3.213,12.2,12.2,0,0,0,1.533,2.816,14.427,14.427,0,0,0,2.209,2.407,18.366,18.366,0,0,0,2.784,1.987L70.077,98.313a18.722,18.722,0,0,0,3.127,1.5,7.453,7.453,0,0,0,1.952.434c.1.005.205.01.3.01a4.065,4.065,0,0,0,.55-.036,2.775,2.775,0,0,0,2.109-1.41,6.076,6.076,0,0,0,.557-3.313l-.591-11.395a12.217,12.217,0,0,0-.888-4.015A13.228,13.228,0,0,0,75.2,76.752a17.189,17.189,0,0,0-2.759-2.685,23.667,23.667,0,0,0-3.19-2.088L30.228,50.5A11.63,11.63,0,0,0,27.4,49.328a5.081,5.081,0,0,0-1.169-.149M67.5,86.27l-.018-.338-.207-3.512a1.56,1.56,0,0,0-.074-.427.846.846,0,0,0-.144-.269,1.336,1.336,0,0,0-.284-.261c-.152-.108-.328-.213-.5-.31L33.844,62.861l-.306-.175.032.353.285,3.4a1.255,1.255,0,0,0,.073.333,1.094,1.094,0,0,0,.149.261,1.64,1.64,0,0,0,.249.241,3.538,3.538,0,0,0,.364.243L67.062,86.026l.144.082Zm-41.27-36.9a5.024,5.024,0,0,1,1.128.144,11.349,11.349,0,0,1,2.777,1.152l39.024,21.48a23.547,23.547,0,0,1,3.167,2.072,17.064,17.064,0,0,1,2.728,2.657,12.982,12.982,0,0,1,1.966,3.292,12.086,12.086,0,0,1,.875,3.957l.591,11.394a5.915,5.915,0,0,1-.533,3.211,2.594,2.594,0,0,1-1.974,1.317,3.854,3.854,0,0,1-.523.033c-.094,0-.191,0-.291-.008a7.255,7.255,0,0,1-1.9-.423,18.256,18.256,0,0,1-3.1-1.492l-38.4-22.464a18.209,18.209,0,0,1-2.756-1.965,14.475,14.475,0,0,1-2.183-2.374,12.277,12.277,0,0,1-1.509-2.774,11.87,11.87,0,0,1-.726-3.164L23.552,53.846a6.547,6.547,0,0,1,.22-2.767,2.394,2.394,0,0,1,1.361-1.515,2.905,2.905,0,0,1,1.1-.2" fill="#181617"/>
          <path id="Path_16147" data-name="Path 16147" d="M33.884,63.219l.266,3.195a.883.883,0,0,0,.055.251.786.786,0,0,0,.1.186,1.473,1.473,0,0,0,.2.194,2.811,2.811,0,0,0,.33.214L67.176,85.748l-.2-3.31a1.231,1.231,0,0,0-.057-.351.54.54,0,0,0-.094-.178A1.186,1.186,0,0,0,66.6,81.7c-.113-.08-.254-.167-.472-.293ZM67.417,86.136l-.317-.178L34.731,67.451a2.565,2.565,0,0,1-.357-.234,1.382,1.382,0,0,1-.234-.23A.939.939,0,0,1,34,66.746a1.258,1.258,0,0,1-.067-.313l-.3-3.61.18.1L66.239,81.219a5.712,5.712,0,0,1,.489.306,1.385,1.385,0,0,1,.273.249.785.785,0,0,1,.13.243,1.584,1.584,0,0,1,.069.408ZM26.233,49.288a2.971,2.971,0,0,0-1.13.205,2.482,2.482,0,0,0-1.4,1.559,6.649,6.649,0,0,0-.225,2.8l1.042,11.567a12.017,12.017,0,0,0,.73,3.185,12.313,12.313,0,0,0,1.52,2.79,14.273,14.273,0,0,0,2.2,2.386,17.767,17.767,0,0,0,2.763,1.973L70.133,98.218a18.349,18.349,0,0,0,3.11,1.495,7.125,7.125,0,0,0,1.92.428,3.708,3.708,0,0,0,.827-.025,2.662,2.662,0,0,0,2.031-1.353,5.977,5.977,0,0,0,.541-3.255l-.589-11.392a12.153,12.153,0,0,0-.878-3.984,13.1,13.1,0,0,0-1.979-3.309,16.933,16.933,0,0,0-2.742-2.668A23.486,23.486,0,0,0,69.2,72.074L30.174,50.591a11.684,11.684,0,0,0-2.8-1.156,4.986,4.986,0,0,0-1.144-.147m49.226,51.084c-.1,0-.207,0-.311-.01a7.419,7.419,0,0,1-1.979-.44,18.752,18.752,0,0,1-3.148-1.513l-38.4-22.467a18.263,18.263,0,0,1-2.8-2,14.333,14.333,0,0,1-2.226-2.424A12.088,12.088,0,0,1,24.3,65.436L23.255,53.871a6.9,6.9,0,0,1,.236-2.892,2.688,2.688,0,0,1,1.531-1.688,3.917,3.917,0,0,1,2.407-.07,11.79,11.79,0,0,1,2.853,1.18L69.3,71.881a23.724,23.724,0,0,1,3.206,2.1,17.241,17.241,0,0,1,2.777,2.7A13.344,13.344,0,0,1,77.3,80.051a12.475,12.475,0,0,1,.895,4.054L78.785,95.5a6.2,6.2,0,0,1-.573,3.374,2.875,2.875,0,0,1-2.191,1.465,4.278,4.278,0,0,1-.562.037" fill="#181617"/>
          <path id="Path_16148" data-name="Path 16148" d="M210.588,29.942a2.6,2.6,0,0,0,.955-1.038,3.17,3.17,0,0,0,.346-1.5,1.853,1.853,0,0,0-.533-1.418,2.094,2.094,0,0,0-1.5-.508,2.586,2.586,0,0,0-1.379.375,2.629,2.629,0,0,0-.963,1.04,3.178,3.178,0,0,0-.351,1.5,1.851,1.851,0,0,0,.537,1.42,2.111,2.111,0,0,0,1.509.508,2.564,2.564,0,0,0,1.381-.382m1.181-4.311a2.286,2.286,0,0,1,.682,1.743,3.665,3.665,0,0,1-.423,1.766,3.138,3.138,0,0,1-1.166,1.232,3.171,3.171,0,0,1-1.666.446,2.643,2.643,0,0,1-1.47-.379,1.972,1.972,0,0,1-.8-1.094l-.714,3.563h-.55l1.574-7.877h.537l-.219,1.113a2.865,2.865,0,0,1,1.035-.854,3.065,3.065,0,0,1,1.373-.3,2.525,2.525,0,0,1,1.8.643" fill="#161615"/>
          <path id="Path_16149" data-name="Path 16149" d="M217.616,29.949a2.6,2.6,0,0,0,.961-1.038,3.156,3.156,0,0,0,.354-1.5,1.865,1.865,0,0,0-.535-1.42,2.086,2.086,0,0,0-1.5-.505,2.563,2.563,0,0,0-1.381.379,2.647,2.647,0,0,0-.961,1.043A3.127,3.127,0,0,0,214.2,28.4a1.859,1.859,0,0,0,.533,1.417,2.093,2.093,0,0,0,1.5.508,2.606,2.606,0,0,0,1.381-.374m-3.278.22a2.275,2.275,0,0,1-.687-1.738,3.637,3.637,0,0,1,.423-1.761,3.176,3.176,0,0,1,2.865-1.683,2.6,2.6,0,0,1,1.853.643,2.278,2.278,0,0,1,.69,1.746,3.683,3.683,0,0,1-.426,1.766,3.114,3.114,0,0,1-1.17,1.23,3.258,3.258,0,0,1-1.7.446,2.589,2.589,0,0,1-1.853-.649" fill="#161615"/>
          <path id="Path_16150" data-name="Path 16150" d="M230.019,25.032l-3.245,5.742h-.528L225.2,25.781l-2.86,4.993h-.529l-1.142-5.742h.5l1,5.126,2.914-5.126h.475l1.032,5.116,2.881-5.116Z" fill="#161615"/>
          <path id="Path_16151" data-name="Path 16151" d="M231.564,26.045a2.735,2.735,0,0,0-.883,1.551H235.1c.007-.067.01-.162.01-.287a1.758,1.758,0,0,0-.527-1.359,1.994,1.994,0,0,0-1.409-.488,2.388,2.388,0,0,0-1.612.583m-.95,1.979c-.015.162-.023.282-.023.364a1.86,1.86,0,0,0,.541,1.436,2.25,2.25,0,0,0,1.584.5,2.924,2.924,0,0,0,1.114-.2,2.314,2.314,0,0,0,.855-.564l.253.385a2.55,2.55,0,0,1-.984.647,3.548,3.548,0,0,1-1.282.231,2.751,2.751,0,0,1-1.922-.637,2.28,2.28,0,0,1-.7-1.771,3.721,3.721,0,0,1,.407-1.749,3.127,3.127,0,0,1,1.12-1.227,2.984,2.984,0,0,1,1.607-.443,2.458,2.458,0,0,1,1.784.635,2.341,2.341,0,0,1,.659,1.761,3.763,3.763,0,0,1-.067.638Z" fill="#161615"/>
          <path id="Path_16152" data-name="Path 16152" d="M239.363,25.3a3.13,3.13,0,0,1,1.459-.313l-.1.539-.177-.013a2.273,2.273,0,0,0-1.6.584,3.142,3.142,0,0,0-.859,1.727l-.594,2.948h-.552l1.146-5.741h.539l-.241,1.209a2.509,2.509,0,0,1,.984-.94" fill="#161615"/>
          <path id="Path_16153" data-name="Path 16153" d="M242.762,26.045a2.735,2.735,0,0,0-.883,1.551H246.3c.007-.067.01-.162.01-.287a1.758,1.758,0,0,0-.527-1.359,1.994,1.994,0,0,0-1.409-.488,2.386,2.386,0,0,0-1.612.583m-.95,1.979c-.015.162-.023.282-.023.364a1.86,1.86,0,0,0,.541,1.436,2.25,2.25,0,0,0,1.584.5,2.924,2.924,0,0,0,1.114-.2,2.314,2.314,0,0,0,.855-.564l.253.385a2.55,2.55,0,0,1-.984.647,3.547,3.547,0,0,1-1.282.231,2.751,2.751,0,0,1-1.922-.637,2.28,2.28,0,0,1-.7-1.771,3.721,3.721,0,0,1,.407-1.749,3.127,3.127,0,0,1,1.12-1.227,2.984,2.984,0,0,1,1.607-.443,2.459,2.459,0,0,1,1.784.635,2.341,2.341,0,0,1,.659,1.761,3.763,3.763,0,0,1-.067.638Z" fill="#161615"/>
          <path id="Path_16154" data-name="Path 16154" d="M252.015,29.948a2.621,2.621,0,0,0,.963-1.039,3.176,3.176,0,0,0,.351-1.5,1.858,1.858,0,0,0-.533-1.417,2.088,2.088,0,0,0-1.5-.508,2.575,2.575,0,0,0-1.381.38,2.686,2.686,0,0,0-.961,1.045A3.127,3.127,0,0,0,248.6,28.4a1.862,1.862,0,0,0,.535,1.419,2.1,2.1,0,0,0,1.5.5,2.583,2.583,0,0,0,1.379-.373m2.865-7.336-1.628,8.164h-.528l.221-1.123a2.928,2.928,0,0,1-1.04.856,3.041,3.041,0,0,1-1.382.31,2.49,2.49,0,0,1-1.8-.647,2.286,2.286,0,0,1-.677-1.741,3.7,3.7,0,0,1,.418-1.766,3.112,3.112,0,0,1,1.161-1.232,3.172,3.172,0,0,1,1.666-.445,2.637,2.637,0,0,1,1.474.384,1.905,1.905,0,0,1,.792,1.1l.769-3.861Z" fill="#161615"/>
          <path id="Path_16155" data-name="Path 16155" d="M263.325,29.942a2.6,2.6,0,0,0,.955-1.038,3.17,3.17,0,0,0,.346-1.5,1.853,1.853,0,0,0-.533-1.418,2.094,2.094,0,0,0-1.5-.508,2.586,2.586,0,0,0-1.379.375,2.629,2.629,0,0,0-.963,1.04,3.178,3.178,0,0,0-.351,1.5,1.851,1.851,0,0,0,.537,1.42,2.111,2.111,0,0,0,1.509.508,2.564,2.564,0,0,0,1.381-.382m1.181-4.311a2.286,2.286,0,0,1,.682,1.743,3.665,3.665,0,0,1-.423,1.766,3.139,3.139,0,0,1-1.166,1.232,3.171,3.171,0,0,1-1.666.446,2.6,2.6,0,0,1-1.485-.392,1.935,1.935,0,0,1-.794-1.114l-.287,1.463h-.539l1.63-8.163h.549l-.691,3.5a2.81,2.81,0,0,1,1.027-.83,3.1,3.1,0,0,1,1.358-.292,2.525,2.525,0,0,1,1.805.643" fill="#161615"/>
          <path id="Path_16156" data-name="Path 16156" d="M272.074,25.032l-4.29,6.59a3.479,3.479,0,0,1-.921,1.037,1.787,1.787,0,0,1-1.027.293,2.145,2.145,0,0,1-.749-.131,1.3,1.3,0,0,1-.548-.374l.317-.408a1.321,1.321,0,0,0,1.036.429,1.261,1.261,0,0,0,.72-.218,2.8,2.8,0,0,0,.687-.772l.485-.725-1.454-5.721h.562l1.288,5.136,3.322-5.136Z" fill="#161615"/>
          <path id="Path_16157" data-name="Path 16157" d="M373.181,22.61,310.745,56.826h25a86.226,86.226,0,0,0,7.019,85.237C335.323,97.43,353.556,54.215,373.181,22.61" fill="#d30d1c"/>
          <path id="Path_16158" data-name="Path 16158" d="M205.2,36.745h27.453v8.122H215.044v10.42h15.667v7.474H215.044V81.519H205.2Z" fill="#151614"/>
          <path id="Path_16159" data-name="Path 16159" d="M256.341,64.7,252.6,53.2c-.863-2.658-1.725-5.246-2.228-7.329h-.144c-.575,2.012-1.437,4.744-2.3,7.329l-3.879,11.5ZM245.13,36.745h10.994l16.388,44.774H261.8l-2.875-8.913H241.464l-3.018,8.913H228.312Z" fill="#151614"/>
          <path id="Path_16160" data-name="Path 16160" d="M291.692,73.829c4.385,0,6.756-2.012,6.756-5.965,0-4.024-2.227-6.109-6.683-6.109h-6.18V73.829ZM291.477,55c4.457,0,6.324-2.011,6.324-5.462,0-3.09-1.939-5.1-6.252-5.1h-5.964V55ZM275.739,36.745h17.033c9.7,0,14.947,4.6,14.947,11.427,0,5.534-3.377,8.912-7.043,9.917v.145c4.816,1.077,8.409,4.454,8.409,10.278,0,8.192-6.181,13.007-15.882,13.007H275.739Z" fill="#151614"/>
          <path id="Path_16161" data-name="Path 16161" d="M207.893,89.048h4.883l5.054,14.188c2.988,8.445,6.837,19.7,6.837,19.7s3.964-10.915,7.238-19.7l5.284-14.188h4.884l3.274,38.718h-3.562l-1.322-15.338c-.8-9.192-1.55-18.727-1.55-18.727s-3.447,9.593-6.836,18.727l-5.342,14.36h-4.194l-5.055-14.36L211.053,94.1s-.518,8.675-1.207,18.325l-1.092,15.338h-3.561Z" fill="#151614"/>
          <rect id="Rectangle_17894" data-name="Rectangle 17894" width="3.562" height="38.718" transform="translate(250.171 89.048)" fill="#151614"/>
          <path id="Path_16162" data-name="Path 16162" d="M278.607,94.39a15.95,15.95,0,0,0-7.985-2.184c-5.171,0-8.445,2.644-8.445,6.607,0,4.366,4.021,6.089,8.387,7.985,4.94,2.125,10.284,4.424,10.284,10.972,0,7.009-5.4,10.4-12.064,10.4a20.388,20.388,0,0,1-10.169-2.527v-3.964a17.5,17.5,0,0,0,10,3.045c5.342,0,8.617-2.356,8.617-6.894,0-3.734-3.1-5.514-6.721-7.123-5.4-2.412-12.006-4.423-12.006-11.661,0-6.837,5.744-10.341,12.063-10.341a17.923,17.923,0,0,1,8.043,1.724Z" fill="#151614"/>
          <path id="Path_16163" data-name="Path 16163" d="M294.691,108.866c5.916,0,8.846-3.79,8.846-8.214,0-5.514-2.987-8.444-9.535-8.444h-5.573v16.658Zm10.4,18.9-9.708-15.74h-6.951v15.74h-3.561V89.048H293.6c9.248,0,13.5,4.482,13.5,11.777-.173,5.055-2.816,9.133-8.042,10.569l10.282,16.372Z" fill="#151614"/>
          <rect id="Rectangle_17895" data-name="Rectangle 17895" width="1.185" height="49.339" transform="translate(181.347 60.481)" fill="#1a1818" stroke="#161615" stroke-width="0.5"/>
        </g>
      </g>
    </g>
  </g>
</svg>
