<svg id="Group_42121" data-name="Group 42121" xmlns="http://www.w3.org/2000/svg" width="379.738" height="169.933" viewBox="0 0 379.738 169.933">
  <path id="Path_15815" data-name="Path 15815" d="M236.25,89.827,231.9,101.508c.96.649,1.915,1.258,2.866,1.835,1.85-5.077,3.21-8.86,3.21-8.86s.388,4.959.906,11.167c1.259.644,2.506,1.226,3.741,1.756l-1.487-17.579Z" fill="#161615"/>
  <path id="Path_15816" data-name="Path 15816" d="M249.24,89.827V109.79q1.811.531,3.564.922V89.827Z" fill="#161615"/>
  <path id="Path_15817" data-name="Path 15817" d="M261.253,99.6c0-3.966,3.276-6.61,8.449-6.61a15.953,15.953,0,0,1,7.99,2.184V91.208a17.908,17.908,0,0,0-8.047-1.725c-6.323,0-12.071,3.506-12.071,10.346,0,7.242,6.611,9.254,12.013,11.668l.538.243a49.866,49.866,0,0,0,5.736-.934,32.311,32.311,0,0,0-6.216-3.217c-4.368-1.9-8.392-3.621-8.392-7.99" fill="#161615"/>
  <path id="Path_15818" data-name="Path 15818" d="M283.957,89.827v17.94c.931-.648,2.145-1.574,3.564-2.719V92.989H293.1a11.625,11.625,0,0,1,6.356,1.5q1.206-1.149,2.411-2.335c-2.187-1.5-5.218-2.328-9.17-2.328Z" fill="#161615"/>
  <path id="Path_15819" data-name="Path 15819" d="M239.527,113.221l1.322,15.347h3.563l-1.789-21.162c-1.235-.53-2.482-1.112-3.742-1.756.2,2.409.421,5,.646,7.571" fill="#161615"/>
  <path id="Path_15820" data-name="Path 15820" d="M230.962,104.024c-3.277,8.794-7.242,19.715-7.242,19.715s-3.851-11.265-6.841-19.715l-5.057-14.2h-4.886l-2.7,38.741H207.8l1.092-15.347c.69-9.656,1.207-18.336,1.207-18.336l6.438,18.336,5.058,14.369h4.2l5.345-14.369c1.263-3.4,2.533-6.867,3.631-9.878-.951-.577-1.906-1.186-2.866-1.835Z" fill="#161615"/>
  <path id="Path_15821" data-name="Path 15821" d="M249.24,128.568H252.8V110.712q-1.752-.39-3.564-.922Z" fill="#161615"/>
  <path id="Path_15822" data-name="Path 15822" d="M276.313,118.624c0,4.541-3.277,6.9-8.622,6.9a17.505,17.505,0,0,1-10-3.046v3.966a20.385,20.385,0,0,0,10.174,2.529c6.667,0,12.07-3.391,12.07-10.4a9.032,9.032,0,0,0-4.073-7.762,49.815,49.815,0,0,1-5.736.935c3.385,1.55,6.188,3.335,6.188,6.884" fill="#161615"/>
  <path id="Path_15823" data-name="Path 15823" d="M302.637,101.438c0,4.427-2.932,8.22-8.852,8.22H287.52v-4.609c-1.419,1.145-2.633,2.071-3.564,2.719v20.8h3.564v-15.75h6.955l9.714,15.75h4.253l-10.289-16.382c5.231-1.437,7.875-5.518,8.048-10.575,0-4.184-1.4-7.436-4.339-9.456q-1.2,1.184-2.411,2.335c2.156,1.39,3.186,3.723,3.186,6.947" fill="#161615"/>
  <path id="Path_15824" data-name="Path 15824" d="M206.97,29.088a1.971,1.971,0,0,0,.8,1.1,2.641,2.641,0,0,0,1.47.379,3.145,3.145,0,0,0,2.834-1.68,3.677,3.677,0,0,0,.422-1.767,2.289,2.289,0,0,0-.682-1.744,2.526,2.526,0,0,0-1.806-.643,3.069,3.069,0,0,0-1.374.3,2.885,2.885,0,0,0-1.036.854l.22-1.113h-.537l-1.576,7.882h.552Zm.585-2.449a2.646,2.646,0,0,1,.963-1.041,2.59,2.59,0,0,1,1.38-.375,2.1,2.1,0,0,1,1.5.508,1.857,1.857,0,0,1,.533,1.419,3.178,3.178,0,0,1-.345,1.5,2.621,2.621,0,0,1-.957,1.038,2.562,2.562,0,0,1-1.381.382,2.11,2.11,0,0,1-1.509-.508,1.847,1.847,0,0,1-.539-1.42,3.181,3.181,0,0,1,.352-1.5" fill="#161615"/>
  <path id="Path_15825" data-name="Path 15825" d="M216.239,30.563a3.253,3.253,0,0,0,1.7-.446,3.124,3.124,0,0,0,1.172-1.232,3.679,3.679,0,0,0,.426-1.767,2.281,2.281,0,0,0-.69-1.746,2.6,2.6,0,0,0-1.854-.644,3.172,3.172,0,0,0-2.867,1.685,3.638,3.638,0,0,0-.424,1.762,2.281,2.281,0,0,0,.688,1.739,2.592,2.592,0,0,0,1.854.649M214.6,26.649a2.651,2.651,0,0,1,.962-1.044,2.556,2.556,0,0,1,1.382-.38,2.085,2.085,0,0,1,1.5.506,1.863,1.863,0,0,1,.536,1.42,3.152,3.152,0,0,1-.354,1.5,2.581,2.581,0,0,1-2.344,1.414,2.1,2.1,0,0,1-1.5-.509,1.859,1.859,0,0,1-.533-1.417,3.125,3.125,0,0,1,.353-1.493" fill="#161615"/>
  <path id="Path_15826" data-name="Path 15826" d="M222.392,30.517l2.862-4.995,1.047,4.995h.528l3.246-5.745h-.541l-2.882,5.12-1.034-5.12h-.475l-2.915,5.13-1-5.13h-.505l1.144,5.745Z" fill="#161615"/>
  <path id="Path_15827" data-name="Path 15827" d="M232.73,30.562a3.54,3.54,0,0,0,1.282-.231,2.567,2.567,0,0,0,.985-.648l-.254-.385a2.318,2.318,0,0,1-.854.564,2.928,2.928,0,0,1-1.116.2,2.251,2.251,0,0,1-1.584-.5,1.863,1.863,0,0,1-.541-1.437c0-.082.007-.2.023-.364h4.952a3.762,3.762,0,0,0,.067-.639,2.341,2.341,0,0,0-.659-1.761,2.463,2.463,0,0,0-1.785-.637,2.987,2.987,0,0,0-1.609.444,3.137,3.137,0,0,0-1.12,1.228,3.711,3.711,0,0,0-.408,1.75,2.278,2.278,0,0,0,.7,1.772,2.747,2.747,0,0,0,1.923.638m-1.108-4.775a2.386,2.386,0,0,1,1.613-.584,1.992,1.992,0,0,1,1.408.489,1.756,1.756,0,0,1,.529,1.359,2.639,2.639,0,0,1-.011.288h-4.423a2.727,2.727,0,0,1,.884-1.552" fill="#161615"/>
  <path id="Path_15828" data-name="Path 15828" d="M238.143,27.569A3.139,3.139,0,0,1,239,25.84a2.274,2.274,0,0,1,1.606-.584l.177.013.1-.539a3.14,3.14,0,0,0-1.46.313,2.5,2.5,0,0,0-.984.941l.241-1.21h-.539L237,30.518h.552Z" fill="#161615"/>
  <path id="Path_15829" data-name="Path 15829" d="M243.934,30.562a3.54,3.54,0,0,0,1.282-.231,2.575,2.575,0,0,0,.985-.648l-.254-.385a2.318,2.318,0,0,1-.854.564,2.926,2.926,0,0,1-1.115.2,2.252,2.252,0,0,1-1.585-.5,1.863,1.863,0,0,1-.541-1.437c0-.082.007-.2.023-.364h4.952a3.762,3.762,0,0,0,.067-.639,2.338,2.338,0,0,0-.66-1.761,2.459,2.459,0,0,0-1.784-.637,2.987,2.987,0,0,0-1.609.444,3.137,3.137,0,0,0-1.12,1.228,3.723,3.723,0,0,0-.408,1.75,2.278,2.278,0,0,0,.7,1.772,2.747,2.747,0,0,0,1.923.638m-1.108-4.775a2.386,2.386,0,0,1,1.613-.584,1.992,1.992,0,0,1,1.408.489,1.756,1.756,0,0,1,.529,1.359c0,.126,0,.221-.01.288h-4.425a2.734,2.734,0,0,1,.885-1.552" fill="#161615"/>
  <path id="Path_15830" data-name="Path 15830" d="M250.591,30.563a3.035,3.035,0,0,0,1.382-.31,2.919,2.919,0,0,0,1.042-.857l-.221,1.124h.528l1.629-8.169H254.4l-.769,3.863a1.905,1.905,0,0,0-.792-1.1,2.632,2.632,0,0,0-1.475-.385,3.173,3.173,0,0,0-1.667.446,3.114,3.114,0,0,0-1.162,1.232,3.709,3.709,0,0,0-.418,1.767,2.29,2.29,0,0,0,.677,1.743,2.5,2.5,0,0,0,1.8.647m-1.572-3.914a2.685,2.685,0,0,1,.962-1.046,2.579,2.579,0,0,1,1.382-.38,2.089,2.089,0,0,1,1.5.509,1.855,1.855,0,0,1,.533,1.417,3.18,3.18,0,0,1-.351,1.5,2.612,2.612,0,0,1-.965,1.039,2.573,2.573,0,0,1-1.379.375,2.089,2.089,0,0,1-1.5-.506,1.86,1.86,0,0,1-.536-1.421,3.126,3.126,0,0,1,.354-1.49" fill="#161615"/>
  <path id="Path_15831" data-name="Path 15831" d="M259.728,29.055a1.938,1.938,0,0,0,.794,1.116,2.6,2.6,0,0,0,1.486.392,3.142,3.142,0,0,0,2.833-1.68,3.655,3.655,0,0,0,.423-1.767,2.289,2.289,0,0,0-.682-1.744,2.526,2.526,0,0,0-1.806-.643,3.108,3.108,0,0,0-1.359.292,2.822,2.822,0,0,0-1.028.831l.692-3.5h-.548L258.9,30.519h.539Zm.6-2.416a2.653,2.653,0,0,1,.963-1.041,2.6,2.6,0,0,1,1.381-.375,2.094,2.094,0,0,1,1.5.508,1.857,1.857,0,0,1,.533,1.419,3.19,3.19,0,0,1-.345,1.5,2.614,2.614,0,0,1-.957,1.038,2.565,2.565,0,0,1-1.382.382,2.111,2.111,0,0,1-1.509-.508,1.85,1.85,0,0,1-.538-1.42,3.181,3.181,0,0,1,.352-1.5" fill="#161615"/>
  <path id="Path_15832" data-name="Path 15832" d="M266.69,32a1.261,1.261,0,0,1-.72.218,1.322,1.322,0,0,1-1.037-.429l-.318.408a1.305,1.305,0,0,0,.549.375,2.147,2.147,0,0,0,.75.13,1.785,1.785,0,0,0,1.027-.292,3.5,3.5,0,0,0,.921-1.038l4.293-6.594h-.572l-3.323,5.139-1.29-5.139h-.562l1.454,5.724-.485.726a2.8,2.8,0,0,1-.687.772" fill="#161615"/>
  <path id="Path_15833" data-name="Path 15833" d="M373.323,22.35,310.85,56.587h25.019a86.242,86.242,0,0,0-6.321,19.087,63,63,0,0,1,17.89,3.334c6.056-21.034,15.781-40.386,25.885-56.658" fill="#fff"/>
  <path id="Path_15834" data-name="Path 15834" d="M347.605,79.327l-.247-.082a62.536,62.536,0,0,0-17.817-3.322l-.3-.007.06-.293a86.6,86.6,0,0,1,6.175-18.787h-25.6l64.165-35.164-.5.809c-11.83,19.052-20.53,38.094-25.858,56.6Zm-17.752-3.9a63.247,63.247,0,0,1,17.416,3.257c5.271-18.206,13.795-36.929,25.342-55.664L311.826,56.336h24.435l-.166.356a86.1,86.1,0,0,0-6.242,18.739" fill="#d30d1c"/>
  <path id="Path_15835" data-name="Path 15835" d="M215.092,62.525h15.676V55.046H215.092V44.619h17.617V36.493H205.24v44.8h9.852Z" fill="#fff"/>
  <path id="Path_15836" data-name="Path 15836" d="M215.342,81.544H204.989v-45.3h27.97V44.87H215.342V54.8h15.675v7.979H215.342Zm-9.853-.5h9.353V62.275h15.675V55.3H214.842V44.37h17.617V36.743h-26.97Z" fill="#151614"/>
  <path id="Path_15837" data-name="Path 15837" d="M228.368,81.295h10.14l3.02-8.918H259l2.877,8.918h10.714l-16.4-44.8h-11ZM250.3,45.627h.144c.5,2.085,1.366,4.673,2.229,7.334l3.739,11.507h-12.3L248,52.961c.864-2.588,1.727-5.321,2.3-7.334" fill="#fff"/>
  <path id="Path_15838" data-name="Path 15838" d="M272.95,81.545H261.7l-.056-.175-2.821-8.743H241.707l-3.019,8.918H228.006l17.017-45.3h11.348l.06.165Zm-10.889-.5h10.175l-16.214-44.3H245.368l-16.639,44.3h9.6l3.02-8.918h17.836l.056.173Zm-5.3-16.328H243.769l3.993-11.836c.912-2.735,1.75-5.4,2.3-7.323l.051-.181h.53l.046.192c.447,1.854,1.177,4.1,1.95,6.473Zm-12.29-.5h11.6L252.163,52.2c-.691-2.122-1.347-4.139-1.8-5.878-.545,1.858-1.3,4.264-2.124,6.721Z" fill="#151614"/>
  <path id="Path_15839" data-name="Path 15839" d="M309.189,68.279c0-5.827-3.6-9.206-8.414-10.283V57.85c3.668-1.006,7.046-4.386,7.046-9.923,0-6.832-5.248-11.434-14.955-11.434H275.823v44.8H293.3c9.707,0,15.892-4.818,15.892-13.015M285.675,44.187h5.968c4.315,0,6.255,2.014,6.255,5.106,0,3.453-1.869,5.465-6.328,5.465h-5.9Zm0,29.412V61.518h6.184c4.458,0,6.687,2.086,6.687,6.113,0,3.955-2.373,5.968-6.761,5.968Z" fill="#fff"/>
  <path id="Path_15840" data-name="Path 15840" d="M293.3,81.545H275.572v-45.3h17.293c9.522,0,15.206,4.369,15.206,11.685a10.089,10.089,0,0,1-6.627,9.975,10.128,10.128,0,0,1,7.995,10.377c0,8.182-6.186,13.265-16.143,13.265m-17.224-.5H293.3c9.649,0,15.643-4.891,15.643-12.765,0-5.213-2.995-8.872-8.219-10.04l-.2-.043V57.66l.183-.05c3.166-.869,6.863-3.925,6.863-9.682,0-7-5.5-11.185-14.706-11.185H276.072Zm15.713-7.195h-6.36V61.268h6.434c4.538,0,6.936,2.2,6.936,6.364,0,4.068-2.424,6.218-7.01,6.218m-5.86-.5h5.86c4.32,0,6.51-1.925,6.51-5.718,0-3.891-2.166-5.864-6.436-5.864h-5.934Zm5.646-18.342h-6.146V43.938h6.218c4.194,0,6.505,1.9,6.505,5.356,0,3.792-2.213,5.714-6.577,5.714m-5.646-.5h5.646c4.088,0,6.077-1.7,6.077-5.214,0-3.177-2.077-4.856-6.005-4.856h-5.718Z" fill="#151614"/>
  <path id="Path_15841" data-name="Path 15841" d="M237.25,88.827,232.9,100.508c.96.649,1.915,1.258,2.866,1.835,1.85-5.077,3.21-8.86,3.21-8.86s.388,4.959.906,11.167c1.259.644,2.506,1.226,3.741,1.756l-1.487-17.579Z" fill="#fff"/>
  <path id="Path_15842" data-name="Path 15842" d="M243.906,106.8l-.383-.165c-1.273-.547-2.537-1.14-3.756-1.763l-.124-.063-.011-.138c-.368-4.412-.671-8.193-.816-10.012-.532,1.476-1.561,4.325-2.816,7.769l-.1.286-.26-.158c-.987-.6-1.954-1.217-2.875-1.841l-.163-.11,4.479-12.028h5.289Zm-3.788-2.31c1.049.533,2.129,1.042,3.22,1.52l-1.432-16.933h-4.482L233.2,100.412c.784.527,1.6,1.05,2.432,1.559,1.8-4.931,3.1-8.572,3.1-8.572l.394-1.1.09,1.16s.383,4.885.895,11.027" fill="#151614"/>
  <path id="Path_15843" data-name="Path 15843" d="M250.24,88.827V108.79q1.811.531,3.564.922V88.827Z" fill="#fff"/>
  <path id="Path_15844" data-name="Path 15844" d="M254.053,110.024l-.3-.067c-1.166-.261-2.37-.572-3.579-.927l-.18-.052v-20.4h4.063ZM250.49,108.6c1.033.3,2.062.566,3.063.8V89.077H250.49Z" fill="#151614"/>
  <path id="Path_15845" data-name="Path 15845" d="M262.253,98.6c0-3.966,3.276-6.61,8.449-6.61a15.953,15.953,0,0,1,7.99,2.184V90.208a17.908,17.908,0,0,0-8.047-1.725c-6.323,0-12.071,3.506-12.071,10.346,0,7.242,6.611,9.254,12.013,11.668l.538.243a49.866,49.866,0,0,0,5.736-.934,32.311,32.311,0,0,0-6.216-3.217c-4.368-1.9-8.392-3.621-8.392-7.99" fill="#fff"/>
  <path id="Path_15846" data-name="Path 15846" d="M271.082,111l-.061-.029c-.177-.081-.354-.162-.535-.242-.552-.247-1.116-.489-1.687-.734-4.91-2.108-10.475-4.5-10.475-11.162,0-5.275,3.809-10.6,12.322-10.6a17.893,17.893,0,0,1,8.163,1.755l.132.071v4.586l-.39-.264a15.664,15.664,0,0,0-7.849-2.142c-4.981,0-8.2,2.5-8.2,6.36,0,4.182,3.787,5.827,8.173,7.731l.069.029a32.5,32.5,0,0,1,6.262,3.245l.447.325-.539.121a50.008,50.008,0,0,1-5.764.939Zm-.436-22.264c-8.167,0-11.822,5.071-11.822,10.1,0,6.336,5.172,8.556,10.173,10.7.571.245,1.138.489,1.692.737.16.07.319.143.478.215a50.317,50.317,0,0,0,5.082-.8,35.525,35.525,0,0,0-5.7-2.866l-.069-.03C266.12,104.9,262,103.108,262,98.6c0-4.167,3.414-6.86,8.7-6.86a16.7,16.7,0,0,1,7.739,1.981V90.358a17.839,17.839,0,0,0-7.8-1.626" fill="#151614"/>
  <path id="Path_15847" data-name="Path 15847" d="M284.957,88.827v17.94c.931-.648,2.145-1.574,3.564-2.719V91.989H294.1a11.625,11.625,0,0,1,6.356,1.5q1.206-1.149,2.411-2.335c-2.187-1.5-5.218-2.328-9.17-2.328Z" fill="#fff"/>
  <path id="Path_15848" data-name="Path 15848" d="M284.707,107.246V88.577h8.986c3.891,0,7.024.8,9.311,2.373l.25.171-.216.213c-.8.789-1.609,1.571-2.414,2.338l-.143.135-.166-.106a11.44,11.44,0,0,0-6.219-1.462H288.77v11.928l-.092.075c-1.4,1.13-2.637,2.074-3.578,2.73Zm.5-18.169v17.207c.851-.611,1.9-1.416,3.063-2.356V91.739H294.1a12.159,12.159,0,0,1,6.323,1.437q1.024-.978,2.049-1.983a16.1,16.1,0,0,0-8.775-2.116Z" fill="#151614"/>
  <path id="Path_15849" data-name="Path 15849" d="M329.548,75.674a86.28,86.28,0,0,0,13.344,66.2c-3.616-21.68-1.168-43.022,4.546-62.867a62.989,62.989,0,0,0-17.89-3.334" fill="#d30d1c"/>
  <path id="Path_15850" data-name="Path 15850" d="M343.325,142.948l-.638-.931A86.958,86.958,0,0,1,329.3,75.623l.042-.2.209.005a63.025,63.025,0,0,1,17.963,3.347l.227.076-.066.23c-6.305,21.9-7.832,43.017-4.538,62.757ZM329.751,75.929a86.466,86.466,0,0,0,12.713,64.866c-3.053-19.422-1.484-40.148,4.667-61.625a62.568,62.568,0,0,0-17.38-3.241" fill="#d30d1c"/>
  <path id="Path_15851" data-name="Path 15851" d="M240.527,112.221l1.322,15.347h3.563l-1.789-21.162c-1.235-.53-2.482-1.112-3.742-1.756.2,2.409.421,5,.646,7.571" fill="#151614"/>
  <path id="Path_15852" data-name="Path 15852" d="M245.684,127.818h-4.065l-1.342-15.575c-.224-2.571-.444-5.163-.645-7.572l-.037-.448.4.2c1.21.618,2.463,1.206,3.727,1.749l.137.059Zm-3.606-.5h3.062l-1.754-20.742c-1.088-.47-2.168-.974-3.219-1.5.191,2.281.4,4.712.608,7.124h0Z" fill="#151614"/>
  <path id="Path_15853" data-name="Path 15853" d="M231.962,103.024c-3.277,8.794-7.242,19.715-7.242,19.715s-3.851-11.265-6.841-19.715l-5.057-14.2h-4.886l-2.7,38.741H208.8l1.092-15.347c.69-9.656,1.207-18.336,1.207-18.336l6.438,18.336,5.058,14.369h4.2l5.345-14.369c1.263-3.4,2.533-6.867,3.631-9.878-.951-.577-1.906-1.186-2.866-1.835Z" fill="#151614"/>
  <path id="Path_15854" data-name="Path 15854" d="M209.03,127.818h-4.063L207.7,88.577H213l.059.166,5.056,14.2c2.541,7.179,5.739,16.5,6.613,19.049.911-2.5,4.222-11.6,7-19.052l1.048-2.814.263.178c.915.619,1.875,1.234,2.856,1.828l.175.106-.07.193c-1.1,3.012-2.369,6.477-3.631,9.88l-5.406,14.532h-4.547l-11.143-31.7c-.168,2.74-.6,9.666-1.134,17.1Zm-3.528-.5h3.063l1.076-15.114c.681-9.545,1.2-18.247,1.207-18.334l.074-1.24,11.848,33.71h3.845l5.285-14.206c1.235-3.329,2.478-6.718,3.56-9.684-.833-.508-1.65-1.031-2.437-1.557l-.827,2.218c-3.238,8.693-7.2,19.605-7.241,19.714l-.242.667-.23-.671c-.039-.113-3.884-11.361-6.839-19.713l-5-14.031h-4.477Z" fill="#151614"/>
  <path id="Path_15855" data-name="Path 15855" d="M250.24,127.568H253.8V109.712q-1.752-.39-3.564-.922Z" fill="#151614"/>
  <path id="Path_15856" data-name="Path 15856" d="M254.053,127.818H249.99V108.457l.32.094c1.2.351,2.393.66,3.548.917l.195.044Zm-3.563-.5h3.063V109.912c-1-.227-2.029-.492-3.063-.789Z" fill="#151614"/>
  <path id="Path_15857" data-name="Path 15857" d="M277.313,117.624c0,4.541-3.277,6.9-8.622,6.9a17.505,17.505,0,0,1-10-3.046v3.966a20.385,20.385,0,0,0,10.174,2.529c6.667,0,12.07-3.391,12.07-10.4a9.032,9.032,0,0,0-4.073-7.762,49.815,49.815,0,0,1-5.736.935c3.385,1.55,6.188,3.335,6.188,6.884" fill="#151614"/>
  <path id="Path_15858" data-name="Path 15858" d="M268.863,128.221a20.5,20.5,0,0,1-10.3-2.565l-.12-.073v-4.615l.4.31a17.4,17.4,0,0,0,9.849,2.994c5.4,0,8.372-2.361,8.372-6.647,0-3.229-2.415-5-6.041-6.657l-.831-.381.909-.1a49.884,49.884,0,0,0,5.707-.93l.111-.025.09.067a9.21,9.21,0,0,1,4.177,7.964c0,6.571-4.722,10.653-12.321,10.653M258.94,125.3a20.1,20.1,0,0,0,9.923,2.421c5.714,0,11.821-2.668,11.821-10.153a8.72,8.72,0,0,0-3.881-7.494c-1.536.343-3.138.616-4.773.815,2.806,1.359,5.532,3.187,5.532,6.736,0,4.542-3.233,7.147-8.872,7.147a18.029,18.029,0,0,1-9.75-2.8Z" fill="#151614"/>
  <path id="Path_15859" data-name="Path 15859" d="M303.637,100.438c0,4.427-2.932,8.22-8.852,8.22H288.52v-4.609c-1.419,1.145-2.633,2.071-3.564,2.719v20.8h3.564v-15.75h6.955l9.714,15.75h4.253l-10.289-16.382c5.231-1.437,7.875-5.518,8.048-10.575,0-4.184-1.4-7.436-4.339-9.456q-1.2,1.184-2.411,2.335c2.156,1.39,3.186,3.723,3.186,6.947" fill="#151614"/>
  <path id="Path_15860" data-name="Path 15860" d="M309.894,127.818H305.05l-9.715-15.749H288.77v15.749h-4.063V106.637l.107-.075c.932-.649,2.16-1.586,3.549-2.708l.407-.329v4.883h6.015c6.349,0,8.6-4.294,8.6-7.97,0-3.2-1.005-5.406-3.072-6.737l-.266-.172.229-.219c.8-.765,1.608-1.545,2.408-2.332l.148-.145.17.117c2.951,2.031,4.447,5.281,4.447,9.661-.184,5.374-3.06,9.261-7.909,10.724Zm-4.565-.5h3.661l-10.227-16.283.324-.09c4.818-1.323,7.684-5.093,7.864-10.342,0-4.113-1.366-7.183-4.062-9.123q-1.019,1-2.041,1.978c2.016,1.431,3.039,3.777,3.039,6.98,0,3.907-2.384,8.47-9.1,8.47H288.27v-4.339c-1.18.945-2.23,1.743-3.063,2.329v20.42h3.063V111.569h7.344Z" fill="#151614"/>
  <rect id="Rectangle_17887" data-name="Rectangle 17887" width="1.185" height="49.339" transform="translate(181.378 60.467)" fill="#1a1818" stroke="#161615" stroke-width="0.5"/>
  <path id="Path_15861" data-name="Path 15861" d="M181.378,81.544l1.185.389v27.872h-1.185Z" fill="#161615"/>
  <path id="Path_15862" data-name="Path 15862" d="M210.588,29.942a2.6,2.6,0,0,0,.955-1.038,3.17,3.17,0,0,0,.346-1.5,1.853,1.853,0,0,0-.533-1.418,2.094,2.094,0,0,0-1.5-.508,2.586,2.586,0,0,0-1.379.375,2.629,2.629,0,0,0-.963,1.04,3.178,3.178,0,0,0-.351,1.5,1.851,1.851,0,0,0,.537,1.42,2.111,2.111,0,0,0,1.509.508,2.564,2.564,0,0,0,1.381-.382m1.181-4.311a2.286,2.286,0,0,1,.682,1.743,3.665,3.665,0,0,1-.423,1.766,3.138,3.138,0,0,1-1.166,1.232,3.171,3.171,0,0,1-1.666.446,2.643,2.643,0,0,1-1.47-.379,1.972,1.972,0,0,1-.8-1.094l-.714,3.563h-.55l1.574-7.877h.537l-.219,1.113a2.865,2.865,0,0,1,1.035-.854,3.065,3.065,0,0,1,1.373-.3,2.525,2.525,0,0,1,1.8.643" fill="#161615"/>
  <path id="Path_15863" data-name="Path 15863" d="M217.616,29.949a2.6,2.6,0,0,0,.961-1.038,3.156,3.156,0,0,0,.354-1.5,1.865,1.865,0,0,0-.535-1.42,2.086,2.086,0,0,0-1.5-.505,2.563,2.563,0,0,0-1.381.379,2.647,2.647,0,0,0-.961,1.043A3.127,3.127,0,0,0,214.2,28.4a1.859,1.859,0,0,0,.533,1.417,2.093,2.093,0,0,0,1.5.508,2.606,2.606,0,0,0,1.381-.374m-3.278.22a2.275,2.275,0,0,1-.687-1.738,3.637,3.637,0,0,1,.423-1.761,3.176,3.176,0,0,1,2.865-1.683,2.6,2.6,0,0,1,1.853.643,2.278,2.278,0,0,1,.69,1.746,3.683,3.683,0,0,1-.426,1.766,3.114,3.114,0,0,1-1.17,1.23,3.258,3.258,0,0,1-1.7.446,2.589,2.589,0,0,1-1.853-.649" fill="#161615"/>
  <path id="Path_15864" data-name="Path 15864" d="M230.019,25.032l-3.245,5.742h-.528L225.2,25.781l-2.86,4.993h-.529l-1.142-5.742h.5l1,5.126,2.914-5.126h.475l1.032,5.116,2.881-5.116Z" fill="#161615"/>
  <path id="Path_15865" data-name="Path 15865" d="M231.564,26.045a2.735,2.735,0,0,0-.883,1.551H235.1c.007-.067.01-.162.01-.287a1.758,1.758,0,0,0-.527-1.359,1.994,1.994,0,0,0-1.409-.488,2.388,2.388,0,0,0-1.612.583m-.95,1.979c-.015.162-.023.282-.023.364a1.86,1.86,0,0,0,.541,1.436,2.25,2.25,0,0,0,1.584.5,2.924,2.924,0,0,0,1.114-.2,2.314,2.314,0,0,0,.855-.564l.253.385a2.55,2.55,0,0,1-.984.647,3.548,3.548,0,0,1-1.282.231,2.751,2.751,0,0,1-1.922-.637,2.28,2.28,0,0,1-.7-1.771,3.721,3.721,0,0,1,.407-1.749,3.127,3.127,0,0,1,1.12-1.227,2.984,2.984,0,0,1,1.607-.443,2.458,2.458,0,0,1,1.784.635,2.341,2.341,0,0,1,.659,1.761,3.763,3.763,0,0,1-.067.638Z" fill="#161615"/>
  <path id="Path_15866" data-name="Path 15866" d="M239.363,25.3a3.13,3.13,0,0,1,1.459-.313l-.1.539-.177-.013a2.273,2.273,0,0,0-1.6.584,3.142,3.142,0,0,0-.859,1.727l-.594,2.948h-.552l1.146-5.741h.539l-.241,1.209a2.509,2.509,0,0,1,.984-.94" fill="#161615"/>
  <path id="Path_15867" data-name="Path 15867" d="M242.762,26.045a2.735,2.735,0,0,0-.883,1.551H246.3c.007-.067.01-.162.01-.287a1.758,1.758,0,0,0-.527-1.359,1.994,1.994,0,0,0-1.409-.488,2.386,2.386,0,0,0-1.612.583m-.95,1.979c-.015.162-.023.282-.023.364a1.86,1.86,0,0,0,.541,1.436,2.25,2.25,0,0,0,1.584.5,2.924,2.924,0,0,0,1.114-.2,2.314,2.314,0,0,0,.855-.564l.253.385a2.55,2.55,0,0,1-.984.647,3.547,3.547,0,0,1-1.282.231,2.751,2.751,0,0,1-1.922-.637,2.28,2.28,0,0,1-.7-1.771,3.721,3.721,0,0,1,.407-1.749,3.127,3.127,0,0,1,1.12-1.227,2.984,2.984,0,0,1,1.607-.443,2.459,2.459,0,0,1,1.784.635,2.341,2.341,0,0,1,.659,1.761,3.763,3.763,0,0,1-.067.638Z" fill="#161615"/>
  <path id="Path_15868" data-name="Path 15868" d="M252.015,29.948a2.621,2.621,0,0,0,.963-1.039,3.176,3.176,0,0,0,.351-1.5,1.858,1.858,0,0,0-.533-1.417,2.088,2.088,0,0,0-1.5-.508,2.575,2.575,0,0,0-1.381.38,2.686,2.686,0,0,0-.961,1.045A3.127,3.127,0,0,0,248.6,28.4a1.862,1.862,0,0,0,.535,1.419,2.1,2.1,0,0,0,1.5.5,2.583,2.583,0,0,0,1.379-.373m2.865-7.336-1.628,8.164h-.528l.221-1.123a2.928,2.928,0,0,1-1.04.856,3.041,3.041,0,0,1-1.382.31,2.49,2.49,0,0,1-1.8-.647,2.286,2.286,0,0,1-.677-1.741,3.7,3.7,0,0,1,.418-1.766,3.112,3.112,0,0,1,1.161-1.232,3.172,3.172,0,0,1,1.666-.445,2.637,2.637,0,0,1,1.474.384,1.905,1.905,0,0,1,.792,1.1l.769-3.861Z" fill="#161615"/>
  <path id="Path_15869" data-name="Path 15869" d="M263.325,29.942a2.6,2.6,0,0,0,.955-1.038,3.17,3.17,0,0,0,.346-1.5,1.853,1.853,0,0,0-.533-1.418,2.094,2.094,0,0,0-1.5-.508,2.586,2.586,0,0,0-1.379.375,2.629,2.629,0,0,0-.963,1.04,3.178,3.178,0,0,0-.351,1.5,1.851,1.851,0,0,0,.537,1.42,2.111,2.111,0,0,0,1.509.508,2.564,2.564,0,0,0,1.381-.382m1.181-4.311a2.286,2.286,0,0,1,.682,1.743,3.665,3.665,0,0,1-.423,1.766,3.139,3.139,0,0,1-1.166,1.232,3.171,3.171,0,0,1-1.666.446,2.6,2.6,0,0,1-1.485-.392,1.935,1.935,0,0,1-.794-1.114l-.287,1.463h-.539l1.63-8.163h.549l-.691,3.5a2.81,2.81,0,0,1,1.027-.83,3.1,3.1,0,0,1,1.358-.292,2.525,2.525,0,0,1,1.805.643" fill="#161615"/>
  <path id="Path_15870" data-name="Path 15870" d="M272.074,25.032l-4.29,6.59a3.479,3.479,0,0,1-.921,1.037,1.787,1.787,0,0,1-1.027.293,2.145,2.145,0,0,1-.749-.131,1.3,1.3,0,0,1-.548-.374l.317-.408a1.321,1.321,0,0,0,1.036.429,1.261,1.261,0,0,0,.72-.218,2.8,2.8,0,0,0,.687-.772l.485-.725-1.454-5.721h.562l1.288,5.136,3.322-5.136Z" fill="#161615"/>
  <path id="Path_15871" data-name="Path 15871" d="M373.181,22.61,310.745,56.826h25a86.226,86.226,0,0,0,7.019,85.237C335.323,97.43,353.556,54.215,373.181,22.61" fill="#d30d1c"/>
  <path id="Path_15872" data-name="Path 15872" d="M205.2,36.745h27.453v8.122H215.044v10.42h15.667v7.474H215.044V81.519H205.2Z" fill="#151614"/>
  <path id="Path_15873" data-name="Path 15873" d="M256.341,64.7,252.6,53.2c-.863-2.658-1.725-5.246-2.228-7.329h-.144c-.575,2.012-1.437,4.744-2.3,7.329l-3.879,11.5ZM245.13,36.745h10.994l16.388,44.774H261.8l-2.875-8.913H241.464l-3.018,8.913H228.312Z" fill="#151614"/>
  <path id="Path_15874" data-name="Path 15874" d="M291.692,73.829c4.385,0,6.756-2.012,6.756-5.965,0-4.024-2.227-6.109-6.683-6.109h-6.18V73.829ZM291.477,55c4.457,0,6.324-2.011,6.324-5.462,0-3.09-1.939-5.1-6.252-5.1h-5.964V55ZM275.739,36.745h17.033c9.7,0,14.947,4.6,14.947,11.427,0,5.534-3.377,8.912-7.043,9.917v.145c4.816,1.077,8.409,4.454,8.409,10.278,0,8.192-6.181,13.007-15.882,13.007H275.739Z" fill="#151614"/>
  <path id="Path_15875" data-name="Path 15875" d="M207.893,89.048h4.883l5.054,14.188c2.988,8.445,6.837,19.7,6.837,19.7s3.964-10.915,7.238-19.7l5.284-14.188h4.884l3.274,38.718h-3.562l-1.322-15.338c-.8-9.192-1.55-18.727-1.55-18.727s-3.447,9.593-6.836,18.727l-5.342,14.36h-4.194l-5.055-14.36L211.053,94.1s-.518,8.675-1.207,18.325l-1.092,15.338h-3.561Z" fill="#151614"/>
  <rect id="Rectangle_17888" data-name="Rectangle 17888" width="3.562" height="38.718" transform="translate(250.171 89.048)" fill="#151614"/>
  <path id="Path_15876" data-name="Path 15876" d="M278.607,94.39a15.95,15.95,0,0,0-7.985-2.184c-5.171,0-8.445,2.644-8.445,6.607,0,4.366,4.021,6.089,8.387,7.985,4.94,2.125,10.284,4.424,10.284,10.972,0,7.009-5.4,10.4-12.064,10.4a20.388,20.388,0,0,1-10.169-2.527v-3.964a17.5,17.5,0,0,0,10,3.045c5.342,0,8.617-2.356,8.617-6.894,0-3.734-3.1-5.514-6.721-7.123-5.4-2.412-12.006-4.423-12.006-11.661,0-6.837,5.744-10.341,12.063-10.341a17.923,17.923,0,0,1,8.043,1.724Z" fill="#151614"/>
  <path id="Path_15877" data-name="Path 15877" d="M294.691,108.866c5.916,0,8.846-3.79,8.846-8.214,0-5.514-2.987-8.444-9.535-8.444h-5.573v16.658Zm10.4,18.9-9.708-15.74h-6.951v15.74h-3.561V89.048H293.6c9.248,0,13.5,4.482,13.5,11.777-.173,5.055-2.816,9.133-8.042,10.569l10.282,16.372Z" fill="#151614"/>
  <path id="Path_15878" data-name="Path 15878" d="M207.275,29.309a1.974,1.974,0,0,0,.8,1.1,2.643,2.643,0,0,0,1.47.379,3.142,3.142,0,0,0,2.834-1.68,3.666,3.666,0,0,0,.423-1.767,2.289,2.289,0,0,0-.682-1.744,2.527,2.527,0,0,0-1.806-.643,3.069,3.069,0,0,0-1.374.3,2.877,2.877,0,0,0-1.036.854l.22-1.113h-.538l-1.575,7.882h.551Zm.584-2.449a2.649,2.649,0,0,1,.964-1.041,2.59,2.59,0,0,1,1.38-.375,2.1,2.1,0,0,1,1.5.508,1.857,1.857,0,0,1,.533,1.419,3.179,3.179,0,0,1-.346,1.5,2.607,2.607,0,0,1-.957,1.038,2.559,2.559,0,0,1-1.381.382,2.111,2.111,0,0,1-1.509-.508,1.85,1.85,0,0,1-.538-1.42,3.181,3.181,0,0,1,.351-1.5" fill="#161615"/>
  <path id="Path_15879" data-name="Path 15879" d="M216.543,30.783a3.244,3.244,0,0,0,1.7-.446A3.118,3.118,0,0,0,219.41,29.1a3.675,3.675,0,0,0,.426-1.766,2.282,2.282,0,0,0-.69-1.747,2.6,2.6,0,0,0-1.854-.643,3.174,3.174,0,0,0-2.867,1.684A3.644,3.644,0,0,0,214,28.4a2.281,2.281,0,0,0,.688,1.74,2.591,2.591,0,0,0,1.854.648M214.9,26.869a2.648,2.648,0,0,1,.962-1.043,2.557,2.557,0,0,1,1.382-.381,2.089,2.089,0,0,1,1.5.506,1.867,1.867,0,0,1,.536,1.421,3.148,3.148,0,0,1-.354,1.5,2.581,2.581,0,0,1-2.344,1.414,2.1,2.1,0,0,1-1.5-.509,1.857,1.857,0,0,1-.533-1.416,3.132,3.132,0,0,1,.353-1.494" fill="#161615"/>
  <path id="Path_15880" data-name="Path 15880" d="M222.7,30.738l2.862-4.995,1.047,4.995h.528l3.246-5.745h-.541l-2.882,5.12-1.034-5.12h-.475l-2.915,5.13-1-5.13h-.505l1.144,5.745Z" fill="#161615"/>
  <path id="Path_15881" data-name="Path 15881" d="M233.034,30.782a3.54,3.54,0,0,0,1.282-.231,2.567,2.567,0,0,0,.985-.648l-.254-.385a2.318,2.318,0,0,1-.854.564,2.927,2.927,0,0,1-1.116.2,2.251,2.251,0,0,1-1.584-.5,1.863,1.863,0,0,1-.541-1.437c0-.082.007-.2.023-.364h4.952a3.764,3.764,0,0,0,.067-.639,2.341,2.341,0,0,0-.659-1.761,2.463,2.463,0,0,0-1.785-.637,2.987,2.987,0,0,0-1.609.444,3.137,3.137,0,0,0-1.12,1.228,3.711,3.711,0,0,0-.408,1.75,2.278,2.278,0,0,0,.7,1.772,2.747,2.747,0,0,0,1.923.638m-1.108-4.775a2.386,2.386,0,0,1,1.613-.584,1.992,1.992,0,0,1,1.408.489,1.756,1.756,0,0,1,.529,1.359,2.639,2.639,0,0,1-.011.288h-4.423a2.727,2.727,0,0,1,.884-1.552" fill="#161615"/>
  <path id="Path_15882" data-name="Path 15882" d="M238.447,27.789a3.139,3.139,0,0,1,.859-1.729,2.274,2.274,0,0,1,1.606-.584l.177.013.1-.539a3.14,3.14,0,0,0-1.46.313,2.5,2.5,0,0,0-.984.941l.241-1.21h-.539L237.3,30.738h.552Z" fill="#161615"/>
  <path id="Path_15883" data-name="Path 15883" d="M244.239,30.782a3.54,3.54,0,0,0,1.282-.231,2.575,2.575,0,0,0,.985-.648l-.254-.385a2.318,2.318,0,0,1-.854.564,2.926,2.926,0,0,1-1.115.2,2.252,2.252,0,0,1-1.585-.5,1.863,1.863,0,0,1-.541-1.437c0-.082.007-.2.023-.364h4.952a3.764,3.764,0,0,0,.067-.639,2.338,2.338,0,0,0-.66-1.761,2.459,2.459,0,0,0-1.784-.637,2.987,2.987,0,0,0-1.609.444,3.137,3.137,0,0,0-1.12,1.228,3.723,3.723,0,0,0-.408,1.75,2.278,2.278,0,0,0,.7,1.772,2.747,2.747,0,0,0,1.923.638m-1.108-4.775a2.386,2.386,0,0,1,1.613-.584,1.992,1.992,0,0,1,1.408.489,1.756,1.756,0,0,1,.529,1.359c0,.126,0,.221-.01.288h-4.425a2.734,2.734,0,0,1,.885-1.552" fill="#161615"/>
  <path id="Path_15884" data-name="Path 15884" d="M250.9,30.784a3.035,3.035,0,0,0,1.382-.31,2.919,2.919,0,0,0,1.042-.857l-.221,1.124h.528l1.629-8.169H254.7l-.769,3.863a1.905,1.905,0,0,0-.792-1.1,2.632,2.632,0,0,0-1.475-.385A3.173,3.173,0,0,0,250,25.4a3.114,3.114,0,0,0-1.162,1.232,3.709,3.709,0,0,0-.418,1.767,2.29,2.29,0,0,0,.677,1.743,2.5,2.5,0,0,0,1.8.647m-1.572-3.914a2.685,2.685,0,0,1,.962-1.046,2.579,2.579,0,0,1,1.382-.38,2.089,2.089,0,0,1,1.5.509,1.855,1.855,0,0,1,.533,1.417,3.18,3.18,0,0,1-.351,1.5,2.612,2.612,0,0,1-.965,1.039,2.573,2.573,0,0,1-1.379.375,2.089,2.089,0,0,1-1.5-.506,1.86,1.86,0,0,1-.536-1.421,3.126,3.126,0,0,1,.354-1.49" fill="#161615"/>
  <path id="Path_15885" data-name="Path 15885" d="M260.032,29.276a1.94,1.94,0,0,0,.795,1.116,2.6,2.6,0,0,0,1.485.392,3.142,3.142,0,0,0,2.834-1.68,3.666,3.666,0,0,0,.423-1.767,2.289,2.289,0,0,0-.682-1.744,2.527,2.527,0,0,0-1.806-.643,3.1,3.1,0,0,0-1.359.292,2.814,2.814,0,0,0-1.028.831l.692-3.5h-.549l-1.631,8.168h.539Zm.6-2.416a2.649,2.649,0,0,1,.964-1.041,2.59,2.59,0,0,1,1.38-.375,2.1,2.1,0,0,1,1.5.508,1.857,1.857,0,0,1,.533,1.419,3.179,3.179,0,0,1-.346,1.5,2.612,2.612,0,0,1-.956,1.038,2.565,2.565,0,0,1-1.382.382,2.111,2.111,0,0,1-1.509-.508,1.85,1.85,0,0,1-.538-1.42,3.181,3.181,0,0,1,.351-1.5" fill="#161615"/>
  <path id="Path_15886" data-name="Path 15886" d="M266.994,32.216a1.261,1.261,0,0,1-.72.218,1.322,1.322,0,0,1-1.037-.429l-.318.408a1.3,1.3,0,0,0,.549.375,2.147,2.147,0,0,0,.75.13,1.784,1.784,0,0,0,1.027-.292,3.5,3.5,0,0,0,.921-1.038l4.293-6.594h-.572l-3.323,5.139-1.29-5.139h-.562l1.454,5.724-.485.726a2.8,2.8,0,0,1-.687.772" fill="#161615"/>
  <path id="Path_15887" data-name="Path 15887" d="M215.4,62.746h15.676V55.267H215.4V44.84h17.617V36.714H205.544v44.8H215.4Z" fill="#151614"/>
  <path id="Path_15888" data-name="Path 15888" d="M215.646,81.765H205.293v-45.3h27.97v8.627H215.646v9.926h15.675V63H215.646Zm-9.853-.5h9.353V62.5h15.675V55.517H215.146V44.591h17.617V36.964h-26.97Z" fill="#151614"/>
  <path id="Path_15889" data-name="Path 15889" d="M228.672,81.515h10.14l3.02-8.918h17.474l2.877,8.918H272.9l-16.4-44.8h-11ZM250.6,45.847h.144c.5,2.085,1.366,4.673,2.229,7.334l3.739,11.507h-12.3L248.3,53.181c.864-2.588,1.727-5.321,2.3-7.334" fill="#151614"/>
  <path id="Path_15890" data-name="Path 15890" d="M273.254,81.765H262l-.056-.174-2.821-8.744H242.011l-3.019,8.918H228.31l17.017-45.3h11.348l.06.164Zm-10.889-.5H272.54l-16.214-44.3H245.672l-16.639,44.3h9.6l3.02-8.918h17.836l.056.174Zm-5.3-16.327H244.073L248.066,53.1c.912-2.734,1.75-5.4,2.3-7.323l.051-.181h.53l.046.192c.447,1.854,1.177,4.1,1.95,6.473Zm-12.29-.5h11.6l-3.906-12.021c-.691-2.122-1.347-4.139-1.8-5.878-.545,1.859-1.3,4.264-2.124,6.721Z" fill="#151614"/>
  <path id="Path_15891" data-name="Path 15891" d="M309.493,68.5c0-5.827-3.6-9.206-8.414-10.283v-.146c3.668-1.006,7.046-4.386,7.046-9.923,0-6.832-5.248-11.434-14.955-11.434H276.127v44.8H293.6c9.707,0,15.892-4.818,15.892-13.015M285.979,44.408h5.968c4.315,0,6.255,2.014,6.255,5.106,0,3.453-1.869,5.465-6.328,5.465h-5.895Zm0,29.412V61.739h6.184c4.458,0,6.687,2.086,6.687,6.113,0,3.955-2.373,5.968-6.761,5.968Z" fill="#151614"/>
  <path id="Path_15892" data-name="Path 15892" d="M293.6,81.765H275.876v-45.3h17.293c9.522,0,15.206,4.368,15.206,11.684a10.088,10.088,0,0,1-6.627,9.975,10.128,10.128,0,0,1,8,10.377c0,8.182-6.186,13.265-16.143,13.265m-17.224-.5H293.6c9.649,0,15.643-4.891,15.643-12.765,0-5.213-3-8.872-8.219-10.04l-.195-.043V57.88l.183-.05c3.166-.869,6.863-3.925,6.863-9.682,0-7-5.5-11.184-14.706-11.184H276.376Zm15.713-7.195h-6.36V61.488h6.434c4.538,0,6.936,2.2,6.936,6.364,0,4.068-2.424,6.218-7.01,6.218m-5.86-.5h5.86c4.32,0,6.51-1.924,6.51-5.718,0-3.891-2.166-5.864-6.436-5.864h-5.934Zm5.646-18.341h-6.146V44.158h6.218c4.194,0,6.505,1.9,6.505,5.356,0,3.792-2.213,5.715-6.577,5.715m-5.646-.5h5.646c4.088,0,6.077-1.706,6.077-5.215,0-3.177-2.077-4.856-6.005-4.856h-5.718Z" fill="#151614"/>
  <path id="Path_15893" data-name="Path 15893" d="M237.554,89.048,233.2,100.729c.96.649,1.915,1.258,2.866,1.835,1.85-5.077,3.21-8.86,3.21-8.86s.388,4.959.906,11.167c1.259.644,2.506,1.226,3.741,1.756l-1.487-17.579Z" fill="#151614"/>
  <path id="Path_15894" data-name="Path 15894" d="M244.21,107.021l-.383-.165c-1.273-.547-2.537-1.14-3.756-1.763l-.124-.063-.011-.138c-.368-4.412-.671-8.193-.816-10.012-.532,1.476-1.561,4.325-2.816,7.769l-.1.286-.26-.158c-.987-.6-1.954-1.217-2.875-1.841l-.163-.11L237.38,88.8h5.289Zm-3.788-2.31c1.049.533,2.129,1.042,3.22,1.52L242.21,89.3h-4.482l-4.222,11.334c.784.527,1.6,1.05,2.432,1.559,1.8-4.931,3.1-8.572,3.1-8.572l.394-1.1.09,1.16s.383,4.885.9,11.027" fill="#151614"/>
  <path id="Path_15895" data-name="Path 15895" d="M250.544,89.048v19.963q1.811.531,3.564.922V89.048Z" fill="#151614"/>
  <path id="Path_15896" data-name="Path 15896" d="M254.357,110.245l-.3-.067c-1.166-.261-2.37-.572-3.579-.927l-.18-.052V88.8h4.063Zm-3.563-1.421c1.033.3,2.062.566,3.063.8V89.3h-3.063Z" fill="#151614"/>
  <path id="Path_15897" data-name="Path 15897" d="M262.557,98.819c0-3.966,3.276-6.61,8.449-6.61A15.953,15.953,0,0,1,279,94.393V90.428a17.908,17.908,0,0,0-8.047-1.725c-6.323,0-12.071,3.506-12.071,10.346,0,7.242,6.611,9.254,12.013,11.668l.538.243a49.867,49.867,0,0,0,5.736-.934,32.312,32.312,0,0,0-6.216-3.217c-4.368-1.9-8.392-3.621-8.392-7.99" fill="#151614"/>
  <path id="Path_15898" data-name="Path 15898" d="M271.388,111.217l-.063-.029c-.177-.081-.354-.162-.534-.242-.553-.247-1.117-.489-1.687-.734-4.91-2.108-10.475-4.5-10.475-11.162,0-5.275,3.809-10.6,12.321-10.6a17.894,17.894,0,0,1,8.164,1.755l.132.071v4.586l-.391-.264a15.657,15.657,0,0,0-7.848-2.142c-4.981,0-8.2,2.5-8.2,6.36,0,4.182,3.788,5.827,8.173,7.731l.07.029a32.468,32.468,0,0,1,6.261,3.245l.448.325-.539.121a50.006,50.006,0,0,1-5.764.939Zm-.438-22.264c-8.166,0-11.821,5.071-11.821,10.1,0,6.336,5.172,8.556,10.173,10.7.571.245,1.138.489,1.692.737.16.07.319.143.477.215a50.23,50.23,0,0,0,5.082-.8,35.475,35.475,0,0,0-5.7-2.866l-.07-.03c-4.357-1.891-8.474-3.679-8.474-8.189,0-4.167,3.415-6.86,8.7-6.86a16.7,16.7,0,0,1,7.739,1.981V90.579a17.843,17.843,0,0,0-7.8-1.626" fill="#151614"/>
  <path id="Path_15899" data-name="Path 15899" d="M285.261,89.048v17.94c.931-.648,2.145-1.574,3.564-2.719V92.21H294.4a11.626,11.626,0,0,1,6.356,1.5q1.206-1.149,2.411-2.335c-2.187-1.5-5.218-2.328-9.17-2.328Z" fill="#151614"/>
  <path id="Path_15900" data-name="Path 15900" d="M285.011,107.467V88.8H294c3.891,0,7.024.8,9.311,2.373l.25.171-.216.213c-.8.789-1.609,1.571-2.414,2.338l-.143.135-.166-.106A11.439,11.439,0,0,0,294.4,92.46h-5.326v11.928l-.092.075c-1.4,1.13-2.637,2.074-3.578,2.73Zm.5-18.169V106.5c.851-.611,1.9-1.416,3.063-2.356V91.96H294.4a12.159,12.159,0,0,1,6.323,1.437q1.025-.978,2.049-1.983A16.1,16.1,0,0,0,294,89.3Z" fill="#151614"/>
  <path id="Path_15901" data-name="Path 15901" d="M373.627,22.57,311.154,56.807h25.019A86.311,86.311,0,0,0,343.2,142.1c-3.617-21.681-1.168-43.023,4.546-62.868,6.056-21.034,15.781-40.386,25.885-56.658" fill="#d30d1c"/>
  <path id="Path_15902" data-name="Path 15902" d="M240.831,112.442l1.322,15.347h3.563l-1.789-21.162c-1.235-.53-2.482-1.112-3.742-1.756.2,2.409.421,5,.646,7.571" fill="#151614"/>
  <path id="Path_15903" data-name="Path 15903" d="M245.988,128.039h-4.065l-1.342-15.575c-.224-2.571-.444-5.163-.645-7.572l-.037-.448.4.2c1.21.618,2.463,1.206,3.727,1.749l.137.059Zm-3.606-.5h3.062L243.69,106.8c-1.088-.47-2.168-.974-3.219-1.5.191,2.281.4,4.712.608,7.124h0Z" fill="#151614"/>
  <path id="Path_15904" data-name="Path 15904" d="M232.266,103.245c-3.277,8.794-7.242,19.715-7.242,19.715s-3.851-11.265-6.841-19.715l-5.057-14.2H208.24l-2.7,38.741H209.1l1.092-15.347c.69-9.656,1.207-18.336,1.207-18.336l6.438,18.336,5.058,14.369h4.2l5.345-14.369c1.263-3.4,2.533-6.867,3.631-9.878-.951-.577-1.906-1.186-2.866-1.835Z" fill="#151614"/>
  <path id="Path_15905" data-name="Path 15905" d="M209.334,128.039h-4.063L208.006,88.8h5.3l.059.166,5.056,14.2c2.541,7.179,5.739,16.5,6.613,19.049.911-2.5,4.222-11.6,7-19.052l1.048-2.814.263.178c.915.619,1.875,1.234,2.856,1.828l.175.106-.07.193c-1.1,3.012-2.369,6.477-3.631,9.88l-5.406,14.532H222.72l-11.143-31.7c-.168,2.74-.6,9.666-1.134,17.1Zm-3.528-.5h3.063l1.076-15.114c.681-9.545,1.2-18.247,1.207-18.334l.074-1.24,11.848,33.71h3.845l5.285-14.206c1.235-3.329,2.478-6.718,3.56-9.684-.833-.508-1.65-1.031-2.437-1.557l-.827,2.218c-3.238,8.693-7.2,19.6-7.241,19.714l-.242.667-.23-.671c-.039-.113-3.884-11.361-6.839-19.713l-5-14.031h-4.477Z" fill="#151614"/>
  <path id="Path_15906" data-name="Path 15906" d="M250.544,127.789h3.564V109.933q-1.752-.39-3.564-.922Z" fill="#151614"/>
  <path id="Path_15907" data-name="Path 15907" d="M254.357,128.039h-4.063V108.678l.32.094c1.2.351,2.393.66,3.548.917l.195.044Zm-3.563-.5h3.063V110.133c-1-.227-2.029-.492-3.063-.789Z" fill="#151614"/>
  <path id="Path_15908" data-name="Path 15908" d="M277.617,117.845c0,4.541-3.277,6.9-8.622,6.9a17.505,17.505,0,0,1-10-3.046v3.966a20.385,20.385,0,0,0,10.174,2.529c6.667,0,12.07-3.391,12.07-10.4a9.032,9.032,0,0,0-4.073-7.762,49.817,49.817,0,0,1-5.736.935c3.385,1.55,6.188,3.335,6.188,6.884" fill="#151614"/>
  <path id="Path_15909" data-name="Path 15909" d="M269.168,128.441a20.5,20.5,0,0,1-10.3-2.565l-.121-.073v-4.615l.4.31a17.394,17.394,0,0,0,9.849,2.994c5.4,0,8.372-2.361,8.372-6.647,0-3.229-2.415-5-6.042-6.657l-.831-.381.909-.1a49.849,49.849,0,0,0,5.707-.93l.111-.025.09.067a9.21,9.21,0,0,1,4.177,7.964c0,6.571-4.721,10.653-12.32,10.653m-9.924-2.921a20.1,20.1,0,0,0,9.924,2.421c5.714,0,11.82-2.668,11.82-10.153a8.722,8.722,0,0,0-3.88-7.494c-1.537.343-3.138.616-4.773.815,2.806,1.359,5.532,3.187,5.532,6.736,0,4.542-3.233,7.147-8.872,7.147a18.033,18.033,0,0,1-9.751-2.8Z" fill="#151614"/>
  <path id="Path_15910" data-name="Path 15910" d="M303.941,100.659c0,4.426-2.932,8.219-8.852,8.219h-6.265v-4.609c-1.419,1.145-2.633,2.071-3.564,2.719v20.8h3.564V112.04h6.955l9.714,15.749h4.253l-10.289-16.382c5.231-1.437,7.875-5.518,8.048-10.575,0-4.184-1.4-7.436-4.339-9.456q-1.2,1.184-2.411,2.335c2.156,1.39,3.186,3.723,3.186,6.948" fill="#151614"/>
  <path id="Path_15911" data-name="Path 15911" d="M310.2,128.039h-4.844l-9.715-15.749h-6.565v15.749h-4.063V106.858l.107-.075c.932-.649,2.16-1.586,3.549-2.708l.407-.329v4.883h6.015c6.349,0,8.6-4.294,8.6-7.97,0-3.2-1.005-5.406-3.072-6.737l-.266-.172.229-.219c.8-.765,1.608-1.545,2.408-2.332l.148-.145.17.117c2.951,2.031,4.447,5.281,4.447,9.661-.184,5.374-3.06,9.261-7.909,10.724Zm-4.565-.5h3.661l-10.227-16.283.324-.09c4.818-1.323,7.684-5.093,7.864-10.342,0-4.113-1.366-7.183-4.062-9.123q-1.018,1-2.041,1.978c2.016,1.431,3.039,3.777,3.039,6.98,0,3.907-2.384,8.47-9.1,8.47h-6.515V104.79c-1.18.945-2.23,1.743-3.063,2.329v20.42h3.063V111.79h7.344Z" fill="#151614"/>
  <rect id="Rectangle_17889" data-name="Rectangle 17889" width="379.738" height="169.933" fill="none"/>
  <rect id="Rectangle_17890" data-name="Rectangle 17890" width="379.738" height="169.933" fill="none"/>
  <path id="Path_15912" data-name="Path 15912" d="M170.229,39.361a2.39,2.39,0,1,0,1.19.32,2.392,2.392,0,0,0-1.19-.32m-.009,5.3a2.915,2.915,0,1,1,2.53-1.457,2.916,2.916,0,0,1-2.53,1.457" fill="#161715"/>
  <path id="Path_15913" data-name="Path 15913" d="M169.587,41.9V40.85h.565a.788.788,0,0,1,.507.138.461.461,0,0,1,.161.385.467.467,0,0,1-.161.387.782.782,0,0,1-.507.14Zm1.119.251a.8.8,0,0,0,.5-.778.8.8,0,0,0-.288-.652,1.168,1.168,0,0,0-.76-.23H169.2v2.516h.383V42.25h.573c.057,0,.113,0,.166-.008l.553.765h.45Z" fill="#161715"/>
  <path id="Path_15914" data-name="Path 15914" d="M28.359,45.768,36.5,49.926a1.281,1.281,0,0,0,1.177.033L48.654,45.7a.485.485,0,0,0,.061-.029L83.331,64.082c.041.021.08.044.118.064L80.7,65.274a.914.914,0,0,1-.269.066,1.011,1.011,0,0,1-.281-.014,1.953,1.953,0,0,1-.368-.109A4.094,4.094,0,0,1,79.329,65L56.649,52.54a1.294,1.294,0,0,0-1.149-.045l-6.375,2.894a1.178,1.178,0,0,0-.088,2.118l25.426,14.3a22.545,22.545,0,0,0,3.731,1.631,20.631,20.631,0,0,0,3.76.877c.4.054.8.093,1.187.119a15.172,15.172,0,0,0,2.361-.023,10.588,10.588,0,0,0,3.1-.731l10.3-4.3a3.873,3.873,0,0,0,2.1-1.7,2.477,2.477,0,0,0-.092-2.277,6.845,6.845,0,0,0-1.849-2.125,18.5,18.5,0,0,0-3.116-1.991L48.877,36.708a2.5,2.5,0,0,0-2.223-.055L28.423,43.637a.656.656,0,0,0-.067.03,1.186,1.186,0,0,0-.645,1.038,1.207,1.207,0,0,0,.648,1.063" fill="#161715"/>
  <path id="Path_15915" data-name="Path 15915" d="M56.029,52.492a1.18,1.18,0,0,0-.484.1L49.171,55.49a1.067,1.067,0,0,0-.08,1.921l25.426,14.3a22.335,22.335,0,0,0,3.711,1.622,20.454,20.454,0,0,0,3.74.873c.39.052.787.092,1.18.118a14.947,14.947,0,0,0,2.344-.023,10.442,10.442,0,0,0,3.063-.722l10.3-4.3a3.764,3.764,0,0,0,2.042-1.644,2.373,2.373,0,0,0-.093-2.178,6.772,6.772,0,0,0-1.82-2.09,18.468,18.468,0,0,0-3.1-1.978L48.825,36.806a2.384,2.384,0,0,0-2.123-.054L28.463,43.74a.343.343,0,0,0-.055.025,1.077,1.077,0,0,0-.587.942,1.093,1.093,0,0,0,.59.964l8.14,4.158a1.175,1.175,0,0,0,1.079.031l10.984-4.266a.507.507,0,0,0,.047-.023l.053-.029.052.028,34.94,18.59-2.964,1.216a1.009,1.009,0,0,1-.3.075,1.155,1.155,0,0,1-.31-.016,2.133,2.133,0,0,1-.389-.115,4.35,4.35,0,0,1-.466-.22L56.6,52.637a1.181,1.181,0,0,0-.567-.145M84.2,74.579q-.523,0-1.064-.035c-.4-.026-.8-.066-1.195-.119a20.734,20.734,0,0,1-3.781-.882A22.737,22.737,0,0,1,74.41,71.9L48.983,57.6a1.288,1.288,0,0,1,.1-2.314L55.454,52.4a1.405,1.405,0,0,1,1.248.049l22.68,12.462a4.186,4.186,0,0,0,.441.209,1.947,1.947,0,0,0,.348.1.876.876,0,0,0,.25.013.806.806,0,0,0,.238-.059l2.532-1.039L48.713,45.791l-.018.008L37.718,50.062a1.39,1.39,0,0,1-1.27-.038l-8.143-4.159a1.287,1.287,0,0,1,0-2.3.815.815,0,0,1,.079-.034l18.23-6.985a2.609,2.609,0,0,1,2.314.061L95.986,61.195a18.69,18.69,0,0,1,3.135,2A6.985,6.985,0,0,1,101,65.36a2.583,2.583,0,0,1,.093,2.375,3.975,3.975,0,0,1-2.153,1.75l-10.3,4.3a10.686,10.686,0,0,1-3.128.739c-.425.039-.864.058-1.314.058" fill="#191717"/>
  <path id="Path_15916" data-name="Path 15916" d="M51.791,35.489l56.073,28.959a1.286,1.286,0,0,0,1.083.044l14.7-6.134a1.178,1.178,0,0,0,.173-2.1l-8.872-5.54a1.283,1.283,0,0,0-1.166-.1l-8.129,3.335L94.072,48.1l4.378-1.76a1.179,1.179,0,0,0,.081-2.169L89.945,39.9a1.289,1.289,0,0,0-1.046-.044l-6.233,2.471L70.815,36.338l6.154-2.389a1.188,1.188,0,0,0,.773-1.11,1.2,1.2,0,0,0-.782-1.112l-9.88-3.851a1.281,1.281,0,0,0-.926,0h0L51.911,33.321a1.178,1.178,0,0,0-.12,2.168" fill="#161715"/>
  <path id="Path_15917" data-name="Path 15917" d="M66.173,27.983,51.95,33.424a1.069,1.069,0,0,0-.109,1.967L107.914,64.35a1.175,1.175,0,0,0,.463.129,1.156,1.156,0,0,0,.528-.089l14.7-6.134a1.066,1.066,0,0,0,.157-1.908l-8.872-5.54a1.172,1.172,0,0,0-1.066-.089l-8.175,3.354L93.805,48.086l4.6-1.851a1.069,1.069,0,0,0,.074-1.968L89.9,40a1.182,1.182,0,0,0-.957-.04L82.66,42.446l-.044-.022-12.071-6.1,6.384-2.479a1.076,1.076,0,0,0,.7-1.006,1.1,1.1,0,0,0-.712-1.009l-9.88-3.852a1.168,1.168,0,0,0-.847,0ZM108.452,64.7l-.09,0a1.392,1.392,0,0,1-.549-.153L51.74,35.588a1.29,1.29,0,0,1,.131-2.37l14.263-5.455a1.39,1.39,0,0,1,.986.011L77,31.625a1.311,1.311,0,0,1,.852,1.214,1.3,1.3,0,0,1-.844,1.213l-5.922,2.3L82.671,42.2l6.187-2.452a1.4,1.4,0,0,1,1.136.048l8.586,4.27a1.289,1.289,0,0,1-.089,2.37L94.34,48.109l11.32,5.722,8.083-3.316a1.388,1.388,0,0,1,1.266.106l8.872,5.54a1.287,1.287,0,0,1-.189,2.3l-14.7,6.134a1.393,1.393,0,0,1-.538.108" fill="#191717"/>
  <path id="Path_15918" data-name="Path 15918" d="M75.389,28.513a13.37,13.37,0,0,0,2.63,1.626L120.057,50.79a42.415,42.415,0,0,0,4.794,2.041,21.636,21.636,0,0,0,4.232,1.042q.534.07,1.055.1a14.007,14.007,0,0,0,2.822-.1,14.621,14.621,0,0,0,3.691-1.024l6.483-2.706a1.177,1.177,0,0,0,.155-2.115l-8.957-5.372a1.291,1.291,0,0,0-1.148-.087L127.278,45a.866.866,0,0,1-.249.062,1.255,1.255,0,0,1-.289-.013,2.273,2.273,0,0,1-.381-.1,5.057,5.057,0,0,1-.476-.2L91.509,28.2l4.037-1.568a1.185,1.185,0,0,0,.773-1.118,1.2,1.2,0,0,0-.8-1.109L85.35,20.6a.643.643,0,0,0-.457,0l-8.857,3.388a3.67,3.67,0,0,0-1.663,1.118,1.8,1.8,0,0,0-.276,1.731,3.944,3.944,0,0,0,1.292,1.676" fill="#161715"/>
  <path id="Path_15919" data-name="Path 15919" d="M85.123,20.667a.542.542,0,0,0-.19.035l-8.857,3.389a3.571,3.571,0,0,0-1.614,1.081A1.7,1.7,0,0,0,74.2,26.8a3.843,3.843,0,0,0,1.259,1.626,13.234,13.234,0,0,0,2.607,1.612l42.039,20.651a42.252,42.252,0,0,0,4.782,2.036,21.565,21.565,0,0,0,4.209,1.037c.356.046.709.081,1.049.1a13.78,13.78,0,0,0,2.8-.094,14.481,14.481,0,0,0,3.665-1.017l6.483-2.705a1.067,1.067,0,0,0,.141-1.919l-8.958-5.372a1.174,1.174,0,0,0-1.048-.08L127.32,45.1a1.006,1.006,0,0,1-.28.068,1.234,1.234,0,0,1-.317-.013,2.282,2.282,0,0,1-.4-.108,4.892,4.892,0,0,1-.487-.207l-34.6-16.653,4.273-1.661a1.073,1.073,0,0,0,.7-1.014,1.092,1.092,0,0,0-.727-1.007L85.311,20.7a.529.529,0,0,0-.188-.034M131.094,54.12c-.318,0-.637-.011-.963-.032-.344-.023-.7-.058-1.063-.106a21.715,21.715,0,0,1-4.252-1.047,42.345,42.345,0,0,1-4.807-2.046L77.97,30.238a13.51,13.51,0,0,1-2.651-1.64,4.064,4.064,0,0,1-1.327-1.726,1.908,1.908,0,0,1,.294-1.832A3.777,3.777,0,0,1,76,23.885L84.854,20.5a.758.758,0,0,1,.535,0L95.56,24.3a1.312,1.312,0,0,1,.87,1.212,1.294,1.294,0,0,1-.844,1.222l-3.8,1.476,34.145,16.433a4.379,4.379,0,0,0,.465.2,2.165,2.165,0,0,0,.362.1,1.123,1.123,0,0,0,.261.011.792.792,0,0,0,.218-.054l5.906-2.423a1.4,1.4,0,0,1,1.246.095l8.957,5.372a1.287,1.287,0,0,1-.169,2.311l-6.483,2.706a14.752,14.752,0,0,1-3.719,1.032,13.909,13.909,0,0,1-1.881.127" fill="#191717"/>
  <path id="Path_15920" data-name="Path 15920" d="M91.511,19.349l7.93,5.251a1.28,1.28,0,0,0,1.186.134l4.654-1.807,45.2,24.037a1.323,1.323,0,0,0,.46.117,1.28,1.28,0,0,0,.578-.1l9.815-4.314a1.175,1.175,0,0,0,.744-1.078,1.188,1.188,0,0,0-.716-1.1L114.75,19.249l2.264-.88a1.178,1.178,0,0,0,.773-1.147,1.193,1.193,0,0,0-.832-1.092L106.4,12.3a3.574,3.574,0,0,0-2.378.062l-.008,0L91.755,17.254a1.177,1.177,0,0,0-.244,2.1" fill="#161715"/>
  <path id="Path_15921" data-name="Path 15921" d="M105.287,22.805l.045.023,45.2,24.037a1.181,1.181,0,0,0,.415.1,1.146,1.146,0,0,0,.528-.088l9.813-4.313a1.066,1.066,0,0,0,.679-.978,1.08,1.08,0,0,0-.652-1L114.466,19.24l2.508-.975a1.07,1.07,0,0,0,.7-1.039,1.09,1.09,0,0,0-.756-.992L106.366,12.4a3.468,3.468,0,0,0-2.3.061L91.8,17.356a1.066,1.066,0,0,0-.224,1.9l7.93,5.251a1.171,1.171,0,0,0,1.085.124Zm45.738,24.388c-.031,0-.062,0-.092,0a1.418,1.418,0,0,1-.5-.127L105.273,23.047l-4.606,1.79a1.392,1.392,0,0,1-1.288-.147l-7.93-5.251a1.287,1.287,0,0,1,.267-2.289l12.261-4.888a3.694,3.694,0,0,1,2.461-.068l10.554,3.831a1.309,1.309,0,0,1,.905,1.192,1.288,1.288,0,0,1-.843,1.254l-2.02.785,46.374,21.132a1.3,1.3,0,0,1,.781,1.206,1.281,1.281,0,0,1-.813,1.177l-9.813,4.314a1.389,1.389,0,0,1-.538.108" fill="#191717"/>
  <path id="Path_15922" data-name="Path 15922" d="M28.479,44.339,36.622,48.5a1.279,1.279,0,0,0,1.176.032l10.976-4.263a.386.386,0,0,0,.062-.029L83.451,62.653l.118.064L80.82,63.845a.925.925,0,0,1-.268.067,1.052,1.052,0,0,1-.281-.015,1.953,1.953,0,0,1-.368-.109,4.094,4.094,0,0,1-.454-.215L56.769,51.111a1.294,1.294,0,0,0-1.149-.045L49.246,53.96a1.177,1.177,0,0,0-.088,2.118l25.425,14.3a22.572,22.572,0,0,0,3.73,1.631,20.748,20.748,0,0,0,3.761.878c.4.053.8.092,1.187.118a15.158,15.158,0,0,0,2.36-.023,10.571,10.571,0,0,0,3.1-.731l10.3-4.3a3.867,3.867,0,0,0,2.1-1.7,2.479,2.479,0,0,0-.092-2.275,6.87,6.87,0,0,0-1.85-2.127,18.5,18.5,0,0,0-3.116-1.991L49,35.279a2.5,2.5,0,0,0-2.223-.055L28.543,42.208c-.022.009-.046.019-.067.03a1.186,1.186,0,0,0-.645,1.039,1.2,1.2,0,0,0,.648,1.062" fill="#fff"/>
  <path id="Path_15923" data-name="Path 15923" d="M56.15,51.228a1.025,1.025,0,0,0-.417.089L49.36,54.211a.9.9,0,0,0-.067,1.626l25.424,14.3a22.26,22.26,0,0,0,3.683,1.61,20.481,20.481,0,0,0,3.71.867c.389.051.784.09,1.17.115a14.829,14.829,0,0,0,2.316-.022A10.321,10.321,0,0,0,88.612,72l10.3-4.3a3.614,3.614,0,0,0,1.957-1.565,2.214,2.214,0,0,0-.093-2.029A6.559,6.559,0,0,0,99,62.068a18.227,18.227,0,0,0-3.07-1.96L48.869,35.524a2.218,2.218,0,0,0-1.974-.053L28.642,42.465a.9.9,0,0,0-.034,1.63l8.139,4.157a1.012,1.012,0,0,0,.931.03L48.8,43.939l.161.055,35.2,18.729-.5.249L80.924,64.1a1.168,1.168,0,0,1-.348.086,1.345,1.345,0,0,1-.352-.017,2.365,2.365,0,0,1-.422-.124,4.664,4.664,0,0,1-.485-.23L56.637,51.352a1.022,1.022,0,0,0-.487-.124M84.32,73.315q-.531,0-1.077-.035c-.4-.026-.8-.067-1.206-.12a20.965,20.965,0,0,1-3.811-.89,22.76,22.76,0,0,1-3.776-1.651l-25.427-14.3a1.453,1.453,0,0,1,.109-2.609l6.374-2.894a1.576,1.576,0,0,1,1.4.054L79.581,63.331a3.8,3.8,0,0,0,.423.2,1.778,1.778,0,0,0,.316.1.814.814,0,0,0,.2.011.614.614,0,0,0,.192-.047l2.208-.906-34.1-18.14L37.9,48.787a1.548,1.548,0,0,1-1.41-.049L28.347,44.58a1.489,1.489,0,0,1-.792-1.305,1.466,1.466,0,0,1,.793-1.282.8.8,0,0,1,.1-.043l18.23-6.984a2.765,2.765,0,0,1,2.45.069L96.182,59.619a18.782,18.782,0,0,1,3.162,2.022,7.153,7.153,0,0,1,1.924,2.217,2.744,2.744,0,0,1,.092,2.521,4.136,4.136,0,0,1-2.24,1.829l-10.3,4.3a10.852,10.852,0,0,1-3.178.751c-.429.04-.872.059-1.326.059"/>
  <path id="Path_15924" data-name="Path 15924" d="M56.149,51.064a1.16,1.16,0,0,0-.484.1l-6.374,2.894a1.067,1.067,0,0,0-.08,1.921l25.426,14.3a22.372,22.372,0,0,0,3.71,1.622,20.468,20.468,0,0,0,3.741.874c.393.052.79.091,1.18.117a15.051,15.051,0,0,0,2.343-.023,10.435,10.435,0,0,0,3.063-.722l10.3-4.3a3.768,3.768,0,0,0,2.042-1.644,2.379,2.379,0,0,0-.092-2.177A6.783,6.783,0,0,0,99.1,61.94,18.394,18.394,0,0,0,96,59.962L48.945,35.377a2.387,2.387,0,0,0-2.124-.054L28.582,42.311a.522.522,0,0,0-.054.024,1.079,1.079,0,0,0-.588.943,1.092,1.092,0,0,0,.59.964L36.671,48.4a1.173,1.173,0,0,0,1.078.032l10.984-4.266a.369.369,0,0,0,.049-.024l.053-.028.052.028L83.827,62.73l-2.965,1.217a1,1,0,0,1-.3.075,1.156,1.156,0,0,1-.31-.016,2.2,2.2,0,0,1-.388-.114,4.315,4.315,0,0,1-.467-.222L56.715,51.208a1.173,1.173,0,0,0-.566-.144M84.319,73.15c-.349,0-.705-.012-1.065-.035-.395-.026-.8-.066-1.195-.118a20.886,20.886,0,0,1-3.781-.883,22.675,22.675,0,0,1-3.748-1.639L49.1,56.174a1.288,1.288,0,0,1,.1-2.314l6.375-2.894a1.408,1.408,0,0,1,1.248.049L79.5,63.477a4.008,4.008,0,0,0,.441.209,1.938,1.938,0,0,0,.347.1.953.953,0,0,0,.25.013.791.791,0,0,0,.238-.059L83.31,62.7,48.833,44.362l-.019.008L37.837,48.633a1.385,1.385,0,0,1-1.269-.039l-8.143-4.158a1.287,1.287,0,0,1,0-2.3c.025-.013.052-.025.079-.036l18.23-6.984a2.6,2.6,0,0,1,2.314.061L96.105,59.766a18.69,18.69,0,0,1,3.135,2,6.988,6.988,0,0,1,1.879,2.163,2.583,2.583,0,0,1,.091,2.374,3.972,3.972,0,0,1-2.153,1.75l-10.3,4.3a10.694,10.694,0,0,1-3.128.739c-.424.039-.863.058-1.313.058" fill="#191717"/>
  <path id="Path_15925" data-name="Path 15925" d="M51.911,34.059l56.072,28.959a1.284,1.284,0,0,0,1.084.045l14.7-6.136a1.176,1.176,0,0,0,.174-2.1l-8.872-5.539a1.277,1.277,0,0,0-1.166-.1l-8.13,3.334L94.193,46.667l4.377-1.76a1.179,1.179,0,0,0,.081-2.169l-8.586-4.269a1.289,1.289,0,0,0-1.046-.045L82.786,40.9l-11.85-5.987,6.153-2.39a1.187,1.187,0,0,0,.773-1.109,1.2,1.2,0,0,0-.783-1.112L67.2,26.447a1.286,1.286,0,0,0-.926-.006v0L52.03,31.891a1.179,1.179,0,0,0-.119,2.168" fill="#fff"/>
  <path id="Path_15926" data-name="Path 15926" d="M52.038,33.814l56.073,28.959a.983.983,0,0,0,.4.111,1,1,0,0,0,.454-.076l14.7-6.135a.9.9,0,0,0,.134-1.615l-8.872-5.54a1.008,1.008,0,0,0-.915-.077l-8.246,3.383L93.525,46.639l4.942-1.987a.9.9,0,0,0,.061-1.667l-8.585-4.27a1.017,1.017,0,0,0-.821-.035L82.772,41.2,70.259,34.875l6.73-2.613a.913.913,0,0,0,.6-.852.931.931,0,0,0-.607-.856L67.1,26.7a1.009,1.009,0,0,0-.708-.011l-.02.008L52.13,32.148a.9.9,0,0,0-.092,1.666m56.535,29.623c-.034,0-.067,0-.1,0a1.554,1.554,0,0,1-.615-.171L51.785,34.3a1.454,1.454,0,0,1,.148-2.671l14.244-5.449a1.562,1.562,0,0,1,1.124.006l9.879,3.85a1.48,1.48,0,0,1,.958,1.368,1.459,1.459,0,0,1-.949,1.368l-5.577,2.165L82.8,40.593l6.118-2.425a1.566,1.566,0,0,1,1.27.053l8.586,4.27a1.454,1.454,0,0,1-.1,2.672L94.861,46.7l10.927,5.523,8.013-3.288a1.559,1.559,0,0,1,1.417.12l8.871,5.539a1.453,1.453,0,0,1-.212,2.592l-14.7,6.135a1.552,1.552,0,0,1-.6.12"/>
  <path id="Path_15927" data-name="Path 15927" d="M51.962,33.963l56.072,28.958a1.159,1.159,0,0,0,.462.129,1.2,1.2,0,0,0,.529-.088l14.7-6.135a1.066,1.066,0,0,0,.158-1.908l-8.872-5.54a1.173,1.173,0,0,0-1.066-.089l-8.176,3.354L93.926,46.658l4.6-1.852a1.069,1.069,0,0,0,.073-1.968l-8.586-4.269a1.17,1.17,0,0,0-.955-.041L82.78,41.017l-.044-.022L70.665,34.9l6.384-2.479a1.075,1.075,0,0,0,.7-1.006,1.1,1.1,0,0,0-.712-1.01l-9.88-3.85a1.175,1.175,0,0,0-.832-.01l-.015.006L52.07,32a1.069,1.069,0,0,0-.108,1.967m56.611,29.31-.091,0a1.393,1.393,0,0,1-.549-.153L51.861,34.159a1.289,1.289,0,0,1,.131-2.37L66.235,26.34a1.394,1.394,0,0,1,1,0L77.12,30.2a1.316,1.316,0,0,1,.853,1.214,1.3,1.3,0,0,1-.844,1.213l-5.923,2.3,11.585,5.852,6.188-2.452a1.4,1.4,0,0,1,1.135.048l8.586,4.27a1.289,1.289,0,0,1-.089,2.37l-4.151,1.67L105.781,52.4l8.082-3.316a1.39,1.39,0,0,1,1.267.107L124,54.732a1.287,1.287,0,0,1-.189,2.3l-14.7,6.135a1.406,1.406,0,0,1-.537.107" fill="#191717"/>
  <path id="Path_15928" data-name="Path 15928" d="M75.509,27.083a13.359,13.359,0,0,0,2.629,1.626L120.177,49.36a42.414,42.414,0,0,0,4.794,2.041,21.556,21.556,0,0,0,4.231,1.042q.536.071,1.055.1a14.076,14.076,0,0,0,2.822-.094,14.672,14.672,0,0,0,3.692-1.025l6.483-2.705a1.178,1.178,0,0,0,.155-2.115l-8.957-5.373a1.291,1.291,0,0,0-1.148-.087L127.4,43.573a.907.907,0,0,1-.249.061,1.2,1.2,0,0,1-.289-.013,2.273,2.273,0,0,1-.381-.1,4.686,4.686,0,0,1-.477-.2L91.629,26.772,95.665,25.2a1.184,1.184,0,0,0,.774-1.118,1.2,1.2,0,0,0-.8-1.109L85.47,19.168a.643.643,0,0,0-.457,0l-8.857,3.388a3.677,3.677,0,0,0-1.663,1.118,1.805,1.805,0,0,0-.277,1.731,3.955,3.955,0,0,0,1.293,1.676" fill="#fff"/>
  <path id="Path_15929" data-name="Path 15929" d="M75.685,26.872a13.166,13.166,0,0,0,2.575,1.591L120.3,49.113a42.1,42.1,0,0,0,4.762,2.027,21.324,21.324,0,0,0,4.178,1.03c.351.046.7.081,1.038.1a13.6,13.6,0,0,0,2.765-.093,14.4,14.4,0,0,0,3.623-1.006l6.483-2.706a.9.9,0,0,0,.119-1.624l-8.957-5.372a1.009,1.009,0,0,0-.9-.068L127.5,43.828a1.1,1.1,0,0,1-.327.08,1.456,1.456,0,0,1-.358-.014,2.491,2.491,0,0,1-.43-.115,4.98,4.98,0,0,1-.5-.214L90.937,26.746l4.629-1.8a.91.91,0,0,0,.6-.858.926.926,0,0,0-.619-.854L85.373,19.427a.372.372,0,0,0-.261,0l-8.857,3.389a3.409,3.409,0,0,0-1.541,1.026,1.539,1.539,0,0,0-.236,1.477,3.688,3.688,0,0,0,1.207,1.553m55.529,25.984c-.321,0-.645-.011-.974-.032-.353-.024-.711-.059-1.073-.108a21.779,21.779,0,0,1-4.285-1.054,42.707,42.707,0,0,1-4.826-2.054L78.017,28.957A13.575,13.575,0,0,1,75.333,27.3a4.2,4.2,0,0,1-1.378-1.8,2.067,2.067,0,0,1,.319-1.985A3.931,3.931,0,0,1,76.058,22.3l8.857-3.388a.918.918,0,0,1,.651,0l10.172,3.809a1.475,1.475,0,0,1,.977,1.364,1.46,1.46,0,0,1-.949,1.379L92.321,26.8l33.8,16.268a4.513,4.513,0,0,0,.448.191,1.976,1.976,0,0,0,.335.091.918.918,0,0,0,.219.01.6.6,0,0,0,.169-.042L133.2,40.9a1.565,1.565,0,0,1,1.394.106l8.957,5.372a1.452,1.452,0,0,1-.191,2.6l-6.483,2.706a14.971,14.971,0,0,1-3.76,1.043,14.061,14.061,0,0,1-1.9.129"/>
  <path id="Path_15930" data-name="Path 15930" d="M75.58,27a13.224,13.224,0,0,0,2.607,1.612l42.039,20.651a42.106,42.106,0,0,0,4.782,2.035,21.4,21.4,0,0,0,4.21,1.037c.353.047.706.083,1.048.1a13.79,13.79,0,0,0,2.8-.094,14.553,14.553,0,0,0,3.664-1.017l6.483-2.706a1.067,1.067,0,0,0,.141-1.918L134.4,41.332a1.18,1.18,0,0,0-1.049-.08l-5.907,2.424a.972.972,0,0,1-.28.068,1.276,1.276,0,0,1-.317-.013,2.372,2.372,0,0,1-.4-.108,4.817,4.817,0,0,1-.487-.207l-34.6-16.654,4.273-1.66a1.074,1.074,0,0,0,.7-1.014,1.092,1.092,0,0,0-.727-1.007L85.431,19.272a.54.54,0,0,0-.378,0L76.2,22.662a3.571,3.571,0,0,0-1.614,1.081,1.7,1.7,0,0,0-.261,1.63A3.843,3.843,0,0,0,75.58,27m55.634,25.692c-.318,0-.638-.011-.963-.032-.347-.023-.7-.059-1.063-.106a21.7,21.7,0,0,1-4.252-1.047,42.3,42.3,0,0,1-4.807-2.046L78.09,28.809a13.529,13.529,0,0,1-2.652-1.64,4.06,4.06,0,0,1-1.326-1.726,1.91,1.91,0,0,1,.293-1.832,3.779,3.779,0,0,1,1.712-1.155l8.857-3.389a.758.758,0,0,1,.535,0L95.68,22.874a1.313,1.313,0,0,1,.87,1.212,1.294,1.294,0,0,1-.844,1.222l-3.8,1.476,34.144,16.433a4.313,4.313,0,0,0,.465.2,2.149,2.149,0,0,0,.363.1,1.117,1.117,0,0,0,.261.011.745.745,0,0,0,.216-.054l5.906-2.423a1.4,1.4,0,0,1,1.247.1l8.957,5.372a1.287,1.287,0,0,1-.169,2.311l-6.483,2.706a14.839,14.839,0,0,1-3.719,1.032,13.909,13.909,0,0,1-1.881.127" fill="#191717"/>
  <path id="Path_15931" data-name="Path 15931" d="M91.631,17.918l7.93,5.251a1.28,1.28,0,0,0,1.186.134L105.4,21.5l45.2,24.037a1.323,1.323,0,0,0,.46.117,1.28,1.28,0,0,0,.578-.1l9.815-4.314a1.18,1.18,0,0,0,.028-2.182L114.87,17.818l2.264-.88a1.178,1.178,0,0,0,.773-1.147,1.192,1.192,0,0,0-.832-1.092l-10.551-3.83a3.58,3.58,0,0,0-2.378.062l-.008,0L91.875,15.823a1.177,1.177,0,0,0-.244,2.095" fill="#fff"/>
  <path id="Path_15932" data-name="Path 15932" d="M105.418,21.193l45.312,24.1a.99.99,0,0,0,.349.086,1,1,0,0,0,.453-.075l9.811-4.312a.908.908,0,0,0,.581-.828.921.921,0,0,0-.556-.85L114.161,17.8l2.873-1.117a.907.907,0,0,0-.044-1.72l-10.561-3.833a3.3,3.3,0,0,0-2.167.054l-12.285,4.9a.9.9,0,0,0-.193,1.61l7.929,5.25a1,1,0,0,0,.934.108Zm45.728,24.735c-.035,0-.07,0-.1,0a1.572,1.572,0,0,1-.556-.141L105.383,21.8l-4.536,1.762a1.558,1.558,0,0,1-1.441-.163l-7.93-5.252a1.452,1.452,0,0,1,.3-2.58l12.29-4.9a3.845,3.845,0,0,1,2.542-.06l10.56,3.832a1.479,1.479,0,0,1,1.014,1.343,1.452,1.452,0,0,1-.95,1.414l-1.654.643L161.6,38.808a1.465,1.465,0,0,1,.879,1.359,1.448,1.448,0,0,1-.916,1.328l-9.809,4.312a1.562,1.562,0,0,1-.6.121"/>
  <path id="Path_15933" data-name="Path 15933" d="M105.408,21.376l.044.022,45.2,24.038a1.18,1.18,0,0,0,.415.1,1.142,1.142,0,0,0,.528-.088l9.814-4.312a1.069,1.069,0,0,0,.027-1.98l-46.85-21.349,2.507-.975a1.071,1.071,0,0,0,.7-1.04,1.089,1.089,0,0,0-.756-.991l-10.555-3.832a3.459,3.459,0,0,0-2.3.062l-12.27,4.891a1.067,1.067,0,0,0-.224,1.9l7.93,5.25a1.17,1.17,0,0,0,1.086.125Zm45.739,24.387c-.031,0-.063,0-.094,0a1.43,1.43,0,0,1-.5-.127L105.394,21.618l-4.607,1.789A1.384,1.384,0,0,1,99.5,23.26l-7.93-5.25a1.286,1.286,0,0,1,.267-2.289L104.1,10.833a3.7,3.7,0,0,1,2.461-.069L117.112,14.6a1.308,1.308,0,0,1,.9,1.192,1.29,1.29,0,0,1-.843,1.254l-2.02.785,46.374,21.132a1.3,1.3,0,0,1,.782,1.206,1.284,1.284,0,0,1-.814,1.177l-9.813,4.314a1.4,1.4,0,0,1-.536.107" fill="#191717"/>
  <path id="Path_15934" data-name="Path 15934" d="M108.521,68.113A1.662,1.662,0,0,0,107.014,68l-8.962,3.76a1.528,1.528,0,0,0-.957,1.467l.821,21.748a.319.319,0,0,1-.314.353.329.329,0,0,1-.392-.274L93.072,75.89a1.555,1.555,0,0,0-.839-1.064,1.651,1.651,0,0,0-1.383-.046l-8.592,3.6a1.544,1.544,0,0,0-.957,1.485l3.884,78.1a2.084,2.084,0,0,0,1.069,1.705,2.238,2.238,0,0,0,2.065.079l6.71-3.182a1.53,1.53,0,0,0,.89-1.442l-.89-21.133a.319.319,0,0,1,.312-.354.33.33,0,0,1,.394.269l4.128,18.219a1.553,1.553,0,0,0,.875,1.068,1.655,1.655,0,0,0,1.411,0l8.549-4.055a1.535,1.535,0,0,0,.891-1.424l-2.32-78.336a1.54,1.54,0,0,0-.748-1.266" fill="#161715"/>
  <path id="Path_15935" data-name="Path 15935" d="M91.491,74.759a1.529,1.529,0,0,0-.6.121L82.3,78.485a1.436,1.436,0,0,0-.89,1.377l3.886,78.1a1.967,1.967,0,0,0,1.013,1.615,2.123,2.123,0,0,0,1.962.075l.024-.011,6.686-3.17a1.43,1.43,0,0,0,.829-1.339L94.919,134a.425.425,0,0,1,.408-.468.438.438,0,0,1,.515.355L99.97,152.1a1.45,1.45,0,0,0,.815.992,1.545,1.545,0,0,0,1.317,0l8.548-4.054a1.426,1.426,0,0,0,.828-1.322l-2.32-78.336a1.429,1.429,0,0,0-.695-1.175,1.553,1.553,0,0,0-1.407-.108l-8.962,3.761a1.42,1.42,0,0,0-.89,1.361l.822,21.747a.425.425,0,0,1-.411.466.432.432,0,0,1-.513-.359L92.965,75.912a1.452,1.452,0,0,0-.781-.989,1.551,1.551,0,0,0-.693-.164m-4.128,85.316c-.051,0-.1,0-.154,0a2.344,2.344,0,0,1-1.009-.3,2.186,2.186,0,0,1-1.124-1.8l-3.886-78.1a1.656,1.656,0,0,1,1.025-1.592l8.593-3.6a1.768,1.768,0,0,1,1.475.05,1.664,1.664,0,0,1,.9,1.139l4.138,19.163a.221.221,0,0,0,.273.186c.2-.022.22-.147.215-.238l-.821-21.748a1.634,1.634,0,0,1,1.025-1.572l8.961-3.761a1.772,1.772,0,0,1,1.608.123,1.649,1.649,0,0,1,.8,1.357l2.32,78.336a1.65,1.65,0,0,1-.955,1.527l-8.547,4.054a1.763,1.763,0,0,1-1.507,0,1.669,1.669,0,0,1-.935-1.143l-4.127-18.22a.216.216,0,0,0-.275-.183c-.223.025-.217.18-.215.239l.892,21.132a1.644,1.644,0,0,1-.954,1.548l-6.734,3.192a2.331,2.331,0,0,1-.979.215" fill="#191717"/>
  <path id="Path_15936" data-name="Path 15936" d="M134.543,97.127a.248.248,0,0,1,0-.09L140.756,56.5a1.46,1.46,0,0,0-.59-1.394,1.59,1.59,0,0,0-1.549-.184L130.578,58.3a1.482,1.482,0,0,0-.907,1.188l-2.665,23.656a.26.26,0,0,1-.279.244.265.265,0,0,1-.288-.235l-3.106-19.776a1.476,1.476,0,0,0-.777-1.077,1.58,1.58,0,0,0-1.359-.064l-8.582,3.6a1.463,1.463,0,0,0-.883,1.652l7.812,35.7a.263.263,0,0,1,0,.093l-5.834,42.053a1.456,1.456,0,0,0,.627,1.4,1.58,1.58,0,0,0,1.577.129l7.95-3.769a1.464,1.464,0,0,0,.841-1.16l2.448-21.769a.259.259,0,0,1,.276-.245.263.263,0,0,1,.29.233l2.913,17.587a1.474,1.474,0,0,0,.814,1.084,1.57,1.57,0,0,0,1.386.016l7.978-3.782a1.459,1.459,0,0,0,.824-1.592Z" fill="#161715"/>
  <path id="Path_15937" data-name="Path 15937" d="M121.81,62.22a1.47,1.47,0,0,0-.57.115l-8.582,3.6a1.355,1.355,0,0,0-.818,1.527l7.812,35.7a.393.393,0,0,1,.006.131l-5.836,42.054a1.346,1.346,0,0,0,.582,1.294,1.479,1.479,0,0,0,.741.259,1.528,1.528,0,0,0,.726-.14l7.95-3.768a1.355,1.355,0,0,0,.778-1.072l2.448-21.77a.365.365,0,0,1,.384-.343.371.371,0,0,1,.4.326l2.912,17.587a1.369,1.369,0,0,0,.754,1,1.469,1.469,0,0,0,1.29.014l7.978-3.782a1.35,1.35,0,0,0,.764-1.471l-7.094-36.338a.34.34,0,0,1,0-.131l6.214-40.533A1.352,1.352,0,0,0,140.1,55.2a1.476,1.476,0,0,0-1.441-.17L130.622,58.4a1.368,1.368,0,0,0-.841,1.1l-2.664,23.655a.4.4,0,0,1-.785.014l-3.107-19.776a1.366,1.366,0,0,0-.72-1,1.475,1.475,0,0,0-.695-.175m-6.572,84.9c-.036,0-.071,0-.107,0a1.694,1.694,0,0,1-.853-.3,1.566,1.566,0,0,1-.674-1.506l5.835-42.052a.161.161,0,0,0,0-.057l-7.811-35.7a1.575,1.575,0,0,1,.948-1.778l8.582-3.6a1.687,1.687,0,0,1,1.453.068,1.584,1.584,0,0,1,.835,1.158l3.106,19.775c.011.07.041.142.179.142s.161-.079.169-.145l2.665-23.656a1.589,1.589,0,0,1,.975-1.278l8.039-3.373a1.7,1.7,0,0,1,1.656.2,1.569,1.569,0,0,1,.633,1.5l-6.214,40.535a.135.135,0,0,0,0,.053l7.094,36.338a1.568,1.568,0,0,1-.885,1.712l-7.978,3.782a1.683,1.683,0,0,1-1.483-.016,1.587,1.587,0,0,1-.873-1.165l-2.913-17.587a.153.153,0,0,0-.175-.141c-.14,0-.166.079-.173.147l-2.447,21.769a1.574,1.574,0,0,1-.9,1.247l-7.95,3.769a1.709,1.709,0,0,1-.728.163" fill="#191717"/>
  <path id="Path_15938" data-name="Path 15938" d="M163.649,45.817a1.2,1.2,0,0,0-.632-.875,1.281,1.281,0,0,0-1.1-.051l-17.275,7.247a1.193,1.193,0,0,0-.73.919l-2.335,15.227a1.183,1.183,0,0,0,.482,1.135,1.29,1.29,0,0,0,1.264.141l4.719-2.035.041,61.887a1.189,1.189,0,0,0,.591,1.022,1.267,1.267,0,0,0,.577.18,1.286,1.286,0,0,0,.634-.121l8.3-3.938a1.183,1.183,0,0,0,.69-1.062l.419-62.806,5.7-2.45a1.189,1.189,0,0,0,.719-1.268Z" fill="#161715"/>
  <path id="Path_15939" data-name="Path 15939" d="M148.149,67.358v.168l.041,61.886a1.081,1.081,0,0,0,.538.927,1.17,1.17,0,0,0,1.106.054l8.305-3.937a1.073,1.073,0,0,0,.628-.964l.42-62.878,5.761-2.478a1.079,1.079,0,0,0,.654-1.151L163.54,45.834a1.09,1.09,0,0,0-.575-.795,1.178,1.178,0,0,0-1.009-.046l-17.275,7.246a1.085,1.085,0,0,0-.663.834L141.683,68.3a1.069,1.069,0,0,0,.438,1.028,1.176,1.176,0,0,0,1.155.13Zm1.182,63.369-.09,0a1.392,1.392,0,0,1-.627-.195,1.3,1.3,0,0,1-.645-1.116l-.041-61.72-4.565,1.968a1.4,1.4,0,0,1-1.372-.153,1.291,1.291,0,0,1-.526-1.24L143.8,53.04a1.3,1.3,0,0,1,.8-1l17.275-7.247a1.391,1.391,0,0,1,1.2.056,1.311,1.311,0,0,1,.689.955l2.062,13.152a1.3,1.3,0,0,1-.785,1.386l-5.629,2.422-.419,62.733a1.291,1.291,0,0,1-.753,1.162l-8.3,3.938a1.4,1.4,0,0,1-.6.134" fill="#191717"/>
  <path id="Path_15940" data-name="Path 15940" d="M110.015,67.517a1.662,1.662,0,0,0-1.5-.115l-8.947,3.755a1.525,1.525,0,0,0-.957,1.464l.821,21.713a.318.318,0,0,1-.313.353.329.329,0,0,1-.392-.273L94.59,75.282a1.556,1.556,0,0,0-.837-1.063,1.65,1.65,0,0,0-1.381-.046l-8.578,3.6a1.539,1.539,0,0,0-.956,1.482l3.878,77.975a2.079,2.079,0,0,0,1.067,1.7,2.234,2.234,0,0,0,2.061.078h0l6.7-3.176a1.53,1.53,0,0,0,.889-1.441l-.889-21.1a.318.318,0,0,1,.311-.353.328.328,0,0,1,.394.269l4.121,18.19a1.559,1.559,0,0,0,.874,1.067,1.651,1.651,0,0,0,1.409,0l8.535-4.047a1.532,1.532,0,0,0,.889-1.422l-2.316-78.213a1.538,1.538,0,0,0-.746-1.264" fill="#fff"/>
  <path id="Path_15941" data-name="Path 15941" d="M93.011,74.319a1.368,1.368,0,0,0-.532.108l-8.579,3.6a1.267,1.267,0,0,0-.787,1.215l3.878,77.975a1.8,1.8,0,0,0,.928,1.476,1.957,1.957,0,0,0,1.807.069l6.7-3.176a1.256,1.256,0,0,0,.732-1.18l-.889-21.1a.589.589,0,0,1,.554-.639.6.6,0,0,1,.695.482l4.121,18.19a1.285,1.285,0,0,0,.722.878,1.371,1.371,0,0,0,1.174,0l8.536-4.048A1.254,1.254,0,0,0,112.8,147l-2.316-78.213a1.265,1.265,0,0,0-.615-1.037,1.385,1.385,0,0,0-1.255-.1l-8.947,3.755a1.252,1.252,0,0,0-.788,1.2L99.7,94.324a.592.592,0,0,1-.558.637.6.6,0,0,1-.693-.489L94.321,75.34a1.281,1.281,0,0,0-.691-.874,1.391,1.391,0,0,0-.619-.147M88.89,159.5c-.054,0-.109,0-.164-.006a2.516,2.516,0,0,1-1.079-.324,2.35,2.35,0,0,1-1.206-1.928L82.562,79.268a1.817,1.817,0,0,1,1.125-1.75l8.578-3.6a1.93,1.93,0,0,1,1.611.053,1.832,1.832,0,0,1,.984,1.252l4.131,19.132c.011.052.014.066.094.056a.125.125,0,0,0,.062-.019l-.816-21.761A1.8,1.8,0,0,1,99.455,70.9l8.948-3.755a1.937,1.937,0,0,1,1.756.134,1.813,1.813,0,0,1,.878,1.491l2.316,78.212a1.808,1.808,0,0,1-1.046,1.68l-8.537,4.048a1.926,1.926,0,0,1-1.642,0,1.831,1.831,0,0,1-1.026-1.256L96.98,133.27c-.012-.052-.016-.064-.094-.055a.12.12,0,0,0-.062.019l.884,21.148a1.8,1.8,0,0,1-1.046,1.7l-6.7,3.177a2.507,2.507,0,0,1-1.073.241"/>
  <path id="Path_15942" data-name="Path 15942" d="M93.012,74.153a1.528,1.528,0,0,0-.6.121l-8.578,3.6a1.433,1.433,0,0,0-.889,1.375l3.879,77.975a1.966,1.966,0,0,0,1.012,1.612,2.115,2.115,0,0,0,1.958.075l6.7-3.176a1.421,1.421,0,0,0,.826-1.337l-.889-21.1a.423.423,0,0,1,.408-.467.437.437,0,0,1,.515.354l4.121,18.19a1.448,1.448,0,0,0,.813.991,1.535,1.535,0,0,0,1.314,0l8.536-4.048a1.422,1.422,0,0,0,.826-1.319l-2.316-78.212a1.431,1.431,0,0,0-.694-1.174,1.551,1.551,0,0,0-1.4-.107l-8.947,3.755a1.415,1.415,0,0,0-.889,1.358l.821,21.713a.425.425,0,0,1-.411.466.431.431,0,0,1-.512-.358L94.483,75.3a1.446,1.446,0,0,0-.779-.987,1.547,1.547,0,0,0-.692-.164m-4.121,85.182c-.051,0-.1,0-.153-.005a2.362,2.362,0,0,1-1.009-.3,2.186,2.186,0,0,1-1.122-1.793L82.728,79.259a1.65,1.65,0,0,1,1.024-1.589l8.578-3.6a1.76,1.76,0,0,1,1.473.049,1.668,1.668,0,0,1,.9,1.138L98.83,94.39a.22.22,0,0,0,.273.186c.2-.023.218-.147.214-.238L98.5,72.624a1.635,1.635,0,0,1,1.023-1.57l8.948-3.754a1.769,1.769,0,0,1,1.6.123,1.647,1.647,0,0,1,.8,1.355l2.316,78.212a1.643,1.643,0,0,1-.951,1.525l-8.537,4.047a1.763,1.763,0,0,1-1.5.005,1.675,1.675,0,0,1-.935-1.143l-4.121-18.191a.214.214,0,0,0-.274-.183c-.222.025-.215.181-.213.239l.889,21.1a1.64,1.64,0,0,1-.952,1.545l-6.723,3.187a2.327,2.327,0,0,1-.978.215" fill="#191717"/>
  <path id="Path_15943" data-name="Path 15943" d="M116.683,146.006a1.286,1.286,0,0,1-.656-.229,1.18,1.18,0,0,1-.511-1.133l5.826-41.991a.523.523,0,0,0-.006-.184l-7.8-35.656a1.186,1.186,0,0,1,.719-1.336l8.57-3.595a1.3,1.3,0,0,1,.505-.1,1.318,1.318,0,0,1,.616.155,1.2,1.2,0,0,1,.634.875l3.1,19.747a.562.562,0,0,0,1.112-.021l2.661-23.621a1.2,1.2,0,0,1,.739-.963l8.027-3.368a1.291,1.291,0,0,1,.5-.1,1.319,1.319,0,0,1,.774.252,1.186,1.186,0,0,1,.48,1.129l-6.206,40.474a.51.51,0,0,0,0,.186l7.083,36.284a1.182,1.182,0,0,1-.67,1.288l-7.966,3.777a1.3,1.3,0,0,1-.558.126,1.282,1.282,0,0,1-.584-.14,1.2,1.2,0,0,1-.665-.881L129.5,119.417a.531.531,0,0,0-.543-.464.537.537,0,0,0-.568.491l-2.444,21.736a1.189,1.189,0,0,1-.684.94l-7.938,3.763a1.3,1.3,0,0,1-.56.126Z" fill="#fff"/>
  <path id="Path_15944" data-name="Path 15944" d="M140.721,54.208a1.578,1.578,0,0,0-.61.122L132.084,57.7a1.48,1.48,0,0,0-.906,1.186L128.517,82.5a.26.26,0,0,1-.278.244.264.264,0,0,1-.288-.235l-3.1-19.747a1.477,1.477,0,0,0-.777-1.075,1.571,1.571,0,0,0-1.357-.064l-8.569,3.594a1.462,1.462,0,0,0-.882,1.65l7.8,35.65a.237.237,0,0,1,0,.092h0l-5.826,41.991a1.454,1.454,0,0,0,.626,1.4,1.574,1.574,0,0,0,.8.277q.051,0,.1,0a1.581,1.581,0,0,0,.678-.152l7.938-3.763a1.464,1.464,0,0,0,.84-1.158l2.443-21.737a.26.26,0,0,1,.277-.245h.018a.259.259,0,0,1,.271.233l2.908,17.561a1.478,1.478,0,0,0,.813,1.083,1.569,1.569,0,0,0,1.384.016l7.966-3.777a1.459,1.459,0,0,0,.824-1.589l-7.084-36.285a.248.248,0,0,1,0-.09L142.246,55.9a1.458,1.458,0,0,0-.588-1.392,1.585,1.585,0,0,0-.937-.305m0,.551a1.041,1.041,0,0,1,.61.2.911.911,0,0,1,.371.865l-6.2,40.462a.8.8,0,0,0,0,.292l7.084,36.286a.906.906,0,0,1-.519.985l-7.966,3.776a1.011,1.011,0,0,1-.44.1,1.029,1.029,0,0,1-.462-.11.932.932,0,0,1-.515-.68l-2.908-17.561a.806.806,0,0,0-.815-.694h-.029a.8.8,0,0,0-.813.734l-2.444,21.738a.918.918,0,0,1-.529.721l-7.938,3.763a1.027,1.027,0,0,1-.441.1l-.065,0a1.028,1.028,0,0,1-.518-.18.9.9,0,0,1-.395-.869l5.826-41.991.006-.039v-.01a.847.847,0,0,0-.017-.238l-7.8-35.65a.912.912,0,0,1,.557-1.023l8.569-3.6a1.032,1.032,0,0,1,.885.042.93.93,0,0,1,.491.675l3.1,19.747a.817.817,0,0,0,.843.7.8.8,0,0,0,.816-.733l2.661-23.62a.929.929,0,0,1,.571-.741l8.028-3.368a1.025,1.025,0,0,1,.4-.079"/>
  <path id="Path_15945" data-name="Path 15945" d="M123.328,61.616a1.491,1.491,0,0,0-.57.114l-8.569,3.595a1.351,1.351,0,0,0-.817,1.524l7.8,35.65a.355.355,0,0,1,0,.133l-5.825,41.99a1.343,1.343,0,0,0,.579,1.291,1.473,1.473,0,0,0,.741.259,1.508,1.508,0,0,0,.724-.139l7.939-3.763a1.357,1.357,0,0,0,.778-1.071l2.443-21.737a.4.4,0,0,1,.784-.018l2.908,17.562a1.363,1.363,0,0,0,.754,1,1.459,1.459,0,0,0,1.287.016l7.967-3.778a1.347,1.347,0,0,0,.763-1.467l-7.084-36.285a.305.305,0,0,1,0-.131l6.2-40.474a1.348,1.348,0,0,0-.546-1.285,1.472,1.472,0,0,0-1.438-.17L132.128,57.8a1.363,1.363,0,0,0-.84,1.1l-2.66,23.622a.4.4,0,0,1-.786.013l-3.1-19.747a1.372,1.372,0,0,0-.721-1,1.479,1.479,0,0,0-.693-.173M116.767,146.4c-.037,0-.072,0-.108,0a1.678,1.678,0,0,1-.852-.3,1.566,1.566,0,0,1-.674-1.5l5.827-41.99a.138.138,0,0,0,0-.057l-7.8-35.648a1.572,1.572,0,0,1,.946-1.775l8.57-3.6a1.686,1.686,0,0,1,1.451.069,1.584,1.584,0,0,1,.834,1.157l3.1,19.746c.011.07.041.142.179.142a.149.149,0,0,0,.168-.147l2.661-23.621a1.59,1.59,0,0,1,.973-1.276l8.027-3.367a1.7,1.7,0,0,1,1.654.2,1.565,1.565,0,0,1,.632,1.5L136.15,96.4a.14.14,0,0,0,0,.054l7.084,36.285a1.567,1.567,0,0,1-.883,1.709l-7.968,3.777a1.674,1.674,0,0,1-1.48-.018,1.578,1.578,0,0,1-.871-1.162l-2.91-17.562a.153.153,0,0,0-.174-.14c-.14,0-.164.079-.173.146l-2.443,21.737a1.573,1.573,0,0,1-.9,1.246l-7.937,3.764a1.7,1.7,0,0,1-.726.162" fill="#191717"/>
  <path id="Path_15946" data-name="Path 15946" d="M150.74,129.667a.994.994,0,0,1-.452-.14.92.92,0,0,1-.458-.785l-.041-62.236-5.1,2.2a1,1,0,0,1-.4.081,1.018,1.018,0,0,1-.594-.191.906.906,0,0,1-.371-.869l2.332-15.21a.92.92,0,0,1,.564-.706L163.48,44.57a1.007,1.007,0,0,1,.866.04.93.93,0,0,1,.488.674l2.06,13.137a.913.913,0,0,1-.556.971l-5.854,2.518-.419,62.915a.909.909,0,0,1-.532.814l-8.3,3.933a.987.987,0,0,1-.43.1Z" fill="#fff"/>
  <path id="Path_15947" data-name="Path 15947" d="M163.87,44.216a1.3,1.3,0,0,0-.5.1l-17.255,7.239a1.192,1.192,0,0,0-.729.918l-2.332,15.21a1.181,1.181,0,0,0,.481,1.133,1.289,1.289,0,0,0,1.263.141l4.713-2.032.041,61.817a1.192,1.192,0,0,0,.591,1.021,1.262,1.262,0,0,0,.576.179c.028,0,.056,0,.085,0a1.271,1.271,0,0,0,.548-.124l8.3-3.932a1.182,1.182,0,0,0,.689-1.062l.419-62.735,5.689-2.447a1.187,1.187,0,0,0,.718-1.267l-2.059-13.137a1.206,1.206,0,0,0-.631-.874,1.294,1.294,0,0,0-.605-.151m0,.551a.736.736,0,0,1,.345.087.65.65,0,0,1,.346.473l2.059,13.136a.638.638,0,0,1-.39.676l-5.69,2.447-.331.142,0,.361-.419,62.735a.635.635,0,0,1-.375.566l-8.3,3.934a.721.721,0,0,1-.31.07l-.051,0a.713.713,0,0,1-.326-.1.642.642,0,0,1-.323-.549l-.042-61.816v-.837l-.769.331-4.713,2.032a.729.729,0,0,1-.289.059.741.741,0,0,1-.431-.139.631.631,0,0,1-.261-.6l2.333-15.211a.642.642,0,0,1,.4-.493l17.256-7.239a.735.735,0,0,1,.284-.057"/>
  <path id="Path_15948" data-name="Path 15948" d="M149.625,66.759v.167l.04,61.817a1.083,1.083,0,0,0,.537.926,1.172,1.172,0,0,0,1.105.053l8.3-3.932a1.072,1.072,0,0,0,.627-.963l.419-62.807,5.756-2.475a1.081,1.081,0,0,0,.653-1.149L165,45.259a1.091,1.091,0,0,0-.575-.794,1.167,1.167,0,0,0-1.007-.046l-17.255,7.238a1.084,1.084,0,0,0-.663.834L143.165,67.7a1.071,1.071,0,0,0,.438,1.028,1.177,1.177,0,0,0,1.154.129Zm1.182,63.3q-.047,0-.093,0a1.388,1.388,0,0,1-.626-.195,1.3,1.3,0,0,1-.644-1.115l-.04-61.65-4.56,1.966a1.4,1.4,0,0,1-1.371-.153,1.291,1.291,0,0,1-.525-1.239l2.332-15.21a1.3,1.3,0,0,1,.795-1l17.256-7.239a1.386,1.386,0,0,1,1.2.056,1.309,1.309,0,0,1,.689.954l2.059,13.137a1.3,1.3,0,0,1-.783,1.385l-5.623,2.419-.418,62.662a1.292,1.292,0,0,1-.753,1.161l-8.3,3.933a1.388,1.388,0,0,1-.595.134" fill="#191717"/>
  <path id="Path_15949" data-name="Path 15949" d="M58.792,132.686,40.377,120.669l-.3-3.656L57.722,128.4c.175.114.323.216.446.314a1.3,1.3,0,0,1,.236.232.667.667,0,0,1,.111.207,1.405,1.405,0,0,1,.059.338Zm23.426,15.287L68.757,139.19,68.3,131.8a12.455,12.455,0,0,0-.777-3.658,12.718,12.718,0,0,0-1.7-3.08,16.266,16.266,0,0,0-2.4-2.55,23.872,23.872,0,0,0-2.876-2.113l-24.2-15.326a12.193,12.193,0,0,0-2.531-1.269,3.9,3.9,0,0,0-2.119-.2,2.082,2.082,0,0,0-1.456,1.219,4.635,4.635,0,0,0-.262,2.286l1.486,16.661a1.2,1.2,0,0,0,.537.887l49.6,32.965a1.288,1.288,0,0,0,1.312.063,1.177,1.177,0,0,0,.635-1.1l-.356-6.954a2.124,2.124,0,0,0-.968-1.655" fill="#161715"/>
  <path id="Path_15950" data-name="Path 15950" d="M40.483,120.605l18.184,11.867-.2-2.971a1.317,1.317,0,0,0-.054-.311.538.538,0,0,0-.093-.175,1.265,1.265,0,0,0-.218-.214c-.11-.087-.245-.181-.437-.306L40.2,117.227ZM58.917,132.9l-.185-.121-18.46-12.047-.328-3.932.188.121,17.65,11.39c.2.129.339.227.455.32a1.456,1.456,0,0,1,.256.252.773.773,0,0,1,.126.239,1.536,1.536,0,0,1,.065.365ZM32.324,103.642a2.665,2.665,0,0,0-.608.067,1.976,1.976,0,0,0-1.382,1.158,4.532,4.532,0,0,0-.252,2.231l1.486,16.66a1.084,1.084,0,0,0,.488.806l49.6,32.964a1.169,1.169,0,0,0,1.2.057,1.065,1.065,0,0,0,.577-1l-.357-6.955a2.011,2.011,0,0,0-.917-1.567L68.65,139.252l-.462-7.443a12.4,12.4,0,0,0-.771-3.625,12.541,12.541,0,0,0-1.69-3.053,16.1,16.1,0,0,0-2.386-2.533,23.827,23.827,0,0,0-2.862-2.1l-24.2-15.326a12.026,12.026,0,0,0-2.508-1.258,4.594,4.594,0,0,0-1.449-.269m49.979,54.3q-.045,0-.09,0a1.4,1.4,0,0,1-.678-.229l-49.6-32.964a1.3,1.3,0,0,1-.585-.97l-1.487-16.66a4.745,4.745,0,0,1,.271-2.342,2.189,2.189,0,0,1,1.532-1.281,3.993,3.993,0,0,1,2.179.207,12.2,12.2,0,0,1,2.555,1.281l24.2,15.326a23.9,23.9,0,0,1,2.889,2.122A16.4,16.4,0,0,1,65.9,125a12.784,12.784,0,0,1,1.719,3.106,12.611,12.611,0,0,1,.785,3.69l.455,7.333,13.415,8.752a2.227,2.227,0,0,1,1.017,1.741l.357,6.955a1.284,1.284,0,0,1-.693,1.2,1.4,1.4,0,0,1-.656.164" fill="#191717"/>
  <path id="Path_15951" data-name="Path 15951" d="M37.876,90.14,53.34,99.548a4.207,4.207,0,0,1,.44.3,1.323,1.323,0,0,1,.24.24.733.733,0,0,1,.117.221,1.269,1.269,0,0,1,.059.322l.236,3.343-16.238-10Zm42.968,40.41a1.271,1.271,0,0,0,.7-.154,1.176,1.176,0,0,0,.621-1.094l-.4-7.9a1.2,1.2,0,0,0-.577-.954L64.26,110.034l15.47,5.521a1.282,1.282,0,0,0,1.165-.155,1.176,1.176,0,0,0,.506-1.022l-.443-8.614a1.218,1.218,0,0,0-.857-1.083L63.563,99.387a7.187,7.187,0,0,0-.527-1.824,10.407,10.407,0,0,0-1.234-2.1,12.96,12.96,0,0,0-1.648-1.806A11.772,11.772,0,0,0,58.3,92.277l-23.841-14.2A12.3,12.3,0,0,0,31.7,76.8a3.82,3.82,0,0,0-2.3-.066,2.4,2.4,0,0,0-1.482,1.518A6.29,6.29,0,0,0,27.681,81l1.491,16.709a1.192,1.192,0,0,0,.563.907l50.51,31.744a1.3,1.3,0,0,0,.6.193" fill="#161715"/>
  <path id="Path_15952" data-name="Path 15952" d="M38.3,93.913l16.007,9.855-.22-3.127a1.183,1.183,0,0,0-.053-.295.675.675,0,0,0-.1-.19,1.373,1.373,0,0,0-.223-.222,4.294,4.294,0,0,0-.428-.292L38,90.347Zm16.258,10.269-.184-.113L38.089,94.042l-.342-4.109L53.4,99.454a4.431,4.431,0,0,1,.452.309,1.506,1.506,0,0,1,.259.26.833.833,0,0,1,.133.252,1.374,1.374,0,0,1,.065.351ZM30.341,76.7a2.779,2.779,0,0,0-.907.141,2.3,2.3,0,0,0-1.414,1.452,6.187,6.187,0,0,0-.229,2.7l1.49,16.71a1.082,1.082,0,0,0,.512.822L80.3,130.264a1.187,1.187,0,0,0,.548.177h0a1.2,1.2,0,0,0,.638-.141,1.069,1.069,0,0,0,.565-.992l-.4-7.9a1.089,1.089,0,0,0-.524-.867l-17.82-10.968,16.46,5.874a1.172,1.172,0,0,0,1.065-.141,1.064,1.064,0,0,0,.459-.925l-.443-8.615a1.108,1.108,0,0,0-.78-.984l-16.6-5.315-.01-.068a7.061,7.061,0,0,0-.519-1.8,10.3,10.3,0,0,0-1.22-2.072,12.834,12.834,0,0,0-1.635-1.793,11.689,11.689,0,0,0-1.834-1.37L34.4,78.172a12.092,12.092,0,0,0-2.736-1.263,4.781,4.781,0,0,0-1.327-.21M80.93,130.664l-.094,0a1.4,1.4,0,0,1-.65-.21L29.676,98.706a1.3,1.3,0,0,1-.614-.989L27.571,81.008a6.394,6.394,0,0,1,.242-2.793,2.508,2.508,0,0,1,1.55-1.583,3.916,3.916,0,0,1,2.366.065,12.305,12.305,0,0,1,2.788,1.286l23.841,14.2a11.908,11.908,0,0,1,1.869,1.4A13.209,13.209,0,0,1,61.89,95.4a10.484,10.484,0,0,1,1.246,2.118,7.333,7.333,0,0,1,.526,1.784l16.473,5.273a1.329,1.329,0,0,1,.932,1.183l.443,8.614a1.282,1.282,0,0,1-.553,1.117,1.388,1.388,0,0,1-1.265.169l-14.479-5.168,16.029,9.866a1.305,1.305,0,0,1,.628,1.044l.4,7.9a1.285,1.285,0,0,1-.679,1.2,1.377,1.377,0,0,1-.666.172" fill="#191717"/>
  <path id="Path_15953" data-name="Path 15953" d="M35.555,62.227,67.934,80.651a5.119,5.119,0,0,1,.479.3,1.282,1.282,0,0,1,.248.227.654.654,0,0,1,.113.214,1.547,1.547,0,0,1,.064.381l.206,3.537-.144-.08L36.582,66.592a2.67,2.67,0,0,1-.342-.227,1.336,1.336,0,0,1-.217-.214.851.851,0,0,1-.122-.215,1,1,0,0,1-.061-.282ZM30.7,73.144a18.206,18.206,0,0,0,2.778,2L71.819,97.768a18.458,18.458,0,0,0,3.125,1.515,7.317,7.317,0,0,0,1.946.437,4.165,4.165,0,0,0,.85-.026,2.767,2.767,0,0,0,2.107-1.419,6.172,6.172,0,0,0,.556-3.337l-.589-11.474a12.5,12.5,0,0,0-.886-4.046,13.316,13.316,0,0,0-1.992-3.364,17.278,17.278,0,0,0-2.754-2.7A23.642,23.642,0,0,0,71,71.246L32.033,49.613a11.614,11.614,0,0,0-2.82-1.176,3.78,3.78,0,0,0-2.337.064,2.591,2.591,0,0,0-1.465,1.635A6.877,6.877,0,0,0,25.182,53l1.039,11.648a12.217,12.217,0,0,0,.739,3.236,12.386,12.386,0,0,0,1.53,2.837A14.532,14.532,0,0,0,30.7,73.144" fill="#161715"/>
  <path id="Path_15954" data-name="Path 15954" d="M35.682,62.426l.268,3.218A.927.927,0,0,0,36,65.9a.738.738,0,0,0,.107.187,1.183,1.183,0,0,0,.2.195,2.627,2.627,0,0,0,.328.218L68.922,85.114l-.194-3.335a1.477,1.477,0,0,0-.058-.354.552.552,0,0,0-.1-.178,1.19,1.19,0,0,0-.227-.208,5.179,5.179,0,0,0-.469-.293ZM69.165,85.5l-.319-.178L36.527,66.687a2.765,2.765,0,0,1-.355-.236,1.361,1.361,0,0,1-.235-.232.962.962,0,0,1-.139-.243,1.157,1.157,0,0,1-.068-.314l-.3-3.634.182.1L67.988,80.554a5.44,5.44,0,0,1,.491.307,1.379,1.379,0,0,1,.268.249.777.777,0,0,1,.133.246,1.694,1.694,0,0,1,.068.41ZM30.77,73.061a18.1,18.1,0,0,0,2.761,1.987L71.876,97.673a18.349,18.349,0,0,0,3.1,1.505,7.2,7.2,0,0,0,1.918.432,4.017,4.017,0,0,0,.826-.026,2.657,2.657,0,0,0,2.027-1.364,6.057,6.057,0,0,0,.541-3.277L79.7,83.469a12.377,12.377,0,0,0-.878-4.01,13.211,13.211,0,0,0-1.976-3.336,17.149,17.149,0,0,0-2.737-2.686,23.405,23.405,0,0,0-3.17-2.095L31.979,49.709a11.492,11.492,0,0,0-2.792-1.166,3.684,3.684,0,0,0-2.269.059,2.492,2.492,0,0,0-1.4,1.57,6.778,6.778,0,0,0-.223,2.819l1.04,11.648a12.047,12.047,0,0,0,.731,3.206,12.318,12.318,0,0,0,1.516,2.812,14.45,14.45,0,0,0,2.191,2.4M77.19,99.84c-.1,0-.2,0-.307-.01a7.435,7.435,0,0,1-1.976-.444,18.436,18.436,0,0,1-3.143-1.524L33.419,75.238a18.291,18.291,0,0,1-2.795-2.012A14.644,14.644,0,0,1,28.4,70.785a12.5,12.5,0,0,1-1.543-2.862,12.278,12.278,0,0,1-.745-3.265L25.072,53.01a6.973,6.973,0,0,1,.236-2.911,2.7,2.7,0,0,1,1.526-1.7,3.89,3.89,0,0,1,2.405-.069,11.721,11.721,0,0,1,2.848,1.187L71.05,71.149a23.755,23.755,0,0,1,3.2,2.115,17.379,17.379,0,0,1,2.772,2.721,13.43,13.43,0,0,1,2.008,3.392,12.572,12.572,0,0,1,.894,4.08l.589,11.475a6.264,6.264,0,0,1-.57,3.4A2.867,2.867,0,0,1,77.755,99.8a4.155,4.155,0,0,1-.565.038" fill="#191717"/>
  <path id="Path_15955" data-name="Path 15955" d="M57.3,133.28,38.888,121.264l-.305-3.656L56.232,129a5.208,5.208,0,0,1,.447.314,1.344,1.344,0,0,1,.237.231.681.681,0,0,1,.11.208,1.362,1.362,0,0,1,.058.338Zm23.425,15.288-13.462-8.784-.459-7.386a12.456,12.456,0,0,0-.778-3.658,12.651,12.651,0,0,0-1.7-3.08,16.257,16.257,0,0,0-2.4-2.55A23.988,23.988,0,0,0,59.049,121l-24.2-15.326a12.124,12.124,0,0,0-2.532-1.269,3.9,3.9,0,0,0-2.118-.2,2.081,2.081,0,0,0-1.457,1.219,4.634,4.634,0,0,0-.261,2.286l1.486,16.66a1.19,1.19,0,0,0,.537.888l49.6,32.964a1.283,1.283,0,0,0,1.312.063,1.173,1.173,0,0,0,.635-1.1l-.356-6.955a2.123,2.123,0,0,0-.967-1.654" fill="#fff"/>
  <path id="Path_15956" data-name="Path 15956" d="M39.151,121.107l17.839,11.64-.181-2.639a1.186,1.186,0,0,0-.045-.27.387.387,0,0,0-.067-.125,1.1,1.1,0,0,0-.191-.186c-.116-.093-.257-.189-.423-.3L38.9,118.144Zm18.465,12.708L38.625,121.422l-.363-4.348,18.12,11.693a5.469,5.469,0,0,1,.469.33,1.593,1.593,0,0,1,.286.283.93.93,0,0,1,.15.286,1.612,1.612,0,0,1,.072.4ZM30.835,104.4a2.521,2.521,0,0,0-.57.062A1.816,1.816,0,0,0,29,105.53a4.373,4.373,0,0,0-.239,2.149l1.486,16.66a.927.927,0,0,0,.415.684l49.6,32.964a1.008,1.008,0,0,0,.491.164.988.988,0,0,0,.539-.115.9.9,0,0,0,.49-.845l-.357-6.954a1.846,1.846,0,0,0-.843-1.438L67,139.94l-.468-7.524a12.224,12.224,0,0,0-.76-3.579,12.4,12.4,0,0,0-1.668-3.012,16.037,16.037,0,0,0-2.362-2.507,23.571,23.571,0,0,0-2.842-2.087L34.7,105.9a11.789,11.789,0,0,0-2.472-1.241,4.441,4.441,0,0,0-1.4-.26m49.979,54.3c-.034,0-.067,0-.1,0a1.577,1.577,0,0,1-.759-.256l-49.6-32.965a1.471,1.471,0,0,1-.659-1.092l-1.486-16.661a4.9,4.9,0,0,1,.285-2.424,2.35,2.35,0,0,1,1.644-1.374,4.151,4.151,0,0,1,2.271.212,12.419,12.419,0,0,1,2.59,1.3l24.2,15.327A24.081,24.081,0,0,1,62.1,122.9a16.5,16.5,0,0,1,2.443,2.594,12.959,12.959,0,0,1,1.742,3.146,12.75,12.75,0,0,1,.794,3.74l.451,7.248,13.345,8.707a2.4,2.4,0,0,1,1.092,1.872l.357,6.954a1.451,1.451,0,0,1-.781,1.36,1.578,1.578,0,0,1-.733.182"/>
  <path id="Path_15957" data-name="Path 15957" d="M38.993,121.2l18.185,11.866-.2-2.971a1.3,1.3,0,0,0-.054-.311.525.525,0,0,0-.092-.173,1.2,1.2,0,0,0-.218-.214c-.109-.087-.248-.185-.437-.307L38.711,117.823Zm18.435,12.292-.185-.12L38.782,121.327l-.327-3.933.188.122,17.65,11.39a5.2,5.2,0,0,1,.455.32,1.423,1.423,0,0,1,.256.252.771.771,0,0,1,.126.239,1.55,1.55,0,0,1,.065.363ZM30.835,104.238a2.637,2.637,0,0,0-.609.067,1.973,1.973,0,0,0-1.381,1.157,4.519,4.519,0,0,0-.253,2.231l1.487,16.661a1.086,1.086,0,0,0,.487.806l49.6,32.964a1.175,1.175,0,0,0,1.2.057,1.068,1.068,0,0,0,.578-1l-.357-6.954a2.012,2.012,0,0,0-.918-1.568l-13.507-8.814L66.7,132.4a12.375,12.375,0,0,0-.77-3.626,12.608,12.608,0,0,0-1.69-3.053,16.193,16.193,0,0,0-2.387-2.533,23.61,23.61,0,0,0-2.862-2.1l-24.2-15.327a12.017,12.017,0,0,0-2.508-1.257,4.594,4.594,0,0,0-1.449-.269m49.979,54.3q-.045,0-.09,0a1.406,1.406,0,0,1-.68-.228l-49.6-32.964a1.309,1.309,0,0,1-.585-.971l-1.486-16.66a4.731,4.731,0,0,1,.271-2.341,2.185,2.185,0,0,1,1.531-1.281,4,4,0,0,1,2.18.207,12.19,12.19,0,0,1,2.554,1.28l24.2,15.327A23.948,23.948,0,0,1,62,123.026a16.449,16.449,0,0,1,2.419,2.568,12.818,12.818,0,0,1,1.719,3.106,12.585,12.585,0,0,1,.784,3.691l.456,7.332,13.415,8.752a2.235,2.235,0,0,1,1.017,1.742l.357,6.954a1.287,1.287,0,0,1-.694,1.205,1.4,1.4,0,0,1-.655.163" fill="#191717"/>
  <path id="Path_15958" data-name="Path 15958" d="M36.386,90.735l15.464,9.408a4.316,4.316,0,0,1,.44.3,1.355,1.355,0,0,1,.24.24.756.756,0,0,1,.117.221,1.269,1.269,0,0,1,.059.323l.235,3.342-16.237-10Zm42.968,40.411a1.268,1.268,0,0,0,.7-.155,1.177,1.177,0,0,0,.622-1.094L80.27,122a1.194,1.194,0,0,0-.576-.955L62.77,110.629l15.469,5.521A1.279,1.279,0,0,0,79.4,116a1.172,1.172,0,0,0,.506-1.021l-.443-8.615a1.22,1.22,0,0,0-.856-1.083L62.073,99.982a7.15,7.15,0,0,0-.528-1.824,10.4,10.4,0,0,0-1.232-2.095,13.116,13.116,0,0,0-1.65-1.808,11.681,11.681,0,0,0-1.852-1.383l-23.84-14.2A12.215,12.215,0,0,0,30.208,77.4a3.805,3.805,0,0,0-2.3-.067,2.413,2.413,0,0,0-1.482,1.518,6.313,6.313,0,0,0-.235,2.744L27.682,98.3a1.192,1.192,0,0,0,.563.9l50.51,31.744a1.292,1.292,0,0,0,.6.194" fill="#fff"/>
  <path id="Path_15959" data-name="Path 15959" d="M36.967,94.411l15.661,9.642-.2-2.805a.967.967,0,0,0-.045-.253.451.451,0,0,0-.076-.144,1.068,1.068,0,0,0-.194-.192,3.9,3.9,0,0,0-.41-.28l-15-9.126Zm16.287,10.675L36.441,94.734l-.375-4.515,15.927,9.689a4.519,4.519,0,0,1,.47.322,1.655,1.655,0,0,1,.287.288,1.037,1.037,0,0,1,.158.3,1.556,1.556,0,0,1,.073.391Zm26.118,25.785a.993.993,0,0,0,.548-.121.9.9,0,0,0,.479-.839l-.4-7.895a.92.92,0,0,0-.446-.735L60.386,109.486l17.946,6.4a1,1,0,0,0,.913-.121.9.9,0,0,0,.389-.781l-.442-8.616a.939.939,0,0,0-.665-.833l-16.7-5.348-.024-.172a6.95,6.95,0,0,0-.508-1.753,10.143,10.143,0,0,0-1.2-2.039,12.811,12.811,0,0,0-1.613-1.769,11.56,11.56,0,0,0-1.809-1.35L32.83,78.91a11.875,11.875,0,0,0-2.7-1.247A3.548,3.548,0,0,0,28,77.592a2.138,2.138,0,0,0-1.313,1.353,6.047,6.047,0,0,0-.221,2.624l1.492,16.709a.913.913,0,0,0,.434.7L78.9,130.719a1.02,1.02,0,0,0,.471.152m.066.554q-.051,0-.1,0h0a1.586,1.586,0,0,1-.727-.236L28.1,99.442a1.461,1.461,0,0,1-.69-1.115L25.917,81.618a6.578,6.578,0,0,1,.251-2.865,2.677,2.677,0,0,1,1.651-1.683,4.083,4.083,0,0,1,2.466.063,12.472,12.472,0,0,1,2.827,1.3l23.84,14.2a12.124,12.124,0,0,1,1.9,1.415A13.331,13.331,0,0,1,60.533,95.9,10.7,10.7,0,0,1,61.8,98.049a7.646,7.646,0,0,1,.52,1.722l16.376,5.243a1.5,1.5,0,0,1,1.047,1.332l.444,8.615a1.45,1.45,0,0,1-.623,1.26,1.556,1.556,0,0,1-1.417.189l-12.993-4.637,14.685,9.039a1.47,1.47,0,0,1,.708,1.176l.4,7.895a1.448,1.448,0,0,1-.764,1.35,1.551,1.551,0,0,1-.748.192"/>
  <path id="Path_15960" data-name="Path 15960" d="M36.81,94.507l16.007,9.855-.221-3.126a1.139,1.139,0,0,0-.053-.295.613.613,0,0,0-.1-.191,1.276,1.276,0,0,0-.221-.221,4.142,4.142,0,0,0-.428-.292L36.514,90.942Zm16.257,10.269-.183-.113L36.6,94.636l-.342-4.108,15.65,9.52a4.321,4.321,0,0,1,.452.31,1.461,1.461,0,0,1,.258.259.876.876,0,0,1,.134.253,1.383,1.383,0,0,1,.065.35Zm26.295,26.26a1.16,1.16,0,0,0,.639-.142,1.066,1.066,0,0,0,.564-.992l-.4-7.9a1.086,1.086,0,0,0-.524-.866L61.816,110.171l16.461,5.875a1.172,1.172,0,0,0,1.065-.141,1.065,1.065,0,0,0,.458-.926l-.442-8.614a1.109,1.109,0,0,0-.78-.984l-16.6-5.316-.01-.068a7.125,7.125,0,0,0-.519-1.8,10.359,10.359,0,0,0-1.22-2.073,13.1,13.1,0,0,0-1.635-1.793,11.624,11.624,0,0,0-1.835-1.369l-23.84-14.2A12.062,12.062,0,0,0,30.178,77.5a3.717,3.717,0,0,0-2.234-.068,2.3,2.3,0,0,0-1.414,1.452,6.218,6.218,0,0,0-.229,2.7l1.491,16.709a1.083,1.083,0,0,0,.512.822l50.51,31.744a1.192,1.192,0,0,0,.548.178m.077.223-.092,0a1.415,1.415,0,0,1-.65-.211L28.187,99.3a1.3,1.3,0,0,1-.615-.989L26.081,81.6a6.418,6.418,0,0,1,.242-2.792,2.517,2.517,0,0,1,1.55-1.584,3.916,3.916,0,0,1,2.366.065,12.29,12.29,0,0,1,2.789,1.286l23.84,14.2a11.835,11.835,0,0,1,1.87,1.395A13.18,13.18,0,0,1,60.4,96a10.484,10.484,0,0,1,1.246,2.118,7.309,7.309,0,0,1,.525,1.783l16.473,5.274a1.329,1.329,0,0,1,.933,1.182l.443,8.615a1.287,1.287,0,0,1-.552,1.117,1.388,1.388,0,0,1-1.266.169l-14.479-5.168,16.028,9.866A1.3,1.3,0,0,1,80.381,122l.4,7.9a1.283,1.283,0,0,1-.678,1.2,1.381,1.381,0,0,1-.668.172" fill="#191717"/>
  <path id="Path_15961" data-name="Path 15961" d="M34.065,62.822,66.444,81.245a5.324,5.324,0,0,1,.479.3,1.243,1.243,0,0,1,.247.227.638.638,0,0,1,.114.214,1.463,1.463,0,0,1,.063.381l.207,3.537-.144-.08L35.092,67.187a2.7,2.7,0,0,1-.342-.227,1.336,1.336,0,0,1-.217-.214.851.851,0,0,1-.122-.215,1.034,1.034,0,0,1-.061-.282ZM29.207,73.739a18.206,18.206,0,0,0,2.778,2L70.329,98.363a18.458,18.458,0,0,0,3.125,1.515,7.309,7.309,0,0,0,1.946.437,4.1,4.1,0,0,0,.85-.026,2.767,2.767,0,0,0,2.107-1.419,6.173,6.173,0,0,0,.556-3.337l-.589-11.475a12.5,12.5,0,0,0-.886-4.045,13.375,13.375,0,0,0-1.992-3.364,17.2,17.2,0,0,0-2.755-2.7,23.565,23.565,0,0,0-3.185-2.1L30.543,50.208a11.614,11.614,0,0,0-2.82-1.176,3.78,3.78,0,0,0-2.337.064,2.591,2.591,0,0,0-1.465,1.635,6.877,6.877,0,0,0-.229,2.865l1.039,11.648a12.216,12.216,0,0,0,.738,3.236A12.447,12.447,0,0,0,27,71.317a14.533,14.533,0,0,0,2.207,2.422" fill="#fff"/>
  <path id="Path_15962" data-name="Path 15962" d="M34.384,63.321l.241,2.9a.78.78,0,0,0,.044.207.558.558,0,0,0,.082.144,1.009,1.009,0,0,0,.171.167,2.554,2.554,0,0,0,.307.2L67.25,85.413l-.177-3.028a1.291,1.291,0,0,0-.05-.312.375.375,0,0,0-.067-.127,1.006,1.006,0,0,0-.195-.178c-.126-.091-.277-.182-.454-.284ZM67.859,86.39l-.585-.326L34.954,67.426a3.037,3.037,0,0,1-.374-.25,1.612,1.612,0,0,1-.263-.258,1.136,1.136,0,0,1-.162-.287,1.288,1.288,0,0,1-.079-.36l-.329-3.946L66.581,81a5.773,5.773,0,0,1,.5.319,1.488,1.488,0,0,1,.3.279.938.938,0,0,1,.159.3,1.773,1.773,0,0,1,.076.452ZM29.39,73.532A17.889,17.889,0,0,0,32.126,75.5L70.47,98.125a18.191,18.191,0,0,0,3.076,1.493,7.039,7.039,0,0,0,1.873.422,3.837,3.837,0,0,0,.793-.024,2.5,2.5,0,0,0,1.9-1.282,5.909,5.909,0,0,0,.521-3.188l-.589-11.473a12.2,12.2,0,0,0-.866-3.957,13.072,13.072,0,0,0-1.951-3.294,16.988,16.988,0,0,0-2.711-2.66,23.332,23.332,0,0,0-3.148-2.08L30.41,50.449A11.346,11.346,0,0,0,27.659,49.3a3.511,3.511,0,0,0-2.167.051,2.326,2.326,0,0,0-1.31,1.472,6.6,6.6,0,0,0-.215,2.749l1.04,11.648a11.937,11.937,0,0,0,.72,3.162,12.2,12.2,0,0,0,1.5,2.774,14.244,14.244,0,0,0,2.166,2.376M75.7,100.6c-.106,0-.213,0-.321-.011a7.555,7.555,0,0,1-2.02-.452A18.711,18.711,0,0,1,70.19,98.6L31.846,75.976a18.51,18.51,0,0,1-2.821-2.03,14.85,14.85,0,0,1-2.249-2.469,12.72,12.72,0,0,1-1.564-2.9,12.518,12.518,0,0,1-.755-3.309L23.418,53.621a7.119,7.119,0,0,1,.244-2.981,2.854,2.854,0,0,1,1.619-1.8,4.049,4.049,0,0,1,2.507-.077,11.883,11.883,0,0,1,2.889,1.2L69.641,71.6a23.925,23.925,0,0,1,3.222,2.13,17.489,17.489,0,0,1,2.8,2.746,13.607,13.607,0,0,1,2.033,3.434,12.735,12.735,0,0,1,.906,4.134l.589,11.474A6.418,6.418,0,0,1,78.6,99a3.033,3.033,0,0,1-2.309,1.558,4.3,4.3,0,0,1-.585.039"/>
  <path id="Path_15963" data-name="Path 15963" d="M34.193,63.023l.267,3.218a.943.943,0,0,0,.054.252.785.785,0,0,0,.106.187,1.188,1.188,0,0,0,.2.194,2.629,2.629,0,0,0,.328.219L67.432,85.711l-.194-3.335a1.46,1.46,0,0,0-.058-.353.528.528,0,0,0-.1-.179,1.186,1.186,0,0,0-.227-.208,5.231,5.231,0,0,0-.469-.294ZM67.676,86.1l-.32-.179L35.037,67.284a2.994,2.994,0,0,1-.355-.236,1.437,1.437,0,0,1-.235-.232.952.952,0,0,1-.138-.244,1.129,1.129,0,0,1-.069-.313l-.3-3.634.182.1L66.5,81.15c.167.1.342.2.489.308a1.363,1.363,0,0,1,.27.248.81.81,0,0,1,.132.247,1.677,1.677,0,0,1,.068.41ZM29.28,73.657a18.034,18.034,0,0,0,2.761,1.988L70.386,98.269a18.259,18.259,0,0,0,3.1,1.506,7.161,7.161,0,0,0,1.917.431,4.1,4.1,0,0,0,.827-.025,2.663,2.663,0,0,0,2.026-1.364A6.057,6.057,0,0,0,78.8,95.54l-.589-11.475a12.351,12.351,0,0,0-.878-4.009A13.2,13.2,0,0,0,75.36,76.72a17.1,17.1,0,0,0-2.736-2.686,23.581,23.581,0,0,0-3.171-2.1L30.49,50.306A11.508,11.508,0,0,0,27.7,49.14a3.686,3.686,0,0,0-2.27.059,2.488,2.488,0,0,0-1.4,1.57,6.761,6.761,0,0,0-.224,2.819l1.04,11.648a12.142,12.142,0,0,0,.73,3.206,12.334,12.334,0,0,0,1.518,2.811,14.322,14.322,0,0,0,2.19,2.4M75.7,100.437c-.1,0-.206,0-.311-.011a7.349,7.349,0,0,1-1.975-.443,18.521,18.521,0,0,1-3.144-1.524L31.929,75.835a18.428,18.428,0,0,1-2.8-2.012,14.633,14.633,0,0,1-2.223-2.441,12.58,12.58,0,0,1-1.545-2.862,12.342,12.342,0,0,1-.744-3.265l-1.04-11.648a6.974,6.974,0,0,1,.236-2.911,2.7,2.7,0,0,1,1.526-1.7,3.884,3.884,0,0,1,2.405-.069A11.721,11.721,0,0,1,30.6,50.113L69.56,71.746a23.692,23.692,0,0,1,3.2,2.115,17.33,17.33,0,0,1,2.772,2.72,13.492,13.492,0,0,1,2.009,3.392,12.624,12.624,0,0,1,.894,4.081l.588,11.474a6.266,6.266,0,0,1-.57,3.4,2.872,2.872,0,0,1-2.187,1.474,3.978,3.978,0,0,1-.562.038" fill="#191717"/>
  <path id="Path_15964" data-name="Path 15964" d="M28.479,44.338,36.622,48.5a1.279,1.279,0,0,0,1.176.032l10.976-4.263a.386.386,0,0,0,.062-.029L83.451,62.652l.118.064L80.82,63.844a.925.925,0,0,1-.268.067,1.052,1.052,0,0,1-.281-.015,1.953,1.953,0,0,1-.368-.109,4.094,4.094,0,0,1-.454-.215L56.769,51.11a1.294,1.294,0,0,0-1.149-.045l-6.374,2.894a1.177,1.177,0,0,0-.088,2.118l25.425,14.3a22.572,22.572,0,0,0,3.73,1.631,20.748,20.748,0,0,0,3.761.878c.4.053.8.092,1.187.118a15.158,15.158,0,0,0,2.36-.023,10.571,10.571,0,0,0,3.1-.731l10.3-4.3a3.867,3.867,0,0,0,2.1-1.7,2.479,2.479,0,0,0-.092-2.275,6.87,6.87,0,0,0-1.85-2.127,18.5,18.5,0,0,0-3.116-1.991L49,35.278a2.5,2.5,0,0,0-2.223-.055L28.543,42.207c-.022.009-.046.019-.067.03a1.186,1.186,0,0,0-.645,1.039,1.2,1.2,0,0,0,.648,1.062" fill="#161715"/>
  <path id="Path_15965" data-name="Path 15965" d="M51.911,34.058l56.072,28.959a1.289,1.289,0,0,0,1.084.044l14.7-6.135a1.176,1.176,0,0,0,.174-2.1l-8.872-5.54a1.283,1.283,0,0,0-1.166-.1l-8.13,3.335L94.193,46.666l4.377-1.76a1.179,1.179,0,0,0,.081-2.169l-8.586-4.27a1.289,1.289,0,0,0-1.046-.044l-6.233,2.471-11.85-5.987,6.153-2.39a1.185,1.185,0,0,0,.773-1.109,1.2,1.2,0,0,0-.783-1.112L67.2,26.445a1.286,1.286,0,0,0-.926,0h0L52.03,31.89a1.179,1.179,0,0,0-.119,2.168" fill="#161715"/>
  <path id="Path_15966" data-name="Path 15966" d="M75.509,27.083a13.359,13.359,0,0,0,2.629,1.626L120.177,49.36a42.492,42.492,0,0,0,4.794,2.041,21.556,21.556,0,0,0,4.231,1.042q.536.071,1.055.1a14.076,14.076,0,0,0,2.822-.094,14.672,14.672,0,0,0,3.692-1.025l6.484-2.705a1.178,1.178,0,0,0,.155-2.115l-8.958-5.373a1.291,1.291,0,0,0-1.148-.087L127.4,43.573a.907.907,0,0,1-.249.061,1.2,1.2,0,0,1-.289-.013,2.273,2.273,0,0,1-.381-.1,4.581,4.581,0,0,1-.476-.2L91.629,26.772,95.665,25.2a1.184,1.184,0,0,0,.774-1.118,1.2,1.2,0,0,0-.8-1.109L85.47,19.168a.643.643,0,0,0-.457,0l-8.857,3.388a3.677,3.677,0,0,0-1.663,1.118,1.805,1.805,0,0,0-.277,1.731,3.955,3.955,0,0,0,1.293,1.676" fill="#161715"/>
  <path id="Path_15967" data-name="Path 15967" d="M91.631,17.917l7.929,5.251a1.281,1.281,0,0,0,1.186.134L105.4,21.5l45.2,24.037a1.323,1.323,0,0,0,.461.117,1.278,1.278,0,0,0,.577-.1l9.815-4.314a1.179,1.179,0,0,0,.028-2.182l-46.612-21.24,2.264-.88a1.178,1.178,0,0,0,.773-1.147,1.192,1.192,0,0,0-.831-1.092l-10.552-3.83a3.577,3.577,0,0,0-2.377.062l-.009,0L91.874,15.822a1.2,1.2,0,0,0-.772.97,1.187,1.187,0,0,0,.529,1.125" fill="#161715"/>
  <path id="Path_15968" data-name="Path 15968" d="M109.142,106.627c-7.076,6.647-15.652,8.873-24.53,8.3l2.105,42.3a2.077,2.077,0,0,0,1.067,1.7,2.23,2.23,0,0,0,2.061.079h0l6.7-3.177a1.529,1.529,0,0,0,.889-1.44l-.889-21.1a.318.318,0,0,1,.311-.354.33.33,0,0,1,.394.269l4.121,18.191a1.561,1.561,0,0,0,.874,1.067,1.654,1.654,0,0,0,1.409,0l8.535-4.048a1.531,1.531,0,0,0,.889-1.422l-1.273-42.978c-.876.889-1.762,1.764-2.663,2.612" fill="#fff"/>
  <path id="Path_15969" data-name="Path 15969" d="M110.015,67.516a1.659,1.659,0,0,0-1.5-.115l-8.947,3.754a1.526,1.526,0,0,0-.957,1.465l.821,21.713a.317.317,0,0,1-.313.352.327.327,0,0,1-.392-.272L94.59,75.28a1.556,1.556,0,0,0-.837-1.062,1.65,1.65,0,0,0-1.381-.046l-8.578,3.6a1.539,1.539,0,0,0-.956,1.482l1.774,35.675c8.877.571,17.454-1.655,24.529-8.3.9-.848,1.787-1.723,2.664-2.612L110.761,68.78a1.538,1.538,0,0,0-.746-1.264" fill="#161715"/>
  <path id="Path_15970" data-name="Path 15970" d="M119.83,95.582l1.507,6.885a.553.553,0,0,1,.005.185l-5.826,41.991a1.181,1.181,0,0,0,.511,1.133,1.29,1.29,0,0,0,.656.229l.084,0a1.314,1.314,0,0,0,.56-.126l7.938-3.763a1.189,1.189,0,0,0,.684-.94l2.444-21.736a.538.538,0,0,1,.569-.491.531.531,0,0,1,.542.464l2.909,17.561a1.2,1.2,0,0,0,.665.881,1.287,1.287,0,0,0,1.141.013l7.967-3.776a1.181,1.181,0,0,0,.67-1.288l-7.083-36.284a.51.51,0,0,1,0-.186L137.8,83.085c-7.077,2.1-12.654,7.02-17.971,12.5" fill="#fff"/>
  <path id="Path_15971" data-name="Path 15971" d="M141.495,54.734a1.312,1.312,0,0,0-.774-.252,1.287,1.287,0,0,0-.5.1l-8.027,3.368a1.2,1.2,0,0,0-.739.963l-2.661,23.62a.562.562,0,0,1-1.112.022l-3.1-19.747a1.2,1.2,0,0,0-.634-.875,1.309,1.309,0,0,0-.616-.155,1.291,1.291,0,0,0-.505.1l-8.57,3.594a1.186,1.186,0,0,0-.719,1.336l6.3,28.771c5.317-5.477,10.894-10.394,17.971-12.5l4.173-27.223a1.183,1.183,0,0,0-.479-1.128" fill="#161715"/>
  <path id="Path_15972" data-name="Path 15972" d="M166.338,59.392a.913.913,0,0,0,.555-.971l-2.059-13.137a.928.928,0,0,0-.489-.673,1,1,0,0,0-.475-.12,1.019,1.019,0,0,0-.391.079l-17.255,7.239a.919.919,0,0,0-.563.706l-2.333,15.21a.907.907,0,0,0,.372.869,1.019,1.019,0,0,0,.593.192,1,1,0,0,0,.4-.082l5.1-2.2.012,17.9c3.478,1.054,7.085,2.325,10.512,3.028l.171-25.527Z" fill="#161715"/>
  <path id="Path_15973" data-name="Path 15973" d="M149.83,128.741a.922.922,0,0,0,.457.786,1.01,1.01,0,0,0,.453.14l.068,0a.979.979,0,0,0,.428-.1l8.3-3.932a.911.911,0,0,0,.533-.814l.249-37.388c-3.428-.7-7.034-1.975-10.513-3.029Z" fill="#fff"/>
  <path id="Path_15974" data-name="Path 15974" d="M38.888,121.263l-.3-3.656L56.233,129a5.344,5.344,0,0,1,.446.314,1.309,1.309,0,0,1,.237.231.658.658,0,0,1,.109.208,1.353,1.353,0,0,1,.06.338l.219,3.191Zm41.841,27.3-13.461-8.784-.459-7.386a12.456,12.456,0,0,0-.778-3.658,12.719,12.719,0,0,0-1.7-3.08,16.313,16.313,0,0,0-2.4-2.55A23.829,23.829,0,0,0,59.049,121l-24.2-15.326A12.119,12.119,0,0,0,32.32,104.4a3.9,3.9,0,0,0-2.119-.2,2.079,2.079,0,0,0-1.456,1.219,4.633,4.633,0,0,0-.262,2.286l1.486,16.66a1.2,1.2,0,0,0,.537.888l49.6,32.964a1.283,1.283,0,0,0,1.312.063,1.175,1.175,0,0,0,.635-1.1l-.356-6.955a2.121,2.121,0,0,0-.968-1.654" fill="#fff"/>
  <path id="Path_15975" data-name="Path 15975" d="M78.612,105.275,62.074,99.981a7.232,7.232,0,0,0-.528-1.824,10.484,10.484,0,0,0-1.232-2.1,13.117,13.117,0,0,0-1.65-1.808,11.78,11.78,0,0,0-1.852-1.382l-23.841-14.2A12.263,12.263,0,0,0,30.209,77.4a3.812,3.812,0,0,0-2.3-.066,2.411,2.411,0,0,0-1.482,1.518,6.311,6.311,0,0,0-.235,2.744l.592,6.645a53.925,53.925,0,0,1,9.727,4l-.125-1.5,15.465,9.408a4.316,4.316,0,0,1,.44.3,1.39,1.39,0,0,1,.24.24.73.73,0,0,1,.116.221,1.257,1.257,0,0,1,.06.323l.14,2c8.189,5.23,17.659,9.567,27.033,11.149l-.412-8.014a1.22,1.22,0,0,0-.856-1.083" fill="#161715"/>
  <path id="Path_15976" data-name="Path 15976" d="M52.942,104.568l-16.237-10-.194-2.334a54.07,54.07,0,0,0-9.727-4l.9,10.064a1.193,1.193,0,0,0,.564.906L78.755,130.95a1.3,1.3,0,0,0,.6.194,1.268,1.268,0,0,0,.7-.155,1.174,1.174,0,0,0,.621-1.094l-.4-7.9a1.194,1.194,0,0,0-.577-.955L62.77,110.627l15.47,5.521a1.276,1.276,0,0,0,1.165-.155,1.171,1.171,0,0,0,.505-1.021l-.03-.6c-9.374-1.582-18.844-5.919-27.033-11.149Z" fill="#fff"/>
  <path id="Path_15977" data-name="Path 15977" d="M66.443,81.244a5.212,5.212,0,0,1,.48.3,1.243,1.243,0,0,1,.247.227.658.658,0,0,1,.115.214,1.607,1.607,0,0,1,.062.381l.206,3.537-.143-.08L35.091,67.186a2.842,2.842,0,0,1-.341-.227,1.288,1.288,0,0,1-.216-.214.829.829,0,0,1-.124-.215,1.073,1.073,0,0,1-.061-.282l-.285-3.427Zm-41.711-16a12.175,12.175,0,0,0,.737,3.236A12.507,12.507,0,0,0,27,71.316a14.454,14.454,0,0,0,2.208,2.422,18.157,18.157,0,0,0,2.778,2L70.329,98.362a18.525,18.525,0,0,0,3.124,1.515,7.323,7.323,0,0,0,1.947.437,4.151,4.151,0,0,0,.849-.026,2.763,2.763,0,0,0,2.107-1.42,6.159,6.159,0,0,0,.556-3.337l-.588-11.474a12.519,12.519,0,0,0-.886-4.045,13.375,13.375,0,0,0-1.992-3.364,17.2,17.2,0,0,0-2.755-2.7A23.578,23.578,0,0,0,69.5,71.84L30.542,50.207a11.625,11.625,0,0,0-2.819-1.177,3.79,3.79,0,0,0-2.338.065,2.592,2.592,0,0,0-1.464,1.635,6.859,6.859,0,0,0-.229,2.865Z" fill="#161715"/>
</svg>
