<svg xmlns="http://www.w3.org/2000/svg" xmlns:xlink="http://www.w3.org/1999/xlink" width="55.771" height="57.5" viewBox="0 0 55.771 57.5">
  <defs>
    <clipPath id="clip-path">
      <rect id="Rectangle_17898" data-name="Rectangle 17898" width="55.771" height="57.5" fill="none"/>
    </clipPath>
  </defs>
  <g id="Group_42164" data-name="Group 42164" clip-path="url(#clip-path)">
    <path id="Path_16174" data-name="Path 16174" d="M4.6,30.446,7.64,31.982a.481.481,0,0,0,.438.012L12.17,30.42l.023-.011,12.9,6.8.044.024-1.025.417a.331.331,0,0,1-.1.024.384.384,0,0,1-.1-.005.745.745,0,0,1-.137-.04,1.535,1.535,0,0,1-.169-.079l-8.455-4.6a.486.486,0,0,0-.428-.017L12.346,34a.434.434,0,0,0-.033.782l9.479,5.282a8.452,8.452,0,0,0,1.391.6,7.728,7.728,0,0,0,1.4.324c.149.02.3.034.443.044a5.723,5.723,0,0,0,.88-.008,3.981,3.981,0,0,0,1.154-.27L30.9,39.17a1.443,1.443,0,0,0,.782-.627.908.908,0,0,0-.035-.841,2.537,2.537,0,0,0-.689-.785,6.923,6.923,0,0,0-1.162-.736L12.253,27.1a.939.939,0,0,0-.829-.021l-6.8,2.58L4.6,29.67a.438.438,0,0,0-.24.384.445.445,0,0,0,.242.392" transform="translate(-2.806 -17.45)" fill="#1d1e1c"/>
    <path id="Path_16175" data-name="Path 16175" d="M4.6,30.446,7.64,31.982a.481.481,0,0,0,.438.012L12.17,30.42l.023-.011,12.9,6.8.044.024-1.025.417a.331.331,0,0,1-.1.024.384.384,0,0,1-.1-.005.745.745,0,0,1-.137-.04,1.535,1.535,0,0,1-.169-.079l-8.455-4.6a.486.486,0,0,0-.428-.017L12.346,34a.434.434,0,0,0-.033.782l9.479,5.282a8.452,8.452,0,0,0,1.391.6,7.728,7.728,0,0,0,1.4.324c.149.02.3.034.443.044a5.723,5.723,0,0,0,.88-.008,3.981,3.981,0,0,0,1.154-.27L30.9,39.17a1.443,1.443,0,0,0,.782-.627.908.908,0,0,0-.035-.841,2.537,2.537,0,0,0-.689-.785,6.923,6.923,0,0,0-1.162-.736L12.253,27.1a.939.939,0,0,0-.829-.021l-6.8,2.58L4.6,29.67a.438.438,0,0,0-.24.384A.445.445,0,0,0,4.6,30.446Z" transform="translate(-2.806 -17.45)" fill="none" stroke="#231f20" stroke-width="0.23"/>
    <path id="Path_16176" data-name="Path 16176" d="M29.08,20.82l20.9,10.7a.481.481,0,0,0,.4.016l5.481-2.266a.433.433,0,0,0,.065-.777l-3.307-2.046a.482.482,0,0,0-.435-.036l-3.03,1.232-4.318-2.163,1.632-.65a.434.434,0,0,0,.03-.8l-3.2-1.577a.486.486,0,0,0-.39-.016l-2.323.913-4.418-2.212,2.294-.883a.438.438,0,0,0,.288-.41.445.445,0,0,0-.292-.411L34.78,18.007a.482.482,0,0,0-.345,0h0l-5.31,2.013a.434.434,0,0,0-.045.8" transform="translate(-18.547 -11.62)" fill="#1d1e1c"/>
    <path id="Path_16177" data-name="Path 16177" d="M29.08,20.82l20.9,10.7a.481.481,0,0,0,.4.016l5.481-2.266a.433.433,0,0,0,.065-.777l-3.307-2.046a.482.482,0,0,0-.435-.036l-3.03,1.232-4.318-2.163,1.632-.65a.434.434,0,0,0,.03-.8l-3.2-1.577a.486.486,0,0,0-.39-.016l-2.323.913-4.418-2.212,2.294-.883a.438.438,0,0,0,.288-.41.445.445,0,0,0-.292-.411L34.78,18.007a.482.482,0,0,0-.345,0h0l-5.31,2.013a.434.434,0,0,0-.045.8Z" transform="translate(-18.547 -11.62)" fill="none" stroke="#231f20" stroke-width="0.23"/>
    <path id="Path_16178" data-name="Path 16178" d="M53.24,13.359a5,5,0,0,0,.98.6l15.672,7.628a15.85,15.85,0,0,0,1.787.754,8.116,8.116,0,0,0,1.577.385c.133.017.264.03.394.039A5.252,5.252,0,0,0,74.7,22.73a5.492,5.492,0,0,0,1.376-.378l2.416-1a.433.433,0,0,0,.058-.781l-3.339-1.984a.484.484,0,0,0-.428-.032l-2.2.9a.338.338,0,0,1-.093.023.475.475,0,0,1-.108,0,.88.88,0,0,1-.142-.038,1.734,1.734,0,0,1-.177-.075L59.25,13.244l1.5-.579a.438.438,0,0,0,.288-.413.445.445,0,0,0-.3-.41l-3.792-1.407a.239.239,0,0,0-.17,0l-3.3,1.251a1.368,1.368,0,0,0-.62.413.662.662,0,0,0-.1.64,1.464,1.464,0,0,0,.482.619" transform="translate(-33.91 -6.736)" fill="#1d1e1c"/>
    <path id="Path_16179" data-name="Path 16179" d="M53.24,13.359a5,5,0,0,0,.98.6l15.672,7.628a15.85,15.85,0,0,0,1.787.754,8.116,8.116,0,0,0,1.577.385c.133.017.264.03.394.039A5.252,5.252,0,0,0,74.7,22.73a5.492,5.492,0,0,0,1.376-.378l2.416-1a.433.433,0,0,0,.058-.781l-3.339-1.984a.484.484,0,0,0-.428-.032l-2.2.9a.338.338,0,0,1-.093.023.475.475,0,0,1-.108,0,.88.88,0,0,1-.142-.038,1.734,1.734,0,0,1-.177-.075L59.25,13.244l1.5-.579a.438.438,0,0,0,.288-.413.445.445,0,0,0-.3-.41l-3.792-1.407a.239.239,0,0,0-.17,0l-3.3,1.251a1.368,1.368,0,0,0-.62.413.662.662,0,0,0-.1.64A1.464,1.464,0,0,0,53.24,13.359Z" transform="translate(-33.91 -6.736)" fill="none" stroke="#231f20" stroke-width="0.23"/>
    <path id="Path_16180" data-name="Path 16180" d="M70.667,4.277l2.956,1.94a.482.482,0,0,0,.442.049L75.8,5.6l16.851,8.88a.491.491,0,0,0,.171.043.482.482,0,0,0,.215-.035L96.7,12.892a.434.434,0,0,0,.278-.4.438.438,0,0,0-.267-.408L79.331,4.24l.844-.325a.436.436,0,0,0,.288-.424.442.442,0,0,0-.31-.4L76.219,1.673a1.349,1.349,0,0,0-.887.023h0L70.758,3.5a.443.443,0,0,0-.288.358.437.437,0,0,0,.2.416" transform="translate(-45.326 -1.04)" fill="#1d1e1c"/>
    <path id="Path_16181" data-name="Path 16181" d="M70.667,4.277l2.956,1.94a.482.482,0,0,0,.442.049L75.8,5.6l16.851,8.88a.491.491,0,0,0,.171.043.482.482,0,0,0,.215-.035L96.7,12.892a.434.434,0,0,0,.278-.4.438.438,0,0,0-.267-.408L79.331,4.24l.844-.325a.436.436,0,0,0,.288-.424.442.442,0,0,0-.31-.4L76.219,1.673a1.349,1.349,0,0,0-.887.023h0L70.758,3.5a.443.443,0,0,0-.288.358A.437.437,0,0,0,70.667,4.277Z" transform="translate(-45.326 -1.04)" fill="none" stroke="#231f20" stroke-width="0.23"/>
    <path id="Path_16182" data-name="Path 16182" d="M4.73,28.953l3.035,1.536A.481.481,0,0,0,8.2,30.5L12.3,28.927l.023-.011,12.9,6.8.044.024-1.025.417a.328.328,0,0,1-.1.024.384.384,0,0,1-.1-.005.745.745,0,0,1-.137-.04,1.535,1.535,0,0,1-.169-.079l-8.455-4.6a.486.486,0,0,0-.428-.017l-2.376,1.069a.433.433,0,0,0-.033.782l9.478,5.282a8.452,8.452,0,0,0,1.391.6,7.758,7.758,0,0,0,1.4.325c.149.019.3.034.443.043a5.724,5.724,0,0,0,.88-.008,3.981,3.981,0,0,0,1.154-.27l3.839-1.587a1.443,1.443,0,0,0,.782-.627.908.908,0,0,0-.035-.841,2.541,2.541,0,0,0-.689-.786,6.923,6.923,0,0,0-1.162-.736L12.378,25.607a.939.939,0,0,0-.829-.021l-6.8,2.58-.025.011a.438.438,0,0,0-.24.384.445.445,0,0,0,.242.392" transform="translate(-2.887 -16.485)" fill="#fff"/>
    <path id="Path_16183" data-name="Path 16183" d="M4.73,28.953l3.035,1.536A.481.481,0,0,0,8.2,30.5L12.3,28.927l.023-.011,12.9,6.8.044.024-1.025.417a.328.328,0,0,1-.1.024.384.384,0,0,1-.1-.005.745.745,0,0,1-.137-.04,1.535,1.535,0,0,1-.169-.079l-8.455-4.6a.486.486,0,0,0-.428-.017l-2.376,1.069a.433.433,0,0,0-.033.782l9.478,5.282a8.452,8.452,0,0,0,1.391.6,7.758,7.758,0,0,0,1.4.325c.149.019.3.034.443.043a5.724,5.724,0,0,0,.88-.008,3.981,3.981,0,0,0,1.154-.27l3.839-1.587a1.443,1.443,0,0,0,.782-.627.908.908,0,0,0-.035-.841,2.541,2.541,0,0,0-.689-.786,6.923,6.923,0,0,0-1.162-.736L12.378,25.607a.939.939,0,0,0-.829-.021l-6.8,2.58-.025.011a.438.438,0,0,0-.24.384A.445.445,0,0,0,4.73,28.953Z" transform="translate(-2.887 -16.485)" fill="none" stroke="#231f20" stroke-width="0.23"/>
    <path id="Path_16184" data-name="Path 16184" d="M29.206,19.326l20.9,10.7a.481.481,0,0,0,.4.016l5.481-2.266A.433.433,0,0,0,56.059,27L52.752,24.95a.482.482,0,0,0-.435-.036l-3.03,1.232-4.318-2.163,1.632-.65a.434.434,0,0,0,.03-.8l-3.2-1.577a.485.485,0,0,0-.39-.016l-2.324.913L36.3,19.639l2.294-.883a.438.438,0,0,0,.288-.41.445.445,0,0,0-.292-.411l-3.683-1.423a.482.482,0,0,0-.345,0h0l-5.31,2.013a.434.434,0,0,0-.045.8" transform="translate(-18.628 -10.654)" fill="#fff"/>
    <path id="Path_16185" data-name="Path 16185" d="M29.206,19.326l20.9,10.7a.481.481,0,0,0,.4.016l5.481-2.266A.433.433,0,0,0,56.059,27L52.752,24.95a.482.482,0,0,0-.435-.036l-3.03,1.232-4.318-2.163,1.632-.65a.434.434,0,0,0,.03-.8l-3.2-1.577a.485.485,0,0,0-.39-.016l-2.324.913L36.3,19.639l2.294-.883a.438.438,0,0,0,.288-.41.445.445,0,0,0-.292-.411l-3.683-1.423a.482.482,0,0,0-.345,0h0l-5.31,2.013a.434.434,0,0,0-.045.8Z" transform="translate(-18.628 -10.654)" fill="none" stroke="#231f20" stroke-width="0.23"/>
    <path id="Path_16186" data-name="Path 16186" d="M53.366,11.865a4.989,4.989,0,0,0,.98.6l15.672,7.628a15.85,15.85,0,0,0,1.787.754,8.11,8.11,0,0,0,1.577.385c.133.017.264.03.394.039a5.252,5.252,0,0,0,1.052-.035,5.506,5.506,0,0,0,1.376-.378l2.416-1a.433.433,0,0,0,.058-.781L75.34,17.093a.484.484,0,0,0-.428-.032l-2.2.9a.339.339,0,0,1-.093.023.475.475,0,0,1-.108,0,.88.88,0,0,1-.142-.038,1.736,1.736,0,0,1-.177-.075L59.376,11.75l1.5-.579a.438.438,0,0,0,.288-.413.445.445,0,0,0-.3-.41L57.079,8.941a.239.239,0,0,0-.17,0l-3.3,1.251a1.368,1.368,0,0,0-.62.413.662.662,0,0,0-.1.64,1.464,1.464,0,0,0,.482.619" transform="translate(-33.991 -5.77)" fill="#fff"/>
    <path id="Path_16187" data-name="Path 16187" d="M53.366,11.865a4.989,4.989,0,0,0,.98.6l15.672,7.628a15.85,15.85,0,0,0,1.787.754,8.11,8.11,0,0,0,1.577.385c.133.017.264.03.394.039a5.252,5.252,0,0,0,1.052-.035,5.506,5.506,0,0,0,1.376-.378l2.416-1a.433.433,0,0,0,.058-.781L75.34,17.093a.484.484,0,0,0-.428-.032l-2.2.9a.339.339,0,0,1-.093.023.475.475,0,0,1-.108,0,.88.88,0,0,1-.142-.038,1.736,1.736,0,0,1-.177-.075L59.376,11.75l1.5-.579a.438.438,0,0,0,.288-.413.445.445,0,0,0-.3-.41L57.079,8.941a.239.239,0,0,0-.17,0l-3.3,1.251a1.368,1.368,0,0,0-.62.413.662.662,0,0,0-.1.64A1.464,1.464,0,0,0,53.366,11.865Z" transform="translate(-33.991 -5.77)" fill="none" stroke="#231f20" stroke-width="0.23"/>
    <path id="Path_16188" data-name="Path 16188" d="M70.792,2.783l2.956,1.94a.482.482,0,0,0,.442.049L75.925,4.1l16.851,8.88a.491.491,0,0,0,.171.043.482.482,0,0,0,.215-.035L96.821,11.4A.435.435,0,0,0,97.1,11a.439.439,0,0,0-.267-.408L79.456,2.746l.844-.325A.436.436,0,0,0,80.588,2a.442.442,0,0,0-.31-.4L76.344.179A1.349,1.349,0,0,0,75.458.2h0L70.883,2.009a.443.443,0,0,0-.288.358.437.437,0,0,0,.2.416" transform="translate(-45.407 -0.075)" fill="#fff"/>
    <path id="Path_16189" data-name="Path 16189" d="M70.792,2.783l2.956,1.94a.482.482,0,0,0,.442.049L75.925,4.1l16.851,8.88a.491.491,0,0,0,.171.043.482.482,0,0,0,.215-.035L96.821,11.4A.435.435,0,0,0,97.1,11a.439.439,0,0,0-.267-.408L79.456,2.746l.844-.325A.436.436,0,0,0,80.588,2a.442.442,0,0,0-.31-.4L76.344.179A1.349,1.349,0,0,0,75.458.2h0L70.883,2.009a.443.443,0,0,0-.288.358A.437.437,0,0,0,70.792,2.783Z" transform="translate(-45.407 -0.075)" fill="none" stroke="#231f20" stroke-width="0.23"/>
    <path id="Path_16190" data-name="Path 16190" d="M70.505,59.945a.625.625,0,0,0-.562-.042L66.6,61.291a.564.564,0,0,0-.357.542l.306,8.033a.118.118,0,0,1-.117.13.123.123,0,0,1-.146-.1l-1.542-7.079a.577.577,0,0,0-.313-.393.621.621,0,0,0-.516-.017l-3.2,1.331a.569.569,0,0,0-.357.548l1.448,28.85a.768.768,0,0,0,.4.63.841.841,0,0,0,.77.029h0l2.5-1.175a.565.565,0,0,0,.332-.533l-.332-7.807a.118.118,0,0,1,.116-.13.123.123,0,0,1,.147.1l1.539,6.73a.577.577,0,0,0,.326.395.622.622,0,0,0,.526,0l3.187-1.5a.567.567,0,0,0,.332-.526l-.865-28.938a.569.569,0,0,0-.279-.468" transform="translate(-38.823 -38.694)" fill="#1d1e1c"/>
    <path id="Path_16191" data-name="Path 16191" d="M70.505,59.945a.625.625,0,0,0-.562-.042L66.6,61.291a.564.564,0,0,0-.357.542l.306,8.033a.118.118,0,0,1-.117.13.123.123,0,0,1-.146-.1l-1.542-7.079a.577.577,0,0,0-.313-.393.621.621,0,0,0-.516-.017l-3.2,1.331a.569.569,0,0,0-.357.548l1.448,28.85a.768.768,0,0,0,.4.63.841.841,0,0,0,.77.029h0l2.5-1.175a.565.565,0,0,0,.332-.533l-.332-7.807a.118.118,0,0,1,.116-.13.123.123,0,0,1,.147.1l1.539,6.73a.577.577,0,0,0,.326.395.622.622,0,0,0,.526,0l3.187-1.5a.567.567,0,0,0,.332-.526l-.865-28.938A.569.569,0,0,0,70.505,59.945Z" transform="translate(-38.823 -38.694)" fill="none" stroke="#231f20" stroke-width="0.23"/>
    <path id="Path_16192" data-name="Path 16192" d="M100.638,61.837a.087.087,0,0,1,0-.033l2.317-14.974a.537.537,0,0,0-.22-.515.6.6,0,0,0-.578-.068l-3,1.246a.548.548,0,0,0-.338.439l-.994,8.739a.1.1,0,0,1-.1.09.1.1,0,0,1-.107-.087l-1.158-7.305a.547.547,0,0,0-.29-.4.593.593,0,0,0-.507-.023l-3.2,1.33a.54.54,0,0,0-.329.61l2.912,13.188a.093.093,0,0,1,0,.034h0L92.873,79.644a.536.536,0,0,0,.234.517.594.594,0,0,0,.588.047l2.964-1.392a.542.542,0,0,0,.314-.428l.912-8.041a.1.1,0,0,1,.1-.09.1.1,0,0,1,.108.086l1.086,6.5a.546.546,0,0,0,.3.4.59.59,0,0,0,.517.006l2.974-1.4a.539.539,0,0,0,.308-.588Z" transform="translate(-59.255 -29.868)" fill="#1d1e1c"/>
    <path id="Path_16193" data-name="Path 16193" d="M100.638,61.837a.087.087,0,0,1,0-.033l2.317-14.974a.537.537,0,0,0-.22-.515.6.6,0,0,0-.578-.068l-3,1.246a.548.548,0,0,0-.338.439l-.994,8.739a.1.1,0,0,1-.1.09.1.1,0,0,1-.107-.087l-1.158-7.305a.547.547,0,0,0-.29-.4.593.593,0,0,0-.507-.023l-3.2,1.33a.54.54,0,0,0-.329.61l2.912,13.188a.093.093,0,0,1,0,.034h0L92.873,79.644a.536.536,0,0,0,.234.517.594.594,0,0,0,.588.047l2.964-1.392a.542.542,0,0,0,.314-.428l.912-8.041a.1.1,0,0,1,.1-.09.1.1,0,0,1,.108.086l1.086,6.5a.546.546,0,0,0,.3.4.59.59,0,0,0,.517.006l2.974-1.4a.539.539,0,0,0,.308-.588Z" transform="translate(-59.255 -29.868)" fill="none" stroke="#231f20" stroke-width="0.23"/>
    <path id="Path_16194" data-name="Path 16194" d="M131.558,36.119a.444.444,0,0,0-.236-.323.482.482,0,0,0-.411-.019l-6.44,2.677a.443.443,0,0,0-.272.34l-.871,5.625a.435.435,0,0,0,.179.419.485.485,0,0,0,.471.052l1.759-.752L125.754,67a.441.441,0,0,0,.22.378.482.482,0,0,0,.451.022l3.1-1.454a.437.437,0,0,0,.258-.392l.156-23.2,2.123-.905a.438.438,0,0,0,.268-.468Z" transform="translate(-79.325 -23.105)" fill="#1d1e1c"/>
    <path id="Path_16195" data-name="Path 16195" d="M131.558,36.119a.444.444,0,0,0-.236-.323.482.482,0,0,0-.411-.019l-6.44,2.677a.443.443,0,0,0-.272.34l-.871,5.625a.435.435,0,0,0,.179.419.485.485,0,0,0,.471.052l1.759-.752L125.754,67a.441.441,0,0,0,.22.378.482.482,0,0,0,.451.022l3.1-1.454a.437.437,0,0,0,.258-.392l.156-23.2,2.123-.905a.438.438,0,0,0,.268-.468Z" transform="translate(-79.325 -23.105)" fill="none" stroke="#231f20" stroke-width="0.23"/>
    <path id="Path_16196" data-name="Path 16196" d="M72.095,59.324a.623.623,0,0,0-.561-.042L68.2,60.668a.564.564,0,0,0-.356.541l.306,8.021a.118.118,0,0,1-.117.13.123.123,0,0,1-.146-.1l-1.54-7.067a.577.577,0,0,0-.312-.392.621.621,0,0,0-.515-.017l-3.2,1.329a.57.57,0,0,0-.357.548l1.446,28.8a.768.768,0,0,0,.4.629.846.846,0,0,0,.359.106.835.835,0,0,0,.41-.077h0l2.5-1.173a.565.565,0,0,0,.331-.532l-.331-7.794a.118.118,0,0,1,.116-.13.123.123,0,0,1,.147.1l1.536,6.72a.578.578,0,0,0,.326.394.621.621,0,0,0,.525,0l3.182-1.5a.565.565,0,0,0,.331-.525l-.863-28.892a.568.568,0,0,0-.278-.467" transform="translate(-39.856 -38.293)" fill="#fff"/>
    <path id="Path_16197" data-name="Path 16197" d="M72.095,59.324a.623.623,0,0,0-.561-.042L68.2,60.668a.564.564,0,0,0-.356.541l.306,8.021a.118.118,0,0,1-.117.13.123.123,0,0,1-.146-.1l-1.54-7.067a.577.577,0,0,0-.312-.392.621.621,0,0,0-.515-.017l-3.2,1.329a.57.57,0,0,0-.357.548l1.446,28.8a.768.768,0,0,0,.4.629.846.846,0,0,0,.359.106.835.835,0,0,0,.41-.077h0l2.5-1.173a.565.565,0,0,0,.331-.532l-.331-7.794a.118.118,0,0,1,.116-.13.123.123,0,0,1,.147.1l1.536,6.72a.578.578,0,0,0,.326.394.621.621,0,0,0,.525,0l3.182-1.5a.565.565,0,0,0,.331-.525l-.863-28.892A.568.568,0,0,0,72.095,59.324Z" transform="translate(-39.856 -38.293)" fill="none" stroke="#231f20" stroke-width="0.23"/>
    <path id="Path_16198" data-name="Path 16198" d="M102.228,61.193a.094.094,0,0,1,0-.033l2.313-14.952a.536.536,0,0,0-.219-.514.6.6,0,0,0-.577-.068l-2.993,1.244a.546.546,0,0,0-.338.438l-.992,8.726a.1.1,0,0,1-.1.09.1.1,0,0,1-.107-.087l-1.156-7.294a.545.545,0,0,0-.289-.4.593.593,0,0,0-.506-.024L94.065,49.65a.539.539,0,0,0-.329.609l2.908,13.169a.09.09,0,0,1,0,.034h0L94.474,78.974a.536.536,0,0,0,.234.517.594.594,0,0,0,.3.1.6.6,0,0,0,.291-.055l2.959-1.39a.541.541,0,0,0,.313-.428l.911-8.03a.1.1,0,0,1,.1-.091.1.1,0,0,1,.108.086l1.084,6.487a.546.546,0,0,0,.3.4.59.59,0,0,0,.516.006l2.97-1.4a.538.538,0,0,0,.307-.587Z" transform="translate(-60.285 -29.467)" fill="#fff"/>
    <path id="Path_16199" data-name="Path 16199" d="M102.228,61.193a.094.094,0,0,1,0-.033l2.313-14.952a.536.536,0,0,0-.219-.514.6.6,0,0,0-.577-.068l-2.993,1.244a.546.546,0,0,0-.338.438l-.992,8.726a.1.1,0,0,1-.1.09.1.1,0,0,1-.107-.087l-1.156-7.294a.545.545,0,0,0-.289-.4.593.593,0,0,0-.506-.024L94.065,49.65a.539.539,0,0,0-.329.609l2.908,13.169a.09.09,0,0,1,0,.034h0L94.474,78.974a.536.536,0,0,0,.234.517.594.594,0,0,0,.3.1.6.6,0,0,0,.291-.055l2.959-1.39a.541.541,0,0,0,.313-.428l.911-8.03a.1.1,0,0,1,.1-.091.1.1,0,0,1,.108.086l1.084,6.487a.546.546,0,0,0,.3.4.59.59,0,0,0,.516.006l2.97-1.4a.538.538,0,0,0,.307-.587Z" transform="translate(-60.285 -29.467)" fill="none" stroke="#231f20" stroke-width="0.23"/>
    <path id="Path_16200" data-name="Path 16200" d="M133.1,35.519a.443.443,0,0,0-.235-.323.48.48,0,0,0-.411-.019l-6.433,2.674a.442.442,0,0,0-.272.339l-.869,5.619a.434.434,0,0,0,.179.419.483.483,0,0,0,.471.052l1.757-.751.015,22.835a.439.439,0,0,0,.22.377.476.476,0,0,0,.215.066.482.482,0,0,0,.236-.045l3.093-1.453a.437.437,0,0,0,.257-.392l.156-23.174,2.121-.9a.438.438,0,0,0,.268-.468Z" transform="translate(-80.321 -22.717)" fill="#fff"/>
    <path id="Path_16201" data-name="Path 16201" d="M133.1,35.519a.443.443,0,0,0-.235-.323.48.48,0,0,0-.411-.019l-6.433,2.674a.442.442,0,0,0-.272.339l-.869,5.619a.434.434,0,0,0,.179.419.483.483,0,0,0,.471.052l1.757-.751.015,22.835a.439.439,0,0,0,.22.377.476.476,0,0,0,.215.066.482.482,0,0,0,.236-.045l3.093-1.453a.437.437,0,0,0,.257-.392l.156-23.174,2.121-.9a.438.438,0,0,0,.268-.468Z" transform="translate(-80.321 -22.717)" fill="none" stroke="#231f20" stroke-width="0.23"/>
    <path id="Path_16202" data-name="Path 16202" d="M26.182,113.537l-5.018-3.244-.171-2.729a4.581,4.581,0,0,0-.29-1.352,4.684,4.684,0,0,0-.635-1.137,6.029,6.029,0,0,0-.9-.942,8.889,8.889,0,0,0-1.072-.781L9.079,97.69a4.544,4.544,0,0,0-.944-.469,1.466,1.466,0,0,0-.79-.075.774.774,0,0,0-.543.45,1.7,1.7,0,0,0-.1.844l.554,6.154a.44.44,0,0,0,.2.328L25.95,117.1a.475.475,0,0,0,.233.078.483.483,0,0,0,.256-.054.434.434,0,0,0,.237-.407l-.133-2.569a.781.781,0,0,0-.361-.611m-8.733-5.647-6.865-4.439-.113-1.35,6.58,4.207c.065.042.12.08.166.116a.505.505,0,0,1,.088.086.241.241,0,0,1,.041.077.5.5,0,0,1,.022.125Z" transform="translate(-4.305 -62.785)" fill="#1d1e1c"/>
    <path id="Path_16203" data-name="Path 16203" d="M26.182,113.537l-5.018-3.244-.171-2.729a4.581,4.581,0,0,0-.29-1.352,4.684,4.684,0,0,0-.635-1.137,6.029,6.029,0,0,0-.9-.942,8.889,8.889,0,0,0-1.072-.781L9.079,97.69a4.544,4.544,0,0,0-.944-.469,1.466,1.466,0,0,0-.79-.075.774.774,0,0,0-.543.45,1.7,1.7,0,0,0-.1.844l.554,6.154a.44.44,0,0,0,.2.328L25.95,117.1a.475.475,0,0,0,.233.078.483.483,0,0,0,.256-.054.434.434,0,0,0,.237-.407l-.133-2.569A.781.781,0,0,0,26.182,113.537Zm-8.733-5.647-6.865-4.439-.113-1.35,6.58,4.207c.065.042.12.08.166.116a.505.505,0,0,1,.088.086.241.241,0,0,1,.041.077.5.5,0,0,1,.022.125Z" transform="translate(-4.305 -62.785)" fill="none" stroke="#231f20" stroke-width="0.23"/>
    <path id="Path_16204" data-name="Path 16204" d="M24.121,88.9a.477.477,0,0,0,.261-.057.434.434,0,0,0,.232-.4l-.151-2.917a.442.442,0,0,0-.215-.353l-6.309-3.848,5.767,2.04a.48.48,0,0,0,.434-.057.431.431,0,0,0,.188-.377l-.165-3.182a.451.451,0,0,0-.319-.4l-6.165-1.956a2.63,2.63,0,0,0-.2-.674,3.836,3.836,0,0,0-.46-.774,4.87,4.87,0,0,0-.615-.668,4.385,4.385,0,0,0-.69-.511L6.83,69.516a4.567,4.567,0,0,0-1.03-.471,1.433,1.433,0,0,0-.858-.025.893.893,0,0,0-.552.561A2.308,2.308,0,0,0,4.3,70.595l.556,6.172a.44.44,0,0,0,.21.334L23.9,88.828a.485.485,0,0,0,.223.072M8.1,73.972l5.765,3.475a1.551,1.551,0,0,1,.164.111.513.513,0,0,1,.09.088.276.276,0,0,1,.044.082.444.444,0,0,1,.022.119l.088,1.234L8.221,75.389Z" transform="translate(-2.757 -44.584)" fill="#1d1e1c"/>
    <path id="Path_16205" data-name="Path 16205" d="M24.121,88.9a.477.477,0,0,0,.261-.057.434.434,0,0,0,.232-.4l-.151-2.917a.442.442,0,0,0-.215-.353l-6.309-3.848,5.767,2.04a.48.48,0,0,0,.434-.057.431.431,0,0,0,.188-.377l-.165-3.182a.451.451,0,0,0-.319-.4l-6.165-1.956a2.63,2.63,0,0,0-.2-.674,3.836,3.836,0,0,0-.46-.774,4.87,4.87,0,0,0-.615-.668,4.385,4.385,0,0,0-.69-.511L6.83,69.516a4.567,4.567,0,0,0-1.03-.471,1.433,1.433,0,0,0-.858-.025.893.893,0,0,0-.552.561A2.308,2.308,0,0,0,4.3,70.595l.556,6.172a.44.44,0,0,0,.21.334L23.9,88.828A.485.485,0,0,0,24.121,88.9ZM8.1,73.972l5.765,3.475a1.551,1.551,0,0,1,.164.111.513.513,0,0,1,.09.088.276.276,0,0,1,.044.082.444.444,0,0,1,.022.119l.088,1.234L8.221,75.389Z" transform="translate(-2.757 -44.584)" fill="none" stroke="#231f20" stroke-width="0.23"/>
    <path id="Path_16206" data-name="Path 16206" d="M3.745,48.576a6.773,6.773,0,0,0,1.036.739l14.295,8.357a6.925,6.925,0,0,0,1.165.56,2.764,2.764,0,0,0,.726.162,1.553,1.553,0,0,0,.316-.01,1.03,1.03,0,0,0,.785-.524,2.256,2.256,0,0,0,.207-1.233l-.219-4.238a4.566,4.566,0,0,0-.33-1.494,4.91,4.91,0,0,0-.742-1.243,6.42,6.42,0,0,0-1.027-1,8.814,8.814,0,0,0-1.188-.778L4.243,39.884a4.359,4.359,0,0,0-1.051-.434,1.424,1.424,0,0,0-.872.024.961.961,0,0,0-.546.6,2.515,2.515,0,0,0-.085,1.058l.387,4.3a4.463,4.463,0,0,0,.275,1.2,4.563,4.563,0,0,0,.57,1.048,5.366,5.366,0,0,0,.823.895m1.811-4.032,12.07,6.805a1.938,1.938,0,0,1,.179.111.462.462,0,0,1,.092.084.234.234,0,0,1,.042.079.567.567,0,0,1,.024.141l.077,1.307-.054-.03L5.939,46.156a1.053,1.053,0,0,1-.127-.084.5.5,0,0,1-.081-.079.31.31,0,0,1-.045-.08.367.367,0,0,1-.023-.1Z" transform="translate(-1.076 -25.467)" fill="#1d1e1c"/>
    <path id="Path_16207" data-name="Path 16207" d="M3.745,48.576a6.773,6.773,0,0,0,1.036.739l14.295,8.357a6.925,6.925,0,0,0,1.165.56,2.764,2.764,0,0,0,.726.162,1.553,1.553,0,0,0,.316-.01,1.03,1.03,0,0,0,.785-.524,2.256,2.256,0,0,0,.207-1.233l-.219-4.238a4.566,4.566,0,0,0-.33-1.494,4.91,4.91,0,0,0-.742-1.243,6.42,6.42,0,0,0-1.027-1,8.814,8.814,0,0,0-1.188-.778L4.243,39.884a4.359,4.359,0,0,0-1.051-.434,1.424,1.424,0,0,0-.872.024.961.961,0,0,0-.546.6,2.515,2.515,0,0,0-.085,1.058l.387,4.3a4.463,4.463,0,0,0,.275,1.2,4.563,4.563,0,0,0,.57,1.048A5.366,5.366,0,0,0,3.745,48.576Zm1.811-4.032,12.07,6.805a1.938,1.938,0,0,1,.179.111.462.462,0,0,1,.092.084.234.234,0,0,1,.042.079.567.567,0,0,1,.024.141l.077,1.307-.054-.03L5.939,46.156a1.053,1.053,0,0,1-.127-.084.5.5,0,0,1-.081-.079.31.31,0,0,1-.045-.08.367.367,0,0,1-.023-.1Z" transform="translate(-1.076 -25.467)" fill="none" stroke="#231f20" stroke-width="0.23"/>
    <path id="Path_16208" data-name="Path 16208" d="M24.626,114.158l-5.018-3.245-.171-2.729a4.58,4.58,0,0,0-.29-1.352,4.683,4.683,0,0,0-.635-1.137,6.029,6.029,0,0,0-.9-.942,8.888,8.888,0,0,0-1.072-.781l-9.02-5.661a4.545,4.545,0,0,0-.944-.469,1.466,1.466,0,0,0-.79-.075.774.774,0,0,0-.543.45,1.7,1.7,0,0,0-.1.844l.554,6.154a.44.44,0,0,0,.2.328l18.491,12.177a.477.477,0,0,0,.233.078.483.483,0,0,0,.256-.054.434.434,0,0,0,.237-.407l-.133-2.569a.781.781,0,0,0-.361-.611m-8.733-5.647-6.865-4.439-.113-1.35,6.58,4.207c.065.042.12.08.166.116a.506.506,0,0,1,.088.086.242.242,0,0,1,.041.077.514.514,0,0,1,.022.125Z" transform="translate(-3.304 -63.187)" fill="#fff"/>
    <path id="Path_16209" data-name="Path 16209" d="M24.626,114.158l-5.018-3.245-.171-2.729a4.58,4.58,0,0,0-.29-1.352,4.683,4.683,0,0,0-.635-1.137,6.029,6.029,0,0,0-.9-.942,8.888,8.888,0,0,0-1.072-.781l-9.02-5.661a4.545,4.545,0,0,0-.944-.469,1.466,1.466,0,0,0-.79-.075.774.774,0,0,0-.543.45,1.7,1.7,0,0,0-.1.844l.554,6.154a.44.44,0,0,0,.2.328l18.491,12.177a.477.477,0,0,0,.233.078.483.483,0,0,0,.256-.054.434.434,0,0,0,.237-.407l-.133-2.569A.781.781,0,0,0,24.626,114.158Zm-8.733-5.647-6.865-4.439-.113-1.35,6.58,4.207c.065.042.12.08.166.116a.506.506,0,0,1,.088.086.242.242,0,0,1,.041.077.514.514,0,0,1,.022.125Z" transform="translate(-3.304 -63.187)" fill="none" stroke="#231f20" stroke-width="0.23"/>
    <path id="Path_16210" data-name="Path 16210" d="M22.564,89.522a.477.477,0,0,0,.261-.057.434.434,0,0,0,.232-.4l-.151-2.917a.442.442,0,0,0-.215-.353l-6.309-3.848,5.767,2.04a.48.48,0,0,0,.434-.057.431.431,0,0,0,.188-.377l-.165-3.182a.451.451,0,0,0-.319-.4L16.122,78.01a2.63,2.63,0,0,0-.2-.674,3.836,3.836,0,0,0-.46-.774,4.871,4.871,0,0,0-.615-.668,4.388,4.388,0,0,0-.69-.511L5.273,70.138a4.566,4.566,0,0,0-1.03-.471,1.433,1.433,0,0,0-.858-.025.894.894,0,0,0-.552.561,2.308,2.308,0,0,0-.088,1.014L3.3,77.389a.44.44,0,0,0,.21.334L22.341,89.45a.485.485,0,0,0,.223.072M6.546,74.594l5.765,3.475a1.556,1.556,0,0,1,.164.111.513.513,0,0,1,.09.088.276.276,0,0,1,.044.082.444.444,0,0,1,.022.119l.088,1.235L6.664,76.011Z" transform="translate(-1.755 -44.986)" fill="#fff"/>
    <path id="Path_16211" data-name="Path 16211" d="M22.564,89.522a.477.477,0,0,0,.261-.057.434.434,0,0,0,.232-.4l-.151-2.917a.442.442,0,0,0-.215-.353l-6.309-3.848,5.767,2.04a.48.48,0,0,0,.434-.057.431.431,0,0,0,.188-.377l-.165-3.182a.451.451,0,0,0-.319-.4L16.122,78.01a2.63,2.63,0,0,0-.2-.674,3.836,3.836,0,0,0-.46-.774,4.871,4.871,0,0,0-.615-.668,4.388,4.388,0,0,0-.69-.511L5.273,70.138a4.566,4.566,0,0,0-1.03-.471,1.433,1.433,0,0,0-.858-.025.894.894,0,0,0-.552.561,2.308,2.308,0,0,0-.088,1.014L3.3,77.389a.44.44,0,0,0,.21.334L22.341,89.45A.485.485,0,0,0,22.564,89.522ZM6.546,74.594l5.765,3.475a1.556,1.556,0,0,1,.164.111.513.513,0,0,1,.09.088.276.276,0,0,1,.044.082.444.444,0,0,1,.022.119l.088,1.235L6.664,76.011Z" transform="translate(-1.755 -44.986)" fill="none" stroke="#231f20" stroke-width="0.23"/>
    <path id="Path_16212" data-name="Path 16212" d="M2.188,49.2a6.773,6.773,0,0,0,1.036.739l14.295,8.357a6.924,6.924,0,0,0,1.165.56,2.763,2.763,0,0,0,.726.162,1.552,1.552,0,0,0,.316-.01,1.03,1.03,0,0,0,.785-.524,2.256,2.256,0,0,0,.207-1.233L20.5,53.009a4.566,4.566,0,0,0-.33-1.494,4.91,4.91,0,0,0-.742-1.243,6.405,6.405,0,0,0-1.027-1,8.815,8.815,0,0,0-1.188-.778L2.686,40.5a4.36,4.36,0,0,0-1.051-.434,1.424,1.424,0,0,0-.872.024.961.961,0,0,0-.546.6,2.515,2.515,0,0,0-.085,1.058l.387,4.3a4.477,4.477,0,0,0,.275,1.2A4.578,4.578,0,0,0,1.366,48.3a5.366,5.366,0,0,0,.823.895M4,45.165,16.07,51.97a1.953,1.953,0,0,1,.179.111.455.455,0,0,1,.092.084.234.234,0,0,1,.042.079.567.567,0,0,1,.024.141l.077,1.307-.054-.03L4.382,46.777a1.1,1.1,0,0,1-.127-.084.5.5,0,0,1-.081-.079.31.31,0,0,1-.045-.08.368.368,0,0,1-.023-.1Z" transform="translate(-0.074 -25.868)" fill="#fff"/>
    <path id="Path_16213" data-name="Path 16213" d="M2.188,49.2a6.773,6.773,0,0,0,1.036.739l14.295,8.357a6.924,6.924,0,0,0,1.165.56,2.763,2.763,0,0,0,.726.162,1.552,1.552,0,0,0,.316-.01,1.03,1.03,0,0,0,.785-.524,2.256,2.256,0,0,0,.207-1.233L20.5,53.009a4.566,4.566,0,0,0-.33-1.494,4.91,4.91,0,0,0-.742-1.243,6.405,6.405,0,0,0-1.027-1,8.815,8.815,0,0,0-1.188-.778L2.686,40.5a4.36,4.36,0,0,0-1.051-.434,1.424,1.424,0,0,0-.872.024.961.961,0,0,0-.546.6,2.515,2.515,0,0,0-.085,1.058l.387,4.3a4.477,4.477,0,0,0,.275,1.2A4.578,4.578,0,0,0,1.366,48.3,5.366,5.366,0,0,0,2.188,49.2ZM4,45.165,16.07,51.97a1.953,1.953,0,0,1,.179.111.455.455,0,0,1,.092.084.234.234,0,0,1,.042.079.567.567,0,0,1,.024.141l.077,1.307-.054-.03L4.382,46.777a1.1,1.1,0,0,1-.127-.084.5.5,0,0,1-.081-.079.31.31,0,0,1-.045-.08.368.368,0,0,1-.023-.1Z" transform="translate(-0.074 -25.868)" fill="none" stroke="#231f20" stroke-width="0.23"/>
  </g>
</svg>
