<svg xmlns="http://www.w3.org/2000/svg" width="15.394" height="17.105" viewBox="0 0 15.394 17.105">
  <path id="Path_282" data-name="Path 282" d="M207.684,880.684a1.71,1.71,0,0,0,1.71-1.711v-8.552a1.71,1.71,0,0,0-1.71-1.71h-3.421a1.71,1.71,0,0,0-1.71,1.71v.855a.855.855,0,0,1-1.71,0v-.855A3.421,3.421,0,0,1,204.263,867h3.421a3.421,3.421,0,0,1,3.421,3.421v8.552a3.421,3.421,0,0,1-3.421,3.421h-3.421a3.421,3.421,0,0,1-3.421-3.421v-.855a.855.855,0,1,1,1.71,0v.855a1.71,1.71,0,0,0,1.71,1.711Zm-8.8-1.961a.854.854,0,0,1-1.209,0l-3.421-3.421a.854.854,0,0,1,0-1.209l3.421-3.421a.855.855,0,1,1,1.209,1.209l-1.961,1.961h9.909a.855.855,0,0,1,0,1.71H196.92l1.961,1.961A.854.854,0,0,1,198.881,878.722Z" transform="translate(882.394 -194) rotate(90)" fill-rule="evenodd"/>
</svg>
