<svg xmlns="http://www.w3.org/2000/svg" width="20" height="20" viewBox="0 0 20 20">
  <path id="Path_13050" data-name="Path 13050" d="M57.244,244.49A8,8,0,0,0,52.063,251h3.955a20.865,20.865,0,0,1,.912-5.68C57.026,245.032,57.131,244.754,57.244,244.49ZM60,242a10,10,0,1,0,7.071,2.929A10,10,0,0,0,60,242Zm0,2a.056.056,0,0,1,.015,0,.287.287,0,0,1,.066.032,1.248,1.248,0,0,1,.3.291,5.539,5.539,0,0,1,.79,1.626A18.828,18.828,0,0,1,61.981,251H58.019a18.828,18.828,0,0,1,.808-5.048,5.539,5.539,0,0,1,.79-1.626,1.248,1.248,0,0,1,.3-.291.287.287,0,0,1,.066-.032A.061.061,0,0,1,60,244Zm-3.982,9H52.063a8,8,0,0,0,5.181,6.51c-.113-.264-.218-.542-.314-.83A20.865,20.865,0,0,1,56.018,253ZM60,260a.057.057,0,0,1-.015,0,.289.289,0,0,1-.066-.032,1.248,1.248,0,0,1-.3-.291,5.54,5.54,0,0,1-.79-1.626A18.828,18.828,0,0,1,58.019,253h3.962a18.828,18.828,0,0,1-.808,5.048,5.54,5.54,0,0,1-.79,1.626,1.248,1.248,0,0,1-.3.291.289.289,0,0,1-.066.032A.061.061,0,0,1,60,260l2.756-.49A8,8,0,0,0,67.937,253H63.982a20.865,20.865,0,0,1-.912,5.68c-.1.288-.2.566-.314.83M63.982,251a20.865,20.865,0,0,0-.912-5.68c-.1-.288-.2-.566-.314-.83A8,8,0,0,1,67.937,251Z" transform="translate(-50 -242)" fill="#fff" fill-rule="evenodd"/>
</svg>
