<svg xmlns="http://www.w3.org/2000/svg" width="24.177" height="26.863" viewBox="0 0 24.177 26.863">
  <path id="Path_92" data-name="Path 92" d="M59.084,5.58a4.03,4.03,0,0,1,8.009,0,9.4,9.4,0,0,1,5.4,8.509v4.242a1.386,1.386,0,0,0,.406.98L74.784,21.2a1.343,1.343,0,0,1-.95,2.293H68.461a5.373,5.373,0,0,1-10.745,0H52.343a1.343,1.343,0,0,1-.95-2.293l1.887-1.887a1.386,1.386,0,0,0,.406-.98V14.088A9.4,9.4,0,0,1,59.084,5.58ZM60.4,23.491a2.686,2.686,0,0,0,5.373,0Zm2.686-18.8a1.343,1.343,0,0,0-1.343,1.343v.459a1.343,1.343,0,0,1-.9,1.266,6.719,6.719,0,0,0-4.477,6.334v4.242a4.072,4.072,0,0,1-.837,2.473H70.642a4.072,4.072,0,0,1-.837-2.473V14.088a6.719,6.719,0,0,0-4.477-6.334,1.343,1.343,0,0,1-.9-1.266V6.029A1.343,1.343,0,0,0,63.088,4.686Z" transform="translate(-51 -2)" fill-rule="evenodd"/>
</svg>
