<svg xmlns="http://www.w3.org/2000/svg" width="20" height="20" viewBox="0 0 20 20">
  <path id="Path_13124" data-name="Path 13124" d="M295,100a3,3,0,0,0-3,3v5a.994.994,0,0,0,.339.75l.023.021,7,7a1,1,0,0,0,1.284,0l6.974-6.974c.014-.015.03-.029.045-.043a1,1,0,0,0,.106-1.392l-6.974-6.974c-.015-.014-.029-.03-.043-.045A.994.994,0,0,0,300,100Zm-5,3a5,5,0,0,1,5-5h5a3,3,0,0,1,2.227.99l6.98,6.98.043.045a3,3,0,0,1-.24,4.212l-6.98,6.98-.045.043a3,3,0,0,1-3.97,0l-.045-.043-6.98-6.98A2.993,2.993,0,0,1,290,108Zm4,0a1,1,0,0,1,1-1h.01a1,1,0,0,1,0,2H295A1,1,0,0,1,294,103Z" transform="translate(-290 -98)" fill-rule="evenodd"/>
</svg>
