<svg xmlns="http://www.w3.org/2000/svg" width="20" height="20" viewBox="0 0 20 20">
  <g id="Group_17826" data-name="Group 17826" transform="translate(-380.339 -134)">
    <path id="Path_140" data-name="Path 140" d="M243,102.333A3.333,3.333,0,0,1,246.333,99h13.333A3.333,3.333,0,0,1,263,102.333v13.333A3.333,3.333,0,0,1,259.667,119H246.333A3.333,3.333,0,0,1,243,115.667v-2.222h0Zm2.222,11.571v1.762a1.112,1.112,0,0,0,1.111,1.111h13.333a1.112,1.112,0,0,0,1.111-1.111v-3.984l-1.437-1.437a1.112,1.112,0,0,0-1.571,0l-.977.977,1.437,1.437a1.111,1.111,0,1,1-1.571,1.571l-2.222-2.222h0l-2.873-2.873a1.112,1.112,0,0,0-1.571,0Zm10-4.253-2.088-2.088a3.334,3.334,0,0,0-4.713,0l-3.2,3.2v-8.429a1.112,1.112,0,0,1,1.111-1.111h13.333a1.112,1.112,0,0,1,1.111,1.111v6.213a3.333,3.333,0,0,0-4.579.128Zm-1.111-5.1a1.111,1.111,0,0,1,1.111-1.111h.011a1.111,1.111,0,1,1,0,2.222h-.011A1.111,1.111,0,0,1,254.111,104.556Z" transform="translate(137.339 35)" fill-rule="evenodd"/>
  </g>
</svg>
