<svg xmlns="http://www.w3.org/2000/svg" width="20.142" height="24.654" viewBox="0 0 20.142 24.654">
  <g id="user-2" transform="translate(-2.118 -1)">
    <path id="Path_16342" data-name="Path 16342" d="M12.19,12a6.1,6.1,0,0,0,6.19-6,6.1,6.1,0,0,0-6.19-6A6.1,6.1,0,0,0,6,6a6.1,6.1,0,0,0,6.19,6Zm0-10a4.065,4.065,0,0,1,4.126,4,4.065,4.065,0,0,1-4.126,4A4.065,4.065,0,0,1,8.063,6,4.065,4.065,0,0,1,12.19,2Z" transform="translate(0 1)" fill="#7f7f7f"/>
    <path id="Path_16343" data-name="Path 16343" d="M13.071,14C7.512,14.006,3.006,18.032,3,23a1.065,1.065,0,0,0,1.119,1,1.065,1.065,0,0,0,1.119-1c0-3.866,3.507-7,7.833-7S20.9,19.134,20.9,23a1.126,1.126,0,0,0,2.238,0C23.136,18.032,18.631,14.006,13.071,14Z" transform="translate(-0.882 1.654)" fill="#7f7f7f"/>
  </g>
</svg>
