<svg xmlns="http://www.w3.org/2000/svg" xmlns:xlink="http://www.w3.org/1999/xlink" width="32" height="32" viewBox="0 0 32 32">
  <defs>
    <clipPath id="clip-path">
      <rect id="Rectangle_1492" data-name="Rectangle 1492" width="24" height="24" transform="translate(-3163 5873)" fill="none"/>
    </clipPath>
  </defs>
  <g id="Group_17380" data-name="Group 17380" transform="translate(3167 -5869)">
    <rect id="Rectangle_1493" data-name="Rectangle 1493" width="32" height="32" transform="translate(-3167 5869)" fill="none"/>
    <g id="Mask_Group_103" data-name="Mask Group 103" clip-path="url(#clip-path)">
      <g id="Group_17381" data-name="Group 17381" transform="translate(-3161.5 5875.5)">
        <path id="Path_4552" data-name="Path 4552" d="M1.709.5H18.291A1.211,1.211,0,0,1,19.5,1.709V18.291A1.211,1.211,0,0,1,18.291,19.5H1.709A1.211,1.211,0,0,1,.5,18.291V1.709A1.211,1.211,0,0,1,1.709.5ZM18.291,19.439a1.149,1.149,0,0,0,1.148-1.148V1.709A1.149,1.149,0,0,0,18.291.561H1.709A1.149,1.149,0,0,0,.561,1.709V18.291a1.149,1.149,0,0,0,1.148,1.148Z" fill="none" stroke="#a5a5a5" stroke-width="1"/>
        <path id="Path_4553" data-name="Path 4553" d="M16.768,4.833a.589.589,0,0,1-.112.437L13.544,9.41a.589.589,0,0,1-.825.117,4.966,4.966,0,0,0-5.958,0M16.768,4.833,6.383,9.074,3.272,4.935a.031.031,0,0,1-.006-.023l-.553-.078m14.055,0a.589.589,0,0,0-.23-.388m.23.388L5.937,9.41m.825.117L6.426,9.08m.335.447a.589.589,0,0,1-.825-.117m.825.117L6.426,9.08l-.49.33m.49-.33a5.525,5.525,0,0,1,6.628,0h0a.03.03,0,0,0,.043-.006h0l3.111-4.139h0a.03.03,0,0,0,.006-.022h0a.031.031,0,0,0-.012-.02l.336-.447M6.426,9.08l-.009,0H6.408a.033.033,0,0,1-.014,0,.028.028,0,0,1-.011-.009ZM16.538,4.445l-.335.447a10.773,10.773,0,0,0-12.925,0l-.335-.447m13.6,0a11.331,11.331,0,0,0-13.6,0m0,0,.336.447a.031.031,0,0,0-.012.021l-.553-.079m.23-.388a.59.59,0,0,0-.23.388m0,0a.59.59,0,0,0,.112.437L5.937,9.41m6.711-.68.433.265.305-.406L15.8,5.383l.356-.473-.493-.328a10.714,10.714,0,0,0-11.835,0L3.33,4.91l.356.473L6.1,8.589l.305.406.433-.265A5.517,5.517,0,0,1,9.2,7.94l.506-.048v-2.3a.031.031,0,0,1,.061,0v2.3l.506.048A5.517,5.517,0,0,1,12.647,8.73Z" transform="translate(0.26 0.198)" fill="none" stroke="#a5a5a5" stroke-width="1"/>
      </g>
    </g>
  </g>
</svg>
