<svg xmlns="http://www.w3.org/2000/svg" width="52.629" height="41.514" viewBox="0 0 52.629 41.514">
  <g id="Group_18983" data-name="Group 18983" transform="translate(-180 -165)">
    <path id="Path_14727" data-name="Path 14727" d="M225.258,179.071a3.056,3.056,0,0,0-1.491-.611,3.156,3.156,0,0,0-1.614.215l-9.41,3.885-5.467-9.153a2.9,2.9,0,0,0-1.1-1.029,3.195,3.195,0,0,0-3.014,0,2.888,2.888,0,0,0-1.1,1.029L196.6,182.56l-9.41-3.885a3.179,3.179,0,0,0-1.616-.215,3.1,3.1,0,0,0-1.5.608,2.779,2.779,0,0,0-.924,1.252,2.578,2.578,0,0,0-.073,1.514l4.724,18.7a2.656,2.656,0,0,0,.5,1,2.878,2.878,0,0,0,.881.74,3.191,3.191,0,0,0,1.543.4,3.007,3.007,0,0,0,.78-.1,53.047,53.047,0,0,1,26.316,0,3.267,3.267,0,0,0,2.323-.294,2.827,2.827,0,0,0,.885-.738,2.622,2.622,0,0,0,.492-1.006l4.741-18.7a2.566,2.566,0,0,0-.077-1.514A2.777,2.777,0,0,0,225.258,179.071Z" transform="translate(1.644 3.835)" fill="#ceaa5d"/>
    <circle id="Ellipse_208" data-name="Ellipse 208" cx="6.192" cy="6.192" r="6.192" transform="translate(200.123 165)" fill="#ceaa5d"/>
    <circle id="Ellipse_209" data-name="Ellipse 209" cx="4.644" cy="4.644" r="4.644" transform="translate(201.671 188.219)" fill="#fef5bf"/>
    <circle id="Ellipse_210" data-name="Ellipse 210" cx="3.87" cy="3.87" r="3.87" transform="translate(224.89 177.383)" fill="#ceaa5d"/>
    <circle id="Ellipse_211" data-name="Ellipse 211" cx="3.87" cy="3.87" r="3.87" transform="translate(180 177.383)" fill="#ceaa5d"/>
    <circle id="Ellipse_212" data-name="Ellipse 212" cx="2.322" cy="2.322" r="2.322" transform="translate(192.383 192.863)" fill="#fef5bf"/>
    <circle id="Ellipse_213" data-name="Ellipse 213" cx="2.322" cy="2.322" r="2.322" transform="translate(215.602 192.863)" fill="#fef5bf"/>
  </g>
</svg>
